<?xml version="1.0" encoding="UTF-8"?>
<svg width="468px" height="413px" viewBox="0 0 468 413" version="1.1" xmlns="http://www.w3.org/2000/svg" xmlns:xlink="http://www.w3.org/1999/xlink">
    <!-- Generator: sketchtool 52.5 (67469) - http://www.bohemiancoding.com/sketch -->
    <title>AE9BEFE6-FCC5-4742-A66B-9C6919E8252F</title>
    <desc>Created with sketchtool.</desc>
    <g id="D_2.1_Subpages_desktop" stroke="none" stroke-width="1" fill="none" fill-rule="evenodd" opacity="0.641764323">
        <g id="D_4.0.0.0_Subpage_realtor_search" transform="translate(0.000000, -2455.000000)" fill="#006E77" fill-rule="nonzero">
            <g id="paper-plane" transform="translate(-151.000000, 2455.000000)">
                <path d="M618.83855,11.9939789 C618.879774,11.7461129 618.951917,11.4982468 618.972529,11.2503807 C619.044672,10.4861269 618.962223,9.71154537 618.869468,8.93696384 C618.848856,8.74073652 618.879774,8.55483696 618.848856,8.35860964 C618.663346,7.33616202 618.323245,6.33436991 617.818247,5.37388881 C617.735798,5.20864475 617.622431,5.05372845 617.529676,4.88848439 C617.509064,4.86782888 617.509064,4.83684562 617.498758,4.80586236 C617.488452,4.78520685 617.457533,4.7748791 617.447227,4.74389584 C617.375085,4.63029055 617.313248,4.5063575 617.241105,4.40307996 C616.602128,3.46325438 615.829171,2.68867285 614.963459,2.02769661 C614.767643,1.88310806 614.540909,1.80048603 614.334787,1.66622523 C613.572136,1.1601653 612.768261,0.747055152 611.902549,0.468205801 C611.521223,0.344272757 611.139898,0.282306235 610.748266,0.210011959 C609.995921,0.055095653 609.243576,-0.017198623 608.460313,0.0034568844 C608.048069,0.0137846381 607.656438,0.0344401455 607.244194,0.0964066678 C606.976236,0.137717683 606.718583,0.0964066678 606.450625,0.15837319 L8.22307754,124.050107 C3.96666061,124.938294 0.709934828,128.398091 0.101875267,132.715092 C-0.506184295,137.032093 1.64778941,141.266472 5.49196256,143.30104 L176.902922,233.906423 L206.965799,401.081772 C206.945187,401.205705 206.976105,401.339966 206.965799,401.463899 C206.862738,402.290119 206.852432,403.095684 206.955493,403.911577 C207.007024,404.324687 207.058554,404.717142 207.161615,405.119924 C207.398655,406.101061 207.779981,407.020231 208.295285,407.887762 C208.398346,408.053006 208.398346,408.249233 208.511713,408.414477 C208.542632,408.466116 208.594162,408.507427 208.635386,408.548738 C208.769366,408.744965 208.954875,408.899882 209.109467,409.096109 C209.593853,409.695119 210.098852,410.24249 210.675993,410.707239 C210.768748,410.779533 210.830585,410.893138 210.933645,410.965433 C211.088237,411.079038 211.26344,411.110021 211.418032,411.213299 C212.046704,411.626409 212.695988,411.967225 213.386496,412.235746 C213.66476,412.339024 213.922413,412.462957 214.210983,412.545579 C215.138532,412.8141 216.096999,413 217.065772,413 C217.076078,413 217.086384,413 217.09669,413 C217.09669,413 217.09669,413 217.09669,413 C217.137914,413 217.179139,412.979344 217.220363,412.979344 C217.395567,412.989672 217.57077,413 217.745974,413 C220.600762,413 223.177285,411.719359 225.083913,409.746758 L339.265131,333.465969 L458.815825,411.337232 C460.506024,412.431974 462.464182,413 464.432646,413 C465.514786,413 466.617538,412.824428 467.679066,412.473285 C470.647221,411.48182 473.017622,409.189059 474.099762,406.235321 L618.343858,13.8942856 C618.477837,13.543142 618.591204,13.1816706 618.683959,12.8098715 C618.725183,12.6549552 618.735489,12.5000389 618.766407,12.3554503 C618.797326,12.241845 618.817938,12.117912 618.83855,11.9939789 Z M499.473366,77.9160309 L252.199247,260.107934 C251.797309,260.407439 251.47782,260.779238 251.127413,261.130382 C250.993434,261.254315 250.859455,261.357592 250.746088,261.491853 C250.52966,261.729391 250.333844,261.96693 250.138028,262.225124 C249.952518,262.47299 249.808233,262.731184 249.643336,262.989377 C249.26201,263.609043 248.942521,264.249363 248.695175,264.930995 C248.643644,265.065256 248.561196,265.168533 248.519971,265.302794 C248.509665,265.344105 248.468441,265.364761 248.458135,265.406072 L220.116375,357.705207 L197.659396,232.832337 L499.473366,77.9160309 Z M236.090822,377.575805 L264.185234,284.58471 L307.924299,313.078983 L320.435897,321.227581 L277.933564,349.618575 L236.090822,377.575805 Z M536.369184,35.768468 L186.240244,215.48171 L40.5120708,138.457323 L536.369184,35.768468 Z M459.228068,386.974061 L300.462686,283.572591 L276.418568,267.905388 L587.188535,38.9184329 L459.228068,386.974061 Z" id="Shape" opacity="0.603864397"></path>
            </g>
        </g>
    </g>
</svg>