<?xml version="1.0" encoding="UTF-8"?>
<svg width="322px" height="195px" viewBox="0 0 322 195" version="1.1" xmlns="http://www.w3.org/2000/svg" xmlns:xlink="http://www.w3.org/1999/xlink">
    <!-- Generator: Sketch 52.5 (67469) - http://www.bohemiancoding.com/sketch -->
    <title>Scribble_realtor</title>
    <desc>Created with Sketch.</desc>
    <g id="D_2.1_Subpages_desktop" stroke="none" stroke-width="1" fill="none" fill-rule="evenodd">
        <g id="D_4.0.0.0_Subpage_realtor_search" transform="translate(-967.000000, -158.000000)" stroke="#003C47" stroke-width="1.7877095">
            <g id="Scribble_realtor" transform="translate(968.000000, 159.000000)">
                <path d="M25.9609385,57.4401954 C20.9079777,60.7363852 16.8990391,65.433612 13.6230615,70.4989685 C8.06239106,79.0964037 4.38417877,89.4612185 6.12630168,99.5508296 C7.03267039,104.802931 7.27579888,110.478561 10.0404916,115.035506 C13.6436201,120.972936 25.2905475,138.257158 34.5705475,143.486922 C36.3895419,144.511788 43.4509944,148.15645 45.3137877,148.789061 C53.8572514,151.691209 59.8487598,154.864987 67.6798212,154.596931 C74.5902123,154.361936 80.6433966,151.042515 86.2451844,146.993089 C88.6004916,145.289149 96.2304358,137.314496 97.4246257,134.96633 C101.330771,127.286538 102.309542,118.335269 101.231553,109.787871 C100.154458,101.240473 97.1162458,93.0433343 93.3495419,85.2938481 C92.0561341,82.6338435 90.6402682,79.9684778 88.5263017,77.8981954 C87.0085363,76.4122741 81.4380335,70.017362 79.9220559,68.4858713 C78.2934525,66.8426907 70.2264134,61.3055565 68.2161341,59.6856074 C57.348648,50.9291259 37.724067,49.7666583 25.9609385,57.4401954 Z" id="Stroke-1"></path>
                <path d="M41.843486,44.0321458 C32.5384581,43.8060856 23.4041564,47.4784468 16.0048268,53.1228032 C7.32192179,59.746456 1.52795531,69.5429931 0.515217877,80.4135394 C0.11477095,84.7060023 -0.301765363,89.0288449 0.30873743,93.2962894 C2.27700559,107.062729 5.91678212,121.177641 14.9375642,131.764049 C17.1972291,134.415118 19.763486,136.806174 21.8533184,139.593058 C23.0904134,141.243387 28.1648268,146.30785 29.5056089,147.09772 C42.7507486,154.892775 57.5091844,162.409947 72.7395754,160.336984 C84.0030391,158.803706 94.2609162,151.842303 100.449073,142.310248 C106.636335,132.778192 108.836112,120.885461 107.185162,109.643211 C106.462034,104.720817 105.039911,99.9279838 103.446168,95.2146736 C101.342927,88.9886366 98.9196872,82.8394421 95.6142123,77.1584514 C85.0649385,59.0235995 63.2495196,44.5530671 41.843486,44.0321458 Z" id="Stroke-3"></path>
                <path d="M196.554101,81.4801324 C194.105832,83.2769981 191.749631,85.2212944 189.723263,87.4836833 C183.822927,94.076063 181.128849,102.851308 178.59924,111.328119 C177.689296,114.378591 176.76952,117.488929 176.833877,120.671642 C176.897341,123.880267 177.954771,126.975415 178.483933,130.141151 C179.148067,134.119989 178.972872,138.19622 179.532425,142.191142 C181.363933,155.24366 190.681475,165.855086 199.924827,175.256688 C204.244827,179.650119 208.715888,184.024785 214.112983,187.001095 C223.670078,192.272855 235.072983,192.636517 245.98695,192.873299 C252.874994,193.02341 259.798793,193.170841 266.621587,192.210308 C285.849296,189.50116 303.550302,177.498526 313.178905,160.641406 C314.789631,157.820568 316.197453,154.843364 316.86248,151.663331 C317.607955,148.09998 317.397899,144.411535 317.751866,140.787424 C318.213989,136.039267 319.646838,131.292896 318.91924,126.577799 C318.468737,123.661355 317.211978,120.938804 315.96952,118.261822 C313.000134,111.863336 310.030749,105.465744 307.062257,99.0681509 C305.778682,96.3027111 304.482592,93.5158269 302.660916,91.0711602 C300.464715,88.1252296 297.578458,85.7752759 294.67343,83.5262898 C283.26695,74.6983269 271.321475,68.048762 256.787397,66.5664148 C243.57533,65.2189889 230.402592,66.0392389 217.782257,70.3978222 C210.20952,73.0131509 203.015777,76.7391231 196.554101,81.4801324 Z" id="Stroke-5"></path>
                <path d="M206.774972,87.8359083 C201.81676,90.9632231 196.923799,94.3916537 193.319777,99.013825 C190.101899,103.140987 188.053184,108.037469 186.042905,112.868723 C184.725363,116.032672 183.394413,119.248445 183.014525,122.653644 C182.682011,125.622806 183.087821,128.625922 183.671508,131.554876 C188.18905,154.208251 204.442011,174.505418 226.08581,182.590867 C238.627486,187.276478 252.65743,187.88139 265.555754,184.294806 C280.430391,180.157816 293.625475,170.479223 302.373631,157.760881 C304.468827,154.716663 306.336089,151.462469 307.348827,147.908945 C308.37676,144.29645 308.490279,140.492742 308.505475,136.73639 C308.52514,131.602232 308.36067,126.382297 306.780335,121.496538 C304.75933,115.249056 300.569832,109.970149 296.405363,104.89139 C291.408715,98.7975935 286.28514,92.7279222 280.138994,87.7930194 C264.381229,75.1390102 242.128715,71.6355241 223.403352,79.1017648 C217.577207,81.424913 212.071061,84.4950426 206.774972,87.8359083 Z" id="Stroke-7"></path>
                <path d="M147.31352,59.046563 C142.116648,60.2599611 137.538324,63.4703731 133.972737,67.4393824 C130.648492,71.1376556 128.063464,75.6552852 127.409162,80.5839333 C126.488492,87.5167435 129.461453,94.4370444 133.507039,100.143054 C135.812291,103.394568 138.58324,106.463804 142.178324,108.189188 C146.012961,110.029836 150.413408,110.176373 154.667263,110.266619 C159.39486,110.366693 164.454078,110.347035 168.387933,107.724558 C173.384581,104.395308 175.077542,97.8851324 175.667486,91.9110676 C176.075084,87.7847991 176.126927,83.5146741 174.723575,79.6135722 C172.756201,74.1470259 168.208268,67.1954519 164.091173,62.9914472 C159.877542,58.6900491 152.907263,58.1146231 147.31352,59.046563 Z" id="Stroke-9"></path>
                <path d="M137.743911,105.085462 C132.243128,113.620351 125.228156,121.057106 118.256089,128.440249 C111.959777,135.108578 105.654525,141.784055 98.8522905,147.93593 C95.076648,151.350064 94.9050279,152.08543 88.6301676,154.233448" id="Stroke-11"></path>
                <path d="M170.579933,105.767395 C170.653229,106.132844 171.03848,106.333886 171.379933,106.483997 L179.319151,109.967826" id="Stroke-13"></path>
                <path d="M27.7740335,46.5430222 C31.364648,45.1482398 36.6097877,42.7214435 39.7928045,41.0228648 C61.8629721,29.2471843 86.6558212,23.804763 110.998168,18.038888 C113.161296,17.5260083 115.331575,17.0077676 117.397274,16.1893046 C119.816045,15.2323463 122.056045,13.8768787 124.416715,12.7849991 C128.840402,10.7379481 133.638615,9.63177222 138.171352,7.84026759 C141.357944,6.58040648 144.433698,4.97564722 147.772246,4.20007315 C151.393251,3.35927222 155.168,3.53261481 158.873028,3.84355926 C163.455821,4.22955926 168.09314,4.83983241 172.317497,6.65456852 C176.543642,8.47019815 180.36219,11.6395083 182.062302,15.9123139 C176.818056,18.0576519 171.014257,18.8207167 165.393698,18.1041148 C164.464983,17.9852769 163.528223,17.8271241 162.596827,17.92005 C161.494704,18.0308463 160.460514,18.4874343 159.44867,18.9368741 C155.904536,20.5139343 152.359508,22.0909944 148.815374,23.6671611 C145.494704,25.1441472 142.044425,26.7185269 139.764201,29.5483 C138.368894,31.2790454 137.478615,33.4083 135.880402,34.9531935 C133.694927,37.0654713 130.534257,37.7686704 127.523754,38.1877306 C123.583642,38.7354574 119.597944,38.9481148 115.621184,38.8230222 C110.943642,38.6755917 105.975598,38.1198231 101.83705,40.3044759 C98.5932514,42.0164574 96.1950391,45.2769065 92.663419,46.266925 C91.8178324,50.3520917 94.4368268,54.276425 96.9878883,57.5779759 C105.266771,68.291263 114.841743,78.8213787 127.552358,83.4918" id="Stroke-15"></path>
                <path d="M92.9031508,46.895962 C100.506279,49.3415222 108.298905,51.815675 116.281028,51.5315361 C124.37667,51.2438231 132.060246,48.1451009 139.795665,45.7442167 C147.532872,43.3442259 155.937788,41.6277769 163.651754,44.1001426 C169.357229,45.9282815 174.097341,49.8651241 179.260246,52.9057676 C191.699128,60.2326194 206.629184,62.3073694 221.056,61.7453463 C222.204603,61.7006704 223.406838,61.6238278 224.387397,61.0251704 C225.185609,60.5382028 225.750525,59.7563741 226.292201,58.9959898 C227.883263,56.7639806 229.476112,54.5319713 231.067173,52.299962 C223.693765,53.6777676 216.109408,53.9279528 208.660916,53.0389019 C203.505162,52.4232676 198.404827,51.2599065 193.544045,49.4308741 C186.847285,46.9102583 180.680581,43.156587 174.060693,40.4385037 C167.441698,37.7213139 160.027173,36.060263 153.134659,37.9813278 C150.125944,38.8203417 147.345162,40.306263 144.458011,41.4973231 C131.71343,46.7610407 116.628737,46.0095917 104.470525,39.5065639" id="Stroke-17"></path>
                <path d="M165.711732,38.0231444 C163.910615,39.2025889 162.109497,40.3820333 160.307486,41.5605843 C159.12581,42.3343713 157.894972,43.1608759 157.231732,44.4082278 C156.769609,45.2776213 156.625698,46.2756815 156.504134,47.2531907 C156.018771,51.1578667 155.76581,55.0911352 155.746145,59.0252972" id="Stroke-19"></path>
                <path d="M174.925229,40.8943769 C176.661989,38.5640806 178.398749,36.2346778 180.135508,33.9043815 C181.549587,32.0065481 183.000313,30.0729741 184.956067,28.7389509 C189.407464,25.6992009 195.476737,26.4327796 200.464447,28.4780435 C203.797631,29.8433398 207.008358,31.8224833 209.036514,34.7979 C212.576179,39.9883491 211.799419,46.8746963 210.880536,53.0891176" id="Stroke-21"></path>
                <path d="M142.775687,26.8323611 C153.66552,25.6493426 164.457028,23.5710185 175.007196,20.6241944 C181.773676,18.7344028 188.662615,16.4630787 195.659709,17.1099861 C203.911777,17.8721574 211.180603,22.5693843 218.440492,26.5678796 C224.686749,30.0088194 231.174346,33.0146157 237.838034,35.5575694 C240.924514,36.7352269 244.805631,37.6761019 247.210994,35.4119259 C249.15781,33.5793194 249.26686,30.3036806 251.359374,28.6390556 C245.098816,28.9097917 238.781944,27.792 232.995128,25.3902222 C223.369207,21.3935139 215.215464,13.921912 205.057698,11.581787 C197.113117,9.75096759 188.427531,11.4075509 181.712894,16.0332963" id="Stroke-23"></path>
                <path d="M243.745966,37.0271394 C243.148872,38.3388245 241.772335,39.0804449 240.505743,39.7702412 C234.24876,43.1790144 228.507531,47.5331301 223.54038,52.6404819 C223.392894,52.7923801 223.213229,52.955894 223.004067,52.9290884" id="Stroke-25"></path>
                <path d="M239.886838,27.5003556 C241.322369,24.1040917 239.08505,20.3629296 236.946056,17.3589204 C233.620022,12.686712 230.189408,7.91174907 225.434101,4.70491111 C219.777788,0.892267593 212.681475,-0.344362037 205.872089,0.0800592593 C205.056,0.130096296 204.233654,0.205151852 203.451531,0.444614815 C202.342257,0.78504537 201.361698,1.44178148 200.399911,2.09047593 C194.574659,6.01391574 187.886838,11.9888741 182.06248,15.9123139" id="Stroke-27"></path>
                <path d="M228.480626,23.5915694 C228.446659,21.879588 227.466101,20.339162 226.416715,18.986375 C218.667888,8.99326389 207.132693,3.6571713 194.80733,6.49587963" id="Stroke-29"></path>
                <path d="M203.590615,11.325794 C201.00648,13.0717292 198.339218,14.6934653 195.601341,16.1847477 C195.261676,16.369706 194.900559,16.5716412 194.720894,16.9147523 C194.600223,17.1461736 194.576983,17.4142292 194.556425,17.6742431 C194.309721,20.7300764 194.063911,23.7859097 193.817207,26.8408495 C193.557095,26.8497847 193.297877,26.8569329 193.037765,26.8649745" id="Stroke-31"></path>
                <path d="M246.266905,28.2384912 C254.198972,20.4318199 264.890369,15.4835144 275.976849,14.4863477 C281.680536,13.9734681 287.553162,14.4997505 292.851933,16.6710005 C298.151598,18.8413569 302.839866,22.753181 305.348022,27.8998477 C306.970369,31.2290977 307.64076,34.9309449 308.22981,38.5881162 C312.470257,64.923681 315.102659,91.6014634 315.968804,118.261375" id="Stroke-33"></path>
                <path d="M221.055642,61.7454356 C213.390838,67.8258292 200.549721,76.6502181 193.554413,83.4909958" id="Stroke-35"></path>
                <path d="M55.9469944,61.4705894 C55.6189497,60.7450523 55.1130279,60.0829551 54.4292291,59.6755106 C53.7454302,59.2689597 52.8721341,59.1438671 52.1373855,59.450344 C51.6958212,59.6353023 51.3266592,59.9614366 50.9977207,60.3099088 C49.9635307,61.4071495 49.2368268,62.8376727 49.1769385,64.3432514 C49.1286704,64.0189042 48.841743,63.744594 48.515486,63.7097468 C48.1883352,63.6757931 47.851352,63.8839829 47.7360447,64.1913532 C47.5706816,64.6336449 47.8442011,65.1081032 48.1132514,65.4958903 C48.3501229,65.8381079 48.6370503,66.205344 49.0482235,66.2687838 C49.4665475,68.2184412 51.2247598,69.8044366 53.2082235,70.0224551 C53.5273296,70.0573023 53.8723575,70.0537282 54.1431955,69.8821727 C54.3264358,69.7660153 54.4569385,69.584631 54.5820782,69.4077144 C55.1469944,68.6124829 55.7190615,67.8029551 56.0497877,66.8853116 C56.2044246,66.4555292 56.3009609,65.9989412 56.3134749,65.5423532 C56.3268827,65.0384088 56.0703464,64.590756 56.0578324,64.1216588 C56.0471061,63.7195755 56.2938101,63.3165986 56.2884469,62.8850292 C56.2821899,62.3989551 56.146324,61.9119875 55.9469944,61.4705894 Z" id="Stroke-37"></path>
                <path d="M55.9277765,61.3144023 C56.0868827,60.4003329 55.3288939,59.6077819 54.6370503,58.9885736 C54.2902346,58.6803097 53.9362682,58.3657912 53.5107933,58.1790458 C53.0960447,57.9976616 52.6366034,57.9485181 52.1861006,57.9020551 C51.703419,57.8520181 51.210905,57.801981 50.7389497,57.9109903 C49.8772737,58.1111384 49.2238659,58.8018282 48.6812961,59.5005597 C48.3890056,59.8758375 48.1110168,60.2654116 47.9072179,60.695194 C47.4084469,61.7432912 47.3887821,63.0085134 47.8544804,64.0718005" id="Stroke-39"></path>
                <path d="M49.731486,67.7038639 C49.6689162,68.4633546 49.6063464,69.2219519 49.5446704,69.9805491 C49.5250056,70.2146509 49.5062346,70.4514333 49.5446704,70.6837481 C49.6510391,71.3252944 50.1676872,71.8051139 50.5404246,72.3385444 C51.3145028,73.4482944 51.6058994,75.0074843 52.8090279,75.6275861 C53.1048939,74.8359287 53.479419,74.0728639 53.9245587,73.354475 C54.0559553,73.1409241 54.1962905,72.9291602 54.2874637,72.6950583 C54.3911508,72.4323639 54.4313743,72.148225 54.4698101,71.8676602 C54.5877989,71.0223917 54.7057877,70.168188 54.6244469,69.3193454" id="Stroke-41"></path>
                <path d="M49.5455642,69.3368583 C49.1013184,69.563812 48.7723799,69.9614278 48.4631061,70.3527889 C47.4852291,71.5947796 46.5788603,72.8921685 45.7484693,74.2378074 L48.747352,73.6087704 C48.9734972,73.5614139 49.2139441,73.5140574 49.4311508,73.5944741 C49.5875754,73.6525528 49.7136089,73.7696037 49.8387486,73.8804 C50.5475754,74.5067565 51.3851173,74.9865759 52.2834413,75.281437" id="Stroke-43"></path>
                <path d="M54.4495196,69.688994 C56.0441564,70.6477394 57.4358883,71.9415542 58.5094078,73.4614292 C57.8711955,73.5168273 57.2142123,73.3139986 56.7181229,72.9092347 C56.6206927,72.8297116 56.520581,72.7385727 56.3963352,72.7224894 C56.2613631,72.7055125 56.1335419,72.7796745 56.0191285,72.8529431 C54.9536536,73.5257625 53.9319777,74.2682764 52.9630391,75.0742301" id="Stroke-45"></path>
                <path d="M50.5734078,74.4972852 C50.8522905,75.3532759 51.132067,76.2092667 51.4118436,77.0652574 C51.5173184,77.3887111 51.6236872,77.7148454 51.7872626,78.0141741 C51.9642458,78.3376278 52.2020112,78.6217667 52.4210056,78.9184148 C52.8053631,79.4393361 53.1307263,79.9995722 53.4551955,80.5589148 C54.135419,78.181262 54.7048045,75.7705491 55.1615642,73.3401787" id="Stroke-47"></path>
                <path d="M47.1267039,72.0968477 C45.6196648,72.7133755 44.0858101,73.2637829 42.5305028,73.7462829 C42.6002235,74.3672782 42.5340782,75.0034634 42.3410056,75.5976532 C42.2167598,75.9773986 42.0424581,76.3383801 41.9316201,76.720806 C41.7921788,77.1997319 41.7546369,77.7001023 41.717095,78.1968986 C41.489162,81.2688153 41.2612291,84.3398384 41.0332961,87.4117551 C40.9751955,88.1935838 40.917095,88.9834542 41.0324022,89.7599218 C41.1861453,90.8053384 41.6464804,91.7774866 42.1005587,92.7317644 C42.9675978,94.5554356 43.8355307,96.3782134 44.7034637,98.2018847 C45.1798883,99.2044125 45.6572067,100.207834 46.1345251,101.210362 C46.1827933,101.312223 46.2355307,101.418551 46.3284916,101.482885 C46.5099441,101.607084 46.7718436,101.510584 46.9112849,101.340815 C47.0516201,101.171047 47.1043575,100.948561 47.1758659,100.741264 C47.3483799,100.240894 47.6478212,99.7851995 48.0384358,99.4286856 C48.4031285,99.0971903 48.8777654,98.795181 48.947486,98.3073199 C49.0118436,97.8569866 48.6963128,97.4513292 48.4201117,97.0903477 C47.2768715,95.5990653 46.5054749,93.8620653 45.7573184,92.1384681 C45.5606704,91.6845606 45.3631285,91.2279727 45.2576536,90.7454727 C45.0887151,89.9690051 45.162905,89.1639449 45.2388827,88.373181 C45.4659218,85.9999958 45.6929609,83.6268106 45.9191061,81.254519 C45.9772067,81.9487829 46.0353073,82.6430468 46.0934078,83.3373106 C46.1130726,83.5714125 46.1327374,83.8081949 46.0960894,84.0396162 C46.0576536,84.2790792 45.9611173,84.5051394 45.9173184,84.7437088 C45.7144134,85.8489912 46.1765363,86.9292551 46.0576536,88.0461532 C45.9852514,88.7243338 46.0174302,89.2765282 45.8905028,89.9466671 C45.7653631,90.6060838 45.9557542,91.3548523 45.5821229,91.9133014" id="Stroke-49"></path>
                <path d="M57.6391508,72.1652912 C58.5875307,72.6227727 59.6065251,72.9328236 60.6487598,73.0802542 C60.9499888,73.1231431 61.2762458,73.1633514 61.4934525,73.3760088 C61.6614972,73.5422032 61.7294302,73.7807727 61.7893184,74.0086199 C63.0031732,78.5986245 63.724514,83.3190829 63.9372514,88.0618792 C63.970324,88.800819 63.9899888,89.550481 63.8219441,90.2706569 C63.6699888,90.9202449 63.3687598,91.5251569 63.1569162,92.1577681 C62.8512179,93.0754116 62.7341229,94.0457727 62.4731173,94.976819 C61.9680894,96.7781523 60.9392626,98.3909532 60.3341229,100.161013 C60.2849609,100.301296 60.2241788,100.459449 60.0856313,100.512166 C59.8648492,100.595263 59.669095,100.356694 59.5341229,100.1628 C58.9450726,99.3157449 57.9555754,98.7617634 56.9249609,98.7018977 C56.8463017,97.6645227 57.5801564,96.7692171 58.0118883,95.822981 C58.3846257,95.0036245 58.5410503,94.0993838 58.9066369,93.2773468 C59.2141229,92.5848699 59.6682011,91.9549394 59.8880894,91.2302958 C60.2018324,90.1973884 60.0105475,89.0858514 59.8174749,88.0243514 C59.5850726,86.751981 59.3535642,85.4805042 59.1220559,84.2090273 C58.9316648,83.1609301 58.7689832,81.9779116 59.3955754,81.1165597 C59.1426145,83.7149116 58.9879777,86.3221986 58.8342346,88.9285921 C58.7904358,89.6675319 58.7466369,90.4055782 58.702838,91.1445181 C58.6644022,91.7958931 58.6438436,92.5089208 59.0389274,93.0289486" id="Stroke-51"></path>
                <path d="M53.4897877,80.3985282 C53.4790615,80.8050792 53.5577207,81.208056 53.5818547,81.6128199 C53.6623017,82.9763292 53.1259888,84.342519 53.3476648,85.6890514" id="Stroke-53"></path>
                <path d="M46.4597989,93.9034352 C46.637676,91.5740324 46.5313073,89.2222917 46.1433743,86.9188009 C47.7058324,86.5319074 49.3219218,86.4291528 50.9290726,86.3272917 L58.3132067,85.862662 C58.3552179,88.4529722 58.3990168,91.0656204 58.9835978,93.5898102" id="Stroke-55"></path>
                <path d="M46.8692737,101.408455 C47.5932961,102.097357 48.5005587,102.555732 49.3935196,103.003385 C50.1568715,103.386705 50.9202235,103.770024 51.6844693,104.153344 C52.0330726,104.328473 52.387933,104.50539 52.7722905,104.574191 C53.9530726,104.785061 55.0453631,103.949621 55.9177654,103.125797 C55.6156425,102.898844 55.1740782,103.088269 54.8129609,102.975686 C54.627933,102.918501 54.4777654,102.785367 54.3338547,102.655806 C53.8699441,102.238533 53.4060335,101.82126 52.9421229,101.404881 C52.7758659,101.254769 52.5926257,101.044793 52.6739665,100.835709 C52.7311732,100.687385 52.898324,100.618584 53.0475978,100.564973 C53.501676,100.402353 53.956648,100.238839 54.4116201,100.076219 C54.8236872,99.928788 55.3251397,99.6294593 55.2250279,99.2041444 C55.1678212,98.9611074 54.9139665,98.8056352 54.6654749,98.7806167 C54.4169832,98.7547046 54.1702793,98.8306537 53.9307263,98.8994546 C52.64,99.2747324 51.3063687,99.5034731 49.9637989,99.5812093 C49.3559777,99.6160565 48.6909497,99.6026537 48.2127374,99.2238019" id="Stroke-57"></path>
                <path d="M54.4953743,104.200253 C53.8196201,104.158258 53.4147039,103.434508 52.8158212,103.119989" id="Stroke-59"></path>
                <path d="M55.7309497,103.174941 C57.2513966,102.580751 58.8576536,101.923121 59.8131844,100.600714" id="Stroke-61"></path>
                <path d="M57.4894302,98.7689116 C57.3008268,98.7706986 57.1533408,98.9217032 57.0004916,99.031606 C56.487419,99.3988421 55.7946816,99.3362958 55.1698771,99.2576662" id="Stroke-63"></path>
                <path d="M60.9011844,98.3997991 C60.9798436,99.6694889 61.2310168,100.92935 61.6439777,102.132026 C59.7829721,102.170447 57.9970503,103.276623 56.1592849,102.979975" id="Stroke-65"></path>
                <path d="M44.0763352,96.6773634 C44.1103017,97.5297801 43.9458324,98.3902384 43.5990168,99.1702801 C43.388067,99.6456319 43.1109721,100.091498 42.9366704,100.581146 C42.7623687,101.070794 42.6997989,101.63103 42.9241564,102.100127 C44.7261676,102.46647 46.5791285,102.577266 48.4124246,102.428942" id="Stroke-67"></path>
                <path d="M43.7677765,102.253544 C44.2915754,105.63998 44.761743,109.034456 45.1773855,112.436081 C45.4285587,114.497429 45.6609609,116.566818 45.6654302,118.643355 C45.6698994,120.882512 45.4088939,123.118095 45.4777207,125.356359 C45.506324,126.307956 45.5939218,127.256873 45.6833073,128.204896 C46.0578324,132.235558 46.4323575,136.26622 46.8077765,140.295989 C46.8229721,140.460396 46.8390615,140.627484 46.8953743,140.782956 C46.9704581,140.991146 47.1143687,141.167169 47.2752626,141.319961 C48.3952626,142.385035 50.2374972,142.282281 51.6122458,141.575507 C51.8955978,141.429864 52.1735866,141.256521 52.3702346,141.005443 C52.7536983,140.511327 52.7447598,139.826892 52.7179441,139.201429 C52.6392849,137.343804 52.5597318,135.485285 52.4810726,133.62766 C52.4024134,131.800415 52.324648,129.972276 52.2442011,128.145924 C52.1315754,125.582419 52.0144804,123.019808 51.8973855,120.458091 C51.8044246,118.434271 51.7445363,117.121693 51.6515754,115.098767 C51.5881117,113.703091 51.8652067,111.94554 51.8955978,110.228197 C51.9045363,109.713531 52.2138101,107.417188 52.4900112,106.836401 C53.5483352,108.258882 53.254257,110.221049 53.2363799,111.992896 C53.2122458,114.357146 53.7682235,116.684762 53.9818547,119.039183 C54.1311285,120.677896 54.1132514,122.326438 54.0962682,123.971406 C54.035486,129.648822 53.9747039,135.324452 53.9148156,141.001869 C53.9085587,141.521896 53.9139218,142.078558 54.2053184,142.509234 C54.6245363,143.131123 55.4692291,143.264257 56.2155978,143.341994 C57.4249832,143.46798 58.940067,143.439387 59.4871061,142.353762 C59.690905,141.949892 59.7043128,141.481688 59.7123575,141.029568 C59.9599553,128.10929 60.3612961,115.191693 60.915486,102.281244" id="Stroke-69"></path>
                <path d="M48.0066145,141.760734 C47.9735419,142.262891 47.9413631,142.765942 47.9082905,143.268993 C47.8850503,143.635336 47.8609162,144.003465 47.9002458,144.368021 C47.991419,145.221331 48.4410279,146.030859 49.117676,146.558928 C49.283933,146.689382 49.468067,146.804646 49.6763352,146.84128 C50.0812514,146.910975 50.4673966,146.667937 50.8079553,146.436516 C51.2763352,146.118424 51.769743,145.769951 51.9833743,145.245456 C52.1147709,144.922896 52.1254972,144.567275 52.1353296,144.218803 C52.1630391,143.1716 52.1907486,142.125289 52.2184581,141.078086" id="Stroke-71"></path>
                <path d="M47.8765587,143.082694 C48.1929832,143.312329 48.5675084,143.443676 48.9375642,143.569662 C49.2682905,143.682245 49.6106369,143.793042 49.9583464,143.759088 C50.2935419,143.726028 50.6001341,143.559833 50.883486,143.376662 C51.3491844,143.075546 51.7809162,142.720819 52.1643799,142.31963" id="Stroke-73"></path>
                <path d="M54.7091844,143.012017 C54.6966704,143.232716 54.6841564,143.454309 54.6707486,143.675008 C54.6582346,143.8966 54.6778994,144.174485 54.8816983,144.260262 C55.0408045,144.329063 55.2303017,144.225415 55.3196872,144.077985 C55.4090726,143.929661 55.4224804,143.750957 55.4341006,143.578508 C55.4412514,143.458776 55.4492961,143.338151 55.4573408,143.217526" id="Stroke-75"></path>
                <path d="M55.596067,143.176067 C55.4816536,143.922155 55.442324,144.680752 55.4789721,145.433988 C55.4816536,145.492961 55.4861229,145.554613 55.5183017,145.60465 C55.553162,145.657368 55.6139441,145.686854 55.6711508,145.712766 C56.7250056,146.195266 57.8146145,146.687595 58.9730503,146.725123 C59.0829944,146.728697 59.2018771,146.725123 59.2903687,146.659896 C59.3985251,146.583053 59.4324916,146.439197 59.4557318,146.308743 C59.5674637,145.693109 59.6353966,145.07122 59.7033296,144.450225 C59.7846704,143.706817 59.8284693,142.850826 59.2975196,142.322757" id="Stroke-77"></path>
                <path d="M56.912,143.256305 C57.2007151,143.653027 57.5484246,144.056898 58.0275307,144.163226 C58.6317765,144.295467 59.2172514,143.912148 59.7178101,143.549379" id="Stroke-79"></path>
                <path d="M251.089698,84.1362056 C250.157408,82.8477519 248.470704,82.0614556 246.924335,82.4358398 C246.099307,82.635988 245.376179,83.1336778 244.726346,83.6796176 C244.128358,84.181775 243.555397,84.758988 243.276514,85.4880991 C243.121877,85.8883954 243.188022,87.2492241 243.148693,87.6763259 C242.952045,89.827025 243.109363,91.0895667 243.843218,93.1205343 C244.250816,94.2481546 244.89886,95.4231315 246.029587,95.8252148 C247.019978,96.1772611 248.119419,95.8368306 249.072268,95.3918583 C249.830257,95.038025 250.691933,94.6734694 251.086123,93.9363167 C251.507128,93.1509139 251.356067,92.5468954 251.478525,91.5818954 C252.272268,91.7114556 252.911374,90.8670806 253.031151,90.0718491 C253.08657,89.6992519 252.833609,88.9344 252.628916,88.6180944 C252.394726,88.2580065 252.12657,89.0282194 251.971933,88.6565157 C251.82981,88.3134046 252.116737,87.1974 252.072939,86.8006778 C251.964782,85.8499741 251.653721,84.9162472 251.089698,84.1362056 Z" id="Stroke-81"></path>
                <path d="M245.052693,95.3126032 C245.147441,95.5395569 245.184089,95.7906356 245.159061,96.0354597 C245.436156,96.1819968 245.698056,96.3580199 245.938503,96.5599551 C246.331799,96.8887699 246.764425,97.3149782 247.266771,97.2131171 C247.420514,97.1809505 247.560849,97.0996403 247.696715,97.0201171 C248.888223,96.3195986 250.128894,95.5726171 250.84219,94.3887051" id="Stroke-83"></path>
                <path d="M251.030346,94.0652514 C251.382525,94.4262329 251.688223,94.8309968 251.941184,95.2679273 C252.004648,95.3787236 252.067218,95.4975616 252.075263,95.6262282 C252.08867,95.8201218 251.976045,95.9988255 251.867888,96.1614458 C250.990123,97.4945755 250.100737,98.9259921 250.044425,100.520923 C249.782525,100.240358 249.520626,99.9588995 249.257832,99.6774412 C249.00219,99.4049181 248.741184,99.1225662 248.612469,98.7723069 C248.546324,98.5909227 248.516827,98.3970292 248.445318,98.2174319 C248.256715,97.7456542 247.808,97.4382838 247.382525,97.1603995 C247.486212,97.1210847 247.589006,97.0817699 247.692693,97.0433486" id="Stroke-85"></path>
                <path d="M245.10686,95.7540907 C245.000492,95.7094148 244.873564,95.7523037 244.790436,95.8309333 C244.70552,95.909563 244.656358,96.0167852 244.613453,96.1240074 C244.412335,96.6288454 244.315799,97.1855074 244.410547,97.7216185 C244.504402,98.2568361 244.802056,98.7670352 245.262391,99.0565352 C245.263285,98.9743315 245.263285,98.8921278 245.268648,98.8099241 C245.324961,98.012012 245.974793,97.2945167 246.763173,97.1595954" id="Stroke-87"></path>
                <path d="M245.581676,98.2038505 C245.706816,98.3771931 245.733631,98.6005727 245.755978,98.8141236 C245.81676,99.3788273 245.875754,99.9444245 245.935642,100.510022 C245.940112,100.548443 245.946369,100.591332 245.977654,100.614563 C246.001788,100.632434 246.03486,100.633327 246.064358,100.634221 C246.337877,100.635114 246.609609,100.636008 246.882235,100.637795 C246.956425,100.637795 247.030615,100.637795 247.101229,100.617244 C247.185251,100.593119 247.257654,100.542188 247.325587,100.487684 C247.619665,100.255369 247.866369,99.9614014 248.042458,99.6316931 C248.11486,99.4976653 248.174749,99.3582764 248.245363,99.2233551 C248.32581,99.0705634 248.419665,98.9249199 248.524246,98.7882116" id="Stroke-89"></path>
                <path d="M249.97676,100.248757 C249.989274,101.252178 249.609385,102.213604 249.233966,103.14465 C248.242682,105.599146 247.222793,108.104572 247.078883,110.7476 C247.014525,111.940447 247.130726,113.137762 247.07352,114.331502 C247.037765,115.081164 246.933184,115.826359 246.904581,116.575127 C246.877765,117.300664 246.922458,118.027095 246.976089,118.750845 C247.178101,121.498414 246.911732,123.02097 247.052961,123.936826" id="Stroke-91"></path>
                <path d="M244.505385,98.2148407 C243.843039,99.8258546 243.79924,100.70597 243.305832,101.950642 C243.01086,102.697623 242.915218,103.506257 242.851754,104.30685 C242.524603,108.464392 243.019799,112.635336 243.205721,116.800919 C243.353207,120.090855 243.296,123.458526 242.214436,126.568864 C241.755888,127.890378 241.119464,129.141304 240.484827,130.387762" id="Stroke-93"></path>
                <path d="M245.861899,100.573372 C245.402458,101.918118 244.944804,103.263756 244.485363,104.609395 C244.055419,105.871044 243.622793,107.14252 243.437765,108.462247 C243.009609,111.5154 243.920447,114.685604 243.187486,117.680678" id="Stroke-95"></path>
                <path d="M247.25238,100.561578 C247.017296,101.605207 247.38914,102.679217 247.485676,103.744291 C247.604559,105.049721 247.309587,106.403402 247.694838,107.656115" id="Stroke-97"></path>
                <path d="M243.284201,121.517 C243.33962,121.656388 243.496939,121.717148 243.611352,121.813648 C244.524872,122.593689 244.780514,123.43449 245.530458,124.096587 C246.07124,123.471125 246.53962,122.786689 247.006212,122.104041" id="Stroke-99"></path>
                <path d="M244.260112,97.4743819 C242.516201,98.6850995 240.378101,99.1488356 238.396425,99.912794 C238.255196,99.9681921 238.109497,100.027164 238.006704,100.137961 C237.919106,100.23178 237.871732,100.352405 237.824358,100.471243 C237.381006,101.584567 236.934078,102.714868 236.804469,103.905928 C236.756201,104.34822 236.752626,104.795873 236.681117,105.235484 C236.498771,106.353275 235.885587,107.489831 236.269944,108.554905" id="Stroke-101"></path>
                <path d="M237.527419,111.782473 C236.621944,110.03207 235.717363,108.281667 234.812782,106.532158 C234.167419,107.024487 233.52295,107.516815 232.877587,108.009144 C232.816804,108.055607 232.752447,108.109218 232.741721,108.184274 C232.731888,108.256649 232.776581,108.324556 232.818592,108.383528 C233.407642,109.205565 234.023508,110.027602 234.367642,110.977412 C234.647419,111.752093 234.824402,112.701903 235.570771,113.049482" id="Stroke-103"></path>
                <path d="M234.701765,111.55123 C234.570369,111.324276 234.382659,111.130383 234.159196,110.991887 C234.004559,110.896281 233.824894,110.825693 233.644335,110.847138 C233.23048,110.898068 233.024894,111.407374 233.093721,111.818392 C233.161654,112.229411 233.408358,112.586818 233.545117,112.979966 C233.644335,113.264999 233.685453,113.567901 233.72657,113.86723 C233.832939,114.656207 233.940201,115.44429 234.048358,116.232374 C234.095732,116.589781 234.150257,116.960591 234.347799,117.261707 C234.717855,117.825517 235.502659,117.982776 236.160536,117.833559 C236.81752,117.683448 237.389587,117.293874 237.971486,116.953443 C238.411263,116.69611 238.868916,116.461114 239.253274,116.126938 C239.86467,115.594401 240.257073,114.81704 240.32143,114.0093 C240.151598,113.855614 239.863777,113.927096 239.702883,114.089716 C239.540201,114.25323 239.464223,114.47929 239.365899,114.68748 C239.084335,115.278989 238.581095,115.762383 237.977743,116.018823" id="Stroke-105"></path>
                <path d="M239.971486,113.931206 C240.036737,113.531803 239.667575,113.119891 239.262659,113.142229 C239.417296,112.935826 239.531709,112.676706 239.479866,112.42384 C239.42981,112.170975 239.158972,111.95653 238.914056,112.040521 C239.007911,111.910067 239.105341,111.766211 239.096402,111.606271 C239.079419,111.323025 238.720089,111.16934 238.445676,111.247076 C238.172156,111.324812 237.971039,111.549086 237.772603,111.752808 C237.25238,112.2916 236.654391,112.754442 236.003665,113.124359 C235.912492,113.176183 235.815955,113.227113 235.71048,113.230687 C235.605899,113.233368 235.491486,113.172609 235.470034,113.070748" id="Stroke-107"></path>
                <path d="M238.938905,112.011571 C238.499128,112.406506 238.140693,112.882751 237.733989,113.31164 C237.327285,113.740529 236.851754,114.132784 236.281475,114.290937" id="Stroke-109"></path>
                <path d="M239.336939,113.093086 C238.963307,113.499637 238.680849,113.978563 238.360849,114.428002 C238.040849,114.878336 237.669899,115.310799 237.180961,115.567238" id="Stroke-111"></path>
                <path d="M237.894883,117.042795 C237.994101,117.424327 238.333765,117.684341 238.582257,117.990818 C238.881698,118.364309 239.053318,118.820897 239.249073,119.257827 C239.626279,120.103096 240.110749,120.901901 240.685497,121.628332 C241.237899,121.237864 241.782257,120.834888 242.316782,120.419401 C242.357006,120.388128 242.399911,120.354175 242.415106,120.305031 C242.438346,120.229975 242.388291,120.153133 242.342704,120.089693 C241.371978,118.763712 240.489743,117.37161 239.704939,115.92679 C239.664715,115.852628 239.67276,115.711452 239.754101,115.736471" id="Stroke-113"></path>
                <path d="M233.813184,115.462607 C233.722011,116.917256 233.784581,118.381732 234,119.823871 C234.014302,119.917691 234.030391,120.015978 234.08581,120.093714 C234.137654,120.166982 234.218994,120.212552 234.297654,120.256334 C234.513073,120.376959 234.727598,120.496691 234.943911,120.617316 C235.024358,120.662885 235.109274,120.709348 235.202235,120.719177 C235.434637,120.744195 235.620559,120.543154 235.797542,120.387681 C236.372291,119.879269 237.195531,119.739881 237.797989,119.262742 C238.167151,118.970561 238.437989,118.555075 238.556872,118.099381" id="Stroke-115"></path>
                <path d="M239.281073,119.470306 C239.486659,120.802542 238.895821,122.120482 238.780514,123.46344 C238.73314,124.018315 238.768,124.578551 238.731352,125.13432 C238.652693,126.328954 238.251352,127.4807 238.128,128.67176 C238.063642,129.293649 238.074369,129.927153 237.917944,130.531172 C237.721296,131.287982 237.261855,132.025135 237.409341,132.793561 C237.92867,132.931162 238.456939,133.033917 238.99057,133.100931 C239.083531,133.11344 239.180961,133.124162 239.269453,133.091996 C239.426771,133.033917 239.507218,132.863255 239.571575,132.707783 C239.909453,131.892 240.248223,131.077112 240.586101,130.261329" id="Stroke-117"></path>
                <path d="M250.584313,105.352892 C252.23705,105.267114 253.86476,104.823036 255.519285,104.855202" id="Stroke-119"></path>
                <path d="M251.997497,95.8309333 C252.87705,96.5430676 253.994369,96.8808176 255.079508,97.2024843 C256.557944,97.6403083 258.034592,98.0790259 259.512134,98.51685 C259.760626,98.5901185 260.015374,98.6669611 260.222749,98.8215398 C260.719732,99.1887759 260.820737,99.8776787 260.885095,100.492419 C261.059397,102.140068 261.256939,103.787716 261.589453,105.410345 C261.882637,106.836401 262.277721,108.241012 262.513698,109.67779 C262.72286,110.955521 262.804201,112.249336 262.885542,113.541364 C262.985654,115.141656 263.085765,116.741054 263.187665,118.340452 C263.212693,118.755938 263.238615,119.177679 263.147441,119.583336 C263.049117,120.013119 262.825654,120.402693 262.635263,120.799415 C262.287553,121.526739 262.043531,122.298739 261.80219,123.067165 C261.068335,125.401035 260.33448,127.734012 259.600626,130.066989 C259.505877,130.368105 259.302972,130.738021 258.993698,130.674581 C258.883754,130.653137 258.794369,130.575401 258.709453,130.500345 C257.95057,129.827526 257.192581,129.154706 256.433698,128.482781 C256.288894,128.354114 256.140514,128.220086 256.059173,128.044956 C255.975151,127.861785 255.973363,127.651808 255.974257,127.450767 C255.975151,127.172882 255.976045,126.895892 255.976045,126.618007 C255.976939,126.309744 255.977832,126.002373 255.992134,125.694109 C256.052916,124.283244 256.384536,122.8831 256.96286,121.593753 C257.609117,120.15072 258.587888,118.614762 258.086436,117.114544 C257.957721,116.726757 257.734257,116.374711 257.612693,115.984244 C257.357944,115.166674 257.575151,114.287452 257.691352,113.437716 C257.910346,111.83385 257.754816,110.179947 257.239955,108.644882 C256.980737,110.280021 256.996827,111.94554 257.045095,113.599443 C257.112134,115.852896 257.238168,118.105456 257.423196,120.351762" id="Stroke-121"></path>
                <path d="M258.369698,130.177249 C258.097073,130.648133 257.723441,131.060045 257.281877,131.378138 C256.700872,131.138675 256.604335,130.248731 256.014391,130.031606" id="Stroke-123"></path>
                <path d="M256.102793,128.05693 C256.094749,128.854842 255.787263,129.637564 255.859665,130.431902 C255.907933,130.970694 256.127821,131.477319 256.345028,131.973221 C256.555978,132.452147 256.807151,132.973069 257.288939,133.175897" id="Stroke-125"></path>
                <path d="M257.241117,131.268861 C256.887151,132.440263 257.524469,133.689402 257.417207,134.908162 C257.386816,135.263782 257.292067,135.610467 257.229497,135.962513 C257.098101,136.711282 257.112402,137.476134 257.127598,138.236518 L257.169609,140.346115" id="Stroke-127"></path>
                <path d="M247.123218,123.780461 C247.290369,125.096613 247.466458,126.442252 248.071598,127.623484 C248.458637,128.381188 249.009251,129.042391 249.507128,129.733081 C249.91562,130.299572 250.292827,130.891081 250.755844,131.413789 C252.284335,133.137387 254.765676,133.95853 257.021765,133.485859" id="Stroke-129"></path>
                <path d="M257.057788,140.035618 C258.010637,142.482071 257.528849,145.216238 257.259799,147.828886 C257.142704,148.960974 257.069408,150.117187 257.306279,151.231405 C257.430525,151.815766 257.637006,152.378682 257.775553,152.960363 C258.006168,153.936085 258.037453,154.945761 258.067844,155.947395 C258.237676,161.575669 258.395888,167.312057 256.839687,172.725886 C255.104715,172.802729 253.370637,172.880465 251.636559,172.958201 C251.066279,172.374733 250.765944,171.5384 250.835665,170.727085 C250.886615,170.131108 251.122592,169.569085 251.323709,169.005275 C252.409743,165.955696 252.489296,162.557645 251.548067,159.46071 C251.293318,158.621696 250.965274,157.800553 250.806168,156.938307 C250.531754,155.45328 250.772201,153.916428 250.572872,152.419784 C250.405721,151.16171 249.931084,149.950993 249.864045,148.683983 C249.813989,147.727919 249.997229,146.771854 249.95343,145.816682 C249.911419,144.890997 249.657564,143.989437 249.404603,143.096812 C249.008626,141.693094 248.612648,140.291164 248.215777,138.88834 C248.560804,141.701136 248.905832,144.526442 248.844156,147.359789 C248.817341,148.567826 248.717229,149.773182 248.727061,150.981219 C248.736,152.20802 248.860246,153.431247 248.984492,154.651794 C249.533318,160.084386 250.083039,165.518766 250.633654,170.952252 C248.348067,170.737807 246.07857,170.351807 243.851084,169.795145 C244.192536,168.907881 243.463151,168.004534 243.186056,167.093145 C243.003709,166.492701 243.021587,165.852942 243.02695,165.224798 C243.047508,162.844465 242.872313,160.462344 242.502257,158.110604 C241.926615,154.458794 240.882592,150.871317 240.652872,147.180192 C240.543821,145.432469 240.618905,143.675812 240.457117,141.932557 C240.316782,140.424298 239.999464,138.937483 239.683039,137.453349 C239.372872,136.000488 239.062704,134.547627 238.752536,133.094766" id="Stroke-131"></path>
                <path d="M243.882994,169.613404 C241.904,170.121816 240.632045,172.208181 238.652156,172.713913 C238.307128,172.801478 237.851263,172.952482 237.875397,173.308103 C237.883441,173.420686 237.944223,173.521654 238.014838,173.610112 C238.503777,174.223959 239.39048,174.312418 240.176179,174.333862 C242.022883,174.385686 243.978637,174.309737 245.540201,173.320612 C245.891486,173.097232 246.222212,172.83007 246.614615,172.691575 C247.007017,172.553973 247.495955,172.579885 247.775732,172.887256 C247.86333,172.982862 247.927687,173.102594 248.035844,173.174075 C248.175285,173.267894 248.355844,173.262533 248.521207,173.248237 C249.47048,173.168714 250.403665,172.904232 251.251933,172.471769" id="Stroke-133"></path>
                <path d="M251.810771,172.897799 C250.091888,174.027206 249.308872,176.106424 248.63133,178.047146 C248.558034,178.254443 248.485631,178.48229 248.558927,178.689586 C248.634905,178.907605 248.850324,179.041632 249.059486,179.136345 C249.947084,179.542896 250.975911,179.553619 251.929654,179.341855 C252.881609,179.130091 253.773676,178.70835 254.644291,178.266952 C254.912447,178.131137 255.19133,177.981919 255.350436,177.72816 C255.681162,177.201878 255.444291,176.32891 255.997587,176.043878 C256.13524,175.974183 256.300603,175.958994 256.42038,175.860706 C256.577698,175.73204 256.601832,175.504193 256.609877,175.301364 C256.64295,174.476646 256.593788,173.647461 256.464179,172.831679" id="Stroke-135"></path>
            </g>
        </g>
    </g>
</svg>