<svg xmlns="http://www.w3.org/2000/svg" viewBox="0 0 723.64 131.48"><defs><style>.cls-1{fill:none;}.cls-2{fill:#093e48;}.cls-3{fill:#09ddc7;}</style></defs><title>Element 6</title><g id="Ebene_2" data-name="Ebene 2"><g id="Ebene_1-2" data-name="Ebene 1"><g id="Logo_dark"><g id="Name"><path class="cls-1" d="M216.63,48q-7.81,0-12,5.27t-4.23,15.3q0,10.14,4.16,15.35t12,5.21q7.94,0,12.1-5.21t4.17-15.35q0-10-4.17-15.3T216.63,48Z"/><path class="cls-1" d="M146.71,46.21q-7.82,0-12,5.27t-4.23,15.29q0,10.16,4.16,15.36t12,5.2q7.93,0,12.1-5.2t4.16-15.36q0-10-4.16-15.29T146.71,46.21Z"/><path class="cls-2" d="M35.79,62.34,25,59.87a13.32,13.32,0,0,1-6-2.6A5.52,5.52,0,0,1,17.05,53a6.17,6.17,0,0,1,3-5.46c2-1.3,4.77-2,8.33-2q9.89,0,19.78,7.16l4.56-11.06a36.24,36.24,0,0,0-11.13-5.86A41.73,41.73,0,0,0,28.5,33.71a35.6,35.6,0,0,0-13.73,2.47,21.38,21.38,0,0,0-9.24,7A17,17,0,0,0,2.21,53.49,15.74,15.74,0,0,0,6.51,65q4.29,4.42,13.14,6.37l10.41,2.35c3.47.86,5.88,1.82,7.23,2.86a5.28,5.28,0,0,1,2,4.42,5.78,5.78,0,0,1-2.92,5.21c-2,1.22-4.8,1.82-8.53,1.82A38.4,38.4,0,0,1,4.56,80.56L0,91.89a35.11,35.11,0,0,0,12,6A55,55,0,0,0,27.59,100Q39.83,100,47,94.75a16.51,16.51,0,0,0,7.16-14.06q0-7.27-4.42-11.77T35.79,62.34Z"/><path class="cls-2" d="M91.4,46.47a25.1,25.1,0,0,1,8.91,1.69,31.28,31.28,0,0,1,8.53,4.94l4.68-11.45a27.75,27.75,0,0,0-10.35-5.79A41.54,41.54,0,0,0,90,33.71a35.44,35.44,0,0,0-17.43,4.17A28.66,28.66,0,0,0,60.88,49.65a36.31,36.31,0,0,0-4.1,17.51,36.7,36.7,0,0,0,3.9,17.31A27.32,27.32,0,0,0,71.94,95.92a35.56,35.56,0,0,0,17.37,4,43,43,0,0,0,13.54-2.15,29.42,29.42,0,0,0,10.67-5.92l-4.68-11.33a31.06,31.06,0,0,1-8.53,5A25.1,25.1,0,0,1,91.4,87.2q-8.46,0-13.15-5.27t-4.68-15q0-9.89,4.68-15.16T91.4,46.47Z"/><path class="cls-2" d="M163.82,37.75a35,35,0,0,0-17.11-4,35,35,0,0,0-17.12,4A28.07,28.07,0,0,0,118.2,49.26a36.36,36.36,0,0,0-4,17.51,36.72,36.72,0,0,0,4,17.57,27.94,27.94,0,0,0,11.39,11.58,35,35,0,0,0,17.12,4,35,35,0,0,0,17.11-4,27.55,27.55,0,0,0,11.32-11.58,37.17,37.17,0,0,0,4-17.57,36.81,36.81,0,0,0-4-17.51A27.67,27.67,0,0,0,163.82,37.75Zm-5.14,44.38q-4.17,5.2-12.1,5.2t-12-5.2q-4.17-5.2-4.16-15.36t4.23-15.29q4.22-5.28,12-5.27t12,5.27q4.15,5.27,4.16,15.29T158.68,82.13Z"/><path class="cls-2" d="M337.85,46.68V35.28H322.36v64.81h16.27v-35c0-10,4.2-15.39,15.41-16.94l10.23-.69.26-11.77s-7.57-1.33-14,0S340.27,41,337.85,46.68Z"/><path class="cls-2" d="M397.3,75V47.51h16.78V35.27H397.3v-19H381v19H368.79V47.51H381V75.23q0,12.22,6.37,18.41t19.79,6.18c2.16,0,4.55-.13,7.15-.39l.79-12.1a48.5,48.5,0,0,1-6,.39Q397.29,87.72,397.3,75Z"/><polygon class="cls-2" points="470.89 35.4 452.41 80.3 434.45 35.4 417.27 35.4 443.82 96.44 432.24 122.34 448.63 122.34 486.9 35.4 470.89 35.4"/><path class="cls-2" d="M245.06,51a27.57,27.57,0,0,0-11.32-11.52,38.34,38.34,0,0,0-34-.13v-2.8H184v86.53h15.74V97.8a38.34,38.34,0,0,0,34-.13,27.49,27.49,0,0,0,11.32-11.58,37.2,37.2,0,0,0,4-17.57A36.81,36.81,0,0,0,245.06,51ZM228.6,83.87q-4.17,5.2-12.1,5.21t-12-5.21q-4.16-5.2-4.16-15.35t4.23-15.3q4.23-5.26,12-5.27t12,5.27q4.17,5.28,4.17,15.3T228.6,83.87Z"/><path class="cls-2" d="M310,74.22a30.73,30.73,0,0,1-16.85,11.52Q285,87.93,279.47,85t-8.55-11.31l41.86-11.22L311.6,58q-3.84-14.33-13.38-20.53T276,34.7a31.17,31.17,0,0,0-14.45,8.18A28.4,28.4,0,0,0,253.94,57a37.08,37.08,0,0,0,.71,17.73q4,14.83,15,21T295.76,98a42.87,42.87,0,0,0,12.44-5.62,34.35,34.35,0,0,0,9.23-8.54ZM270.27,52.39a13.83,13.83,0,0,1,9.05-6.73Q285.61,44,290.18,47c2.51,1.65,4.49,4.35,6,8l-27.77,7.44A18.48,18.48,0,0,1,270.27,52.39Z"/></g></g><path class="cls-3" d="M587.67,98a3.82,3.82,0,0,1-6.56-2.73V3.82a3.82,3.82,0,1,1,7.64,0V95.25A3.7,3.7,0,0,1,587.67,98Z"/><path class="cls-3" d="M660.39,35.45a3.74,3.74,0,0,1,1.08,2.74V74.11q0,12.48-7,19.16T635.11,100q-12.23,0-19.17-6.69T609,74.11V38.19a3.82,3.82,0,1,1,7.64,0V74.11q0,9.17,4.84,13.94t13.63,4.78q8.91,0,13.82-4.78t4.9-13.94V38.19a3.88,3.88,0,0,1,6.56-2.74Z"/><path class="cls-3" d="M674.86,86a2.79,2.79,0,0,1,1.66-2.55,2.75,2.75,0,0,1,2-.76,3.88,3.88,0,0,1,2.8,1.27,23.83,23.83,0,0,0,20,9.93A19.46,19.46,0,0,0,712,91a9.28,9.28,0,0,0,4.52-8.34,8.86,8.86,0,0,0-4.21-8A40.6,40.6,0,0,0,700.59,70Q690,67.36,684,63.09t-6-12.55A15.79,15.79,0,0,1,681,41.18a19.35,19.35,0,0,1,8-6.43,27.29,27.29,0,0,1,11.39-2.29,30.91,30.91,0,0,1,11,2.1,23.27,23.27,0,0,1,9.49,6.69A3,3,0,0,1,722,43.8a3.49,3.49,0,0,1-1.27,2.67,3.4,3.4,0,0,1-2.29.76,3.13,3.13,0,0,1-2.29-1A20.1,20.1,0,0,0,708.87,41a23.08,23.08,0,0,0-9-1.78A18.33,18.33,0,0,0,689.57,42a9.4,9.4,0,0,0-4.26,8.41A9.18,9.18,0,0,0,690,58.19q4.39,2.67,12.93,4.84a60,60,0,0,1,11,3.69,18.42,18.42,0,0,1,7.07,5.73q2.75,3.69,2.74,9.81A15.58,15.58,0,0,1,717,95.44q-6.63,4.91-16.43,4.9-15.54,0-24.71-11.59A5.66,5.66,0,0,1,674.86,86Z"/><path class="cls-3" d="M534.58,32c-17.48,0-31.64,15.57-31.64,34.29,0,.14,0,.51,0,.79V92.38H483.28a3.82,3.82,0,1,0,0,7.64H503v27.64a3.82,3.82,0,1,0,7.64,0V100h23.73s.09,0,.14,0h0c17.48,0,31.88-15.37,31.88-34.08S552.05,32,534.58,32Zm-.16,60.35h0l-.09,0H510.6V67.46s0-.9,0-1.15c0-15,10.83-27.32,24-27.32s23.81,12,23.81,27S547.55,92.2,534.42,92.39Z"/></g></g></svg>