<?xml version="1.0" encoding="UTF-8"?>
<svg width="32px" height="42px" viewBox="0 0 32 42" version="1.1" xmlns="http://www.w3.org/2000/svg" xmlns:xlink="http://www.w3.org/1999/xlink">
    <!-- Generator: Sketch 59.1 (86144) - https://sketch.com -->
    <title>Pin/forsale/single_plus/standard</title>
    <desc>Created with Sketch.</desc>
    <defs>
        <linearGradient x1="50%" y1="0%" x2="50%" y2="73.344494%" id="linearGradient-1">
            <stop stop-color="#FF9BF5" offset="0%"></stop>
            <stop stop-color="#BE00AA" offset="100%"></stop>
        </linearGradient>
    </defs>
    <g id="Pin/forsale/single_plus/standard" stroke="none" stroke-width="1" fill="none" fill-rule="evenodd">
        <path d="M16,0 C24.836556,0 32,7.163444 32,16 C32,23.1300665 27.3361673,29.1708365 20.8927343,31.2380776 L16,42 L11.1072657,31.2380776 C4.6638327,29.1708365 0,23.1300665 0,16 C0,7.163444 7.163444,0 16,0 Z" id="pin_forsale" fill="url(#linearGradient-1)"></path>
        <g id="Logo_plus" transform="translate(2.000000, 9.000000)" fill="#FFFFFF" stroke="#FFFFFF" stroke-width="0.6">
            <path d="M12.2010424,11.0481462 C12.1194087,11.1295545 12.0164645,11.1701458 11.8922098,11.1701458 C11.7677296,11.1701458 11.6647854,11.1295545 11.5834899,11.0481462 C11.5021945,10.9668507 11.4614903,10.8637938 11.4614903,10.7394263 L11.4614903,0.430685649 C11.4614903,0.306430973 11.5021945,0.20337401 11.5834899,0.122078528 C11.6647854,0.0407830456 11.7677296,7.89276525e-05 11.8922098,7.89276525e-05 C12.0164645,7.89276525e-05 12.1194087,0.0407830456 12.2010424,0.122078528 C12.2822252,0.20337401 12.3231548,0.306430973 12.3231548,0.430685649 L12.3231548,10.7394263 C12.3231548,10.8637938 12.2822252,10.9668507 12.2010424,11.0481462" id="Fill-1"></path>
            <path d="M20.4005769,3.99750519 C20.4816469,4.07891343 20.5225765,4.18197039 20.5225765,4.30633782 L20.5225765,8.35566466 C20.5225765,9.29400169 20.2591837,10.0140474 19.7327362,10.5167038 C19.2060633,11.0193602 18.4785758,11.2705756 17.5500484,11.2705756 C16.631105,11.2705756 15.910721,11.0193602 15.3890092,10.5167038 C14.8671847,10.0140474 14.6063852,9.29400169 14.6063852,8.35566466 L14.6063852,4.30633782 C14.6063852,4.18197039 14.6470893,4.07891343 14.7283848,3.99750519 C14.8096803,3.91620971 14.9127372,3.87539284 15.0372174,3.87539284 C15.1615849,3.87539284 15.2643036,3.91620971 15.3459373,3.99750519 C15.42712,4.07891343 15.4680497,4.18197039 15.4680497,4.30633782 L15.4680497,8.35566466 C15.4680497,9.04492857 15.649696,9.56900818 16.0136652,9.92801625 C16.3772962,10.2869116 16.8895367,10.4664156 17.5500484,10.4664156 C18.2201441,10.4664156 18.7396009,10.2869116 19.1080802,9.92801625 C19.4765596,9.56900818 19.6609121,9.04492857 19.6609121,8.35566466 L19.6609121,4.30633782 C19.6609121,4.18197039 19.7016162,4.07891343 19.7830244,3.99750519 C19.8643199,3.91620971 19.9672641,3.87539284 20.0917443,3.87539284 C20.2161117,3.87539284 20.3189432,3.91620971 20.4005769,3.99750519" id="Fill-3"></path>
            <path d="M22.0323159,9.69113181 C22.0323159,9.56665163 22.094556,9.47103642 22.2189235,9.40394791 C22.2764279,9.34644348 22.3529877,9.31769126 22.4487157,9.31769126 C22.5637245,9.31769126 22.6689238,9.36583713 22.7647645,9.46133959 C23.3294355,10.2081079 24.0809395,10.5814357 25.0191638,10.5814357 C25.4786355,10.5814357 25.8782349,10.4737559 26.2181876,10.2583961 C26.5580275,10.0428109 26.7280602,9.7294681 26.7280602,9.31769126 C26.7280602,8.915724 26.5700922,8.61422037 26.2540433,8.41318036 C25.9383327,8.2120276 25.4978036,8.03973981 24.9330199,7.89620424 C24.138444,7.69516423 23.516043,7.43436472 23.0663809,7.11358019 C22.6162678,6.79290841 22.3914368,6.32159757 22.3914368,5.69919666 C22.3914368,5.30658796 22.5012589,4.95490889 22.7215798,4.64370843 C22.9416752,4.33273348 23.2409238,4.09076385 23.6191,3.91870157 C23.9971635,3.74618827 24.4255151,3.66015713 24.9042677,3.66015713 C25.315819,3.66015713 25.7300765,3.73908478 26.1464762,3.89694009 C26.5629887,4.0550209 26.9194034,4.3063491 27.2161714,4.65092468 C27.3023153,4.71801318 27.3455,4.81374115 27.3455,4.93822133 C27.3455,5.05289194 27.2973541,5.15346832 27.2018517,5.23961221 C27.1347632,5.29711664 27.0485065,5.32586886 26.9433072,5.32586886 C26.8475793,5.32586886 26.7614354,5.28753257 26.6849883,5.21097275 C26.4551961,4.95242831 26.1823319,4.75623672 25.8663958,4.62217246 C25.5505724,4.48810821 25.210507,4.42113245 24.846876,4.42113245 C24.3967629,4.42113245 24.011596,4.52655725 23.6910369,4.73695582 C23.3700269,4.94769265 23.2099165,5.26362877 23.2099165,5.68487692 C23.2289719,6.06778879 23.4037403,6.3595956 23.7339961,6.56063561 C24.064252,6.76178837 24.5499953,6.94366023 25.1915644,7.10636395 C25.6892596,7.23095688 26.1009237,7.3697568 26.4264439,7.52287644 C26.7517385,7.67610884 27.0173865,7.89146858 27.2233876,8.16906841 C27.4290505,8.44678099 27.5321075,8.81503487 27.5321075,9.27473207 C27.5321075,9.89702023 27.2830344,10.3925731 26.7853392,10.760827 C26.2875312,11.1295319 25.6700914,11.3137716 24.9330199,11.3137716 C23.7648907,11.3137716 22.8365887,10.8783165 22.1473248,10.0070679 C22.0706522,9.8827005 22.0323159,9.77727571 22.0323159,9.69113181" id="Fill-5"></path>
            <path d="M6.1973429,10.4177511 L6.1973429,10.4178638 C6.19339651,10.4178638 6.19035216,10.4158342 6.18618027,10.4158342 L3.51087111,10.4158342 L3.51087111,7.60634807 C3.51087111,7.60634807 3.50974358,7.5045314 3.50974358,7.47701948 C3.50974358,5.78774221 4.73154364,4.39669871 6.21459423,4.39669871 C7.69787033,4.39669871 8.90016398,5.75459259 8.90016398,7.44386986 C8.90016398,9.13314713 7.67734914,10.3954258 6.1973429,10.4177511 M6.21459423,3.61204509 C4.24433451,3.61204509 2.64706433,5.36874913 2.64706433,7.47859803 C2.64706433,7.49506008 2.64807912,7.53610246 2.64920666,7.56756077 L2.64920666,10.4158342 L0.430663098,10.4158342 C0.306295669,10.4158342 0.203351459,10.4565384 0.122055977,10.5378338 C0.0405349872,10.6191293 -5.63768947e-05,10.7221863 -5.63768947e-05,10.8466665 C-5.63768947e-05,10.9708084 0.0405349872,11.0738654 0.122055977,11.1554991 C0.203351459,11.2365691 0.306295669,11.2774987 0.430663098,11.2774987 L2.64920666,11.2774987 L2.64920666,14.39469 C2.64920666,14.5188319 2.69024904,14.6218888 2.77120626,14.7032971 C2.85284,14.7845926 2.95589696,14.8252967 3.08015164,14.8252967 C3.20451907,14.8252967 3.30757603,14.7845926 3.38875876,14.7032971 C3.470167,14.6218888 3.51087111,14.5188319 3.51087111,14.39469 L3.51087111,11.2774987 L6.18618027,11.2774987 C6.19226898,11.2774987 6.19689188,11.2746799 6.20298059,11.2745671 C6.20320609,11.2745671 6.20275508,11.2751309 6.20298059,11.2751309 C8.17335305,11.2751309 9.79666936,9.54221788 9.79666936,7.43225622 C9.79666936,5.32252007 8.18507945,3.61204509 6.21459423,3.61204509" id="Fill-8"></path>
        </g>
    </g>
</svg>