<?xml version="1.0" encoding="UTF-8"?>
<svg width="32px" height="32px" viewBox="0 0 32 32" version="1.1" xmlns="http://www.w3.org/2000/svg" xmlns:xlink="http://www.w3.org/1999/xlink">
    <!-- Generator: Sketch 53.1 (72631) - https://sketchapp.com -->
    <title>Icon/Fav/bg/bright/32</title>
    <desc>Created with Sketch.</desc>
    <defs>
        <path d="M20,7.24 L12.81,6.62 L10,0 L7.19,6.63 L0,7.24 L5.46,11.97 L3.82,19 L10,15.27 L16.18,19 L14.55,11.97 L20,7.24 Z M10,13.4 L6.24,15.67 L7.24,11.39 L3.92,8.51 L8.3,8.13 L10,4.1 L11.71,8.14 L16.09,8.52 L12.77,11.4 L13.77,15.68 L10,13.4 Z" id="path-1"></path>
    </defs>
    <g id="E_Container" stroke="none" stroke-width="1" fill="none" fill-rule="evenodd">
        <g id="Hero/shortinfobox/house/withowner_forsale" transform="translate(-504.000000, -241.000000)">
            <g id="Icon/Fav/bg/bright/32" transform="translate(504.000000, 241.000000)">
                <circle id="Oval" fill="#07B09F" cx="16" cy="16" r="16"></circle>
                <g id="Icon/star/outlined" transform="translate(4.000000, 4.000000)" stroke-width="1">
                    <g id="outline-star_border-24px">
                        <polygon id="Path" points="0 0 24 0 24 24 0 24"></polygon>
                        <g id="color/active" transform="translate(2.000000, 2.000000)">
                            <mask id="mask-2" fill="white">
                                <use xlink:href="#path-1"></use>
                            </mask>
                            <use id="Mask" fill="#000000" fill-rule="nonzero" xlink:href="#path-1"></use>
                            <g id="color/clicked" mask="url(#mask-2)" fill="#FFFFFF">
                                <g transform="translate(-2.000000, -2.000000)" id="Rectangle-25">
                                    <rect x="0" y="0" width="24.0833333" height="24"></rect>
                                </g>
                            </g>
                        </g>
                    </g>
                </g>
            </g>
        </g>
    </g>
</svg>