<?xml version="1.0" encoding="UTF-8"?>
<svg width="403px" height="322px" viewBox="0 0 403 322" version="1.1" xmlns="http://www.w3.org/2000/svg" xmlns:xlink="http://www.w3.org/1999/xlink">
    <!-- Generator: Sketch 52.5 (67469) - http://www.bohemiancoding.com/sketch -->
    <title>Scribbles_about_us</title>
    <desc>Created with Sketch.</desc>
    <g id="D_2.1_Subpages_desktop" stroke="none" stroke-width="1" fill="none" fill-rule="evenodd" stroke-linecap="round">
        <g id="D_2.0.0.0_Subpage_about_us" transform="translate(-936.000000, -99.000000)" stroke="#003C47" stroke-width="2">
            <g id="Scribbles_about_us" transform="translate(937.000000, 100.000000)">
                <path d="M266.8845,26.3726 C262.0775,30.8846 257.2705,35.3956 252.4635,39.9066 C246.7695,45.2506 241.0605,50.6066 234.7935,55.2646 C226.1895,61.6596 216.6395,66.6586 207.0085,71.3666 C195.5125,76.9856 183.8375,82.2276 172.1655,87.4696 L138.1895,102.7266 C138.6555,108.2486 144.9875,111.6286 150.5165,111.2526 C156.0465,110.8756 161.0095,107.9296 166.0645,105.6566 C171.6695,103.1356 177.6185,101.3836 183.6955,100.4626 C184.7775,100.2986 186.0735,100.2386 186.7605,101.0916 C187.1765,101.6076 187.2355,102.3246 187.1935,102.9866 C186.9675,106.6176 184.3915,109.6126 181.9475,112.3096 L138.9155,159.7806 C136.9545,161.9426 134.9425,164.1926 134.0265,166.9646 C133.1105,169.7366 133.5915,173.1926 135.9345,174.9326 C139.7855,177.7896 145.0855,174.4346 148.5215,171.0916 C160.7905,159.1536 171.6075,145.2746 186.4095,136.6776 C188.3965,135.5226 191.0785,134.5246 192.8175,136.0276 C182.4125,152.8376 173.6265,170.6486 166.6215,189.1356 C165.3485,192.4936 164.2475,196.6296 166.5525,199.3846 C168.4415,201.6426 172.0075,201.8606 174.6675,200.5976 C177.3275,199.3356 179.2485,196.9276 180.8895,194.4826 C191.8485,178.1626 195.3075,156.0966 211.2925,144.6526 C205.6055,163.0866 199.9175,181.5196 194.2305,199.9536 C193.8425,201.2106 193.4505,202.5356 193.7175,203.8246 C194.1865,206.0936 196.6835,207.5306 198.9985,207.4066 C201.3125,207.2816 203.3965,205.9326 205.0585,204.3166 C209.2385,200.2556 211.3105,194.5526 213.2525,189.0576 C217.2115,177.8556 221.1695,166.6526 225.1285,155.4506 C225.8825,153.3166 227.0085,150.8526 229.2395,150.4736 C231.5975,150.0726 233.5355,152.2866 234.7025,154.3736 C241.2255,166.0446 240.3215,180.5946 245.9705,192.7116 C247.2355,195.4236 249.2745,198.2826 252.2585,198.4946 C254.8905,198.6816 257.2575,196.5906 258.2465,194.1436 C259.2355,191.6976 257.3795,188.9666 257.2455,186.3306 C256.6405,174.3776 253.6345,162.4566 251.7725,150.6346 C251.0315,145.9336 250.1885,141.1926 250.5195,136.4446 C250.8495,131.7076 254.1045,127.1376 255.5785,122.6236 C257.5705,116.5306 257.7925,110.4366 259.7825,104.3426 C260.9025,100.9166 263.8105,97.4486 265.7645,94.4206 C268.1025,90.7976 273.2525,84.4556 276.5785,81.7126 C287.5655,72.6496 298.5525,61.8176 309.5395,52.7546" id="Stroke-1"></path>
                <path d="M400.7102,146.8775 C384.9122,145.7005 369.1132,144.5235 353.3142,143.3455 C344.5152,142.6905 335.6592,142.0245 327.1202,139.7995 C322.0962,138.4905 317.2272,136.6515 312.4082,134.7185 C300.1742,129.8125 288.1922,124.2765 276.5252,118.1415 C269.8012,114.6065 266.1012,111.8375 258.7692,109.8485" id="Stroke-3"></path>
                <path d="M394.4748,204.8726 C384.3838,202.2896 374.1868,200.1236 363.9168,198.3836 C355.3328,196.9296 346.3408,195.7986 338.0638,198.4976 C330.9398,200.8206 324.9958,205.7766 318.2128,208.9586 C301.5348,216.7826 281.9488,213.1646 263.7368,215.9346 C248.5638,218.2426 234.4118,225.0026 219.3918,228.1586 C215.9638,228.8786 212.2288,229.3746 209.0898,227.8186 C205.9518,226.2636 204.0438,221.8576 206.2208,219.1116 C207.0328,218.0876 208.2398,217.4716 209.4078,216.8856 C222.9128,210.1186 234.4188,203.3516 247.9238,196.5846" id="Stroke-5"></path>
                <path d="M244.5881,191.4297 C233.9821,190.9027 223.3601,190.6677 212.7411,190.7267" id="Stroke-7"></path>
                <path d="M197.2273,189.9136 C192.2343,190.3956 188.2413,190.8786 183.2483,191.3616" id="Stroke-9"></path>
                <path d="M239.6111,171.8946 C232.5321,171.5786 226.4401,171.5816 219.3611,171.9016" id="Stroke-11"></path>
                <path d="M202.1047,173.3472 C197.7477,174.0342 194.4427,175.0512 190.2387,176.3862" id="Stroke-13"></path>
                <path d="M194.7312,167.2691 C198.1232,167.5061 200.5392,167.4141 203.9132,166.9951" id="Stroke-15"></path>
                <path d="M226.5608,152.4234 C229.3638,152.3884 230.1678,152.5194 232.9558,152.8144" id="Stroke-17"></path>
                <path d="M251.2732,137.8477 L266.7152,133.7477 C263.3012,130.3467 259.2142,127.6227 254.7602,125.7817" id="Stroke-19"></path>
                <path d="M299.9289,292.209 C277.8459,271.632 261.3059,245.936 245.0059,220.531" id="Stroke-21"></path>
                <path d="M265.2419,317.6924 C261.9449,311.5424 257.2839,306.2454 252.5539,301.1144 C244.9309,292.8434 236.8789,284.7334 227.0939,279.1864 C214.7809,272.2074 199.8739,269.3514 189.7389,259.4714 C186.8479,256.6534 184.4669,253.3634 182.1209,250.0774 C172.5699,236.7014 163.0269,222.2344 161.8549,205.8404 C161.8199,205.3434 161.7939,204.8274 161.9689,204.3604 C162.7249,202.3354 165.7639,203.1654 167.5769,204.3404 L178.8539,211.6504" id="Stroke-23"></path>
                <path d="M173.6804,201.1387 C175.8884,204.2057 178.1474,206.3777 179.0104,210.0567 C179.5594,212.3957 179.5144,214.8257 179.6744,217.2227 C180.3584,227.5367 185.0244,237.5367 192.4894,244.6877" id="Stroke-25"></path>
                <path d="M167.5769,186.4615 C163.5909,178.3775 160.1959,171.0025 157.4279,162.4245" id="Stroke-27"></path>
                <path d="M184.4113,149.3882 C178.8283,150.1152 173.2453,150.8432 167.6623,151.5702" id="Stroke-29"></path>
                <path d="M162.6501,157.0181 C161.0091,160.8461 162.4161,162.1121 164.6991,164.1261 C167.7111,166.7831 172.1161,167.7621 175.9701,166.6301" id="Stroke-31"></path>
                <path d="M160.5466,171.9527 C159.6236,175.5337 158.2506,177.9807 156.8816,181.4157 C155.5076,184.8637 154.1336,188.3107 152.7596,191.7587 C151.5926,194.6877 150.4036,197.8277 151.0406,200.9157 C151.6766,204.0037 154.9736,206.7427 157.9026,205.5747 C159.7036,204.8557 160.7336,202.9957 161.6196,201.2717 C162.6856,199.1977 163.7516,197.1227 164.8176,195.0497" id="Stroke-33"></path>
                <path d="M147.028,98.6372 C132.005,96.2582 117.693,93.8762 102.656,96.1722 C94.308,97.4462 86.225,100.1422 77.872,101.3842 C68.395,102.7922 58.751,102.3042 49.182,101.8142 L9.4,99.7722" id="Stroke-35"></path>
                <path d="M0.0002,153.774 C20.5112,157.326 41.4262,152.718 62.1732,151.018 C67.2852,150.599 72.9902,150.545 76.8432,153.931 C79.7382,156.476 80.9042,160.397 82.7892,163.758 C87.1472,171.53 95.2912,176.221 102.3202,181.697 C111.0822,188.524 118.4812,196.995 124.7032,206.195 C126.9412,209.506 129.8542,213.349 133.8362,213.007 C137.4282,212.7 139.8292,208.793 139.7892,205.187 C139.7492,201.582 137.9412,198.264 136.1812,195.117 C131.5812,186.895 126.9812,178.671 122.3822,170.449 C125.6442,169.161 130.4082,169.201 133.6422,170.557" id="Stroke-37"></path>
                <path d="M151.0539,168.8252 C154.8859,169.1202 155.7189,169.4162 159.5509,169.7112" id="Stroke-39"></path>
                <path d="M155.3757,110.2285 C165.2497,110.4935 174.1357,110.3365 183.9957,109.7595" id="Stroke-41"></path>
                <path d="M151.2766,124.9815 C157.7646,125.1415 163.2536,125.3015 169.7416,125.4615" id="Stroke-43"></path>
                <path d="M95.0349,176.2076 C93.9799,183.4136 89.3209,189.5046 86.5669,196.2466 C84.5339,201.2246 83.5379,206.6246 83.6629,212.0016 C83.6729,212.4356 83.7029,212.9056 83.9849,213.2366 C84.2819,213.5856 84.7739,213.6816 85.2259,213.7566 C89.0209,214.3826 93.1579,214.9556 96.5129,213.0746 C98.5549,211.9306 100.0299,210.0136 101.4459,208.1486 C103.8769,204.9466 106.3359,201.6966 107.8569,197.9746 C108.9879,195.2056 109.5959,192.1856 111.2489,189.6926" id="Stroke-45"></path>
                <path d="M132.8171,189.2222 C134.8281,188.6342 137.0451,188.0562 138.9571,188.9142 C139.7251,189.2582 140.3771,189.8112 141.0071,190.3702 C146.7651,195.4782 151.5621,201.6662 155.0731,208.5152" id="Stroke-47"></path>
                <path d="M155.8088,206.441 C152.9428,216.29 144.7028,223.925 142.0288,233.828 C140.3338,240.104 140.9808,246.965 138.3838,252.924 C137.0538,255.977 134.9388,258.617 132.7418,261.12 C126.8128,267.876 120.0928,273.936 112.7618,279.136" id="Stroke-49"></path>
                <path d="M150.2531,319.8526 C157.5461,315.0486 164.8401,310.2446 172.1331,305.4396 C188.3221,294.7766 203.6261,284.0496 221.4921,276.5296" id="Stroke-51"></path>
                <path d="M318.9978,208.8155 C319.4438,212.2445 319.8898,215.6735 320.3358,219.1025 C320.5848,221.0205 320.8398,222.9605 321.5498,224.7585 C323.9528,230.8465 330.7208,233.7665 335.4608,238.2795 C338.9268,241.5795 341.3418,245.8035 343.7058,249.9635 L353.8768,267.8525" id="Stroke-53"></path>
                <path d="M266.3445,252.8496 C272.3445,261.2096 285.1305,261.0806 292.9095,267.8176 C297.0045,271.3626 299.3255,276.4816 301.5235,281.4316 C303.0475,284.8626 304.5705,288.2916 306.0945,291.7226" id="Stroke-55"></path>
                <path d="M184.7795,0 C192.8025,15.263 198.8665,31.553 202.7775,48.347 C204.5245,55.851 205.9115,62.632 209.9035,69.223" id="Stroke-57"></path>
                <path d="M137.9885,13.0391 C144.2705,17.8141 147.6725,25.3701 150.8275,32.6021 C158.6975,50.6431 166.5685,67.6841 174.4395,85.7241" id="Stroke-59"></path>
                <path d="M259.1076,135.5244 C257.0496,132.9134 255.2516,130.0984 253.7466,127.1334" id="Stroke-61"></path>
                <path d="M176.4675,143.8931 C178.4305,145.7791 180.2265,146.8391 181.8265,149.0401" id="Stroke-63"></path>
                <path d="M187.2937,191.5342 C190.1477,194.1862 193.1597,196.7322 193.9727,200.5422" id="Stroke-65"></path>
                <path d="M224.9841,194.4034 L222.8471,190.6024" id="Stroke-67"></path>
            </g>
        </g>
    </g>
</svg>