<?xml version="1.0" encoding="UTF-8"?>
<svg width="80px" height="80px" viewBox="0 0 80 80" version="1.1" xmlns="http://www.w3.org/2000/svg" xmlns:xlink="http://www.w3.org/1999/xlink">
    <!-- Generator: Sketch 46.2 (44496) - http://www.bohemiancoding.com/sketch -->
    <title>Appartment_Standard</title>
    <desc>Created with Sketch.</desc>
    <defs></defs>
    <g id="Icons" stroke="none" stroke-width="1" fill="none" fill-rule="evenodd">
        <g id="Appartment_Standard" stroke="#FFFFFF" fill-rule="nonzero">
            <g id="np_hotel-building_560007_FFFFFF-Copy" transform="translate(8.000000, 8.000000)">
                <path d="M8.6752,20.62528 L12.237696,20.62528 C13.212672,20.62528 14.000192,19.83776 14.000192,18.862784 C14.000192,17.887808 13.212672,17.100288 12.237696,17.100288 L8.6752,17.100288 C7.700224,17.100288 6.912704,17.887808 6.912704,18.862784 C6.912704,19.83776 7.700224,20.62528 8.6752,20.62528 Z" id="Shape"></path>
                <path d="M18.91264,20.62528 L22.475136,20.62528 C23.450112,20.62528 24.237632,19.83776 24.237632,18.862784 C24.237632,17.887808 23.450112,17.100288 22.475136,17.100288 L18.91264,17.100288 C17.937664,17.100288 17.150144,17.887808 17.150144,18.862784 C17.1376442,19.83776 17.937664,20.62528 18.91264,20.62528 L18.91264,20.62528 Z" id="Shape"></path>
                <path d="M8.6752,28.48768 L12.237696,28.48768 C13.212672,28.48768 14.000192,27.70016 14.000192,26.725184 C14.000192,25.750208 13.212672,24.962688 12.237696,24.962688 L8.6752,24.962688 C7.700224,24.962688 6.912704,25.750208 6.912704,26.725184 C6.912704,27.70016 7.700224,28.48768 8.6752,28.48768 Z" id="Shape"></path>
                <path d="M18.91264,28.48768 L22.475136,28.48768 C23.450112,28.48768 24.237632,27.70016 24.237632,26.725184 C24.237632,25.750208 23.450112,24.962688 22.475136,24.962688 L18.91264,24.962688 C17.937664,24.962688 17.150144,25.750208 17.150144,26.725184 C17.150144,27.70016 17.937664,28.48768 18.91264,28.48768 L18.91264,28.48768 Z" id="Shape"></path>
                <path d="M8.6752,36.36224 L12.237696,36.36224 C13.212672,36.36224 14.000192,35.57472 14.000192,34.599744 C14.000192,33.624768 13.212672,32.837248 12.237696,32.837248 L8.6752,32.837248 C7.700224,32.837248 6.912704,33.624768 6.912704,34.599744 C6.912704,35.57472 7.700224,36.36224 8.6752,36.36224 Z" id="Shape"></path>
                <path d="M18.91264,36.36224 L22.475136,36.36224 C23.450112,36.36224 24.237632,35.57472 24.237632,34.599744 C24.237632,33.624768 23.450112,32.837248 22.475136,32.837248 L18.91264,32.837248 C17.937664,32.837248 17.150144,33.624768 17.150144,34.599744 C17.150144,35.57472 17.937664,36.36224 18.91264,36.36224 L18.91264,36.36224 Z" id="Shape"></path>
                <path d="M8.6752,44.22528 L12.237696,44.22528 C13.212672,44.22528 14.000192,43.43776 14.000192,42.462784 C14.000192,41.487808 13.212672,40.700288 12.237696,40.700288 L8.6752,40.700288 C7.700224,40.700288 6.912704,41.487808 6.912704,42.462784 C6.912704,43.43776 7.700224,44.22528 8.6752,44.22528 Z" id="Shape"></path>
                <path d="M18.91264,44.22528 L22.475136,44.22528 C23.450112,44.22528 24.237632,43.43776 24.237632,42.462784 C24.237632,41.487808 23.450112,40.700288 22.475136,40.700288 L18.91264,40.700288 C17.937664,40.700288 17.150144,41.487808 17.150144,42.462784 C17.150144,43.43776 17.937664,44.22528 18.91264,44.22528 L18.91264,44.22528 Z" id="Shape"></path>
                <path d="M61.9872,0.2499968 L29.13728,0.2499968 C28.162304,0.2499968 27.374784,1.0375168 27.374784,2.0124928 L27.374784,10.4374528 L2.012224,10.4374528 C1.037248,10.4374528 0.249728,11.2249728 0.249728,12.1999488 L0.249728,61.9874688 C0.249728,62.9624448 1.037248,63.7499648 2.012224,63.7499648 L61.987264,63.7499648 C62.96224,63.7499648 63.74976,62.9624448 63.74976,61.9874688 L63.74976,2.0124288 C63.74976,1.0374528 62.96224,0.2499328 61.987264,0.2499328 L61.9872,0.2499968 Z M19.09952,60.2250368 L12.04928,60.2250368 L12.04928,51.0000768 L19.08672,51.0000768 L19.08672,60.2250368 L19.09952,60.2250368 Z M50.19968,60.2250368 L40.9248,60.2250368 L40.9248,48.3127168 L50.19968,48.3127168 L50.19968,60.2250368 Z" id="Shape" stroke-width="2"></path>
                <path d="M35.80032,11.52512 L38.38784,11.52512 C39.362816,11.52512 40.150336,10.7376 40.150336,9.762624 C40.150336,8.787648 39.362816,8.000128 38.38784,8.000128 L35.80032,8.000128 C34.825344,8.000128 34.037824,8.787648 34.037824,9.762624 C34.037824,10.7376 34.825344,11.52512 35.80032,11.52512 Z" id="Shape"></path>
                <path d="M35.80032,21.05024 L38.38784,21.05024 C39.362816,21.05024 40.150336,20.26272 40.150336,19.287744 C40.150336,18.312768 39.362816,17.525248 38.38784,17.525248 L35.80032,17.525248 C34.825344,17.525248 34.037824,18.312768 34.037824,19.287744 C34.037824,20.26272 34.825344,21.05024 35.80032,21.05024 Z" id="Shape"></path>
                <path d="M35.80032,30.57472 L38.38784,30.57472 C39.362816,30.57472 40.150336,29.7872 40.150336,28.812224 C40.150336,27.837248 39.362816,27.049728 38.38784,27.049728 L35.80032,27.049728 C34.825344,27.049728 34.037824,27.837248 34.037824,28.812224 C34.037824,29.7872 34.825344,30.57472 35.80032,30.57472 Z" id="Shape"></path>
                <path d="M35.80032,40.09984 L38.38784,40.09984 C39.362816,40.09984 40.150336,39.31232 40.150336,38.337344 C40.150336,37.362368 39.362816,36.574848 38.38784,36.574848 L35.80032,36.574848 C34.825344,36.574848 34.037824,37.362368 34.037824,38.337344 C34.037824,39.31232 34.825344,40.09984 35.80032,40.09984 Z" id="Shape"></path>
                <path d="M44.2624,11.52512 L46.84992,11.52512 C47.824896,11.52512 48.612416,10.7376 48.612416,9.762624 C48.612416,8.787648 47.824896,8.000128 46.84992,8.000128 L44.2624,8.000128 C43.287424,8.000128 42.499904,8.787648 42.499904,9.762624 C42.499904,10.7376 43.299904,11.52512 44.2624,11.52512 Z" id="Shape"></path>
                <path d="M44.2624,21.05024 L46.84992,21.05024 C47.824896,21.05024 48.612416,20.26272 48.612416,19.287744 C48.612416,18.312768 47.824896,17.525248 46.84992,17.525248 L44.2624,17.525248 C43.287424,17.525248 42.499904,18.312768 42.499904,19.287744 C42.499904,20.26272 43.299904,21.05024 44.2624,21.05024 Z" id="Shape"></path>
                <path d="M44.2624,30.57472 L46.84992,30.57472 C47.824896,30.57472 48.612416,29.7872 48.612416,28.812224 C48.612416,27.837248 47.824896,27.049728 46.84992,27.049728 L44.2624,27.049728 C43.287424,27.049728 42.499904,27.837248 42.499904,28.812224 C42.499904,29.7872 43.299904,30.57472 44.2624,30.57472 Z" id="Shape"></path>
                <path d="M44.2624,40.09984 L46.84992,40.09984 C47.824896,40.09984 48.612416,39.31232 48.612416,38.337344 C48.612416,37.362368 47.824896,36.574848 46.84992,36.574848 L44.2624,36.574848 C43.287424,36.574848 42.499904,37.362368 42.499904,38.337344 C42.499904,39.31232 43.299904,40.09984 44.2624,40.09984 Z" id="Shape"></path>
                <path d="M52.73728,11.52512 L55.3248,11.52512 C56.299776,11.52512 57.087296,10.7376 57.087296,9.762624 C57.087296,8.787648 56.299776,8.000128 55.3248,8.000128 L52.73728,8.000128 C51.762304,8.000128 50.974784,8.787648 50.974784,9.762624 C50.974784,10.7376 51.762304,11.52512 52.73728,11.52512 Z" id="Shape"></path>
                <path d="M52.73728,21.05024 L55.3248,21.05024 C56.299776,21.05024 57.087296,20.26272 57.087296,19.287744 C57.087296,18.312768 56.299776,17.525248 55.3248,17.525248 L52.73728,17.525248 C51.762304,17.525248 50.974784,18.312768 50.974784,19.287744 C50.974784,20.26272 51.762304,21.05024 52.73728,21.05024 Z" id="Shape"></path>
                <path d="M52.73728,30.57472 L55.3248,30.57472 C56.299776,30.57472 57.087296,29.7872 57.087296,28.812224 C57.087296,27.837248 56.299776,27.049728 55.3248,27.049728 L52.73728,27.049728 C51.762304,27.049728 50.974784,27.837248 50.974784,28.812224 C50.974784,29.7872 51.762304,30.57472 52.73728,30.57472 Z" id="Shape"></path>
                <path d="M52.73728,40.09984 L55.3248,40.09984 C56.299776,40.09984 57.087296,39.31232 57.087296,38.337344 C57.087296,37.362368 56.299776,36.574848 55.3248,36.574848 L52.73728,36.574848 C51.762304,36.574848 50.974784,37.362368 50.974784,38.337344 C50.974784,39.31232 51.762304,40.09984 52.73728,40.09984 Z" id="Shape"></path>
            </g>
        </g>
    </g>
</svg>