<?xml version="1.0" encoding="UTF-8" standalone="no"?>
<svg
   xmlns:dc="http://purl.org/dc/elements/1.1/"
   xmlns:cc="http://creativecommons.org/ns#"
   xmlns:rdf="http://www.w3.org/1999/02/22-rdf-syntax-ns#"
   xmlns:svg="http://www.w3.org/2000/svg"
   xmlns="http://www.w3.org/2000/svg"
   xmlns:sodipodi="http://sodipodi.sourceforge.net/DTD/sodipodi-0.dtd"
   xmlns:inkscape="http://www.inkscape.org/namespaces/inkscape"
   width="32"
   height="32"
   viewBox="0 0 32 32"
   version="1.1"
   id="svg62"
   sodipodi:docname="book-icon.svg"
   inkscape:version="0.92.3 (unknown)">
  <metadata
     id="metadata66">
    <rdf:RDF>
      <cc:Work
         rdf:about="">
        <dc:format>image/svg+xml</dc:format>
        <dc:type
           rdf:resource="http://purl.org/dc/dcmitype/StillImage" />
        <dc:title>E_7_Icon_Location_School</dc:title>
      </cc:Work>
    </rdf:RDF>
  </metadata>
  <sodipodi:namedview
     pagecolor="#ffffff"
     bordercolor="#666666"
     borderopacity="1"
     objecttolerance="10"
     gridtolerance="10"
     guidetolerance="10"
     inkscape:pageopacity="0"
     inkscape:pageshadow="2"
     inkscape:window-width="1855"
     inkscape:window-height="1056"
     id="namedview64"
     showgrid="false"
     inkscape:zoom="22.85"
     inkscape:cx="13.698031"
     inkscape:cy="20"
     inkscape:window-x="65"
     inkscape:window-y="24"
     inkscape:window-maximized="1"
     inkscape:current-layer="svg62" />
  <!-- Generator: Sketch 49.3 (51167) - http://www.bohemiancoding.com/sketch -->
  <title
     id="title53">E_7_Icon_Location_School</title>
  <desc
     id="desc55">Created with Sketch.</desc>
  <defs
     id="defs57" />
  <g
     id="E_7_Icon_Location_School"
     style="fill:none;fill-rule:evenodd;stroke:none;stroke-width:1"
     transform="matrix(1.3055903,0,0,1.3095637,-10.111807,-10.227679)">
    <circle
       id="Oval-3"
       cx="20"
       cy="20"
       r="12"
       style="stroke:#484848;stroke-width:0.5" />
    <path
       d="m 25.777053,16.994246 c -0.110386,0 -0.199603,0.08943 -0.199603,0.199602 v 7.784795 c 0,0.330152 -0.268678,0.598831 -0.59883,0.598831 h -4.790643 v -0.459299 c 0.29104,-0.101801 1.049146,-0.339134 1.796491,-0.339134 1.738807,0 2.919509,0.385053 2.931275,0.389029 0.06007,0.01995 0.127158,0.01 0.179649,-0.02755 0.05209,-0.03752 0.08283,-0.0978 0.08283,-0.161895 v -8.782807 c 0,-0.09361 -0.06487,-0.174667 -0.156304,-0.194831 0,0 -0.156491,-0.03492 -0.423977,-0.08405 -0.108,-0.01995 -0.212374,0.05191 -0.23235,0.160093 -0.01995,0.108585 0.0517,0.212585 0.160093,0.232538 0.102012,0.01876 0.187439,0.03532 0.25331,0.04851 v 8.355275 c -0.452327,-0.118573 -1.456748,-0.333544 -2.79455,-0.333544 -0.869707,0 -1.724023,0.285637 -1.988327,0.382456 -0.234947,-0.10379 -0.945146,-0.382456 -1.804281,-0.382456 -1.374924,0 -2.507508,0.22676 -2.994152,0.341941 v -8.371462 c 0.39862,-0.09801 1.57593,-0.354105 2.994152,-0.354105 0.72779,0 1.351953,0.22655 1.596889,0.328959 v 7.855064 c 0,0.07186 0.03871,0.13834 0.101193,0.173661 0.06248,0.03553 0.139532,0.03453 0.201216,-0.0026 0.01977,-0.01177 1.997498,-1.193076 3.752866,-1.778129 0.08164,-0.02735 0.136538,-0.103392 0.136538,-0.189427 v -8.184023 c 0,-0.06547 -0.03214,-0.12676 -0.08603,-0.16407 -0.0535,-0.03733 -0.122152,-0.04592 -0.183836,-0.02295 -1.597076,0.599018 -3.2131,1.604655 -3.229287,1.614644 -0.09343,0.05848 -0.121965,0.181637 -0.06349,0.275064 0.05829,0.09343 0.18145,0.121965 0.275064,0.06349 0.01476,-0.0094 1.420632,-0.88407 2.888351,-1.474315 v 7.749263 c -1.36255,0.473473 -2.78517,1.246573 -3.39338,1.592678 v -7.637684 c 0,-0.07565 -0.04271,-0.144725 -0.110386,-0.178643 -0.03434,-0.01696 -0.852328,-0.420188 -1.885708,-0.420188 -1.803672,0 -3.190362,0.390246 -3.248655,0.406995 -0.08564,0.02435 -0.144725,0.102807 -0.144725,0.191836 v 8.782854 c 0,0.06248 0.02954,0.121567 0.07925,0.159298 0.03513,0.02655 0.07745,0.04033 0.120374,0.04033 0.01836,0 0.03673,-0.0026 0.05469,-0.0078 0.01378,-0.0038 1.394082,-0.391439 3.139064,-0.391439 0.729778,0 1.353357,0.227158 1.596889,0.329146 v 0.469287 H 14.99808 c -0.330152,0 -0.59883,-0.268678 -0.59883,-0.59883 v -7.784796 c 0,-0.110175 -0.08943,-0.199602 -0.199603,-0.199602 -0.110175,0 -0.199602,0.08943 -0.199602,0.199602 v 7.784796 c 0,0.550316 0.447719,0.998058 0.998058,0.998058 h 9.980515 c 0.550316,0 0.998058,-0.447719 0.998058,-0.998058 v -7.784796 c -2.3e-5,-0.110199 -0.08924,-0.199625 -0.199625,-0.199625 z"
       id="Shape"
       inkscape:connector-curvature="0"
       style="fill:#484848;fill-rule:nonzero" />
  </g>
</svg>
