<?xml version="1.0" encoding="UTF-8"?>
<svg width="40px" height="40px" viewBox="0 0 40 40" version="1.1" xmlns="http://www.w3.org/2000/svg" xmlns:xlink="http://www.w3.org/1999/xlink">
    <!-- Generator: Sketch 51.2 (57519) - http://www.bohemiancoding.com/sketch -->
    <title>F_2.0_Icon_Profile_error</title>
    <desc>Created with Sketch.</desc>
    <defs></defs>
    <g id="F_2.0_Icon_Profile_error" stroke="none" stroke-width="1" fill="none" fill-rule="evenodd">
        <g id="outline-error_outline-24px" transform="translate(4.000000, 4.000000)" fill="#484848" fill-rule="nonzero">
            <g id="Outline" transform="translate(0.761905, 0.761905)">
                <path d="M13.7142857,19.8095238 L16.7619048,19.8095238 L16.7619048,22.8571429 L13.7142857,22.8571429 L13.7142857,19.8095238 Z M13.7142857,7.61904762 L16.7619048,7.61904762 L16.7619048,16.7619048 L13.7142857,16.7619048 L13.7142857,7.61904762 Z M15.2228571,0 C6.81142857,0 0,6.82666667 0,15.2380952 C0,23.6495238 6.81142857,30.4761905 15.2228571,30.4761905 C23.6495238,30.4761905 30.4761905,23.6495238 30.4761905,15.2380952 C30.4761905,6.82666667 23.6495238,0 15.2228571,0 Z M15.2380952,27.4285714 C8.50285714,27.4285714 3.04761905,21.9733333 3.04761905,15.2380952 C3.04761905,8.50285714 8.50285714,3.04761905 15.2380952,3.04761905 C21.9733333,3.04761905 27.4285714,8.50285714 27.4285714,15.2380952 C27.4285714,21.9733333 21.9733333,27.4285714 15.2380952,27.4285714 Z" id="Shape"></path>
            </g>
        </g>
    </g>
</svg>