<?xml version="1.0" encoding="UTF-8" standalone="no"?>
<svg
   xmlns:dc="http://purl.org/dc/elements/1.1/"
   xmlns:cc="http://creativecommons.org/ns#"
   xmlns:rdf="http://www.w3.org/1999/02/22-rdf-syntax-ns#"
   xmlns:svg="http://www.w3.org/2000/svg"
   xmlns="http://www.w3.org/2000/svg"
   xmlns:sodipodi="http://sodipodi.sourceforge.net/DTD/sodipodi-0.dtd"
   xmlns:inkscape="http://www.inkscape.org/namespaces/inkscape"
   width="46"
   height="52"
   viewBox="0 0 46 52"
   version="1.1"
   id="svg76"
   sodipodi:docname="icon-qm.svg"
   inkscape:version="0.92.3 (unknown)">
  <metadata
     id="metadata80">
    <rdf:RDF>
      <cc:Work
         rdf:about="">
        <dc:format>image/svg+xml</dc:format>
        <dc:type
           rdf:resource="http://purl.org/dc/dcmitype/StillImage" />
      </cc:Work>
    </rdf:RDF>
  </metadata>
  <sodipodi:namedview
     pagecolor="#ffffff"
     bordercolor="#666666"
     borderopacity="1"
     objecttolerance="10"
     gridtolerance="10"
     guidetolerance="10"
     inkscape:pageopacity="0"
     inkscape:pageshadow="2"
     inkscape:window-width="1855"
     inkscape:window-height="1056"
     id="namedview78"
     showgrid="false"
     inkscape:zoom="22.85"
     inkscape:cx="10.393873"
     inkscape:cy="20"
     inkscape:window-x="65"
     inkscape:window-y="24"
     inkscape:window-maximized="1"
     inkscape:current-layer="svg76" />
  <!-- Generator: Sketch 49.3 (51167) - http://www.bohemiancoding.com/sketch -->
  <title
     id="title60">Filter_Icon_space</title>
  <desc
     id="desc62">Created with Sketch.</desc>
  <defs
     id="defs64" />
  <g
     id="Filter_Icon_space"
     style="fill:none;fill-rule:evenodd;stroke:none;stroke-width:1"
     transform="matrix(3.2857143,0,0,3.2563413,-42.714286,-39.076096)">
    <g
       id="Icon_qm"
       transform="translate(13,12)"
       style="fill:#484848">
      <path
         d="M 1.4583242,0 H 0.29167578 C 0.13067578,0 0,0.14905263 0,0.33269396 V 1.6634386 C 0,1.8470487 0.13067578,1.9961014 0.29167578,1.9961014 H 1.4583516 C 1.6193242,1.9961014 1.75,1.8470487 1.75,1.6634074 V 0.33269396 C 1.75,0.14905263 1.6193242,0 1.4583242,0"
         id="Fill-1"
         inkscape:connector-curvature="0" />
      <path
         d="M 13.708324,0 H 12.541648 C 12.380676,0 12.25,0.14905263 12.25,0.33269396 V 1.6634386 c 0,0.1836101 0.130676,0.3326628 0.291676,0.3326628 h 1.166676 C 13.869324,1.9961014 14,1.8470487 14,1.6634074 V 0.33269396 C 14,0.14905263 13.869324,0 13.708324,0"
         id="Fill-3"
         inkscape:connector-curvature="0" />
      <path
         d="M 1.4583242,13.97271 H 0.29167578 C 0.13067578,13.97271 0,14.121762 0,14.305404 v 1.330744 c 0,0.18361 0.13067578,0.332663 0.29167578,0.332663 H 1.4583516 C 1.6193242,15.968811 1.75,15.819758 1.75,15.636117 v -1.330745 c 0,-0.18361 -0.1306758,-0.332662 -0.2916758,-0.332662"
         id="Fill-5"
         inkscape:connector-curvature="0" />
      <path
         d="m 13.708324,13.97271 h -1.166676 c -0.161,0 -0.291675,0.149052 -0.291675,0.332694 v 1.330744 c 0,0.183642 0.130675,0.332694 0.291675,0.332694 h 1.166676 C 13.869324,15.968842 14,15.81979 14,15.636148 V 14.305404 C 14,14.121762 13.869324,13.97271 13.708324,13.97271"
         id="Fill-7"
         inkscape:connector-curvature="0" />
      <path
         d="m 0.875,1.3307446 c -0.161,0 -0.29167578,0.1490527 -0.29167578,0.332694 V 14.305404 c 0,0.183641 0.13067578,0.332694 0.29167578,0.332694 0.161,0 0.2916758,-0.149053 0.2916758,-0.332694 V 1.6634074 C 1.1666758,1.4797661 1.036,1.3307446 0.875,1.3307446"
         id="Fill-9"
         inkscape:connector-curvature="0" />
      <path
         d="M 12.541676,0.66535672 H 1.4583242 c -0.161,0 -0.2916758,0.14905264 -0.2916758,0.33269396 0,0.18364132 0.1306758,0.33269392 0.2916758,0.33269392 H 12.541648 c 0.161,0 0.291676,-0.1490526 0.291676,-0.33269392 0,-0.18364132 -0.130648,-0.33269396 -0.291648,-0.33269396"
         id="Fill-11"
         inkscape:connector-curvature="0" />
      <path
         d="m 13.125,1.3307446 c -0.161,0 -0.291676,0.1490527 -0.291676,0.332694 V 14.305404 c 0,0.183641 0.130676,0.332694 0.291676,0.332694 0.161,0 0.291676,-0.149053 0.291676,-0.332694 V 1.6634074 C 13.416676,1.4797661 13.286,1.3307446 13.125,1.3307446"
         id="Fill-13"
         inkscape:connector-curvature="0" />
      <path
         d="M 12.541676,14.638066 H 1.4583242 c -0.161,0 -0.2916758,0.149053 -0.2916758,0.332694 0,0.183642 0.1306758,0.332694 0.2916758,0.332694 H 12.541648 c 0.161,0 0.291676,-0.149052 0.291676,-0.332694 0,-0.183641 -0.130648,-0.332694 -0.291648,-0.332694"
         id="Fill-15"
         inkscape:connector-curvature="0" />
    </g>
  </g>
</svg>
