<?xml version="1.0" encoding="UTF-8"?>
<svg width="40px" height="40px" viewBox="0 0 40 40" version="1.1" xmlns="http://www.w3.org/2000/svg" xmlns:xlink="http://www.w3.org/1999/xlink">
    <!-- Generator: Sketch 49.3 (51167) - http://www.bohemiancoding.com/sketch -->
    <title>E_7_POI_Location_Shopping</title>
    <desc>Created with Sketch.</desc>
    <defs>
        <rect id="path-1" x="0" y="0" width="24" height="24" rx="4"></rect>
    </defs>
    <g id="E_7_POI_Location_Shopping" stroke="none" stroke-width="1" fill="none" fill-rule="evenodd">
        <g id="Point_of_interest" transform="translate(8.000000, 4.000000)">
            <g id="Result">
                <polygon id="Triangle-3" fill="#23C1CF" transform="translate(12.000000, 28.000000) rotate(180.000000) translate(-12.000000, -28.000000) " points="12 24 16 32 8 32"></polygon>
                <g id="Rectangle-5">
                    <use fill="#FFFFFF" fill-rule="evenodd" xlink:href="#path-1"></use>
                    <rect stroke="#23C1CF" stroke-width="1" x="0.5" y="0.5" width="23" height="23" rx="4"></rect>
                </g>
            </g>
        </g>
        <g id="Group" transform="translate(14.000000, 10.000000)" fill="#23C1CF" fill-rule="nonzero">
            <path d="M4.24999219,8.5078125 C3.55000781,8.5078125 3,9.05782031 3,9.75780469 C3,10.4578125 3.55000781,11.0077969 4.24999219,11.0077969 C4.95,11.0077969 5.49998438,10.4577891 5.49998438,9.75780469 C5.50000781,9.05782031 4.95,8.5078125 4.24999219,8.5078125 Z M4.24999219,10.5078047 C3.84998438,10.5078047 3.49999219,10.1577891 3.49999219,9.75780469 C3.49999219,9.35782031 3.84998438,9.00780469 4.24999219,9.00780469 C4.65,9.00780469 4.99999219,9.35782031 4.99999219,9.75780469 C4.99999219,10.1577891 4.65,10.5078047 4.24999219,10.5078047 Z" id="Shape"></path>
            <path d="M9.25000781,8.5078125 C8.55,8.5078125 8.00001562,9.05782031 8.00001562,9.75780469 C8.00001562,10.4578125 8.55002344,11.0077969 9.25000781,11.0077969 C9.95001562,11.0077969 10.5,10.4577891 10.5,9.75780469 C10.5,9.05782031 9.94999219,8.5078125 9.25000781,8.5078125 Z M9.25000781,10.5078047 C8.85,10.5078047 8.50000781,10.1577891 8.50000781,9.75780469 C8.50000781,9.35782031 8.85,9.00780469 9.25000781,9.00780469 C9.65001562,9.00780469 10.0000078,9.35782031 10.0000078,9.75780469 C10.0000078,10.1577891 9.64999219,10.5078047 9.25000781,10.5078047 Z" id="Shape"></path>
            <path d="M11.9500078,1.60781406 C11.9000156,1.55782183 11.85,1.50780615 11.7500156,1.50780615 L2.25,1.50780615 L1.99999219,0.207820508 C1.99999219,0.107812598 1.84999219,0.007828125 1.74998437,0.007828125 L0.249984375,0.007828125 C0.100007813,0.00780468748 0,0.107812598 0,0.257812744 C0,0.40781289 0.100007813,0.507820801 0.250007812,0.507820801 L1.55001562,0.507820801 L2.75001563,6.60783457 C2.90001562,7.40782754 3.65001562,8.00782812 4.45000781,8.00782812 L10.2,8.00782812 C10.35,8.00782812 10.4500078,7.90782021 10.4500078,7.75782006 C10.4500078,7.60781992 10.35,7.50781201 10.2,7.50781201 L4.5,7.50781201 C4.09999219,7.50781201 3.70000781,7.30781963 3.49999219,6.95780366 L10.8,5.95781831 C10.9000078,5.95781831 10.9999922,5.8578104 10.9999922,5.75782592 L12,1.75781421 C12,1.75781421 12,1.6578063 11.9500078,1.60781406 Z M10.5499922,5.5078125 L3.24998437,6.45780469 L2.34998438,1.95780469 L11.4,1.95780469 L10.5499922,5.5078125 Z" id="Shape"></path>
        </g>
    </g>
</svg>