<?xml version="1.0" encoding="UTF-8"?>
<svg width="40px" height="40px" viewBox="0 0 40 40" version="1.1" xmlns="http://www.w3.org/2000/svg" xmlns:xlink="http://www.w3.org/1999/xlink">
    <!-- Generator: Sketch 49.3 (51167) - http://www.bohemiancoding.com/sketch -->
    <title>E_7_POI_Location_Kindergarten_clicked</title>
    <desc>Created with Sketch.</desc>
    <defs>
        <rect id="path-1" x="0" y="0" width="24" height="24" rx="4"></rect>
    </defs>
    <g id="E_7_POI_Location_Kindergarten_clicked" stroke="none" stroke-width="1" fill="none" fill-rule="evenodd">
        <g id="Point_of_interest" transform="translate(8.000000, 4.000000)">
            <g id="Result">
                <polygon id="Triangle-3" fill="#009BA9" transform="translate(12.000000, 28.000000) rotate(180.000000) translate(-12.000000, -28.000000) " points="12 24 16 32 8 32"></polygon>
                <g id="Rectangle-5">
                    <use fill="#009BA9" fill-rule="evenodd" xlink:href="#path-1"></use>
                    <rect stroke="#009BA9" stroke-width="1" x="0.5" y="0.5" width="23" height="23" rx="4"></rect>
                </g>
                <path d="M17.7911833,18.4733179 L17.3195916,18.4733179 C17.3125754,18.4733179 17.306645,18.4680835 17.3057541,18.461123 L15.8197865,6.57313225 C15.778942,6.24640371 15.4998237,6 15.1705336,6 L8.82946636,6 C8.50017633,6 8.221058,6.24640371 8.1802413,6.57313225 L6.6942181,18.461123 C6.69335499,18.4680835 6.68739675,18.4733179 6.68038051,18.4733179 L6.20881671,18.4733179 C6.0934942,18.4733179 6,18.5667842 6,18.6821346 C6,18.7974849 6.0934942,18.8909513 6.20881671,18.8909513 L6.68040835,18.8909513 C6.89760557,18.8909513 7.08169838,18.7284362 7.10862181,18.5129374 L8.50916937,7.30858469 L10.6774942,7.30858469 L10.6774942,12.9171508 C10.2910162,13.1185058 10.2320186,13.404 10.2320186,13.5591647 L10.2320186,14.6728538 C10.2320186,14.9606311 10.4188399,15.20542 10.6774942,15.2927889 L10.6774942,15.800464 L10.6635731,15.800464 C10.3970394,15.800464 10.1673968,15.9607239 10.0654942,16.1898933 C10.0141531,16.1464316 9.98143852,16.0816427 9.98143852,16.0092807 L9.98143852,15.5638051 C9.98143852,15.2030255 9.68792575,14.9095128 9.32714617,14.9095128 C9.21182367,14.9095128 9.11832947,15.0029791 9.11832947,15.1183295 C9.11832947,15.2336798 9.21182367,15.3271462 9.32714617,15.3271462 C9.45764269,15.3271462 9.5638051,15.4333086 9.5638051,15.5638051 L9.5638051,16.0092807 C9.5638051,16.3066636 9.76329466,16.5581624 10.0354246,16.6374292 C10.1146914,16.9095592 10.3661903,17.1090487 10.6635731,17.1090487 L13.3364269,17.1090487 C13.6338097,17.1090487 13.8853086,16.9095592 13.9645754,16.6374292 C14.2367053,16.5581624 14.4361949,16.3066636 14.4361949,16.0092807 L14.4361949,15.5638051 C14.4361949,15.4333086 14.5423573,15.3271462 14.6728538,15.3271462 C14.7881763,15.3271462 14.8816705,15.2336798 14.8816705,15.1183295 C14.8816705,15.0029791 14.7881763,14.9095128 14.6728538,14.9095128 C14.3120742,14.9095128 14.0185615,15.2030255 14.0185615,15.5638051 L14.0185615,16.0092807 C14.0185615,16.0816427 13.9858469,16.1464316 13.9345058,16.1898933 C13.8326032,15.9607239 13.6029327,15.800464 13.3364269,15.800464 L13.3225058,15.800464 L13.3225058,15.2927889 C13.5811601,15.20542 13.7679814,14.9606311 13.7679814,14.6728538 L13.7679814,13.5591647 C13.7679814,13.4039722 13.7089838,13.1185058 13.3225058,12.9171508 L13.3225058,7.30858469 L15.4908306,7.30858469 L16.8913782,18.5129374 C16.9183016,18.7284362 17.1024223,18.8909513 17.3195916,18.8909513 L17.7911833,18.8909513 C17.9065058,18.8909513 18,18.7974849 18,18.6821346 C18,18.5667842 17.9065058,18.4733179 17.7911833,18.4733179 Z M12.9048724,6.41763341 L12.9048724,6.89095128 L11.0951276,6.89095128 L11.0951276,6.41763341 L12.9048724,6.41763341 Z M8.56137355,6.89095128 L8.59461717,6.62491879 C8.60937355,6.50675638 8.71032947,6.41763341 8.82943852,6.41763341 L10.6774942,6.41763341 L10.6774942,6.89095128 L8.56137355,6.89095128 Z M13.5730858,16.4547564 C13.5730858,16.5852529 13.4669234,16.6914153 13.3364269,16.6914153 L10.6635731,16.6914153 C10.5330766,16.6914153 10.4269142,16.5852529 10.4269142,16.4547564 C10.4269142,16.3242599 10.5330766,16.2180974 10.6635731,16.2180974 L13.3364269,16.2180974 C13.4669234,16.2180974 13.5730858,16.3242599 13.5730858,16.4547564 Z M11.0951276,15.800464 L11.0951276,15.3271462 L12.9048724,15.3271462 L12.9048724,15.800464 L11.0951276,15.800464 Z M13.350348,14.6728538 C13.350348,14.8033503 13.2441856,14.9095128 13.1136891,14.9095128 L10.8863109,14.9095128 C10.7558144,14.9095128 10.649652,14.8033503 10.649652,14.6728538 L10.649652,13.5591647 C10.649652,13.3472575 11.0033039,13.099768 12,13.099768 C12.9966961,13.099768 13.350348,13.3472575 13.350348,13.5591647 L13.350348,14.6728538 Z M12.9048724,12.7696705 C12.654348,12.7115638 12.3518422,12.6821346 12,12.6821346 C11.6481578,12.6821346 11.345652,12.7115638 11.0951276,12.7696705 L11.0951276,7.30858469 L12.9048724,7.30858469 L12.9048724,12.7696705 Z M13.3225058,6.89095128 L13.3225058,6.41763341 L15.1705336,6.41763341 C15.2896427,6.41763341 15.3905986,6.50675638 15.4053828,6.62494664 L15.4386265,6.89095128 L13.3225058,6.89095128 Z" id="Shape" fill="#FFFFFF" fill-rule="nonzero"></path>
            </g>
        </g>
    </g>
</svg>