<?xml version="1.0" encoding="UTF-8"?>
<svg width="40px" height="40px" viewBox="0 0 40 40" version="1.1" xmlns="http://www.w3.org/2000/svg" xmlns:xlink="http://www.w3.org/1999/xlink">
    <!-- Generator: Sketch 49.3 (51167) - http://www.bohemiancoding.com/sketch -->
    <title>E_7_POI_Location_Doctor_Hover</title>
    <desc>Created with Sketch.</desc>
    <defs>
        <rect id="path-1" x="0" y="0" width="24" height="24" rx="4"></rect>
    </defs>
    <g id="E_7_POI_Location_Doctor_Hover" stroke="none" stroke-width="1" fill="none" fill-rule="evenodd">
        <g id="Point_of_interest" transform="translate(8.000000, 4.000000)">
            <g id="Result">
                <polygon id="Triangle-3" fill="#009BA9" transform="translate(12.000000, 28.000000) rotate(180.000000) translate(-12.000000, -28.000000) " points="12 24 16 32 8 32"></polygon>
                <g id="Rectangle-5">
                    <use fill="#FFFFFF" fill-rule="evenodd" xlink:href="#path-1"></use>
                    <rect stroke="#009BA9" stroke-width="1" x="0.5" y="0.5" width="23" height="23" rx="4"></rect>
                </g>
                <g id="Group" transform="translate(6.000000, 7.000000)" fill="#009BA9" fill-rule="nonzero">
                    <path d="M8.50000781,4.7578125 L7.25001562,4.7578125 L7.25001562,3.50782031 C7.25001562,3.36975 7.13807812,3.2578125 7.00000781,3.2578125 L5.00001562,3.2578125 C4.86194531,3.2578125 4.75000781,3.36975 4.75000781,3.50782031 L4.75000781,4.7578125 L3.50001562,4.7578125 C3.36194531,4.7578125 3.25000781,4.86975 3.25000781,5.00782031 L3.25000781,7.0078125 C3.25000781,7.14588281 3.36194531,7.25782031 3.50001562,7.25782031 L4.75000781,7.25782031 L4.75000781,8.5078125 C4.75000781,8.64588281 4.86194531,8.75782031 5.00001562,8.75782031 L7.00000781,8.75782031 C7.13807812,8.75782031 7.25001562,8.64588281 7.25001562,8.5078125 L7.25001562,7.25782031 L8.50000781,7.25782031 C8.63807812,7.25782031 8.75001562,7.14588281 8.75001562,7.0078125 L8.75001562,5.00782031 C8.74999219,4.86975 8.63807812,4.7578125 8.50000781,4.7578125 Z M8.25,6.75780469 L7.00000781,6.75780469 C6.8619375,6.75780469 6.75,6.86974219 6.75,7.0078125 L6.75,8.25780469 L5.25,8.25780469 L5.25,7.0078125 C5.25,6.86974219 5.1380625,6.75780469 4.99999219,6.75780469 L3.75,6.75780469 L3.75,5.25780469 L4.99999219,5.25780469 C5.1380625,5.25780469 5.25,5.14586719 5.25,5.00779688 L5.25,3.75780469 L6.75,3.75780469 L6.75,5.00779688 C6.75,5.14586719 6.8619375,5.25780469 7.00000781,5.25780469 L8.25,5.25780469 L8.25,6.75780469 Z" id="Shape"></path>
                    <path d="M10.5602578,1.7578125 L7.99999219,1.7578125 L7.99999219,1.0423125 C7.99999219,0.471820313 7.52749219,0.0078046875 6.94673438,0.0078046875 L4.96373437,0.0078046875 C4.40524219,0.0078046875 3.99998437,0.442804688 3.99998437,1.0423125 L3.99998437,1.7578125 L1.43974219,1.7578125 C0.644929688,1.75863281 0.0008203125,2.40274219 0,3.19755469 L0,8.81805469 C0.0008203125,9.61286719 0.644929688,10.2569766 1.43974219,10.2577969 L10.5602344,10.2577969 C11.3550469,10.2569766 11.9991563,9.61286719 11.9999766,8.81805469 L11.9999766,3.19755469 C11.9991797,2.40276563 11.3550703,1.75863281 10.5602578,1.7578125 Z M4.5,1.0423125 C4.5,0.776320313 4.64325,0.507820313 4.96375781,0.507820313 L6.94675781,0.507820313 C7.25175,0.507820313 7.5,0.7475625 7.5,1.0423125 L7.5,1.7578125 L4.5,1.7578125 L4.5,1.0423125 Z M11.5000078,8.81730469 C11.4998672,9.336375 11.0793281,9.75724219 10.5602578,9.75780469 L1.43974219,9.75780469 C0.920953125,9.75726563 0.500554687,9.33684375 0.499992188,8.81805469 L0.499992188,3.19755469 C0.500554688,2.67876563 0.920953125,2.25836719 1.43974219,2.25780469 L10.5602344,2.25780469 C11.0790234,2.25836719 11.4994453,2.67876563 11.4999844,3.19755469 L11.4999844,8.81730469 L11.5000078,8.81730469 Z" id="Shape"></path>
                </g>
            </g>
        </g>
    </g>
</svg>