<?xml version="1.0" encoding="UTF-8"?>
<svg width="40px" height="40px" viewBox="0 0 40 40" version="1.1" xmlns="http://www.w3.org/2000/svg" xmlns:xlink="http://www.w3.org/1999/xlink">
    <!-- Generator: Sketch 49.3 (51167) - http://www.bohemiancoding.com/sketch -->
    <title>E_7_POI_Location_School_clicked</title>
    <desc>Created with Sketch.</desc>
    <defs>
        <rect id="path-1" x="0" y="0" width="24" height="24" rx="4"></rect>
    </defs>
    <g id="E_7_POI_Location_School_clicked" stroke="none" stroke-width="1" fill="none" fill-rule="evenodd">
        <g id="Point_of_interest" transform="translate(8.000000, 4.000000)">
            <g id="Result">
                <polygon id="Triangle-3" fill="#009BA9" transform="translate(12.000000, 28.000000) rotate(180.000000) translate(-12.000000, -28.000000) " points="12 24 16 32 8 32"></polygon>
                <g id="Rectangle-5">
                    <use fill="#009BA9" fill-rule="evenodd" xlink:href="#path-1"></use>
                    <rect stroke="#009BA9" stroke-width="1" x="0.5" y="0.5" width="23" height="23" rx="4"></rect>
                </g>
                <path d="M17.7770058,8.99424711 C17.6666199,8.99424711 17.5774035,9.08367401 17.5774035,9.19384945 L17.5774035,16.9786448 C17.5774035,17.3087968 17.3087251,17.5774752 16.9785731,17.5774752 L12.1879298,17.5774752 L12.1879298,17.1181769 C12.4789708,17.0163758 13.237076,16.7790424 13.9844211,16.7790424 C15.7232281,16.7790424 16.9039298,17.1640951 16.9156959,17.1680717 C16.9757661,17.1880249 17.0428538,17.17806 17.095345,17.1405161 C17.1474386,17.1029957 17.1781754,17.0427149 17.1781754,16.9786214 L17.1781754,8.19581436 C17.1781754,8.10220033 17.1133099,8.0211477 17.0218713,8.00098395 C17.0218713,8.00098395 16.8653801,7.96605998 16.5978947,7.91693717 C16.4898947,7.89698395 16.3855205,7.9688436 16.3655439,8.07703074 C16.3455906,8.18561553 16.4172398,8.28961553 16.5256374,8.30956875 C16.6276491,8.32832898 16.713076,8.34489039 16.7789474,8.35808337 L16.7789474,16.7133582 C16.3266199,16.5947851 15.3221988,16.3798144 13.9843977,16.3798144 C13.1146901,16.3798144 12.2603743,16.6654518 11.9960702,16.7622705 C11.7611228,16.658481 11.050924,16.3798144 10.1917895,16.3798144 C8.8168655,16.3798144 7.6842807,16.6065746 7.19763743,16.7217559 L7.19763743,8.3502939 C7.59625731,8.2522822 8.77356725,7.99618863 10.1917895,7.99618863 C10.9195789,7.99618863 11.5437427,8.22273834 11.7886784,8.3251477 L11.7886784,16.180212 C11.7886784,16.2520717 11.8273918,16.3185512 11.8898713,16.3538728 C11.9523509,16.389405 12.0294035,16.3883992 12.0910877,16.3512764 C12.1108538,16.3395103 14.0885848,15.1582003 15.8439532,14.5731477 C15.9255906,14.5458027 15.9804912,14.4697559 15.9804912,14.3837208 L15.9804912,6.19969741 C15.9804912,6.13422372 15.9483509,6.07293717 15.8944561,6.03562723 C15.8409591,5.9982939 15.7723041,5.9897091 15.7106199,6.01267986 C14.1135439,6.61169741 12.4975205,7.61733483 12.4813333,7.62732314 C12.3879064,7.68580267 12.3593684,7.80896056 12.417848,7.90238746 C12.4761404,7.99581436 12.5992982,8.02435238 12.6929123,7.96587284 C12.7076725,7.95649273 14.1135439,7.08180267 15.5812632,6.49155705 L15.5812632,14.2408202 C14.2187135,14.7142939 12.7960936,15.4873933 12.187883,15.8334986 L12.187883,8.19581436 C12.187883,8.12016524 12.1451696,8.05108922 12.0774971,8.01717109 C12.0431579,8.00021203 11.2251696,7.59698395 10.1917895,7.59698395 C8.38811696,7.59698395 7.0014269,7.98722957 6.9431345,8.00397811 C6.85749708,8.02832898 6.79840936,8.10678512 6.79840936,8.19581436 L6.79840936,16.9786682 C6.79840936,17.0411477 6.82795322,17.1002354 6.87766082,17.1379664 C6.91279532,17.1645161 6.95511111,17.1782939 6.99803509,17.1782939 C7.01639766,17.1782939 7.03476023,17.1756974 7.05272515,17.1705044 C7.06650292,17.1667149 8.44680702,16.7790658 10.1917895,16.7790658 C10.9215673,16.7790658 11.5451462,17.0062237 11.7886784,17.108212 L11.7886784,17.5774986 L6.99803509,17.5774986 C6.66788304,17.5774986 6.39920468,17.3088202 6.39920468,16.9786682 L6.39920468,9.19387284 C6.39920468,9.08369741 6.30977778,8.9942705 6.19960234,8.9942705 C6.0894269,8.9942705 6,9.08369741 6,9.19387284 L6,16.9786682 C6,17.528984 6.4477193,17.9767266 6.99805848,17.9767266 L16.9785731,17.9767266 C17.5288889,17.9767266 17.9766316,17.5290073 17.9766316,16.9786682 L17.9766316,9.19387284 C17.9766082,9.08367401 17.8873918,8.99424711 17.7770058,8.99424711 Z" id="Shape" fill="#FFFFFF" fill-rule="nonzero"></path>
            </g>
        </g>
    </g>
</svg>