<?xml version="1.0" encoding="UTF-8" standalone="no"?>
<svg
   xmlns:dc="http://purl.org/dc/elements/1.1/"
   xmlns:cc="http://creativecommons.org/ns#"
   xmlns:rdf="http://www.w3.org/1999/02/22-rdf-syntax-ns#"
   xmlns:svg="http://www.w3.org/2000/svg"
   xmlns="http://www.w3.org/2000/svg"
   xmlns:sodipodi="http://sodipodi.sourceforge.net/DTD/sodipodi-0.dtd"
   xmlns:inkscape="http://www.inkscape.org/namespaces/inkscape"
   width="20"
   height="28"
   viewBox="0 0 20 28"
   version="1.1"
   id="svg76"
   sodipodi:docname="location-icon.svg"
   inkscape:version="0.92.3 (unknown)">
  <metadata
     id="metadata80">
    <rdf:RDF>
      <cc:Work
         rdf:about="">
        <dc:format>image/svg+xml</dc:format>
        <dc:type
           rdf:resource="http://purl.org/dc/dcmitype/StillImage" />
      </cc:Work>
    </rdf:RDF>
  </metadata>
  <sodipodi:namedview
     pagecolor="#ffffff"
     bordercolor="#666666"
     borderopacity="1"
     objecttolerance="10"
     gridtolerance="10"
     guidetolerance="10"
     inkscape:pageopacity="0"
     inkscape:pageshadow="2"
     inkscape:window-width="1855"
     inkscape:window-height="1056"
     id="namedview78"
     showgrid="false"
     inkscape:zoom="22.85"
     inkscape:cx="15.776805"
     inkscape:cy="20"
     inkscape:window-x="65"
     inkscape:window-y="24"
     inkscape:window-maximized="1"
     inkscape:current-layer="svg76" />
  <!-- Generator: Sketch 50.2 (55047) - http://www.bohemiancoding.com/sketch -->
  <title
     id="title65">G_Icon_Location</title>
  <desc
     id="desc67">Created with Sketch.</desc>
  <defs
     id="defs69" />
  <g
     id="G_Icon_Location"
     transform="matrix(1,0,0,0.98636363,-10,-4.9318182)"
     style="fill:none;fill-rule:evenodd;stroke:none;stroke-width:1">
    <g
       id="flaticon1527522360-svg"
       transform="translate(10,5)"
       style="fill:#ffffff;fill-rule:nonzero">
      <path
         d="M 10,0 C 4.486,0 0,4.4769556 0,9.9798387 0,11.839083 0.51605556,13.653528 1.4927222,15.227681 l 7.9380556,12.766266 c 0.1520555,0.244561 0.4199444,0.39315 0.7080552,0.39315 0.0022,0 0.0044,0 0.0066,0 0.290612,-0.0023 0.559056,-0.155464 0.708334,-0.404295 L 18.5895,15.092843 C 19.512278,13.551956 20,11.783916 20,9.9798387 20,4.4769556 15.514,0 10,0 Z m 7.159222,14.238901 -7.033,11.718992 L 2.9092778,14.351341 C 2.0963333,13.041099 1.6555556,11.529486 1.6555556,9.9798387 1.6555556,5.3941028 5.405,1.6522177 10,1.6522177 c 4.595,0 8.338889,3.7418851 8.338889,8.327621 0,1.5036843 -0.411722,2.9766533 -1.179667,4.2590623 z"
         id="Shape"
         inkscape:connector-curvature="0" />
      <path
         d="m 10.322581,5.1612903 c -2.8459358,0 -5.1612907,2.1706452 -5.1612907,4.8387097 0,2.651022 2.2776774,4.83871 5.1612907,4.83871 2.919168,0 5.16129,-2.216828 5.16129,-4.83871 0,-2.6680645 -2.315355,-4.8387097 -5.16129,-4.8387097 z m 0,8.0752687 c -1.9072118,0 -3.4523301,-1.453387 -3.4523301,-3.236559 0,-1.7787097 1.5550394,-3.2365591 3.4523301,-3.2365591 1.89729,0 3.446595,1.4578494 3.446595,3.2365591 0,1.757151 -1.509162,3.236559 -3.446595,3.236559 z"
         id="path72"
         inkscape:connector-curvature="0" />
    </g>
  </g>
</svg>
