<?xml version="1.0" encoding="UTF-8"?>
<svg width="128px" height="24px" viewBox="0 0 128 24" version="1.1" xmlns="http://www.w3.org/2000/svg" xmlns:xlink="http://www.w3.org/1999/xlink">
  <!-- Generator: Sketch 51.3 (57544) - http://www.bohemiancoding.com/sketch -->
  <title>Group 23</title>
  <desc>Created with Sketch.</desc>
  <defs>
    <polygon id="path-1" points="0 0.0260526316 41.5351961 0.0260526316 41.5351961 23.8421053 0 23.8421053"></polygon>
    <polygon id="path-3" points="0.114112315 0.0287526316 15.2682562 0.0287526316 15.2682562 18.0492789 0.114112315 18.0492789"></polygon>
  </defs>
  <g id="Symbols" stroke="none" stroke-width="1" fill="none" fill-rule="evenodd">
    <g id="Navbar/desktop/logged-in/backtomap" transform="translate(-104.000000, -16.000000)">
      <g id="Group-23" transform="translate(104.000000, 16.000000)">
        <g id="Group-3" transform="translate(0.000000, 0.131842)">
          <mask id="mask-2" fill="white">
            <use xlink:href="#path-1"></use>
          </mask>
          <g id="Clip-2"></g>
          <path d="M35.6008512,23.8420895 L-1.57635468e-05,23.7462474 L1.83817143,3.19845789 C1.99785616,1.41487895 3.83336355,0.0358263158 6.03931429,0.0416684211 L41.5351961,0.0260368421 L39.9588414,20.7102474 C39.782132,22.4819842 37.7937182,23.8479316 35.6008512,23.8420895" id="Fill-1" fill="#003C47" mask="url(#mask-2)"></path>
        </g>
        <path d="M17.9001064,8.7354 C17.9001064,8.03750526 17.7051113,7.52261053 17.3154365,7.18992632 C16.9254463,6.85771579 16.3327369,6.69161053 15.5362049,6.69161053 L12.3013675,6.69161053 L11.9529931,11.0034 L15.2376433,11.0034 C17.0124611,11.0034 17.9001064,10.2475579 17.9001064,8.7354 M20.5751803,4.63518947 C21.6285005,5.57418947 22.1553182,6.85771579 22.1553182,8.48624211 C22.1553182,10.3970842 21.5993379,11.8677158 20.4881655,12.8978211 C19.3765202,13.9284 17.775732,14.4431368 15.6854857,14.4431368 L11.6793379,14.4431368 L11.1816828,20.7988737 L6.60300296,20.7988737 L7.99650049,3.22692632 L16.1831409,3.22692632 C18.0575842,3.22692632 19.5215448,3.69666316 20.5751803,4.63518947" id="Fill-4" fill="#FFFFFF"></path>
        <path d="M53.7004453,8.7354 C53.7004453,8.03750526 53.5054502,7.52261053 53.1157754,7.18992632 C52.7256276,6.85771579 52.1329182,6.69161053 51.3363862,6.69161053 L48.1013911,6.69161053 L47.7531744,11.0034 L51.0378246,11.0034 C52.8128,11.0034 53.7004453,10.2475579 53.7004453,8.7354 M56.3753616,4.63518947 C57.4286818,5.57418947 57.9554995,6.85771579 57.9554995,8.48624211 C57.9554995,10.3970842 57.3996768,11.8677158 56.2883468,12.8978211 C55.1767015,13.9284 53.5759133,14.4431368 51.4858246,14.4431368 L47.4793616,14.4431368 L46.9817064,20.7988737 L42.4031842,20.7988737 L43.7968394,3.22692632 L51.9833222,3.22692632 C53.8579232,3.22692632 55.3217261,3.69666316 56.3753616,4.63518947" id="Fill-6" fill="#09DDC7"></path>
        <path d="M68.2323232,10.7792368 C69.044934,10.7792368 69.6631803,10.5965526 70.0861163,10.2308684 C70.5090522,9.8655 70.7207567,9.34207895 70.7207567,8.66060526 C70.7207567,7.99618421 70.5421557,7.5015 70.1857419,7.1775 C69.8286975,6.85365789 69.2774463,6.6915 68.5310424,6.6915 L64.8231409,6.6915 L64.5245793,10.7792368 L68.2323232,10.7792368 Z M75.0503724,20.7989211 L70.0985695,20.7989211 L67.3363232,15.1908158 C67.0210522,14.5428158 66.4488355,14.2188158 65.6195153,14.2188158 L64.2509241,14.2188158 L63.753269,20.7989211 L59.2493084,20.7989211 L60.6177419,3.22697368 L69.1530719,3.22697368 C70.9942542,3.22697368 72.4290522,3.69671053 73.4579389,4.63523684 C74.4863527,5.57423684 75.0007172,6.82476316 75.0007172,8.3865 C75.0007172,9.96528947 74.6313773,11.2115526 73.8933281,12.1249737 C73.1551212,13.0391842 72.0059586,13.6292368 70.4469438,13.8948158 C70.9280473,14.0280789 71.330333,14.2522895 71.653801,14.5677632 C71.977269,14.8835526 72.2715744,15.2991316 72.5371901,15.8140263 L75.0503724,20.7989211 Z" id="Fill-8" fill="#09DDC7"></path>
        <path d="M88.7612532,15.9135947 C89.5409182,14.8504895 89.931066,13.3713316 89.931066,11.4770684 C89.931066,9.89859474 89.573864,8.67743684 88.8610365,7.81312105 C88.1474207,6.94943684 87.1521103,6.51696316 85.8747901,6.51696316 C84.5143961,6.51696316 83.4443665,7.05301579 82.6647015,8.12464737 C81.8848788,9.19643684 81.4952039,10.6713316 81.4952039,12.5487 C81.4952039,14.1440684 81.8476768,15.3698053 82.5527803,16.2252789 C83.2577261,17.0813842 84.2654897,17.5089632 85.5763862,17.5089632 C86.9199133,17.5089632 87.9814305,16.9773316 88.7612532,15.9135947 M81.0224552,20.0139632 C79.7118739,19.3245947 78.7041103,18.3439105 77.9991645,17.0728579 C77.2939034,15.8014895 76.9415882,14.2934368 76.9415882,12.5487 C76.9415882,10.6545947 77.3063567,8.98091053 78.0365241,7.52654211 C78.7663764,6.07280526 79.8031448,4.95112105 81.1469872,4.16164737 C82.4906719,3.37264737 84.0496867,2.97775263 85.825135,2.97775263 C87.5832433,2.97775263 89.1179823,3.32275263 90.4287212,4.01212105 C91.7389872,4.70180526 92.7465931,5.68643684 93.4520118,6.9657 C94.1569576,8.24543684 94.5095882,9.74922632 94.5095882,11.4770684 C94.5095882,13.3713316 94.1402483,15.0413842 93.402199,16.4869105 C92.6638345,17.9325947 91.6229675,19.0542789 90.2792828,19.8518053 C88.935598,20.6493316 87.3843074,21.0483316 85.6260414,21.0483316 C83.8674601,21.0483316 82.3328788,20.7036474 81.0224552,20.0139632" id="Fill-10" fill="#09DDC7"></path>
        <path d="M107.822061,8.7354 C107.822061,8.03750526 107.627066,7.52261053 107.237391,7.18992632 C106.847401,6.85771579 106.254534,6.69161053 105.45816,6.69161053 L102.223165,6.69161053 L101.87479,11.0034 L105.15944,11.0034 C106.934416,11.0034 107.822061,10.2475579 107.822061,8.7354 M110.497135,4.63518947 C111.550455,5.57418947 112.077273,6.85771579 112.077273,8.48624211 C112.077273,10.3970842 111.521293,11.8677158 110.41012,12.8978211 C109.298475,13.9284 107.697687,14.4431368 105.60744,14.4431368 L101.601135,14.4431368 L101.10348,20.7988737 L96.5249576,20.7988737 L97.9184552,3.22692632 L106.105096,3.22692632 C107.979539,3.22692632 109.443342,3.69666316 110.497135,4.63518947" id="Fill-12" fill="#09DDC7"></path>
        <g id="Group-16" transform="translate(112.709360, 2.973947)">
          <mask id="mask-4" fill="white">
            <use xlink:href="#path-3"></use>
          </mask>
          <g id="Clip-15"></g>
          <path d="M3.42366897,17.5384895 C2.1460335,17.1980684 1.04290049,16.7283316 0.114112315,16.1300684 L1.80617143,12.8899105 C3.5811468,13.9866474 5.49720591,14.5350158 7.55434877,14.5350158 C8.50000394,14.5350158 9.22150148,14.4102789 9.71931429,14.1611211 C10.2169695,13.9118053 10.4657182,13.5465947 10.4657182,13.0643842 C10.4657182,12.5494895 10.1922207,12.1465421 9.64475271,11.8555421 C9.09712709,11.5650158 8.25109754,11.2533316 7.10634877,10.9209632 C5.87852611,10.5555947 4.87517635,10.1979632 4.09566897,9.84917368 C3.3153734,9.50022632 2.64368867,8.98106842 2.07998424,8.29138421 C1.51564926,7.60185789 1.23379704,6.70848947 1.23379704,5.61191053 C1.23379704,4.49891053 1.54496946,3.51822632 2.16699901,2.67080526 C2.78918621,1.82338421 3.67257537,1.17143684 4.8171665,0.714173684 C5.96191527,0.257384211 7.29693005,0.0287526316 8.82347192,0.0287526316 C10.1006345,0.0287526316 11.3199448,0.203226316 12.481403,0.552173684 C13.6422305,0.901121053 14.5716493,1.36659474 15.268398,1.94796316 L13.6261517,5.18812105 C12.912536,4.67322632 12.1205754,4.27027895 11.2496394,3.97927895 C10.3787034,3.68875263 9.52841773,3.54301579 8.69909754,3.54301579 C7.80309754,3.54301579 7.0940532,3.68875263 6.57149163,3.97927895 C6.04877241,4.27027895 5.78772808,4.67322632 5.78772808,5.18812105 C5.78772808,5.72006842 6.05712709,6.12712105 6.59639803,6.40943684 C7.13519606,6.69238421 7.99367882,7.00785789 9.17184631,7.35664737 C10.3826443,7.72233158 11.3741714,8.07538421 12.1453241,8.41596316 C12.9169498,8.7567 13.5843783,9.25927895 14.1485557,9.92385789 C14.7122601,10.5887526 14.9945852,11.4611211 14.9945852,12.5411211 C14.9945852,14.3024368 14.3309399,15.6608053 13.0039645,16.6160684 C11.6765163,17.5719632 9.79387586,18.0492789 7.35509754,18.0492789 C6.01157044,18.0492789 4.70098916,17.8787526 3.42366897,17.5384895" id="Fill-14" fill="#09DDC7" mask="url(#mask-4)"></path>
        </g>
        <polygon id="Fill-17" fill="#FFFFFF" points="24.2700296 3.22048421 23.3407685 15.1494316 27.9194483 15.1494316 28.8485517 3.22048421"></polygon>
        <path d="M41.7860414,13.5920368 L34.9339429,3.29619474 L31.5028493,3.22703684 L30.1093517,20.7989842 L34.3644059,20.7989842 L35.0338837,12.7515632 C35.0816473,12.1773 35.8348296,11.9996684 36.1335488,12.4919842 L41.1515586,20.7677211 L41.7860414,13.5920368 Z" id="Fill-19" fill="#FFFFFF"></path>
        <polygon id="Fill-21" fill="#FFFFFF" points="27.7657222 16.9823053 23.1373872 16.9823053 22.838668 20.9953579 27.4422542 20.9953579"></polygon>
      </g>
    </g>
  </g>
</svg>
