<?xml version="1.0" encoding="UTF-8"?>
<svg width="178px" height="119px" viewBox="0 0 178 119" version="1.1" xmlns="http://www.w3.org/2000/svg" xmlns:xlink="http://www.w3.org/1999/xlink">
    <!-- Generator: Sketch 52.2 (67145) - http://www.bohemiancoding.com/sketch -->
    <title>paper-plane</title>
    <desc>Created with Sketch.</desc>
    <g id="C_2.0_Onboarding" stroke="none" stroke-width="1" fill="none" fill-rule="evenodd">
        <g id="C_2.3.0.0_Buyer_registrationdp_make_offer_successtomessageandmap" transform="translate(-568.000000, -364.000000)" fill="#FFFFFF" fill-rule="nonzero">
            <g id="paper-plane" transform="translate(568.000000, 364.000000)">
                <path d="M177.184918,3.52965854 C177.196721,3.45882927 177.217377,3.388 177.223279,3.31717073 C177.243934,3.09878049 177.220328,2.87743902 177.19377,2.65609756 C177.187869,2.60002439 177.196721,2.54690244 177.187869,2.49082927 C177.134754,2.19865854 177.037377,1.91239024 176.892787,1.63792683 C176.86918,1.59070732 176.836721,1.54643902 176.810164,1.49921951 C176.804262,1.49331707 176.804262,1.48446341 176.801311,1.47560976 C176.798361,1.46970732 176.789508,1.4667561 176.786557,1.45790244 C176.765902,1.42543902 176.748197,1.39002439 176.727541,1.3605122 C176.54459,1.09195122 176.323279,0.870609756 176.07541,0.681731707 C176.019344,0.640414634 175.954426,0.616804878 175.89541,0.578439024 C175.677049,0.433829268 175.446885,0.315780488 175.199016,0.236097561 C175.089836,0.200682927 174.980656,0.18297561 174.868525,0.162317073 C174.653115,0.11804878 174.437705,0.0973902439 174.213443,0.103292683 C174.09541,0.106243902 173.983279,0.112146341 173.865246,0.129853659 C173.788525,0.141658537 173.714754,0.129853659 173.638033,0.147560976 L2.3547541,35.5503902 C1.13606557,35.8041951 0.203606557,36.7928537 0.0295081967,38.0264634 C-0.144590164,39.2600732 0.472131148,40.4700732 1.57278689,41.0514634 L50.6508197,66.9425122 L59.2583607,114.713902 C59.252459,114.749317 59.2613115,114.787683 59.2583607,114.823098 C59.2288525,115.059195 59.2259016,115.28939 59.2554098,115.522537 C59.2701639,115.640585 59.284918,115.752732 59.3144262,115.867829 C59.3822951,116.148195 59.4914754,116.410854 59.6390164,116.658756 C59.6685246,116.705976 59.6685246,116.762049 59.7009836,116.809268 C59.7098361,116.824024 59.7245902,116.835829 59.7363934,116.847634 C59.7747541,116.903707 59.8278689,116.947976 59.8721311,117.004049 C60.0108197,117.17522 60.1554098,117.331634 60.3206557,117.464439 C60.3472131,117.485098 60.364918,117.517561 60.3944262,117.53822 C60.4386885,117.570683 60.4888525,117.579537 60.5331148,117.609049 C60.7131148,117.727098 60.8990164,117.824488 61.0967213,117.90122 C61.1763934,117.930732 61.2501639,117.966146 61.3327869,117.989756 C61.5983607,118.066488 61.8727869,118.11961 62.1501639,118.11961 C62.1531148,118.11961 62.1560656,118.11961 62.1590164,118.11961 C62.1590164,118.11961 62.1590164,118.11961 62.1590164,118.11961 C62.1708197,118.11961 62.182623,118.113707 62.1944262,118.113707 C62.2445902,118.116659 62.2947541,118.11961 62.344918,118.11961 C63.1622951,118.11961 63.9,117.753659 64.4459016,117.189976 L97.1380328,95.3922683 L131.367541,117.644463 C131.851475,117.957293 132.412131,118.11961 132.975738,118.11961 C133.285574,118.11961 133.601311,118.069439 133.905246,117.969098 C134.755082,117.68578 135.43377,117.03061 135.743607,116.186561 L177.043279,4.07268293 C177.081639,3.97234146 177.114098,3.86904878 177.140656,3.76280488 C177.152459,3.71853659 177.15541,3.67426829 177.164262,3.63295122 C177.173115,3.6004878 177.179016,3.56507317 177.184918,3.52965854 Z M143.008525,22.3672927 L72.2095082,74.4297561 C72.0944262,74.5153415 72.0029508,74.6215854 71.902623,74.7219268 C71.8642623,74.7573415 71.8259016,74.7868537 71.7934426,74.8252195 C71.7314754,74.8930976 71.6754098,74.9609756 71.6193443,75.0347561 C71.5662295,75.1055854 71.524918,75.1793659 71.4777049,75.2531463 C71.3685246,75.4302195 71.2770492,75.6131951 71.2062295,75.8079756 C71.1914754,75.8463415 71.1678689,75.8758537 71.1560656,75.9142195 C71.1531148,75.9260244 71.1413115,75.9319268 71.1383607,75.9437317 L63.0236066,102.31878 L56.5937705,66.6355854 L143.008525,22.3672927 Z M67.597377,107.996927 L75.6413115,81.4241463 L88.1645902,89.566561 L91.7468852,91.8950732 L79.5777049,100.007976 L67.597377,107.996927 Z M153.572459,10.3233659 L53.3242623,61.6775366 L11.5996721,39.6673415 L153.572459,10.3233659 Z M131.485574,110.682537 L86.0281967,81.1349268 L79.1439344,76.6579268 L168.122951,11.2234878 L131.485574,110.682537 Z" id="Shape"></path>
            </g>
        </g>
    </g>
</svg>