<?xml version="1.0" encoding="UTF-8"?>
<svg width="40px" height="40px" viewBox="0 0 40 40" version="1.1" xmlns="http://www.w3.org/2000/svg" xmlns:xlink="http://www.w3.org/1999/xlink">
    <!-- Generator: Sketch 49.3 (51167) - http://www.bohemiancoding.com/sketch -->
    <title>E_15_Icon_statistics</title>
    <desc>Created with Sketch.</desc>
    <defs></defs>
    <g id="E_15_Icon_statistics" stroke="none" stroke-width="1" fill="none" fill-rule="evenodd">
        <g id="Group-2" transform="translate(4.000000, 4.000000)">
            <g id="Statistic" transform="translate(15.947855, 15.995896) rotate(9.000000) translate(-15.947855, -15.995896) translate(7.947855, 8.995896)" fill="#137982" fill-rule="nonzero">
                <path d="M14.4657534,0 C13.7448548,0 13.1506849,0.594169863 13.1506849,1.31506849 C13.1506849,1.61301918 13.2542816,1.88784658 13.4246575,2.10958904 L10.8151233,6.39035616 C10.7200899,6.36809644 10.6224855,6.35610959 10.5205918,6.35610959 C10.1250411,6.35610959 9.76973151,6.5410411 9.52745205,6.82186301 L6.99331507,5.71227397 C7.0070137,5.63778849 7.01386301,5.55730849 7.01386301,5.47939726 C7.01386301,4.75849863 6.41969315,4.16432877 5.69879452,4.16432877 C4.97789589,4.16432877 4.38372603,4.75849863 4.38372603,5.47939726 C4.38372603,5.76706849 4.47790466,6.03591233 4.63713973,6.2533589 L1.64404384,10.568537 C1.53787836,10.5402827 1.4291463,10.5205918 1.31527671,10.5205918 C0.594378082,10.5205918 0.000208219178,11.1147616 0.000208219178,11.8356603 C0.000208219178,12.5565589 0.594378082,13.1507288 1.31527671,13.1507288 C2.03617534,13.1507288 2.63034521,12.5565589 2.63034521,11.8356603 C2.63034521,11.5454247 2.53188603,11.28 2.37007123,11.0616986 L5.37018082,6.75353425 C5.47548932,6.78093151 5.58507836,6.79463014 5.69894795,6.79463014 C6.02173151,6.79463014 6.31795068,6.67562301 6.54826301,6.47956164 L9.20579726,7.63708493 L9.20579726,7.67133151 C9.20579726,8.39223014 9.79996712,8.9864 10.5208658,8.9864 C11.2417644,8.9864 11.8359342,8.39223014 11.8359342,7.67133151 C11.8359342,7.37167123 11.7331945,7.09855342 11.5619616,6.87681096 L14.1647014,2.59604384 C14.2623036,2.61916055 14.3616197,2.63029041 14.4660712,2.63029041 C15.1869699,2.63029041 15.7811397,2.03612055 15.7811397,1.31522192 C15.7811397,0.594323288 15.1869699,0.000153424658 14.4660712,0.000153424658 L14.4657534,0 Z" id="Shape"></path>
            </g>
            <circle id="Oval" stroke="#137982" cx="16" cy="16" r="15.5"></circle>
        </g>
    </g>
</svg>