<?xml version="1.0" encoding="UTF-8"?>
<svg width="264px" height="321px" viewBox="0 0 264 321" version="1.1" xmlns="http://www.w3.org/2000/svg" xmlns:xlink="http://www.w3.org/1999/xlink">
    <!-- Generator: Sketch 53 (72520) - https://sketchapp.com -->
    <title>Icon/smily/sad</title>
    <desc>Created with Sketch.</desc>
    <defs>
        <path d="M159.997838,2.84217094e-14 C248.221622,2.84217094e-14 319.995676,71.7751351 319.995676,159.997838 C319.995676,248.220541 248.220541,319.995676 159.997838,319.995676 C71.7751351,319.995676 2.84217094e-14,248.220541 2.84217094e-14,159.997838 C2.84217094e-14,71.7751351 71.7751351,2.84217094e-14 159.997838,2.84217094e-14 Z M159.997838,302.698378 C238.683243,302.698378 302.698378,238.683243 302.698378,159.997838 C302.698378,137.984865 297.685405,117.121081 288.744865,98.4843243 C280.886486,82.1037838 269.988108,67.4486486 256.79027,55.2454054 C231.335135,31.7059459 197.32,17.2972973 159.997838,17.2972973 C81.3124324,17.2972973 17.2972973,81.3124324 17.2972973,159.997838 C17.2972973,183.834595 23.1805405,206.321081 33.5589189,226.092973 C40.372973,239.076757 49.1243243,250.890811 59.4335135,261.141622 C85.2486486,286.810811 120.802162,302.698378 159.997838,302.698378 Z M107.747027,141.619459 C98.1939935,141.619459 90.4497297,133.875196 90.4497297,124.322162 C90.4497297,114.769129 98.1939935,107.024865 107.747027,107.024865 C117.300061,107.024865 125.044324,114.769129 125.044324,124.322162 C125.044324,133.875196 117.300061,141.619459 107.747027,141.619459 Z M214.774054,141.619459 C205.221021,141.619459 197.476757,133.875196 197.476757,124.322162 C197.476757,114.769129 205.221021,107.024865 214.774054,107.024865 C224.327088,107.024865 232.071351,114.769129 232.071351,124.322162 C232.071351,133.875196 224.327088,141.619459 214.774054,141.619459 Z M159.691892,193.727568 C193.155676,193.727568 225.225946,210.841081 243.588108,239.255135 L229.059459,248.643243 C212.197838,222.551351 181.355676,207.99027 150.472432,211.553514 C126.405405,214.328649 104.149189,228.194595 90.9351351,248.643243 L76.4075676,239.255135 C92.3967568,214.51027 119.343784,197.731892 148.48973,194.36973 C152.231351,193.938378 155.967568,193.727568 159.691892,193.727568 Z" id="path-1"></path>
    </defs>
    <g id="C_2.0_Onboarding" stroke="none" stroke-width="1" fill="none" fill-rule="evenodd">
        <g id="C_5.0.0.0_disagree_verficication_without_reg_owner" transform="translate(0.000000, -231.000000)">
            <g id="Left" transform="translate(-92.000000, 87.000000)">
                <g id="Icon/smily/sad" transform="translate(196.000000, 305.000000) rotate(-15.000000) translate(-196.000000, -305.000000) translate(36.000000, 145.000000)">
                    <g id="color/active">
                        <mask id="mask-2" fill="white">
                            <use xlink:href="#path-1"></use>
                        </mask>
                        <use id="Mask" fill="#000000" fill-rule="nonzero" xlink:href="#path-1"></use>
                        <g id="color/brand/standard" mask="url(#mask-2)" fill="#006E77">
                            <g transform="translate(-32.000000, -32.000000)" id="Rectangle-13">
                                <rect x="0" y="0" width="384" height="384"></rect>
                            </g>
                        </g>
                    </g>
                </g>
            </g>
        </g>
    </g>
</svg>