<?xml version="1.0" encoding="UTF-8" standalone="no"?>
<svg
   xmlns:dc="http://purl.org/dc/elements/1.1/"
   xmlns:cc="http://creativecommons.org/ns#"
   xmlns:rdf="http://www.w3.org/1999/02/22-rdf-syntax-ns#"
   xmlns:svg="http://www.w3.org/2000/svg"
   xmlns="http://www.w3.org/2000/svg"
   xmlns:sodipodi="http://sodipodi.sourceforge.net/DTD/sodipodi-0.dtd"
   xmlns:inkscape="http://www.inkscape.org/namespaces/inkscape"
   width="32"
   height="32"
   viewBox="0 0 32 32"
   version="1.1"
   id="svg62"
   sodipodi:docname="swing-hover-icon.svg"
   inkscape:version="0.92.3 (unknown)">
  <metadata
     id="metadata66">
    <rdf:RDF>
      <cc:Work
         rdf:about="">
        <dc:format>image/svg+xml</dc:format>
        <dc:type
           rdf:resource="http://purl.org/dc/dcmitype/StillImage" />
        <dc:title>E_7_Icon_Location_Kindergarten_Hover</dc:title>
      </cc:Work>
    </rdf:RDF>
  </metadata>
  <sodipodi:namedview
     pagecolor="#ffffff"
     bordercolor="#666666"
     borderopacity="1"
     objecttolerance="10"
     gridtolerance="10"
     guidetolerance="10"
     inkscape:pageopacity="0"
     inkscape:pageshadow="2"
     inkscape:window-width="1855"
     inkscape:window-height="1056"
     id="namedview64"
     showgrid="false"
     inkscape:zoom="22.85"
     inkscape:cx="14.857768"
     inkscape:cy="20"
     inkscape:window-x="65"
     inkscape:window-y="24"
     inkscape:window-maximized="1"
     inkscape:current-layer="svg62" />
  <!-- Generator: Sketch 49.3 (51167) - http://www.bohemiancoding.com/sketch -->
  <title
     id="title53">E_7_Icon_Location_Kindergarten_Hover</title>
  <desc
     id="desc55">Created with Sketch.</desc>
  <defs
     id="defs57" />
  <g
     id="E_7_Icon_Location_Kindergarten_Hover"
     style="fill:none;fill-rule:evenodd;stroke:none;stroke-width:1"
     transform="matrix(1.3055903,0,0,1.3095637,-10.111807,-10.227679)">
    <circle
       id="Oval-3"
       cx="20"
       cy="20"
       r="12"
       style="stroke:#009ba9;stroke-width:0.5" />
    <path
       d="m 25.791183,26.473318 h -0.471591 c -0.007,0 -0.01295,-0.0052 -0.01384,-0.01219 L 23.819786,14.573132 C 23.778942,14.246404 23.499824,14 23.170534,14 h -6.341068 c -0.32929,0 -0.608408,0.246404 -0.649225,0.573132 l -1.486023,11.887991 c -8.63e-4,0.007 -0.0068,0.01219 -0.01384,0.01219 H 14.208817 C 14.093494,26.473318 14,26.566784 14,26.682135 c 0,0.11535 0.09349,0.208816 0.208817,0.208816 h 0.471591 c 0.217198,0 0.40129,-0.162515 0.428214,-0.378014 l 1.400547,-11.204352 h 2.168325 v 5.608566 c -0.386478,0.201355 -0.445475,0.486849 -0.445475,0.642014 v 1.113689 c 0,0.287777 0.186821,0.532566 0.445475,0.619935 v 0.507675 h -0.01392 c -0.266534,0 -0.496176,0.16026 -0.598079,0.389429 -0.05134,-0.04346 -0.08406,-0.10825 -0.08406,-0.180612 v -0.445476 c 0,-0.36078 -0.293512,-0.654292 -0.654292,-0.654292 -0.115322,0 -0.208816,0.09347 -0.208816,0.208817 0,0.11535 0.09349,0.208816 0.208816,0.208816 0.130497,0 0.236659,0.106163 0.236659,0.236659 v 0.445476 c 0,0.297383 0.19949,0.548881 0.47162,0.628148 0.07927,0.27213 0.330765,0.47162 0.628148,0.47162 h 2.672854 c 0.297383,0 0.548882,-0.19949 0.628148,-0.47162 0.27213,-0.07927 0.47162,-0.330765 0.47162,-0.628148 v -0.445476 c 0,-0.130496 0.106162,-0.236659 0.236659,-0.236659 0.115322,0 0.208816,-0.09347 0.208816,-0.208816 0,-0.115351 -0.09349,-0.208817 -0.208816,-0.208817 -0.36078,0 -0.654293,0.293512 -0.654293,0.654292 v 0.445476 c 0,0.07236 -0.03271,0.137151 -0.08405,0.180612 -0.101903,-0.229169 -0.331573,-0.389429 -0.598079,-0.389429 h -0.01392 v -0.507675 c 0.258654,-0.08737 0.445475,-0.332158 0.445475,-0.619935 v -1.113689 c 0,-0.155193 -0.059,-0.440659 -0.445475,-0.642014 v -5.608566 h 2.168325 l 1.400547,11.204352 c 0.02692,0.215499 0.211044,0.378014 0.428214,0.378014 h 0.471591 C 25.906506,26.890951 26,26.797481 26,26.682135 26,26.566784 25.90651,26.473318 25.791183,26.473318 Z M 20.904872,14.417633 v 0.473318 h -1.809744 v -0.473318 z m -4.343499,0.473318 0.03324,-0.266032 c 0.01476,-0.118163 0.115712,-0.207286 0.234821,-0.207286 h 1.848056 v 0.473318 z m 5.011713,9.563805 c 0,0.130497 -0.106163,0.236659 -0.236659,0.236659 h -2.672854 c -0.130496,0 -0.236659,-0.106162 -0.236659,-0.236659 0,-0.130496 0.106163,-0.236659 0.236659,-0.236659 h 2.672854 c 0.130496,0 0.236659,0.106163 0.236659,0.236659 z m -2.477958,-0.654292 v -0.473318 h 1.809744 v 0.473318 z m 2.25522,-1.12761 c 0,0.130496 -0.106162,0.236659 -0.236659,0.236659 h -2.227378 c -0.130497,0 -0.236659,-0.106163 -0.236659,-0.236659 v -1.113689 c 0,-0.211907 0.353652,-0.459397 1.350348,-0.459397 0.996696,0 1.350348,0.24749 1.350348,0.459397 z M 20.904872,20.76967 C 20.654348,20.711564 20.351842,20.682135 20,20.682135 c -0.351842,0 -0.654348,0.02943 -0.904872,0.08754 V 15.30859 h 1.809744 z m 0.417634,-5.878719 v -0.473318 h 1.848028 c 0.119109,0 0.220065,0.08912 0.234849,0.207314 l 0.03324,0.266004 z"
       id="Shape"
       inkscape:connector-curvature="0"
       style="fill:#009ba9;fill-rule:nonzero" />
  </g>
</svg>
