<svg width="24" height="24" xmlns="http://www.w3.org/2000/svg" xmlns:xlink="http://www.w3.org/1999/xlink"><defs><path d="M2 2h16v12H3.17L2 15.17V2zm0-2C.9 0 .01.9.01 2L0 20l4-4h14c1.1 0 2-.9 2-2V2c0-1.1-.9-2-2-2H2zm2 10h8v2H4v-2zm0-3h12v2H4V7zm0-3h12v2H4V4z" id="chat_outline_svg__a"/></defs><g fill="none" fill-rule="evenodd"><path d="M0 0h24v24H0z"/><g transform="translate(2 2)" fill="currentColor"><mask id="chat_outline_svg__b"><use xlink:href="#chat_outline_svg__a"/></mask><use fill-rule="nonzero" xlink:href="#chat_outline_svg__a"/><g mask="url(#chat_outline_svg__b)"><path d="M-2-2h24.083v24H-2z"/></g></g></g></svg>