<svg data-name="Ebene 1" xmlns="http://www.w3.org/2000/svg" viewBox="0 0 15.79 15.42"><path d="M12.38 14.97a.16.16 0 0 0 .13-.06.18.18 0 0 0 0-.14l-.52-4.95 3.29-3.66h0a.16.16 0 0 0 0-.17.18.18 0 0 0-.13-.12l-4.77-1L8.04.55a.16.16 0 0 0-.15-.13.15.15 0 0 0-.14.09L5.36 4.89l-4.77.98h0a.18.18 0 0 0-.13.12.18.18 0 0 0 0 .17l3.3 3.66-.57 4.95h0a.18.18 0 0 0 .07.16.15.15 0 0 0 .17 0l4.46-2.06 4.42 2.08h.07z" stroke="currentColor" fill="transparent" stroke-width=".918" data-name="icon-fav outline"/></svg>