<?xml version="1.0" encoding="UTF-8"?>
<svg width="40px" height="40px" viewBox="0 0 40 40" version="1.1" xmlns="http://www.w3.org/2000/svg" xmlns:xlink="http://www.w3.org/1999/xlink">
    <!-- Generator: Sketch 50.2 (55047) - http://www.bohemiancoding.com/sketch -->
    <title>E_Icon_Lock</title>
    <desc>Created with Sketch.</desc>
    <defs></defs>
    <g id="E_Icon_Lock" stroke="none" stroke-width="1" fill="none" fill-rule="evenodd">
        <g id="flaticon1526637881-svg" transform="translate(12.000000, 9.000000)" fill="#484848" fill-rule="nonzero">
            <path d="M14.8441738,9.24282769 L14.5297537,9.24282769 L14.5297537,6.47964394 C14.5297537,2.90815206 11.6025464,0 7.99778577,0 C4.39745364,0 1.46581788,2.90375908 1.46581788,6.47964394 C1.46581788,6.80911736 1.73152505,7.07269609 2.06365901,7.07269609 C2.39579297,7.07269609 2.66150014,6.80911736 2.66150014,6.47964394 C2.66150014,3.56270592 5.05286466,1.18610431 7.99778577,1.18610431 C10.9382784,1.18610431 13.3340714,3.55831294 13.3340714,6.47964394 L13.3340714,9.24282769 L1.15582618,9.24282769 C0.518128979,9.24282769 0,9.75680623 0,10.3893952 L0,17.7739928 C0,19.6673667 1.55438694,21.2093023 3.4630501,21.2093023 L12.5369499,21.2093023 C14.4456131,21.2093023 16,19.6673667 16,17.7739928 L16,10.3893952 C16,9.75680623 15.481871,9.24282769 14.8441738,9.24282769 Z M14.8043177,17.7739928 C14.8043177,19.0128129 13.790202,20.023198 12.5369499,20.023198 L3.46747855,20.023198 C2.21865486,20.023198 1.20011071,19.0172058 1.20011071,17.7739928 L1.20011071,10.428932 L14.8043177,10.428932 L14.8043177,17.7739928 Z" id="Shape"></path>
            <path d="M8.18604651,17.4883721 C9.41947962,17.4883721 10.4186047,16.4848262 10.4186047,15.255814 C10.4186047,14.0223808 9.41505872,13.0232558 8.18604651,13.0232558 C6.9526134,13.0232558 5.95348837,14.0268017 5.95348837,15.255814 C5.95348837,16.4848262 6.9526134,17.4883721 8.18604651,17.4883721 Z M8.18604651,14.2124799 C8.76076445,14.2124799 9.22495971,14.681096 9.22495971,15.251393 C9.22495971,15.8216901 8.76076445,16.2947271 8.18604651,16.2947271 C7.61132857,16.2947271 7.14713332,15.826111 7.14713332,15.255814 C7.14713332,14.6855169 7.61132857,14.2124799 8.18604651,14.2124799 Z" id="Shape"></path>
        </g>
    </g>
</svg>