<?xml version="1.0" encoding="UTF-8"?>
<svg width="143px" height="24px" viewBox="0 0 143 24" version="1.1" xmlns="http://www.w3.org/2000/svg" xmlns:xlink="http://www.w3.org/1999/xlink">
    <!-- Generator: Sketch 54.1 (76490) - https://sketchapp.com -->
    <title>Logo_beta</title>
    <defs>
      <style>
        .logo_beta_svg__cls-1{fill:none}
        .logo_beta_svg__cls-2{fill:currentColor}
      </style>
    </defs>
    <desc>Created with Sketch.</desc>
    <g id="logo_beta_svg_1" stroke="none" stroke-width="1" fill="none" fill-rule="evenodd">
        <g id="logo_beta_svg__cls-2" transform="translate(0.000000, -3.000000)" fill="#000000">
            <path class="logo_beta_svg__cls-2" d="M27.4964777,14.4424678 L25.4249406,13.9636881 C24.8922021,13.8463322 24.5054883,13.6781288 24.2643965,13.4596881 C24.0231032,13.2416542 23.9024565,12.9642305 23.9024565,12.6280271 C23.9024565,12.1744678 24.0935979,11.8215864 24.4766862,11.5695864 C24.8591703,11.3175864 25.391506,11.1916881 26.0738947,11.1916881 C27.3381668,11.1916881 28.6026403,11.6537898 29.8673152,12.5775864 L30.7406438,10.4354847 C30.1251244,9.9483661 29.4139336,9.5704678 28.6070714,9.30158644 C27.7998064,9.03270508 26.9635378,8.89806102 26.09887,8.89806102 C25.1004636,8.89806102 24.2227039,9.05792542 23.4657922,9.37704407 C22.7086792,9.6963661 22.1183364,10.1456542 21.6939583,10.7255186 C21.2697816,11.3049763 21.0574919,11.9727051 21.0574919,12.7289085 C21.0574919,13.6360271 21.3322198,14.3755525 21.8810714,14.9466712 C22.4303258,15.5179932 23.2702198,15.9294508 24.4017604,16.1814508 L26.3983717,16.6350102 C27.0636403,16.8032136 27.5252799,16.9878915 27.7834919,17.1894508 C28.0410996,17.3910102 28.1702057,17.6767729 28.1702057,18.0463322 C28.1702057,18.4834169 27.9830926,18.8194169 27.608665,19.0543322 C27.2342375,19.2898576 26.6892127,19.4072136 25.9739936,19.4072136 C24.2934,19.4072136 22.8045519,18.9284339 21.5068452,17.9708746 L20.6333152,20.1632136 C21.2653505,20.6672136 22.0347498,21.0538576 22.9419159,21.3225356 C23.8484777,21.5910102 24.842453,21.7258576 25.9240431,21.7258576 C27.487817,21.7258576 28.7273152,21.3898576 29.6425378,20.7178576 C30.5573576,20.0458576 31.0153717,19.138739 31.0153717,17.9958915 C31.0153717,17.0554169 30.731983,16.294739 30.166817,15.7152814 C29.6008452,15.1354169 28.7105979,14.7113492 27.4964777,14.4424678" id="Fill-1"></path>
            <path class="logo_beta_svg__cls-2" d="M38.1593852,11.3679864 C38.7247527,11.3679864 39.2949541,11.4774102 39.8687809,11.6954441 C40.4428092,11.9140881 40.9876325,12.2336136 41.5036537,12.6532068 L42.4017562,10.4354441 C41.9028551,9.96541017 41.2416148,9.59117288 40.4178339,9.31395254 C39.5942544,9.0367322 38.7497279,8.89802034 37.8848587,8.89802034 C36.6201837,8.89802034 35.5053604,9.16710508 34.5405901,9.70446102 C33.575417,10.2426305 32.8309929,11.0024949 32.3069152,11.985478 C31.7828375,12.9682576 31.5207986,14.0984949 31.5207986,15.3749695 C31.5207986,16.6518508 31.7703498,17.7692746 32.2696537,18.7268339 C32.7685548,19.6843932 33.4882049,20.4237153 34.4284028,20.9445966 C35.3681979,21.465478 36.4785901,21.7258169 37.7601837,21.7258169 C38.6584876,21.7258169 39.5231555,21.5871051 40.3553958,21.3098847 C41.1872332,21.0328678 41.8692191,20.6509017 42.4017562,20.1631729 L41.5036537,17.9708339 C40.9876325,18.3908339 40.4428092,18.7103593 39.8687809,18.9283932 C39.2949541,19.1468339 38.7247527,19.2558508 38.1593852,19.2558508 C37.0775936,19.2558508 36.2376996,18.9157831 35.6386961,18.2354441 C35.039894,17.5549017 34.7401908,16.5845288 34.7401908,15.3245288 C34.7401908,14.0480542 35.039894,13.0689356 35.6386961,12.3885966 C36.2376996,11.7080542 37.0775936,11.3679864 38.1593852,11.3679864" id="Fill-3"></path>
            <path class="logo_beta_svg__cls-2" d="M51.0612445,18.2733153 C50.528506,18.9453153 49.7550784,19.2813153 48.740559,19.2813153 C47.7421527,19.2813153 46.9765802,18.9453153 46.4442445,18.2733153 C45.9117074,17.6013153 45.6456403,16.6097898 45.6456403,15.2993492 C45.6456403,14.0059932 45.9159371,13.0185356 46.4569336,12.3379932 C46.9971244,11.6578576 47.7671279,11.3175864 48.7653329,11.3175864 C49.7637392,11.3175864 50.528506,11.6578576 51.0612445,12.3379932 C51.5935802,13.0185356 51.8600502,14.0059932 51.8600502,15.2993492 C51.8600502,16.6097898 51.5935802,17.6013153 51.0612445,18.2733153 M52.0471633,9.67948475 C51.1069654,9.15880678 50.013089,8.89806102 48.7653329,8.89806102 C47.5173753,8.89806102 46.4232975,9.15880678 45.4835025,9.67948475 C44.543506,10.2005695 43.8151951,10.9439593 43.2997781,11.9098576 C42.7839583,12.8761627 42.5261491,14.0059932 42.5261491,15.2993492 C42.5261491,16.5933153 42.7839583,17.7272136 43.2997781,18.7014508 C43.8151951,19.6760949 44.543506,20.4237559 45.4835025,20.9446373 C46.4232975,21.4653153 47.5173753,21.7258576 48.7653329,21.7258576 C50.013089,21.7258576 51.1069654,21.4653153 52.0471633,20.9446373 C52.9869583,20.4237559 53.7106367,19.6760949 54.2184,18.7014508 C54.725559,17.7272136 54.9795413,16.5933153 54.9795413,15.2993492 C54.9795413,14.0059932 54.725559,12.8761627 54.2184,11.9098576 C53.7106367,10.9439593 52.9869583,10.2005695 52.0471633,9.67948475" id="Fill-5"></path>
            <path class="logo_beta_svg__cls-2" d="M85.4181657,11.4085017 L85.4181657,9.20111186 L82.4485261,9.20111186 L82.4485261,21.7520949 L85.5680173,21.7520949 L85.5680173,14.9761627 C85.5680173,13.042739 86.3744767,11.9960949 88.5241622,11.6967051 L90.4843177,11.5626712 L90.5354767,9.28368814 C90.5354767,9.28368814 89.0844943,9.02497627 87.8538583,9.28368814 C86.6230208,9.54199322 85.8836322,10.3002305 85.4181657,11.4085017" id="Fill-7"></path>
            <path class="logo_beta_svg__cls-2" d="M96.8182866,16.8869288 L96.8182866,11.5695051 L100.037679,11.5695051 L100.037679,9.20062373 L96.8182866,9.20062373 L96.8182866,5.52109831 L93.6987954,5.52109831 L93.6987954,9.20062373 L91.3527318,9.20062373 L91.3527318,11.5695051 L93.6987954,11.5695051 L93.6987954,16.9373695 C93.6987954,18.5168949 94.1062548,19.7057085 94.9215763,20.5034034 C95.7366965,21.3017085 97.00117,21.7005559 98.7149968,21.7005559 C99.1305127,21.7005559 99.5885269,21.6753356 100.087428,21.6248949 L100.237481,19.2812339 C99.8380781,19.331878 99.4551912,19.3568949 99.089223,19.3568949 C97.5751982,19.3568949 96.8182866,18.5339797 96.8182866,16.8869288" id="Fill-9"></path>
            <polygon class="logo_beta_svg__cls-2" id="Fill-11" points="110.930419 9.22584407 107.38655 17.9203525 103.942582 9.22584407 100.648264 9.22584407 105.739592 21.0452339 103.518204 26.0606237 106.662871 26.0606237 113.99996 9.22584407"></polygon>
            <path class="logo_beta_svg__cls-2" d="M64.4695982,18.6117763 C63.9368597,19.2837763 63.1632307,19.6197763 62.1487113,19.6197763 C61.1505064,19.6197763 60.3849339,19.2837763 59.8525982,18.6117763 C59.3198597,17.9397763 59.053994,16.9482508 59.053994,15.6378102 C59.053994,14.3444542 59.3240894,13.3569966 59.8650859,12.6766576 C60.4054781,11.9963186 61.1752802,11.6560475 62.1736866,11.6560475 C63.1718915,11.6560475 63.9368597,11.9963186 64.4695982,12.6766576 C65.0019339,13.3569966 65.2682025,14.3444542 65.2682025,15.6378102 C65.2682025,16.9482508 65.0019339,17.9397763 64.4695982,18.6117763 M67.6265523,12.2483186 C67.118789,11.2824203 66.3951106,10.5390305 65.455517,10.0179458 C64.5153191,9.4972678 63.4214428,9.23652203 62.1736866,9.23652203 C60.947683,9.23652203 59.8709269,9.48974237 58.942411,9.99211525 L58.942411,9.45069153 L55.9254392,9.45069153 L55.9254392,26.2061492 L58.942411,26.2061492 L58.942411,21.3087254 C59.8709269,21.8115051 60.947683,22.0643186 62.1736866,22.0643186 C63.4214428,22.0643186 64.5153191,21.8039797 65.455517,21.2830983 C66.3951106,20.7622169 67.118789,20.0145559 67.6265523,19.0401153 C68.1337113,18.0656746 68.3876936,16.9317763 68.3876936,15.6378102 C68.3876936,14.3444542 68.1337113,13.2146237 67.6265523,12.2483186" id="Fill-13"></path>
            <path class="logo_beta_svg__cls-2" d="M72.4608371,12.5160407 C72.8133106,11.8643797 73.3909643,11.4295322 74.1948053,11.2123119 C74.9982435,10.9948881 75.6929184,11.0807186 76.2786286,11.4702102 C76.7585968,11.7897356 77.1394696,12.3112271 77.4242682,13.0289898 L72.0990986,14.4698034 C72.0535792,13.7013966 72.1728159,13.0493288 72.4608371,12.5160407 L72.4608371,12.5160407 Z M80.0803071,16.742278 C79.2275226,17.8778034 78.1503636,18.6213966 76.8486286,18.9736678 C75.8036958,19.2563797 74.9293601,19.205939 74.2248159,18.8225492 C73.5200703,18.4391593 72.9734343,17.7089898 72.5839007,16.6312271 L80.6114343,14.4594305 L80.3854484,13.6074305 C79.8944025,11.7571932 79.0389996,10.4323119 77.8190385,9.63136271 C76.598876,8.83122712 75.1770986,8.65041356 73.5541092,9.0895322 C72.4451269,9.38973559 71.5216463,9.91793898 70.7836675,10.673939 C70.0454873,11.4307525 69.5604837,12.3445831 69.3280527,13.4160407 C69.095823,14.4879051 69.141141,15.6321763 69.4640067,16.8494644 C69.9721728,18.7645831 70.9306993,20.1226169 72.3405933,20.9237695 C73.7502859,21.7253288 75.4196004,21.8650576 77.3481339,21.3429559 C78.1835968,21.1169898 78.9785756,20.753939 79.7332717,20.2542102 C80.4877664,19.7544814 81.0777064,19.2034983 81.5034943,18.6010576 L80.0803071,16.742278 Z" id="Fill-15"></path>
            <path class="logo_beta_svg__cls-2" d="M4.16968092,26.9430102 C2.98718269,26.9430102 1.80307314,26.6338576 0.724302827,26.0049763 C0.0318434629,25.6014508 -0.205622968,24.7073492 0.194182686,24.0076881 C0.593786926,23.3082305 1.47960318,23.0690441 2.17186113,23.4725695 C3.97813675,24.5249085 5.78703074,23.914739 6.87808728,22.9929763 C7.96934523,22.0704 8.88295654,20.3784 8.17418269,18.3959593 C7.84124629,17.4652475 7.18947244,16.6797559 6.33910495,16.1838915 C5.64664558,15.7799593 5.40938057,14.8856542 5.80918622,14.1864 C6.20919329,13.4873492 7.09460671,13.2479593 7.78706608,13.6512814 C9.22817915,14.4918915 10.3329318,15.8240949 10.8974936,17.4026034 C11.8997269,20.2038915 11.0515749,23.2783322 8.7369318,25.2353492 C7.40055371,26.3647729 5.7864265,26.9430102 4.16968092,26.9430102" id="Fill-17"></path>
            <path class="logo_beta_svg__cls-2" d="M4.42440848,21.5789898 C4.1786841,21.5789898 3.9297371,21.5157356 3.70153569,21.3825153 C1.14821767,19.8937017 -0.165199293,16.991939 0.355454417,13.9901085 C0.876309541,10.9876678 3.08903746,8.70909153 5.99241201,8.18475254 C7.62849329,7.88861695 9.32338728,8.18902373 10.7647018,9.02943051 C11.4571611,9.43315932 11.6944261,10.3274644 11.2946205,11.0267186 C10.8946134,11.7259729 10.0089986,11.9651593 9.31674064,11.5616339 C8.46657456,11.0661763 7.46756396,10.8894305 6.5021894,11.0631254 C4.44777244,11.4341085 3.45339435,13.078922 3.20787138,14.4947186 C2.96234841,15.9097017 3.34362403,17.7971593 5.14989965,18.8507186 C5.8421576,19.2542441 6.07942261,20.1487525 5.67921413,20.8478034 C5.41133428,21.3168203 4.92451802,21.5789898 4.42440848,21.5789898" id="Fill-19"></path>
            <path class="logo_beta_svg__cls-2" d="M13.1156799,16.5053695 C12.6153689,16.5053695 12.1289555,16.2432 11.8608742,15.7741831 C11.4606657,15.0749288 11.6977293,14.1806237 12.3901887,13.7770983 C14.1962629,12.723539 14.5775385,10.8360814 14.3320155,9.42109831 C14.0864926,8.00530169 13.0921145,6.36048814 11.0376975,5.98950508 C10.0729272,5.8152 9.07290954,5.99214915 8.22314629,6.48801356 C7.53068693,6.89133559 6.64487067,6.65235254 6.24526643,5.95309831 C5.84546078,5.25384407 6.0827258,4.35953898 6.77518516,3.95581017 C8.21629823,3.1152 9.9107894,2.8152 11.5472735,3.1111322 C14.4508495,3.63547119 16.6635774,5.91404746 17.1844325,8.91648814 C17.7050862,11.9183186 16.3918707,14.8200814 13.8385527,16.3088949 C13.6103512,16.4421153 13.3614042,16.5053695 13.1156799,16.5053695" id="Fill-21"></path>
            <text class="logo_beta_svg__cls-2" id="BETA" font-family="Nunito Sans" font-size="10" font-weight="600" letter-spacing="0.4166667">
                <tspan x="116" y="10">BETA</tspan>
            </text>
        </g>
    </g>
</svg>

