<svg width="66" height="196" xmlns="http://www.w3.org/2000/svg" xmlns:xlink="http://www.w3.org/1999/xlink">
  <defs>
    <path
      d="M25.07 10.492V6.605c0-.428-.218-.812-.585-1.029a1.173 1.173 0 0 0-1.183-.011A27.487 27.487 0 0 1 11.78 9.047c-.032.002-3.72.018-3.72.018-.927 0-1.693.704-1.8 1.609h-.756A1.51 1.51 0 0 0 4 12.187v3.325a1.51 1.51 0 0 0 1.504 1.514h.757c.076.65.494 1.197 1.068 1.453l2.694 7.485a1.18 1.18 0 0 0 1.106.78h2.704c.383 0 .743-.19.963-.505.22-.317.273-.722.142-1.084l-2.315-6.428a27.454 27.454 0 0 1 10.679 3.406 1.18 1.18 0 0 0 1.184-.012c.366-.216.585-.6.585-1.03v-3.886A3.382 3.382 0 0 0 28 13.849a3.382 3.382 0 0 0-2.93-3.357zM6.249 15.858h-.744a.345.345 0 0 1-.344-.346v-3.325c0-.19.154-.346.344-.346h.744v4.017zm1.546 1.551a.657.657 0 0 1-.387-.598v-5.922c0-.362.293-.657.652-.657h3.156v7.235l-3.197-.002a.605.605 0 0 1-.224-.056zm6.054 8.145c.002.004.003.008-.002.015-.005.007-.008.007-.013.007h-2.704a.017.017 0 0 1-.016-.01l-2.495-6.932h2.738l2.492 6.92zm10.063-4.462c0 .008 0 .015-.012.023-.015.008-.024.003-.031 0a28.609 28.609 0 0 0-11.493-3.585v-7.362a28.617 28.617 0 0 0 11.493-3.585c.007-.004.016-.009.03 0 .013.007.013.014.013.022v14.487zm1.16-5.069v-4.35a2.218 2.218 0 0 1 1.77 2.176 2.218 2.218 0 0 1-1.77 2.174z"
      id="megaphone_with_arrow_svg__a"/>
  </defs>
  <g transform="translate(1)" fill="none" fill-rule="evenodd">
    <path d="M28 180V16h-8L32 0l12 16h-8v164h8l-12 16-12-16h8z" fill="currentColor"/>
    <circle stroke="currentColor" stroke-width="2" fill="#FFF" cx="32" cy="98" r="32"/>
    <g transform="translate(16 82)">
      <path d="M0 0h32v32H0z"/>
      <mask id="megaphone_with_arrow_svg__b" fill="#fff">
        <use xlink:href="#megaphone_with_arrow_svg__a"/>
      </mask>
      <use fill="currentColor" fill-rule="nonzero" xlink:href="#megaphone_with_arrow_svg__a"/>
      <g mask="url(#megaphone_with_arrow_svg__b)" fill="currentColor"></g>
    </g>
  </g>
</svg>
