<svg width="66" height="196" xmlns="http://www.w3.org/2000/svg" xmlns:xlink="http://www.w3.org/1999/xlink">
  <defs>
    <path
      d="M9.867 9.966a.528.528 0 0 1-.532-.525c0-.29.238-.525.532-.525.294 0 .532.235.532.525 0 .29-.238.525-.532.525zm4.018 0a.528.528 0 0 1-.531-.525c0-.29.238-.525.531-.525.294 0 .532.235.532.525 0 .29-.238.525-.532.525zm6.407 8.795c2.181.548 3.705 2.48 3.705 4.696v1.176c0 1.094-.902 1.983-2.01 1.983h-7.941-.002-3.836-.002H2.013c-1.108 0-2.01-.89-2.01-1.983v-1.176a4.845 4.845 0 0 1 3.68-4.69 31.617 31.617 0 0 1 2.96-.625l1.018-1.32a.513.513 0 0 1 .78-.039l3.548 3.744 3.56-3.98a.513.513 0 0 1 .81.056l1.035 1.545c1.035.164 1.91.364 2.898.613zm-4.418-1.053l-3.1 3.467 1.992 1.29 1.857-3.64-.749-1.117zm-7.766.2l-.608.788 1.67 3.76 2.036-1.278-3.098-3.27zm1.664 7.7l.437-2.609-.994.624a.517.517 0 0 1-.742-.223l-1.878-4.228c-.935.155-1.749.342-2.659.572a3.834 3.834 0 0 0-2.91 3.713v1.176c0 .537.442.975.987.975h7.759zm1.036 0h2.598l-.752-3.304-.658-.427-.63.395-.558 3.336zm11.18 0a.982.982 0 0 0 .987-.975v-1.176c0-1.755-1.207-3.285-2.935-3.72a32.28 32.28 0 0 0-2.465-.536l-2.154 4.223a.51.51 0 0 1-.456.278.516.516 0 0 1-.28-.083l-.803-.52.571 2.509h7.534zM18.958.808c0-.278.883-.278.883 0l.139 3.067c0 1.363-.967 2.505-2.258 2.798v4.586c0 3.174-2.616 5.757-5.832 5.757a5.836 5.836 0 0 1-5.535-3.943c-1.474-.234-2.407-1.506-2.407-3.342V4.997c0-1.472 1.213-2.669 2.704-2.669h.177A2.05 2.05 0 0 1 8.816.808h8.416c.282 0 2.31.022 2.31.3 0 .279-2.028.709-2.31.709H8.817c-.568 0-1.03.455-1.03 1.015a.508.508 0 0 1-.51.504h-.624c-.928 0-1.682.745-1.682 1.66v4.735c0 .456.093 1.79 1.131 2.231a5.72 5.72 0 0 1-.043-.703V8.613c0-1.586 1.306-2.875 2.912-2.875.016 0 .032 0 .048.002a.53.53 0 0 1 .047-.002h8.007c1.04 0 1.886-.836 1.886-1.863V.808zm-2.258 10.45V6.747H9.066c-.016 0-.032 0-.047-.002a.53.53 0 0 1-.048.002c-1.043 0-1.89.837-1.89 1.867v2.646c0 2.618 2.157 4.748 4.81 4.748 2.652 0 4.81-2.13 4.81-4.748zm-2.84 1.411a.5.5 0 0 1 0 .714 2.66 2.66 0 0 1-3.816-.087.5.5 0 0 1 .033-.713.516.516 0 0 1 .722.033 1.63 1.63 0 0 0 2.338.053.516.516 0 0 1 .722 0z"
      id="realtor_with_arrow_svg__a"/>
  </defs>
  <g transform="translate(1)" fill="none" fill-rule="evenodd">
    <path d="M28 180V16h-8L32 0l12 16h-8v164h8l-12 16-12-16h8z" fill="currentColor"/>
    <circle stroke="currentColor" stroke-width="2" fill="#FFF" cx="32" cy="98" r="32"/>
    <path d="M16 82h32v32H16z"/>
    <g transform="translate(20 84.667)">
      <mask id="realtor_with_arrow_svg__b" fill="#fff">
        <use xlink:href="#realtor_with_arrow_svg__a"/>
      </mask>
      <use fill="currentColor" fill-rule="nonzero" xlink:href="#realtor_with_arrow_svg__a"/>
      <g mask="url(#realtor_with_arrow_svg__b)" fill="currentColor"></g>
    </g>
  </g>
</svg>
