<?xml version="1.0" encoding="UTF-8"?>
<svg width="24px" height="24px" viewBox="0 0 24 24" version="1.1" xmlns="http://www.w3.org/2000/svg" xmlns:xlink="http://www.w3.org/1999/xlink">
    <!-- Generator: Sketch 52.4 (67378) - http://www.bohemiancoding.com/sketch -->
    <title>Logo/Icon/blue</title>
    <desc>Created with Sketch.</desc>
    <g id="Logo/Icon/blue" stroke="none" stroke-width="1" fill="none" fill-rule="evenodd">
        <g id="Group" transform="translate(7.000000, 5.000000)" fill="#309CF5">
            <path d="M2.58065461,14 C1.83200116,13.9996446 1.09673007,13.8082334 0.449253761,13.4451381 C0.0201816695,13.2064087 -0.12732809,12.6768445 0.119781491,12.2623234 C0.366891073,11.8478023 0.915044623,11.705295 1.34411671,11.9440244 C2.46350892,12.5727631 3.58290112,12.2065228 4.2581159,11.661092 C4.93333067,11.1156612 5.49953487,10.1128229 5.06023851,8.93708154 C4.85200681,8.38430093 4.44873691,7.92012759 3.92132202,7.62616133 C3.63577956,7.47546777 3.45716646,7.18713919 3.45463981,6.87281332 C3.45211315,6.55848745 3.62606962,6.26751376 3.90915513,6.11255413 C4.19224065,5.9575945 4.54001053,5.96297774 4.817812,6.12661951 C5.71067666,6.62580147 6.39322112,7.41262687 6.74583491,8.34921085 C7.36470599,10.0133681 6.82851651,11.8736519 5.40842155,12.9893025 C4.61833933,13.6372275 3.61699508,13.9951269 2.58065461,14 Z" id="Path"></path>
            <path d="M2.23768467,10.9999999 C2.10218953,10.9997025 1.96913441,10.9595913 1.85180351,10.883671 C0.487195009,9.9970727 -0.228966312,8.24180759 0.0655245486,6.50561676 C0.31472219,4.75918943 1.52176016,3.37983455 3.07539759,3.06605383 C3.95282444,2.89029016 4.85746513,3.06792595 5.62922926,3.56752576 C5.98769238,3.81238856 6.1062209,4.3329865 5.89624006,4.74028378 C5.68625922,5.14758106 5.2245155,5.29271346 4.85606373,5.0672255 C4.40194078,4.77313681 3.86961054,4.66845178 3.35323202,4.77168719 C2.25031351,4.99176891 1.71990232,5.96956056 1.58800112,6.8042991 C1.45609992,7.63903763 1.66096774,8.75988241 2.62496903,9.3839713 C2.92787224,9.58018659 3.07539759,9.97984076 2.98467011,10.358421 C2.89394263,10.7370012 2.58757911,11.0001341 2.23768467,10.9999999 Z" id="Path"></path>
            <path d="M8.39270581,7.99999147 C7.98507655,8.00012562 7.62816107,7.73694348 7.52246298,7.35829229 C7.41676488,6.97964109 7.58863286,6.57991202 7.94151704,6.38365996 C9.06458473,5.75473719 9.30162231,4.64154389 9.14959131,3.8035043 C8.99756032,2.96546472 8.37799313,1.99063443 7.10125969,1.77051146 C6.50020272,1.66791407 5.88078187,1.77259029 5.35208584,2.06610516 C5.07350018,2.22114296 4.73008031,2.22145644 4.45118918,2.0669275 C4.17229805,1.91239856 4.00030586,1.62650384 4.00000041,1.31693709 C3.99969495,1.00737035 4.17112263,0.721162155 4.4497083,0.566124357 C5.346246,0.0675325474 6.39738977,-0.109600968 7.41676488,0.0661307572 C9.2265078,0.37933102 10.632799,1.75839645 10.9232863,3.50476599 C11.267396,5.24140152 10.4328027,6.99754437 8.84225983,7.88364076 C8.70596361,7.9604868 8.55069243,8.0006731 8.39270581,7.99999147 Z" id="Path"></path>
        </g>
    </g>
</svg>