<?xml version="1.0" encoding="UTF-8"?>
<svg width="60px" height="48px" viewBox="0 0 60 48" version="1.1" xmlns="http://www.w3.org/2000/svg" xmlns:xlink="http://www.w3.org/1999/xlink">
    <!-- Generator: Sketch 53 (72520) - https://sketchapp.com -->
    <title>Icon/camera</title>
    <desc>Created with Sketch.</desc>
    <defs>
        <path d="M57.976247,7.57590361 C59.2304038,8.79036145 59.9714964,10.4674699 59.9714964,12.3759036 L59.9714964,41.1759036 C59.9714964,43.026506 59.1733967,44.7614458 57.976247,45.9759036 C56.7790974,47.2481928 55.1258907,48 53.2446556,48 L6.72684086,48 C4.90261283,48 3.19239905,47.1903614 1.99524941,45.9759036 C0.741092637,44.7614458 7.05563873e-14,43.0843373 7.46069873e-14,41.1759036 L7.46069873e-14,12.3759036 C7.46069873e-14,10.5253012 0.798099762,8.79036145 1.99524941,7.57590361 C3.19239905,6.30361446 4.8456057,5.55180723 6.72684086,5.55180723 L16.1330166,5.55180723 L16.1330166,5.43614458 C16.1330166,3.99036145 16.7030879,2.66024096 17.672209,1.67710843 C18.6413302,0.693975904 19.9524941,0.115662651 21.4346793,0.115662651 L38.5368171,0.115662651 C39.9619952,0.115662651 41.2731591,0.693975904 42.2422803,1.67710843 C43.2114014,2.60240964 43.7814727,3.99036145 43.7814727,5.43614458 L43.7814727,5.55180723 L53.2446556,5.55180723 C55.1258907,5.55180723 56.7790974,6.30361446 57.976247,7.57590361 Z M57.0071259,41.1759036 L57.0071259,12.3759036 C57.0071259,11.3349398 56.608076,10.4096386 55.9239905,9.71566265 C55.239905,9.02168675 54.327791,8.61686747 53.3016627,8.61686747 L42.2992874,8.61686747 C41.4441805,8.61686747 40.760095,7.92289157 40.760095,7.05542169 L40.760095,5.37831325 C40.760095,4.74216867 40.5320665,4.16385542 40.1330166,3.75903614 C39.7339667,3.35421687 39.1638955,3.12289157 38.5368171,3.12289157 L21.4916865,3.12289157 C20.8646081,3.12289157 20.2945368,3.35421687 19.8954869,3.75903614 C19.4964371,4.16385542 19.2684086,4.74216867 19.2684086,5.37831325 L19.2684086,7.05542169 C19.2684086,7.92289157 18.584323,8.61686747 17.7292162,8.61686747 L6.72684086,8.61686747 C5.70071259,8.61686747 4.78859857,9.02168675 4.10451306,9.71566265 C3.42042755,10.4096386 3.02137767,11.3349398 3.02137767,12.3759036 L3.02137767,41.1759036 C3.02137767,42.2168675 3.42042755,43.1421687 4.10451306,43.8361446 C4.78859857,44.5301205 5.70071259,44.9349398 6.72684086,44.9349398 L53.2446556,44.9349398 C54.2707838,44.9349398 55.1828979,44.5301205 55.8669834,43.8361446 C56.5510689,43.1421687 56.9501188,42.2168675 56.9501188,41.1759036 L57.0071259,41.1759036 Z M29.9857482,12.5493976 C33.8622328,12.5493976 37.3966746,14.1686747 39.9049881,16.713253 C42.4133017,19.2578313 44.0095012,22.8433735 44.0095012,26.7759036 C44.0095012,30.7084337 42.4703088,34.2361446 39.9049881,36.8385542 C37.3966746,39.3831325 33.8622328,41.0024096 29.9857482,41.0024096 C26.1092637,41.0024096 22.631829,39.4409639 20.0665083,36.8385542 C17.5581948,34.2939759 15.9619952,30.7084337 15.9619952,26.7759036 C15.9619952,22.8433735 17.5011876,19.3156627 20.0665083,16.713253 C22.5748219,14.1686747 26.1092637,12.5493976 29.9857482,12.5493976 Z M37.7387173,34.6987952 C39.7339667,32.6746988 40.9881235,29.8987952 40.9311164,26.8337349 C40.9311164,23.7686747 39.7339667,20.9927711 37.7387173,18.9686747 C35.7434679,17.0024096 33.0071259,15.7301205 29.9857482,15.7301205 C26.9643705,15.7301205 24.2280285,16.9445783 22.2327791,18.9686747 C20.2945368,20.9927711 19.04038,23.7686747 19.04038,26.8337349 C19.04038,29.8987952 20.2375297,32.6746988 22.2327791,34.6987952 C24.2280285,36.6650602 26.9643705,37.9373494 29.9857482,37.9373494 C33.0071259,37.9373494 35.7434679,36.6650602 37.7387173,34.6987952 Z M50.280285,18.1590361 C48.7375609,18.1590361 47.4869359,16.8903298 47.4869359,15.3253012 C47.4869359,13.7602726 48.7375609,12.4915663 50.280285,12.4915663 C51.8230092,12.4915663 53.0736342,13.7602726 53.0736342,15.3253012 C53.0736342,16.8903298 51.8230092,18.1590361 50.280285,18.1590361 Z" id="path-1"></path>
    </defs>
    <g id="E_Container" stroke="none" stroke-width="1" fill="none" fill-rule="evenodd">
        <g id="Hero/tour_appartmenthouse" transform="translate(-183.000000, -501.000000)">
            <g id="Icon/camera" transform="translate(177.000000, 489.000000)">
                <g id="outline-photo_camera-24px">
                    <polygon id="Path" points="0 0 72 0 72 72 0 72"></polygon>
                </g>
                <g id="camera" transform="translate(6.000000, 12.000000)">
                    <g id="color/active">
                        <mask id="mask-2" fill="white">
                            <use xlink:href="#path-1"></use>
                        </mask>
                        <use id="Mask" fill="#000000" fill-rule="nonzero" xlink:href="#path-1"></use>
                        <g id="color/clicked" mask="url(#mask-2)" fill="#09DDC7">
                            <g transform="translate(-6.000000, -12.000000)" id="Rectangle-25">
                                <rect x="0" y="0" width="72.2186551" height="71.812987"></rect>
                            </g>
                        </g>
                    </g>
                </g>
            </g>
        </g>
    </g>
</svg>