<?xml version="1.0" encoding="UTF-8" standalone="no"?>
<svg
   xmlns:dc="http://purl.org/dc/elements/1.1/"
   xmlns:cc="http://creativecommons.org/ns#"
   xmlns:rdf="http://www.w3.org/1999/02/22-rdf-syntax-ns#"
   xmlns:svg="http://www.w3.org/2000/svg"
   xmlns="http://www.w3.org/2000/svg"
   xmlns:sodipodi="http://sodipodi.sourceforge.net/DTD/sodipodi-0.dtd"
   xmlns:inkscape="http://www.inkscape.org/namespaces/inkscape"
   width="32"
   height="32"
   viewBox="0 0 32 32"
   version="1.1"
   id="svg77"
   sodipodi:docname="cart-hover-icon.svg"
   inkscape:version="0.92.3 (unknown)">
  <metadata
     id="metadata81">
    <rdf:RDF>
      <cc:Work
         rdf:about="">
        <dc:format>image/svg+xml</dc:format>
        <dc:type
           rdf:resource="http://purl.org/dc/dcmitype/StillImage" />
        <dc:title>E_7_Icon_Location_Shopping_Hover</dc:title>
      </cc:Work>
    </rdf:RDF>
  </metadata>
  <sodipodi:namedview
     pagecolor="#ffffff"
     bordercolor="#666666"
     borderopacity="1"
     objecttolerance="10"
     gridtolerance="10"
     guidetolerance="10"
     inkscape:pageopacity="0"
     inkscape:pageshadow="2"
     inkscape:window-width="1855"
     inkscape:window-height="1056"
     id="namedview79"
     showgrid="false"
     inkscape:zoom="22.85"
     inkscape:cx="15.645514"
     inkscape:cy="20"
     inkscape:window-x="65"
     inkscape:window-y="24"
     inkscape:window-maximized="1"
     inkscape:current-layer="svg77" />
  <!-- Generator: Sketch 49.3 (51167) - http://www.bohemiancoding.com/sketch -->
  <title
     id="title64">E_7_Icon_Location_Shopping_Hover</title>
  <desc
     id="desc66">Created with Sketch.</desc>
  <defs
     id="defs68" />
  <g
     id="E_7_Icon_Location_Shopping_Hover"
     style="fill:none;fill-rule:evenodd;stroke:none;stroke-width:1"
     transform="matrix(1.3055903,0,0,1.3095637,-10.111807,-10.227679)">
    <path
       d="M 25.950008,15.607814 C 25.900016,15.557822 25.85,15.507806 25.750016,15.507806 H 16.25 l -0.250008,-1.299985 c 0,-0.100008 -0.15,-0.199993 -0.250008,-0.199993 h -1.5 C 14.100008,14.007805 14,14.107813 14,14.257813 c 0,0.15 0.100008,0.250008 0.250008,0.250008 h 1.300008 l 1.2,6.100014 c 0.15,0.799992 0.9,1.399993 1.699992,1.399993 H 24.2 c 0.15,0 0.250008,-0.100008 0.250008,-0.250008 0,-0.15 -0.100008,-0.250008 -0.250008,-0.250008 h -5.7 c -0.400008,0 -0.799992,-0.199992 -1.000008,-0.550008 L 24.8,19.957818 c 0.100008,0 0.199992,-0.100008 0.199992,-0.199992 L 26,15.757814 c 0,0 0,-0.100008 -0.04999,-0.15 z m -1.400016,3.899998 -7.300008,0.949993 -0.9,-4.5 H 25.4 Z"
       id="Shape"
       inkscape:connector-curvature="0"
       style="fill:#009ba9;fill-rule:nonzero" />
    <path
       d="M 18.249992,22.507812 C 17.550008,22.507812 17,23.05782 17,23.757805 c 0,0.700007 0.550008,1.249992 1.249992,1.249992 0.700008,0 1.249992,-0.550008 1.249992,-1.249992 2.4e-5,-0.699985 -0.549984,-1.249993 -1.249992,-1.249993 z m 0,1.999993 c -0.400008,0 -0.75,-0.350016 -0.75,-0.75 0,-0.399985 0.349992,-0.75 0.75,-0.75 0.400008,0 0.75,0.350015 0.75,0.75 0,0.399984 -0.349992,0.75 -0.75,0.75 z"
       id="path71"
       inkscape:connector-curvature="0"
       style="fill:#009ba9;fill-rule:nonzero" />
    <path
       d="m 23.250008,22.507812 c -0.700008,0 -1.249992,0.550008 -1.249992,1.249993 0,0.700007 0.550007,1.249992 1.249992,1.249992 0.700008,0 1.249992,-0.550008 1.249992,-1.249992 0,-0.699985 -0.550008,-1.249993 -1.249992,-1.249993 z m 0,1.999993 c -0.400008,0 -0.75,-0.350016 -0.75,-0.75 0,-0.399985 0.349992,-0.75 0.75,-0.75 0.400008,0 0.75,0.350015 0.75,0.75 0,0.399984 -0.350016,0.75 -0.75,0.75 z"
       id="path73"
       inkscape:connector-curvature="0"
       style="fill:#009ba9;fill-rule:nonzero" />
    <circle
       id="Oval-3"
       cx="20"
       cy="20"
       r="12"
       style="stroke:#009ba9;stroke-width:0.5" />
  </g>
</svg>
