<?xml version="1.0" encoding="UTF-8"?>
<svg width="180px" height="157px" viewBox="0 0 180 157" version="1.1" xmlns="http://www.w3.org/2000/svg" xmlns:xlink="http://www.w3.org/1999/xlink">
    <!-- Generator: Sketch 52.2 (67145) - http://www.bohemiancoding.com/sketch -->
    <title>chat</title>
    <desc>Created with Sketch.</desc>
    <g id="C_2.0_Onboarding" stroke="none" stroke-width="1" fill="none" fill-rule="evenodd">
        <g id="C_5.4.0.0_disagree_verficication_without_reg_owner_success" transform="translate(-572.000000, -383.000000)" fill="#FCFBFB">
            <g id="chat" transform="translate(572.000000, 383.000000)">
                <path d="M178.859788,150.645019 C173.985085,145.785389 168.735649,135.692554 168.735649,127.095071 C168.735649,119.619014 173.235266,109.899755 174.735256,106.535476 C178.109969,98.685494 179.984692,89.34016 179.984692,78.4998248 C179.984692,35.1381336 139.488136,0 89.9923459,0 C40.4965557,0 0,35.1381336 0,78.5001752 C0,121.862217 40.4965557,157 89.9923459,157 C103.116464,157 116.240231,154.383222 128.988912,149.150018 C130.863635,148.402517 131.613806,146.159665 130.863635,144.290388 C130.113816,142.421461 127.864008,141.67361 125.988933,142.421461 C114.364804,147.281091 102.365942,149.523943 89.9919944,149.523943 C44.6207361,149.523943 7.49889345,117.750088 7.49889345,78.5001752 C7.49889345,39.2502628 44.6210877,7.47640742 89.9923459,7.47640742 C135.363604,7.47640742 172.485447,39.2502628 172.485447,78.5001752 C172.485447,88.2190843 170.985457,96.4429923 167.610744,103.545474 C164.98585,109.900105 161.236404,119.245439 161.236404,127.095422 C161.236404,134.945404 164.236031,142.795387 168.360915,149.150018 C157.861691,148.028591 150.737531,143.916813 145.862828,136.440405 C144.737924,134.571479 142.488115,134.197553 140.613392,135.318979 C138.738669,136.440405 138.363583,138.683257 139.488488,140.552184 C146.987733,151.766445 158.236776,156.99965 176.235245,156.99965 C177.735235,156.99965 179.234873,156.252149 179.609958,154.756797 C180.359777,153.261796 179.984692,151.766445 178.859788,150.645019 Z" id="Path"></path>
                <path d="M78.5635359,52.4658936 C78.5635359,50.2003523 77.0717183,48.6898734 74.8341667,48.6898734 C72.5966152,48.6898734 71.1047976,50.2003523 71.1047976,52.4658936 C71.1047976,56.619268 67.7484702,60.0175799 63.6464088,60.0175799 C59.5443475,60.0175799 56.1880201,56.619268 56.1880201,52.4658936 C56.1880201,50.2003523 54.6962025,48.6898734 52.4586509,48.6898734 C50.2210994,48.6898734 48.7292818,50.2003523 48.7292818,52.4658936 C48.7292818,60.7729964 55.4419365,67.5696203 63.6464088,67.5696203 C71.8508812,67.5696203 78.5635359,60.7729964 78.5635359,52.4658936 Z" id="Path"></path>
                <path d="M131.270718,52.4658936 C131.270718,50.2003523 129.778883,48.6898734 127.541305,48.6898734 C125.303728,48.6898734 123.812242,50.2003523 123.812242,52.4658936 C123.812242,56.619268 120.455875,60.0175799 116.353766,60.0175799 C112.251657,60.0175799 108.89529,56.619268 108.89529,52.4658936 C108.89529,50.2003523 107.403455,48.6898734 105.165877,48.6898734 C102.928299,48.6898734 101.436464,50.2003523 101.436464,52.4658936 C101.436464,60.7729964 108.149197,67.5696203 116.353766,67.5696203 C124.558334,67.5696203 131.270718,60.7729964 131.270718,52.4658936 Z" id="Path"></path>
                <path d="M66.0079147,107.177335 C72.3475834,100.758299 80.5521278,96.9822077 89.5024128,96.9822077 C98.4526978,96.9822077 106.657242,100.758299 112.996911,107.177335 C113.742651,107.932411 114.488742,108.310127 115.607527,108.310127 C116.353268,108.310127 117.472053,107.932411 118.218144,107.177335 C119.709974,105.666828 119.709974,103.401244 118.218144,101.891091 C110.759689,93.9615473 100.317574,89.4303797 89.5027624,89.4303797 C78.6876017,89.4303797 68.6188807,93.9615473 60.7873813,101.891091 C59.2955506,103.401598 59.2955506,105.667182 60.7873813,107.177335 C62.279212,108.687488 64.5164336,108.687842 66.0079147,107.177335 Z" id="Path"></path>
            </g>
        </g>
    </g>
</svg>