<?xml version="1.0" encoding="UTF-8" standalone="no"?>
<svg
   xmlns:dc="http://purl.org/dc/elements/1.1/"
   xmlns:cc="http://creativecommons.org/ns#"
   xmlns:rdf="http://www.w3.org/1999/02/22-rdf-syntax-ns#"
   xmlns:svg="http://www.w3.org/2000/svg"
   xmlns="http://www.w3.org/2000/svg"
   xmlns:sodipodi="http://sodipodi.sourceforge.net/DTD/sodipodi-0.dtd"
   xmlns:inkscape="http://www.inkscape.org/namespaces/inkscape"
   width="32"
   height="32"
   viewBox="0 0 32 32"
   version="1.1"
   id="svg106"
   sodipodi:docname="croissant-hover-icon.svg"
   inkscape:version="0.92.3 (unknown)">
  <metadata
     id="metadata110">
    <rdf:RDF>
      <cc:Work
         rdf:about="">
        <dc:format>image/svg+xml</dc:format>
        <dc:type
           rdf:resource="http://purl.org/dc/dcmitype/StillImage" />
        <dc:title>E_7_Icon_Location_Bakery_Hover</dc:title>
      </cc:Work>
    </rdf:RDF>
  </metadata>
  <sodipodi:namedview
     pagecolor="#ffffff"
     bordercolor="#666666"
     borderopacity="1"
     objecttolerance="10"
     gridtolerance="10"
     guidetolerance="10"
     inkscape:pageopacity="0"
     inkscape:pageshadow="2"
     inkscape:window-width="1855"
     inkscape:window-height="1056"
     id="namedview108"
     showgrid="false"
     inkscape:zoom="22.85"
     inkscape:cx="15.273523"
     inkscape:cy="20"
     inkscape:window-x="65"
     inkscape:window-y="24"
     inkscape:window-maximized="1"
     inkscape:current-layer="svg106" />
  <!-- Generator: Sketch 49.3 (51167) - http://www.bohemiancoding.com/sketch -->
  <title
     id="title97">E_7_Icon_Location_Bakery_Hover</title>
  <desc
     id="desc99">Created with Sketch.</desc>
  <defs
     id="defs101" />
  <g
     id="E_7_Icon_Location_Bakery_Hover"
     style="fill:none;fill-rule:evenodd;stroke:none;stroke-width:1"
     transform="matrix(1.3055903,0,0,1.3095637,-10.111807,-10.227679)">
    <path
       d="m 22.425882,15.754852 0.0015,-0.03149 c 0.0096,-0.186473 -0.05489,-0.360457 -0.18113,-0.489546 -0.168494,-0.172311 -0.430917,-0.246996 -0.7048,-0.19894 l -2.94847,0.517115 c -0.146306,-0.17435 -0.353836,-0.276444 -0.577789,-0.276444 -0.187435,0 -0.373529,0.0721 -0.523858,0.202858 l -2.401083,2.088557 c -0.180164,0.156841 -0.280588,0.374229 -0.275035,0.596841 0.0013,0.05848 0.01108,0.11605 0.02659,0.172311 -0.161223,0.111764 -0.279058,0.294502 -0.317106,0.51897 l -0.450988,2.668853 -0.03252,-9.4e-4 0.02181,0.06353 -0.05049,0.298237 c -0.04073,0.241611 0.01894,0.475201 0.163341,0.64098 0.08435,0.09687 0.193177,0.1617 0.314236,0.197633 0.513153,1.208762 1.578847,3.264365 2.892823,3.264365 0.193741,0 0.385388,-0.04434 0.569765,-0.131703 0.7704,-0.365475 0.702117,-2.0977 0.567459,-3.227858 l 0.0048,-1.83e-4 c 0.40873,-0.01359 0.8056,-0.361579 0.903906,-0.792436 l 0.03118,-0.137293 c 0.165624,-0.02851 0.319977,-0.0924 0.446212,-0.188696 l 0.857036,-0.654592 c 0.115905,-0.08866 0.202917,-0.203225 0.26527,-0.328969 l 0.342165,-0.04097 c 0.386353,-0.0462 0.710917,-0.3135 0.817459,-0.642285 0.636706,0.175473 1.538117,0.383923 2.233341,0.383923 1.88e-4,0 1.88e-4,0 3.76e-4,0 0.555412,0 0.914024,-0.131886 1.096118,-0.403104 0.205035,-0.305686 0.258965,-0.650123 0.160282,-1.023802 -0.318635,-1.205417 -2.270447,-2.473052 -3.2524,-3.044915 z m 2.612047,3.763398 c -0.02353,0.0352 -0.137906,0.15015 -0.615858,0.15015 -1.89e-4,0 -1.89e-4,0 -1.89e-4,0 -0.661176,0 -1.568917,-0.219817 -2.175788,-0.391004 l 0.147459,-2.88789 c 1.054423,0.641736 2.500918,1.685636 2.729482,2.550167 0.05758,0.218121 0.02967,0.407389 -0.08511,0.578577 z m -3.384164,0.106562 c -9.65e-4,0.01882 -0.0061,0.03818 -0.0132,0.05793 -0.04054,0.111581 -0.174424,0.228571 -0.339671,0.248119 l -0.178823,0.02143 c -0.01722,-0.111398 -0.05471,-0.220184 -0.1136,-0.320398 l -2.098895,-3.567644 2.53993,-0.445592 0.193741,-0.03389 c 0.02141,-0.0037 0.04247,-0.0056 0.06235,-0.0056 0.05471,0 0.100212,0.01453 0.125082,0.03987 0.0065,0.0067 0.02621,0.02702 0.02372,0.07675 l -0.0031,0.05906 -0.185906,3.641963 z m -1.244518,0.790946 -0.261459,0.199696 -0.533812,0.407756 -0.06179,0.04714 c -0.06732,0.0514 -0.163341,0.07769 -0.261459,0.08158 -0.100611,0.0039 -0.202353,-0.01714 -0.279623,-0.06295 -0.01242,-0.0074 -0.02562,-0.01416 -0.03673,-0.02292 L 16.949318,19.47001 16.158447,18.846723 15.4808,18.31265 c -0.02315,-0.01827 -0.04094,-0.03875 -0.05546,-0.05997 -0.022,-0.03204 -0.03539,-0.06669 -0.03614,-0.102277 -0.0015,-0.05906 0.02812,-0.118113 0.08358,-0.166352 l 2.400705,-2.088763 c 0.02887,-0.02514 0.05892,-0.03988 0.08913,-0.04936 0.0176,-0.0056 0.03539,-0.01155 0.05278,-0.01155 0.06292,0 0.120494,0.03875 0.161624,0.108602 l 0.03061,0.05197 0.167153,0.284258 2.136,3.630229 c 0.01988,0.03389 0.03214,0.07173 0.0396,0.111032 0.01798,0.09611 5.65e-4,0.201552 -0.04859,0.287237 -0.02407,0.04191 -0.05487,0.07918 -0.09254,0.108052 z m -1.5408,1.299307 c -0.04494,0.197839 -0.228753,0.350579 -0.363012,0.355047 l -0.06254,0.002 -0.289953,0.0097 -1.831318,0.0611 -1.432729,0.04769 -0.19127,0.0063 -0.0052,0.258936 -5.65e-4,0.019 v -0.01994 -0.257996 c -0.03405,0 -0.05911,-0.01043 -0.07842,-0.03259 -0.0348,-0.03988 -0.04762,-0.110459 -0.03442,-0.188696 l 0.02678,-0.157965 0.04706,-0.2783 0.438377,-2.593571 c 0.01242,-0.07414 0.044,-0.131335 0.08242,-0.156475 l 3.439624,2.711111 c 0.07995,0.06295 0.172141,0.111031 0.270447,0.146964 z m -1.167082,3.63896 c -0.106918,0.05067 -0.211153,0.07526 -0.318447,0.07526 -0.794118,0 -1.678118,-1.394685 -2.261083,-2.687643 l 2.820141,-0.09371 c 0.150518,1.284227 0.10233,2.543475 -0.240611,2.706092 z"
       id="Shape"
       inkscape:connector-curvature="0"
       style="fill:#009ba9;fill-rule:nonzero" />
    <circle
       id="Oval-3-Copy"
       cx="20"
       cy="20"
       r="12"
       style="stroke:#009ba9;stroke-width:0.5" />
  </g>
</svg>
