<?xml version="1.0" encoding="UTF-8" standalone="no"?>
<svg
   xmlns:dc="http://purl.org/dc/elements/1.1/"
   xmlns:cc="http://creativecommons.org/ns#"
   xmlns:rdf="http://www.w3.org/1999/02/22-rdf-syntax-ns#"
   xmlns:svg="http://www.w3.org/2000/svg"
   xmlns="http://www.w3.org/2000/svg"
   xmlns:sodipodi="http://sodipodi.sourceforge.net/DTD/sodipodi-0.dtd"
   xmlns:inkscape="http://www.inkscape.org/namespaces/inkscape"
   width="63"
   height="63"
   viewBox="0 0 63 63"
   version="1.1"
   id="svg60"
   sodipodi:docname="cross-icon.svg"
   inkscape:version="0.92.3 (unknown)">
  <metadata
     id="metadata64">
    <rdf:RDF>
      <cc:Work
         rdf:about="">
        <dc:format>image/svg+xml</dc:format>
        <dc:type
           rdf:resource="http://purl.org/dc/dcmitype/StillImage" />
      </cc:Work>
    </rdf:RDF>
  </metadata>
  <sodipodi:namedview
     pagecolor="#ffffff"
     bordercolor="#666666"
     borderopacity="1"
     objecttolerance="10"
     gridtolerance="10"
     guidetolerance="10"
     inkscape:pageopacity="0"
     inkscape:pageshadow="2"
     inkscape:window-width="1855"
     inkscape:window-height="1056"
     id="namedview62"
     showgrid="false"
     inkscape:zoom="22.85"
     inkscape:cx="13.829322"
     inkscape:cy="20"
     inkscape:window-x="65"
     inkscape:window-y="24"
     inkscape:window-maximized="1"
     inkscape:current-layer="svg60" />
  <!-- Generator: Sketch 49.3 (51167) - http://www.bohemiancoding.com/sketch -->
  <title
     id="title52">E_3_Icon_Move</title>
  <desc
     id="desc54">Created with Sketch.</desc>
  <defs
     id="defs56" />
  <g
     id="E_3_Icon_Move"
     style="fill:none;fill-rule:evenodd;stroke:none;stroke-width:1"
     transform="matrix(1.9687499,0,0,1.9687731,-5.9633436,-7.8135681)">
    <path
       d="M 34.734005,19.259636 31.315558,15.84069 c -0.391494,-0.391494 -1.025484,-0.391494 -1.416978,0 -0.390494,0.390493 -0.390494,1.024983 0,1.415977 l 1.709973,1.709974 -11.579819,-5e-4 0.001,-11.5773194 1.783972,1.7849721 c 0.196497,0.1959969 0.451993,0.2939954 0.708989,0.2939954 0.255996,0 0.512492,-0.097998 0.707989,-0.2939954 0.391494,-0.3904939 0.391494,-1.025484 0,-1.4169779 L 19.736739,4.2618704 c -0.093,-0.092999 -0.202997,-0.1659974 -0.325995,-0.2169966 -0.244996,-0.1014984 -0.520492,-0.1014984 -0.765488,0 -0.121998,0.050499 -0.231496,0.1229981 -0.322995,0.2144967 0,0 -1.141316,1.1404821 -3.423946,3.4214465 -0.390494,0.3914939 -0.390494,1.025484 0,1.4169779 0.196497,0.1954969 0.451993,0.2934954 0.708989,0.2934954 0.255996,0 0.512491,-0.097998 0.707988,-0.2934954 l 1.710974,-1.7099733 -0.001,11.5783194 -11.5748195,-5e-4 1.7084734,-1.708974 c 0.3904938,-0.390994 0.3904938,-1.025484 0,-1.415977 -0.3914939,-0.391494 -1.025484,-0.391494 -1.4169779,0 L 3.3229954,19.260636 C 3.1264985,19.456133 3.029,19.712129 3.029,19.968625 c 0,0.256496 0.097498,0.512492 0.2939954,0.708489 l 3.4939454,3.494445 c 0.1959969,0.196497 0.451993,0.293996 0.7084889,0.293996 0.256496,0 0.512492,-0.0975 0.708489,-0.293996 0.3909939,-0.391494 0.3909939,-1.025484 0,-1.416478 l -1.7854721,-1.785472 11.5763194,5e-4 -5e-4,11.576319 -1.708974,-1.708473 c -0.391493,-0.389994 -1.025484,-0.390994 -1.416977,5e-4 -0.390494,0.391494 -0.390494,1.025984 0,1.416978 l 3.421946,3.419447 c 0.195497,0.195997 0.451993,0.293495 0.707989,0.293495 0.256496,0 0.512492,-0.0975 0.707989,-0.293495 l 3.494945,-3.495446 c 0.391494,-0.391494 0.391494,-1.026484 0,-1.416978 -0.391494,-0.391494 -1.025484,-0.391494 -1.416978,0 l -1.785972,1.786972 10e-4,-11.579319 11.579819,5e-4 -1.784972,1.784472 c -0.390494,0.390994 -0.390494,1.024984 0,1.416478 0.196497,0.196497 0.451993,0.293996 0.708989,0.293996 0.255996,0 0.512492,-0.0975 0.707989,-0.293996 l 3.494446,-3.494445 c 0.0945,-0.0995 0.166497,-0.206497 0.216496,-0.324995 0.051,-0.122998 0.077,-0.252996 0.077,-0.383994 -5e-4,-0.129498 -0.0265,-0.259996 -0.0775,-0.382494 -0.051,-0.122998 -0.123998,-0.233496 -0.217496,-0.325995 z"
       id="Icon_Move"
       inkscape:connector-curvature="0"
       style="fill:#23c1cf;fill-rule:nonzero" />
  </g>
</svg>
