<?xml version="1.0" encoding="UTF-8"?>
<svg width="40px" height="40px" viewBox="0 0 40 40" version="1.1" xmlns="http://www.w3.org/2000/svg" xmlns:xlink="http://www.w3.org/1999/xlink">
    <!-- Generator: Sketch 51.3 (57544) - http://www.bohemiancoding.com/sketch -->
    <title>Global_Icon_Checkbox_L_selected</title>
    <desc>Created with Sketch.</desc>
    <defs></defs>
    <g id="Global_Icon_Checkbox_L_selected" stroke="none" stroke-width="1" fill="none" fill-rule="evenodd">
        <path d="M14.6771593,20.8200165 L25.8200165,20.8200165 C26.2934034,20.8200165 26.6771593,21.2037724 26.6771593,21.6771593 C26.6771593,22.1505463 26.2934034,22.5343022 25.8200165,22.5343022 L13.5343022,22.5343022 C13.0609153,22.5343022 12.6771593,22.1505463 12.6771593,21.6771593 C12.6771593,21.6540454 12.6780742,21.6311451 12.6798698,21.6084927 C12.6780734,21.5839971 12.6771593,21.5592564 12.6771593,21.5343022 L12.6771593,15.8200165 C12.6771593,15.2677317 13.1248746,14.8200165 13.6771593,14.8200165 C14.2294441,14.8200165 14.6771593,15.2677317 14.6771593,15.8200165 L14.6771593,20.8200165 Z" id="Combined-Shape" fill="#FFFFFF" transform="translate(19.677159, 18.677159) rotate(-45.000000) translate(-19.677159, -18.677159) "></path>
        <path d="M14.1923882,21.1923882 L27.1923882,21.1923882 C27.7446729,21.1923882 28.1923882,21.6401034 28.1923882,22.1923882 C28.1923882,22.7446729 27.7446729,23.1923882 27.1923882,23.1923882 L13.1923882,23.1923882 C12.6401034,23.1923882 12.1923882,22.7446729 12.1923882,22.1923882 L12.1923882,14.1923882 C12.1923882,13.6401034 12.6401034,13.1923882 13.1923882,13.1923882 C13.7446729,13.1923882 14.1923882,13.6401034 14.1923882,14.1923882 L14.1923882,21.1923882 Z" id="Combined-Shape" fill="#FFFFFF" transform="translate(20.192388, 18.192388) rotate(-45.000000) translate(-20.192388, -18.192388) "></path>
        <g id="Group" transform="translate(6.000000, 6.000000)">
            <rect id="Rectangle-9" fill="#07B09F" fill-rule="nonzero" x="0" y="0" width="28" height="28" rx="2"></rect>
            <path d="M8.19238816,16.1923882 L21.1923882,16.1923882 C21.7446729,16.1923882 22.1923882,16.6401034 22.1923882,17.1923882 C22.1923882,17.7446729 21.7446729,18.1923882 21.1923882,18.1923882 L7.19238816,18.1923882 C6.64010341,18.1923882 6.19238816,17.7446729 6.19238816,17.1923882 L6.19238816,9.19238816 C6.19238816,8.64010341 6.64010341,8.19238816 7.19238816,8.19238816 C7.74467291,8.19238816 8.19238816,8.64010341 8.19238816,9.19238816 L8.19238816,16.1923882 Z" id="Combined-Shape" fill="#FFFFFF" transform="translate(14.192388, 13.192388) rotate(-45.000000) translate(-14.192388, -13.192388) "></path>
        </g>
    </g>
</svg>