<?xml version="1.0" encoding="UTF-8"?>
<svg width="180px" height="166px" viewBox="0 0 180 166" version="1.1" xmlns="http://www.w3.org/2000/svg" xmlns:xlink="http://www.w3.org/1999/xlink">
    <!-- Generator: Sketch 52.2 (67145) - http://www.bohemiancoding.com/sketch -->
    <title>hand</title>
    <desc>Created with Sketch.</desc>
    <g id="C_2.0_Onboarding" stroke="none" stroke-width="1" fill="none" fill-rule="evenodd">
        <g id="C_3.8.0.0_Global_registration_owner_skipit_success" transform="translate(-572.000000, -352.000000)" fill="#FFFFFF">
            <g id="hand" transform="translate(572.000000, 352.000000)">
                <path d="M86.3674661,41.0970874 C85.2973227,41.0970874 84.892773,40.8725362 82.0540915,39.1115125 C80.6928364,38.2677453 78.5949181,36.9231615 76.3316265,35.3159211 C70.2688478,31.0113474 66.5568308,27.3926747 64.9796338,24.253044 C63.0525557,20.416625 62.4798991,16.0535322 63.3669016,11.9680656 C64.2566377,7.86762929 66.4925948,4.42587572 69.6620232,2.27563027 C72.8000169,0.145798616 76.4819661,-0.506079683 80.3101543,0.392124116 C83.0135302,1.02631026 84.7219328,2.37225531 86.3688327,4.01760127 C88.014366,2.37225531 89.7227687,1.02631026 92.4261446,0.392124116 C96.2543328,-0.506079683 99.936282,0.145798616 103.075642,2.27563027 C106.243704,4.42587572 108.478294,7.86762929 109.369397,11.9680656 C110.255033,16.054893 109.682376,20.416625 107.756665,24.253044 C106.179468,27.3926747 102.466084,31.0113474 96.4046724,35.3159211 C94.1413808,36.9245223 92.0434624,38.2677453 90.6822073,39.1115125 C87.8421592,40.8725362 87.4389761,41.0970874 86.3674661,41.0970874 Z M77.0313881,6.97214749 C75.7904046,6.97214749 74.6423581,7.32598535 73.6022828,8.03230024 C71.9212145,9.17274671 70.7157659,11.0929976 70.2059787,13.4392148 C69.6551897,15.980043 70.0214712,18.71276 71.2378536,21.135188 C73.1758655,24.9961037 82.2782339,31.1066112 86.3674661,33.5902807 C90.4566983,31.1066112 99.5590667,24.9961037 101.497078,21.135188 C102.713461,18.71276 103.079743,15.980043 102.528953,13.4392148 C102.019166,11.0929976 100.813717,9.17274671 99.1340161,8.03230024 C97.6388224,7.01841842 95.9235862,6.72990447 94.0306764,7.17356289 C92.72819,7.47840781 92.06533,8.13028611 90.1642196,10.1430789 C89.7678704,10.5622407 89.3441864,11.0099816 88.8781343,11.4876628 C88.2193741,12.1640374 87.3132377,12.5450935 86.3674661,12.5450935 C85.4216945,12.5450935 84.5155577,12.1640374 83.8567976,11.4876628 C83.3907454,11.0099816 82.9670618,10.5622407 82.5707123,10.1430789 C80.6696022,8.13028611 80.0067418,7.47840781 78.7042558,7.17356289 C78.1302326,7.03883223 77.57261,6.97214749 77.0313881,6.97214749 Z" id="Shape" fill-rule="nonzero"></path>
                <path d="M58.5159227,112.009709 C58.2803914,112.009709 58.0434417,111.984219 57.8079104,111.937489 C57.575217,111.889342 57.3467803,111.821371 57.1282754,111.730742 C56.9111896,111.640113 56.6997792,111.526827 56.4997197,111.396548 C56.3039166,111.266269 56.115208,111.113333 55.9477821,110.947652 C55.7817753,110.780555 55.6285382,110.592218 55.4980029,110.396799 C55.3674676,110.197133 55.2539586,109.986138 55.1631514,109.769478 C55.0723443,109.551403 55.0042389,109.323415 54.9559978,109.091178 C54.909175,108.85611 54.8878924,108.619626 54.8878924,108.380309 C54.8878924,107.42729 55.2724037,106.491265 55.9477821,105.817213 C56.115208,105.650117 56.3039166,105.502845 56.4997197,105.368318 C56.6997792,105.238039 56.9111896,105.124753 57.1282754,105.034124 C57.3467803,104.943495 57.575217,104.875524 57.8079104,104.827377 C58.2761347,104.733916 58.759967,104.733916 59.2281913,104.827377 C59.4608847,104.875524 59.6893217,104.943495 59.9078263,105.034124 C60.1249121,105.124753 60.3363229,105.238039 60.5363823,105.368318 C60.7321851,105.502845 60.9208937,105.650117 61.0883196,105.817213 C61.763698,106.495513 62.1524664,107.42729 62.1524664,108.380309 C62.1524664,108.619626 62.1269267,108.85611 62.0801043,109.091178 C62.0318628,109.323415 61.9637574,109.551403 61.8729503,109.769478 C61.7821431,109.986138 61.6686341,110.197133 61.5380988,110.396799 C61.4033072,110.592218 61.2543264,110.776308 61.0883196,110.947652 C60.9208937,111.113333 60.7321851,111.266269 60.5363823,111.396548 C60.3363229,111.526827 60.1249121,111.640113 59.9078263,111.730742 C59.6893217,111.821371 59.4608847,111.889342 59.2281913,111.937489 C58.9926604,111.984219 58.7557103,112.009709 58.5159227,112.009709 Z" id="Path"></path>
                <path d="M179.994218,150.793148 C179.774492,142.86317 172.986325,136.4112 164.860575,136.4112 L163.840221,136.4112 L163.840221,95.288753 L164.760325,95.9595834 C165.375558,96.408167 166.106148,96.637231 166.842231,96.637231 C167.383307,96.637231 167.927129,96.5131546 168.429753,96.2609116 C169.612154,95.6664359 170.356477,94.4624862 170.356477,93.1467316 L170.356477,75.7242309 C170.356477,74.6129976 169.825014,73.5685746 168.922764,72.9113791 L121.813464,38.5517751 C120.574758,37.6477902 118.888359,37.6477902 117.651026,38.5517751 L96.5092444,53.9713291 L96.5092444,48.5596915 C96.5092444,46.6317358 94.9340821,45.069192 92.9936251,45.069192 L79.6864563,45.069192 C77.7459993,45.069192 76.170837,46.6317358 76.170837,48.5596915 L76.170837,68.8032246 L70.5403532,72.9113791 C69.6394757,73.5685746 69.1066393,74.6129976 69.1066393,75.7242309 L69.1066393,82.4175363 C57.5957327,77.4517552 40.7427324,77.8089862 30.5858884,78.6297988 L30.5858884,75.3247321 C30.5858884,73.3967767 29.0120996,71.8342327 27.070269,71.8342327 L3.51561935,71.8342327 C1.5737888,71.8342327 0,73.3967767 0,75.3247321 L0,130.998198 C0,132.924791 1.5737888,134.488698 3.51561935,134.488698 L27.070269,134.488698 C29.0120996,134.488698 30.5858884,132.924791 30.5858884,130.998198 L30.5858884,122.570551 L35.7041359,122.570551 C36.2342252,123.929937 37.2284863,127.153195 38.4740593,134.337352 C42.0089049,154.740412 54.5017131,165.976821 73.649479,165.976821 L165.098154,166 C169.156222,166 172.949246,164.410186 175.779594,161.522344 C178.608569,158.635864 180.105454,154.824948 179.994218,150.793148 Z M156.810356,136.4112 L136.528254,136.4112 L136.528254,101.368494 C136.528254,99.4405384 134.953092,97.8779947 133.012634,97.8779947 L106.451855,97.8779947 C104.510025,97.8779947 102.936236,99.4405384 102.936236,101.368494 L102.936236,110.012934 L81.1599955,91.1642368 L119.728812,63.116165 L156.808983,90.1593548 L156.810356,136.4112 Z M129.076789,136.4112 C128.365425,133.275204 126.626841,130.349184 123.922836,128.178529 L109.967475,116.098129 L109.967475,104.860357 L129.497015,104.860357 L129.497015,136.4112 L129.076789,136.4112 Z M83.2034492,52.050191 L89.4780057,52.050191 L89.4780057,59.0993635 L83.2034492,63.6751902 L83.2034492,52.050191 Z M76.137878,77.4912963 L119.731558,45.6963912 L163.325238,77.4912963 L163.325238,86.2516318 L121.813464,55.9742757 C121.194111,55.5216016 120.463521,55.2966281 119.731558,55.2966281 C119.002342,55.2966281 118.273125,55.5216016 117.653772,55.971549 L76.137878,86.1630059 L76.137878,77.4912963 Z M23.5546497,127.507699 L7.03123871,127.507699 L7.03123871,78.8152316 L23.5546497,78.8152316 L23.5546497,127.507699 Z M170.739624,156.654733 C169.245486,158.1791 167.241858,159.019001 165.099527,159.019001 L73.649479,158.995822 C54.0045824,158.995822 47.445755,144.942471 45.4023013,133.153855 C44.5728348,128.368053 43.7323821,124.583042 42.9029156,121.906538 C42.219018,119.69907 40.9459792,115.589552 37.3754282,115.589552 L30.5858884,115.589552 L30.5858884,85.6367038 C40.7605851,84.7845312 62.6137298,84.0073495 71.2819288,91.8732445 C71.301155,91.89097 71.3217544,91.9100585 71.3423538,91.9277836 L119.355277,133.485179 C119.392356,133.517903 119.429435,133.549263 119.467887,133.579259 C122.857164,136.272125 123.406479,141.198365 120.695607,144.562061 C119.38137,146.191416 117.508204,147.21675 115.418058,147.447177 C113.326539,147.676241 111.274846,147.084493 109.650245,145.794644 L69.4801739,113.447531 C67.9723029,112.234037 65.7585614,112.463101 64.534961,113.960198 C63.3113609,115.457295 63.5420734,117.655219 65.0499443,118.870076 L105.239241,151.230824 C107.907542,153.35103 111.152623,154.477261 114.5213,154.477261 C115.076109,154.477261 115.633664,154.445902 116.192593,154.384545 C120.149038,153.949596 123.697616,152.009369 126.184642,148.923822 C127.540078,147.242656 128.465675,145.354241 128.975165,143.390835 L164.860575,143.390835 C169.2139,143.390835 172.848996,146.796799 172.964352,150.984035 C173.023404,153.116512 172.233763,155.129003 170.739624,156.654733 Z" id="Shape" fill-rule="nonzero"></path>
            </g>
        </g>
    </g>
</svg>