<?xml version="1.0" encoding="UTF-8"?>
<svg width="80px" height="80px" viewBox="0 0 80 80" version="1.1" xmlns="http://www.w3.org/2000/svg" xmlns:xlink="http://www.w3.org/1999/xlink">
    <!-- Generator: Sketch 46.2 (44496) - http://www.bohemiancoding.com/sketch -->
    <title>House_Standard</title>
    <desc>Created with Sketch.</desc>
    <defs></defs>
    <g id="Icons" stroke="none" stroke-width="1" fill="none" fill-rule="evenodd">
        <g id="House_Standard" stroke="#FFFFFF" stroke-width="2" fill-rule="nonzero">
            <g id="np_house_943960_FFFFFF" transform="translate(8.000000, 7.000000)">
                <path d="M2.23255814,33.4883721 L5.95348837,33.4883721 L5.95348837,65.1162791 C5.95348837,66.1453395 6.78489302,66.9767442 7.81395349,66.9767442 L56.1860465,66.9767442 C57.215107,66.9767442 58.0465116,66.1453395 58.0465116,65.1162791 L58.0465116,33.4883721 L61.7674419,33.4883721 C62.5203349,33.4883721 63.197693,33.03488 63.4854698,32.340093 C63.7732614,31.6453284 63.6133805,30.8459163 63.0813991,30.3138977 L33.3139572,0.546455814 C32.5872149,-0.180286512 31.4098828,-0.180286512 30.6831107,0.546455814 L0.915668837,30.3138977 C0.383694884,30.8458716 0.223806512,31.6453209 0.51159814,32.340093 C0.802292093,33.0348577 1.47963535,33.4883721 2.23252837,33.4883721 L2.23255814,33.4883721 Z M54.3255814,63.255814 L48.744186,63.255814 L48.744186,42.7906977 C48.744186,41.7616372 47.9127814,40.9302326 46.8837209,40.9302326 L35.7209302,40.9302326 C34.6918698,40.9302326 33.8604651,41.7616372 33.8604651,42.7906977 L33.8604651,63.255814 L9.6744186,63.255814 L9.6744186,33.4883721 L54.3255814,33.4883721 L54.3255814,63.255814 Z" id="Shape"></path>
                <path d="M17.1162791,55.8139535 L28.2790698,55.8139535 C29.3081302,55.8139535 30.1395349,54.9825488 30.1395349,53.9534884 L30.1395349,42.7906977 C30.1395349,41.7616372 29.3081302,40.9302326 28.2790698,40.9302326 L17.1162791,40.9302326 C16.0872186,40.9302326 15.255814,41.7616372 15.255814,42.7906977 L15.255814,53.9534884 C15.255814,54.9825488 16.0872186,55.8139535 17.1162791,55.8139535 Z" id="Shape"></path>
            </g>
        </g>
    </g>
</svg>