<?xml version="1.0" encoding="UTF-8" standalone="no"?>
<svg
   xmlns:dc="http://purl.org/dc/elements/1.1/"
   xmlns:cc="http://creativecommons.org/ns#"
   xmlns:rdf="http://www.w3.org/1999/02/22-rdf-syntax-ns#"
   xmlns:svg="http://www.w3.org/2000/svg"
   xmlns="http://www.w3.org/2000/svg"
   xmlns:sodipodi="http://sodipodi.sourceforge.net/DTD/sodipodi-0.dtd"
   xmlns:inkscape="http://www.inkscape.org/namespaces/inkscape"
   width="54"
   height="49"
   viewBox="0 0 54 49"
   version="1.1"
   id="svg62"
   sodipodi:docname="icon-sale-type.svg"
   inkscape:version="0.92.3 (unknown)">
  <metadata
     id="metadata66">
    <rdf:RDF>
      <cc:Work
         rdf:about="">
        <dc:format>image/svg+xml</dc:format>
        <dc:type
           rdf:resource="http://purl.org/dc/dcmitype/StillImage" />
      </cc:Work>
    </rdf:RDF>
  </metadata>
  <sodipodi:namedview
     pagecolor="#ffffff"
     bordercolor="#666666"
     borderopacity="1"
     objecttolerance="10"
     gridtolerance="10"
     guidetolerance="10"
     inkscape:pageopacity="0"
     inkscape:pageshadow="2"
     inkscape:window-width="1855"
     inkscape:window-height="1056"
     id="namedview64"
     showgrid="false"
     inkscape:zoom="22.85"
     inkscape:cx="12.297593"
     inkscape:cy="20"
     inkscape:window-x="65"
     inkscape:window-y="24"
     inkscape:window-maximized="1"
     inkscape:current-layer="svg62" />
  <!-- Generator: Sketch 49.3 (51167) - http://www.bohemiancoding.com/sketch -->
  <title
     id="title53">Filer_Icon_Buying_Status</title>
  <desc
     id="desc55">Created with Sketch.</desc>
  <defs
     id="defs57" />
  <g
     id="Filer_Icon_Buying_Status"
     style="fill:none;fill-rule:evenodd;stroke:none;stroke-width:1"
     transform="matrix(3.2115445,0,0,3.3426529,-35.47603,-40.266934)">
    <g
       id="Icon_Type"
       transform="rotate(-33,37.927752,-5.2899946)"
       style="fill:#484848">
      <path
         d="M 10.819369,3.3538266 16.071242,8.605502 15.901894,8.7748496 10.649982,3.5234117 Z M 10.184958,1.4431946 16.634573,7.8927302 16.465186,8.0620779 10.015809,1.6125818 Z M 11.078317,1.0887084 17.019335,7.0300033 16.849988,7.199351 10.909207,1.258056 Z M 11.973299,0.87404577 17.330208,6.2313507 17.160861,6.4006983 11.803952,1.0434329 Z M 10.244798,7.8250941 12.332139,9.9129098 12.162791,10.082257 10.075688,7.9944417 Z M 10.667514,7.0300033 13.449857,9.812544 13.280549,9.9819312 10.498166,7.199351 Z m 0.269951,-0.9317482 3.428191,3.4286657 -0.169348,0.1693476 -3.428191,-3.4286657 z m 0,-1.3150461 4.382893,4.3829725 -0.169387,0.1693476 -4.382854,-4.3830912 z M 17.179343,5.2902624 12.796766,0.90760659 12.966114,0.73825899 17.34869,5.1211127 Z M 16.969746,3.947869 14.001948,0.97991276 14.171296,0.81052558 17.139094,3.7784819 Z M 7.398183,3.5234117 2.1462701,8.7748496 1.9769225,8.605502 7.2285979,3.3538266 Z M 8.0322372,1.6125818 1.5826224,8.0620779 1.4132748,7.8927302 7.86285,1.4432342 Z M 7.1387198,1.258056 1.1981373,7.199351 1.0287897,7.0300033 6.9696097,1.0887084 Z M 6.2440943,1.0434329 0.88690811,6.4006983 0.71756051,6.2313507 6.0747467,0.87404577 Z M 5.7156301,9.9128703 7.8029709,7.8250545 7.9723185,7.9944021 5.8850172,10.082257 Z M 4.5979517,9.8125044 7.3801757,7.0299638 7.5495233,7.1993114 4.7672993,9.9818916 Z M 7.2795724,6.2676027 3.8514608,9.6962684 3.6821132,9.5269208 7.1104227,6.0982551 Z m 0,-1.3151252 L 2.8969561,9.3355687 2.7276085,9.1662211 7.1101852,4.783209 Z M 0.8687821,5.2902624 0.6994345,5.1209148 5.0820508,0.73806111 5.2513984,0.90740871 Z M 1.0784185,3.947869 0.90903135,3.7785214 3.8768689,0.81056515 4.0462165,0.97995233 Z m 11.5869145,6.24267 c -1.289401,0 -2.46023,-0.5085577 -3.3302392,-1.3312728 0.8297202,-0.9408508 1.3347952,-2.1745673 1.3347952,-3.5247969 0,-1.3499921 -0.505075,-2.5838273 -1.3347952,-3.5244802 0.8701672,-0.82283386 2.0407992,-1.33139116 3.3302392,-1.33139116 2.677465,0 4.855555,2.17836666 4.855555,4.85587136 0,2.6770694 -2.17809,4.8560697 -4.855555,4.8560697 z M 7.8091844,5.3349442 c 0,-1.214324 0.4513693,-2.3234538 1.190776,-3.1756534 0.7393672,0.8521996 1.1908156,1.961369 1.1908156,3.1756534 0,1.2140866 -0.4514484,2.3233748 -1.1908156,3.1752973 C 8.2605537,7.658319 7.8091844,6.5489912 7.8091844,5.3349442 Z M 5.3348255,10.190539 c -2.677663,0 -4.85575264,-2.1785649 -4.85575264,-4.8555948 0,-2.677386 2.17832704,-4.85583177 4.85575264,-4.85583177 1.2894006,0 2.4600718,0.50855731 3.3300808,1.33139117 -0.8297202,0.9406529 -1.3347948,2.1746069 -1.3347948,3.5244802 0,1.3502296 0.505035,2.583946 1.3347948,3.5247969 C 7.7948973,9.6819813 6.6242261,10.190539 5.3348255,10.190539 Z M 12.665333,0 C 11.246755,0 9.9564044,0.55767167 9,1.4635369 8.0434769,0.55739464 6.753364,0 5.3348651,0 2.3931876,0 0,2.3931876 0,5.3349442 c 0,2.9414005 2.3931876,5.3347068 5.3348255,5.3347068 1.4185385,0 2.7086119,-0.557672 3.6651349,-1.4636556 C 9.9563648,10.112217 11.246755,10.669651 12.665254,10.669651 15.606654,10.669651 18,8.2763447 18,5.3349442 18,2.3931876 15.606694,0 12.665333,0 Z"
         id="Fill-1"
         inkscape:connector-curvature="0" />
    </g>
  </g>
</svg>
