<?xml version="1.0" encoding="UTF-8" standalone="no"?>
<svg
   xmlns:dc="http://purl.org/dc/elements/1.1/"
   xmlns:cc="http://creativecommons.org/ns#"
   xmlns:rdf="http://www.w3.org/1999/02/22-rdf-syntax-ns#"
   xmlns:svg="http://www.w3.org/2000/svg"
   xmlns="http://www.w3.org/2000/svg"
   xmlns:sodipodi="http://sodipodi.sourceforge.net/DTD/sodipodi-0.dtd"
   xmlns:inkscape="http://www.inkscape.org/namespaces/inkscape"
   width="54"
   height="54"
   viewBox="0 0 54 54"
   version="1.1"
   id="svg62"
   sodipodi:docname="icon-price.svg"
   inkscape:version="0.92.3 (unknown)">
  <metadata
     id="metadata66">
    <rdf:RDF>
      <cc:Work
         rdf:about="">
        <dc:format>image/svg+xml</dc:format>
        <dc:type
           rdf:resource="http://purl.org/dc/dcmitype/StillImage" />
      </cc:Work>
    </rdf:RDF>
  </metadata>
  <sodipodi:namedview
     pagecolor="#ffffff"
     bordercolor="#666666"
     borderopacity="1"
     objecttolerance="10"
     gridtolerance="10"
     guidetolerance="10"
     inkscape:pageopacity="0"
     inkscape:pageshadow="2"
     inkscape:window-width="1855"
     inkscape:window-height="1056"
     id="namedview64"
     showgrid="false"
     inkscape:zoom="22.85"
     inkscape:cx="9.8030635"
     inkscape:cy="39.256018"
     inkscape:window-x="65"
     inkscape:window-y="24"
     inkscape:window-maximized="1"
     inkscape:current-layer="svg62" />
  <!-- Generator: Sketch 49.3 (51167) - http://www.bohemiancoding.com/sketch -->
  <title
     id="title53">Filter_Icon_Budget</title>
  <desc
     id="desc55">Created with Sketch.</desc>
  <defs
     id="defs57" />
  <g
     id="Filter_Icon_Budget"
     style="fill:none;fill-rule:evenodd;stroke:none;stroke-width:1"
     transform="matrix(3.1815753,0,0,3.173721,-36.588116,-36.451048)">
    <g
       id="Icon_Price"
       transform="translate(12,12)"
       style="fill-rule:nonzero;stroke:#484848">
      <path
         d="M 4.3840191,15.400289 0.59965986,11.615731 C 0.21277032,11.22882 0,10.710452 0,10.157595 0,9.6039167 0.21356942,9.0872096 0.60047998,8.7002787 L 8.7048043,0.5972099 C 9.0711697,0.22918492 9.5632037,0.0172446 10.090566,0 l 3.855017,0.0024643 c 1.131943,0 2.053597,0.92170277 2.054417,2.0537055 v 3.838816 C 15.981928,6.4388005 15.769986,6.9308814 15.402822,7.2972661 15.265915,7.4341798 12.564467,10.134921 7.2984773,15.399488 6.9124078,15.786398 6.3948868,16 5.8420583,16 5.2884296,15.99998 4.7709297,15.78722 4.3840191,15.400289 Z M 12.225419,5.700118 c -1.062127,0 -1.926288,-0.8642067 -1.927108,-1.9263899 0,-1.0621832 0.864161,-1.9272101 1.926288,-1.9272101 h 8.22e-4 c 1.062127,0 1.926288,0.8642068 1.926288,1.9263899 8.21e-4,1.0630034 -0.864161,1.9272101 -1.926288,1.9272101 z"
         id="Shape"
         inkscape:connector-curvature="0" />
    </g>
  </g>
</svg>
