<?xml version="1.0" encoding="UTF-8" standalone="no"?>
<svg
   xmlns:dc="http://purl.org/dc/elements/1.1/"
   xmlns:cc="http://creativecommons.org/ns#"
   xmlns:rdf="http://www.w3.org/1999/02/22-rdf-syntax-ns#"
   xmlns:svg="http://www.w3.org/2000/svg"
   xmlns="http://www.w3.org/2000/svg"
   xmlns:sodipodi="http://sodipodi.sourceforge.net/DTD/sodipodi-0.dtd"
   xmlns:inkscape="http://www.inkscape.org/namespaces/inkscape"
   width="40px"
   height="40px"
   viewBox="0 0 40 40"
   version="1.1"
   id="svg60"
   sodipodi:docname="likeresult.svg"
   inkscape:version="0.92.3 (unknown)">
  <metadata
     id="metadata64">
    <rdf:RDF>
      <cc:Work
         rdf:about="">
        <dc:format>image/svg+xml</dc:format>
        <dc:type
           rdf:resource="http://purl.org/dc/dcmitype/StillImage" />
      </cc:Work>
    </rdf:RDF>
  </metadata>
  <sodipodi:namedview
     pagecolor="#ffffff"
     bordercolor="#666666"
     borderopacity="1"
     objecttolerance="10"
     gridtolerance="10"
     guidetolerance="10"
     inkscape:pageopacity="0"
     inkscape:pageshadow="2"
     inkscape:window-width="1855"
     inkscape:window-height="1056"
     id="namedview62"
     showgrid="false"
     inkscape:zoom="22.85"
     inkscape:cx="20"
     inkscape:cy="20"
     inkscape:window-x="65"
     inkscape:window-y="24"
     inkscape:window-maximized="1"
     inkscape:current-layer="svg60" />
  <!-- Generator: Sketch 49.3 (51167) - http://www.bohemiancoding.com/sketch -->
  <title
     id="title52">E_12.1_Icon_Thumb_up</title>
  <desc
     id="desc54">Created with Sketch.</desc>
  <defs
     id="defs56" />
  <g
     id="E_12.1_Icon_Thumb_up"
     transform="translate(0,-3.95992)"
     style="fill:none;fill-rule:evenodd;stroke:none;stroke-width:1">
    <path
       d="m 31.222318,24.288935 c 0.504721,-0.626305 0.746781,-1.297703 0.715879,-1.989144 -0.0309,-0.761586 -0.381116,-1.357829 -0.669527,-1.723591 0.334764,-0.811691 0.463519,-2.089352 -0.654078,-3.081419 -0.818884,-0.726514 -2.209442,-1.052192 -4.135622,-0.962004 -1.354507,0.06012 -2.487554,0.305636 -2.533906,0.315657 h -0.0051 c -0.257511,0.04509 -0.530472,0.100209 -0.808584,0.160334 -0.0206,-0.320668 0.03605,-1.117327 0.643777,-2.911064 0.72103,-2.134447 0.679829,-3.76785 -0.133905,-4.8601257 C 22.786266,8.0901879 21.421459,8 21.019742,8 c -0.386266,0 -0.74163,0.1553236 -0.993991,0.4409186 -0.571674,0.6463465 -0.504721,1.8388304 -0.432618,2.3899794 -0.679828,1.773695 -2.585408,6.122755 -4.197425,7.330271 -0.0309,0.02004 -0.05665,0.04509 -0.0824,0.07015 -0.47382,0.486013 -0.793133,1.012109 -1.009442,1.473069 C 14,19.54405 13.654936,19.453862 13.28412,19.453862 H 10.142489 C 8.9579399,19.453862 8,20.390814 8,21.538205 v 8.141962 c 0,1.152401 0.9630901,2.084342 2.142489,2.084342 h 3.141631 c 0.458369,0 0.885837,-0.140292 1.236052,-0.380793 l 1.2103,0.140292 c 0.185408,0.02505 3.481545,0.430898 6.865236,0.365762 0.612876,0.04509 1.1897,0.07015 1.725322,0.07015 0.921888,0 1.725322,-0.07015 2.39485,-0.210438 1.575965,-0.325678 2.65236,-0.977035 3.198283,-1.934029 0.417167,-0.731524 0.417167,-1.458038 0.350215,-1.918998 1.024892,-0.901879 1.20515,-1.898956 1.169098,-2.600418 -0.0206,-0.405845 -0.113304,-0.751565 -0.211158,-1.007098 z m -21.079829,6.122756 c -0.4171671,0 -0.7519311,-0.330689 -0.7519311,-0.731524 v -8.146973 c 0,-0.405845 0.3399142,-0.731524 0.7519311,-0.731524 h 3.141631 c 0.417168,0 0.751931,0.330689 0.751931,0.731524 v 8.141963 c 0,0.405845 -0.339914,0.731524 -0.751931,0.731524 h -3.141631 z m 19.761374,-6.708977 c -0.216309,0.220459 -0.257511,0.556159 -0.0927,0.816701 0,0.005 0.211159,0.355742 0.23691,0.836744 0.03605,0.656367 -0.288412,1.237578 -0.968241,1.733611 -0.24206,0.180376 -0.339914,0.491023 -0.23691,0.771608 0,0.005 0.22146,0.666388 -0.139055,1.292693 -0.345065,0.601253 -1.112447,1.03215 -2.276395,1.272651 -0.932189,0.195407 -2.199142,0.23048 -3.754507,0.11023 -0.0206,0 -0.04635,0 -0.0721,0 -3.311588,0.07015 -6.659227,-0.350731 -6.695279,-0.355741 h -0.0051 l -0.520171,-0.06013 c 0.0309,-0.140293 0.04635,-0.290606 0.04635,-0.440919 v -8.146973 c 0,-0.215449 -0.03605,-0.425887 -0.09785,-0.621294 0.0927,-0.3357 0.350215,-1.082255 0.95794,-1.718581 2.312447,-1.783716 4.573391,-7.801252 4.671245,-8.061795 0.0412,-0.105219 0.0515,-0.220459 0.0309,-0.335699 -0.08755,-0.561169 -0.05665,-1.2475995 0.06695,-1.4530275 0.272961,0.00501 1.009442,0.080167 1.45236,0.6764095 0.525322,0.706472 0.504721,1.969102 -0.0618,3.642588 -0.865236,2.550314 -0.937339,3.893111 -0.252361,4.484343 0.339915,0.295616 0.793133,0.310647 1.122747,0.195407 0.314163,-0.07015 0.612876,-0.130272 0.896137,-0.175366 0.0206,-0.005 0.04635,-0.01002 0.06695,-0.01503 1.581116,-0.335699 4.413734,-0.541127 5.397425,0.330689 0.834335,0.741545 0.24206,1.723591 0.175107,1.82881 -0.190557,0.280585 -0.133905,0.646347 0.123606,0.871816 0.0052,0.005 0.545922,0.501044 0.571673,1.167433 0.0206,0.445929 -0.195708,0.901878 -0.643776,1.352818 z"
       id="Thumb"
       inkscape:connector-curvature="0"
       style="fill:#04a82b;fill-rule:nonzero" />
  </g>
</svg>
