<?xml version="1.0" encoding="UTF-8" standalone="no"?>
<svg
   xmlns:dc="http://purl.org/dc/elements/1.1/"
   xmlns:cc="http://creativecommons.org/ns#"
   xmlns:rdf="http://www.w3.org/1999/02/22-rdf-syntax-ns#"
   xmlns:svg="http://www.w3.org/2000/svg"
   xmlns="http://www.w3.org/2000/svg"
   xmlns:sodipodi="http://sodipodi.sourceforge.net/DTD/sodipodi-0.dtd"
   xmlns:inkscape="http://www.inkscape.org/namespaces/inkscape"
   width="25"
   height="25"
   viewBox="0 0 25 25"
   version="1.1"
   id="svg92"
   sodipodi:docname="list-icon.svg"
   inkscape:version="0.92.3 (unknown)">
  <metadata
     id="metadata96">
    <rdf:RDF>
      <cc:Work
         rdf:about="">
        <dc:format>image/svg+xml</dc:format>
        <dc:type
           rdf:resource="http://purl.org/dc/dcmitype/StillImage" />
      </cc:Work>
    </rdf:RDF>
  </metadata>
  <sodipodi:namedview
     pagecolor="#ffffff"
     bordercolor="#666666"
     borderopacity="1"
     objecttolerance="10"
     gridtolerance="10"
     guidetolerance="10"
     inkscape:pageopacity="0"
     inkscape:pageshadow="2"
     inkscape:window-width="1855"
     inkscape:window-height="1056"
     id="namedview94"
     showgrid="false"
     inkscape:zoom="22.85"
     inkscape:cx="15.054705"
     inkscape:cy="20"
     inkscape:window-x="65"
     inkscape:window-y="24"
     inkscape:window-maximized="1"
     inkscape:current-layer="svg92" />
  <!-- Generator: Sketch 50.2 (55047) - http://www.bohemiancoding.com/sketch -->
  <title
     id="title73">G_Icon_List</title>
  <desc
     id="desc75">Created with Sketch.</desc>
  <defs
     id="defs77" />
  <g
     id="G_Icon_List"
     transform="matrix(1.0204139,0,0,1.0204059,-7.9081823,-7.9081183)"
     style="fill:none;fill-rule:evenodd;stroke:none;stroke-width:1">
    <g
       id="flaticon1527522173-svg"
       transform="translate(8,8)"
       style="fill:#ffffff;fill-rule:nonzero;stroke:#ffffff;stroke-width:0.5">
      <path
         d="m 23.860761,17.488423 c -0.185494,-0.190802 -0.486545,-0.190802 -0.67196,0 l -4.713538,4.844183 V 0.48839883 C 18.475263,0.21872128 18.262445,0 18.000045,0 17.737644,0 17.524826,0.21872128 17.524826,0.48839883 V 22.332525 L 12.811209,17.48826 c -0.185494,-0.190639 -0.486466,-0.19072 -0.672039,8.1e-5 -0.185573,0.19072 -0.185573,0.499958 7.9e-5,0.690678 l 5.524816,5.677961 C 17.756812,23.9523 17.878468,24 18.000045,24 c 0.121576,0 0.243232,-0.0477 0.335979,-0.143101 l 5.524737,-5.677962 c 0.185652,-0.190638 0.185652,-0.499876 0,-0.690514 z"
         id="Shape"
         inkscape:connector-curvature="0" />
      <path
         d="M 0.48179907,0.85714286 H 14.946772 c 0.266034,0 0.481799,-0.19192857 0.481799,-0.42857143 C 15.428571,0.19192857 15.212806,0 14.946772,0 H 0.48179907 C 0.21576569,0 0,0.19192857 0,0.42857143 0,0.66521429 0.21576569,0.85714286 0.48179907,0.85714286 Z"
         id="path80"
         inkscape:connector-curvature="0" />
      <path
         d="M 0.48179907,6 H 14.946772 c 0.266034,0 0.481799,-0.1919286 0.481799,-0.4285714 0,-0.2366429 -0.215765,-0.4285715 -0.481799,-0.4285715 H 0.48179907 C 0.21576569,5.1428571 0,5.3347857 0,5.5714286 0,5.8080714 0.21576569,6 0.48179907,6 Z"
         id="path82"
         inkscape:connector-curvature="0" />
      <path
         d="M 0.48179907,12.857143 H 14.946772 c 0.266034,0 0.481799,-0.191929 0.481799,-0.428572 C 15.428571,12.191929 15.212806,12 14.946772,12 H 0.48179907 C 0.21576569,12 0,12.191929 0,12.428571 c 0,0.236643 0.21576569,0.428572 0.48179907,0.428572 z"
         id="path84"
         inkscape:connector-curvature="0" />
      <path
         d="M 9.8090899,17.142857 H 0.47662444 C 0.21344831,17.142857 0,17.334786 0,17.571429 0,17.808071 0.21344831,18 0.47662444,18 H 9.8090899 c 0.2631761,0 0.4766241,-0.191929 0.4766241,-0.428571 0,-0.236643 -0.213369,-0.428572 -0.4766241,-0.428572 z"
         id="path86"
         inkscape:connector-curvature="0" />
      <path
         d="M 9.8090899,23.142857 H 0.47662444 C 0.21344831,23.142857 0,23.334786 0,23.571429 0,23.808071 0.21344831,24 0.47662444,24 H 9.8090899 c 0.2631761,0 0.4766241,-0.191929 0.4766241,-0.428571 0,-0.236643 -0.213369,-0.428572 -0.4766241,-0.428572 z"
         id="path88"
         inkscape:connector-curvature="0" />
    </g>
  </g>
</svg>
