<?xml version="1.0" encoding="UTF-8"?>
<svg width="40px" height="40px" viewBox="0 0 40 40" version="1.1" xmlns="http://www.w3.org/2000/svg" xmlns:xlink="http://www.w3.org/1999/xlink">
    <!-- Generator: Sketch 49.3 (51167) - http://www.bohemiancoding.com/sketch -->
    <title>E_7_POI_Location_Bakery</title>
    <desc>Created with Sketch.</desc>
    <defs>
        <rect id="path-1" x="0" y="0" width="24" height="24" rx="4"></rect>
    </defs>
    <g id="E_7_POI_Location_Bakery" stroke="none" stroke-width="1" fill="none" fill-rule="evenodd">
        <g id="Point_of_interest" transform="translate(8.000000, 4.000000)">
            <g id="Result">
                <polygon id="Triangle-3" fill="#23C1CF" transform="translate(12.000000, 28.000000) rotate(180.000000) translate(-12.000000, -28.000000) " points="12 24 16 32 8 32"></polygon>
                <g id="Rectangle-5">
                    <use fill="#FFFFFF" fill-rule="evenodd" xlink:href="#path-1"></use>
                    <rect stroke="#23C1CF" stroke-width="1" x="0.5" y="0.5" width="23" height="23" rx="4"></rect>
                </g>
                <path d="M14.4258672,7.73427861 L14.4273966,7.70279111 C14.4369496,7.51631819 14.3725025,7.34233486 14.2462672,7.21324527 C14.0777731,7.04093486 13.8153496,6.96624944 13.5414672,7.01430569 L10.5929966,7.53142027 C10.4466908,7.35707027 10.2391613,7.25497652 10.0152084,7.25497652 C9.82777311,7.25497652 9.64167899,7.32707236 9.49134958,7.45783486 L7.09026723,9.54639111 C6.91010252,9.70323277 6.80967899,9.92062027 6.81523193,10.1432328 C6.81657311,10.2017161 6.82631428,10.2592828 6.84182017,10.3155432 C6.68059664,10.4273078 6.56276134,10.6100453 6.52471428,10.834514 L6.07372605,13.5033661 L6.0412084,13.5024265 L6.06302017,13.5659515 L6.01252605,13.864189 C5.97179664,14.1057994 6.03146723,14.339389 6.17586723,14.5051682 C6.26022017,14.6020369 6.3690437,14.6668682 6.49010252,14.7028015 C7.00325546,15.911564 8.06894958,17.9671661 9.38292605,17.9671661 C9.57666723,17.9671661 9.76831428,17.9228224 9.95269076,17.835464 C10.7230908,17.469989 10.6548084,15.737764 10.5201496,14.6076057 L10.524926,14.6074224 C10.9336555,14.5938328 11.330526,14.2458432 11.4288319,13.8149869 L11.4600084,13.6776932 C11.6256319,13.6491849 11.7799849,13.5852932 11.9062202,13.4889974 L12.7632555,12.8344057 C12.8791613,12.7457411 12.9661731,12.6311807 13.028526,12.5054369 L13.3706908,12.4644619 C13.7570437,12.4182619 14.0816084,12.1509619 14.1881496,11.8221765 C14.8248555,11.9976494 15.7262672,12.2060994 16.4214908,12.2060994 C16.421679,12.2060994 16.421679,12.2060994 16.4218672,12.2060994 C16.977279,12.2060994 17.3358908,12.074214 17.5179849,11.8029953 C17.7230202,11.4973099 17.7769496,11.1528724 17.6782672,10.7791932 C17.3596319,9.57377652 15.4078202,8.30614111 14.4258672,7.73427861 Z M17.0379143,11.4976765 C17.0143849,11.5328765 16.9000084,11.6478265 16.4220555,11.6478265 C16.4218672,11.6478265 16.4218672,11.6478265 16.4218672,11.6478265 C15.7606908,11.6478265 14.8529496,11.4280099 14.246079,11.2568224 L14.3935378,8.36893277 C15.4479613,9.01066819 16.8944555,10.0545682 17.1230202,10.9190994 C17.1805966,11.1372203 17.1526908,11.326489 17.0379143,11.4976765 Z M13.6537496,11.604239 C13.6527849,11.6230536 13.6476319,11.6424182 13.6405496,11.6621724 C13.6000084,11.7737536 13.466126,11.8907432 13.300879,11.9102911 L13.1220555,11.9317182 C13.1048319,11.8203203 13.0673496,11.7115349 13.0084555,11.6113203 L10.9095613,8.04367652 L13.4494908,7.59808486 L13.6432319,7.56419111 C13.6646437,7.56045569 13.6857025,7.55859944 13.7055849,7.55859944 C13.7602908,7.55859944 13.8057966,7.57312861 13.8306672,7.59847444 C13.8371613,7.60518902 13.856879,7.62549319 13.8543849,7.67522236 L13.851326,7.73427861 L13.6654202,11.3762411 L13.6537496,11.604239 Z M12.4092319,12.3951849 L12.1477731,12.5948807 L11.6139613,13.0026369 L11.5521731,13.0497765 C11.4848555,13.1011786 11.3888319,13.127464 11.2907143,13.1313599 C11.1901025,13.1352786 11.0883613,13.1142182 11.0110908,13.0684078 C10.9986672,13.0609599 10.9854672,13.0542453 10.9743613,13.0454911 L8.94930252,11.4494369 L8.15843193,10.8261494 L7.48078487,10.2920765 C7.45763193,10.2738119 7.4398437,10.2533244 7.42532605,10.2321036 C7.40332605,10.2000661 7.38993781,10.1654161 7.38918487,10.1298265 C7.38765546,10.0707703 7.41730252,10.011714 7.47276134,9.96347444 L9.87346723,7.87471194 C9.90233781,7.84957236 9.93238487,7.83483694 9.96259664,7.82534944 C9.98019664,7.81975777 9.99798487,7.81379944 10.0153731,7.81379944 C10.0782908,7.81379944 10.1358672,7.85255152 10.1769966,7.92240152 L10.2076084,7.97437652 L10.3747613,8.25863486 L12.5107613,11.888864 C12.5306437,11.9227578 12.5429025,11.9605932 12.5503613,11.9998953 C12.5683378,12.0960078 12.550926,12.2014474 12.5017731,12.2871328 C12.4777025,12.3290474 12.4469025,12.3663099 12.4092319,12.3951849 Z M10.8684319,13.6944911 C10.8234908,13.8923307 10.639679,14.0450703 10.5054202,14.049539 L10.442879,14.0515786 L10.152926,14.0612724 L8.3216084,14.1223682 L6.88887899,14.1700578 L6.6976084,14.1763828 L6.69245546,14.4353182 L6.69189076,14.4543161 L6.69189076,14.4343786 L6.69189076,14.1763828 C6.6578437,14.1763828 6.63278487,14.1659557 6.61346723,14.1437953 C6.57866723,14.1039203 6.5658437,14.0333369 6.5790437,13.9550994 L6.60582017,13.7971349 L6.65287899,13.5188349 L7.09125546,10.925264 C7.10367899,10.8511286 7.13525546,10.7939286 7.17367899,10.768789 L10.6133025,13.4798994 C10.6932555,13.5428515 10.7854437,13.5909307 10.8837496,13.626864 L10.8684319,13.6944911 Z M9.70134958,17.3334515 C9.59443193,17.3841203 9.49019664,17.4087099 9.38290252,17.4087099 C8.58878487,17.4087099 7.70478487,16.0140244 7.12182017,14.7210661 L9.94196134,14.6273599 C10.092479,15.9115869 10.0442908,17.1708349 9.70134958,17.3334515 Z" id="Shape" fill="#23C1CF" fill-rule="nonzero"></path>
            </g>
        </g>
    </g>
</svg>