<svg xmlns="http://www.w3.org/2000/svg" viewBox="0 0 431.43 90.21">
  <defs>
    <style>.cls-1{fill:none;}.cls-2{fill:#003c47;}</style>
  </defs>
  <title>Scoperty_Logo_full</title>
  <g id="Ebene_2" data-name="Ebene 2">
    <g id="Ebene_1-2" data-name="Ebene 1">
      <path class="cls-1" d="M234.25,32.61q-5.7,0-8.78,3.85t-3.09,11.16q0,7.4,3,11.2t8.74,3.8q5.79,0,8.83-3.8t3-11.2q0-7.32-3-11.16T234.25,32.61Z"/>
      <path class="cls-1" d="M183.24,31.34q-5.7,0-8.79,3.84t-3.08,11.16q0,7.41,3,11.2t8.73,3.8q5.79,0,8.83-3.8t3-11.2q0-7.31-3-11.16T183.24,31.34Z"/>
      <path class="cls-2" d="M102.32,43.11l-7.89-1.8A9.78,9.78,0,0,1,90,39.41a4,4,0,0,1-1.38-3.13,4.5,4.5,0,0,1,2.19-4,11,11,0,0,1,6.07-1.43q7.21,0,14.44,5.23L114.66,28a26.52,26.52,0,0,0-8.12-4.27A30.33,30.33,0,0,0,97,22.22,25.71,25.71,0,0,0,87,24a15.54,15.54,0,0,0-6.74,5.08,12.38,12.38,0,0,0-2.42,7.55A11.48,11.48,0,0,0,81,45q3.14,3.23,9.59,4.65l7.6,1.71a15.29,15.29,0,0,1,5.27,2.09,3.85,3.85,0,0,1,1.47,3.23,4.22,4.22,0,0,1-2.14,3.8,11.93,11.93,0,0,1-6.22,1.33,28,28,0,0,1-17-5.42L76.2,64.67A25.85,25.85,0,0,0,85,69a39.88,39.88,0,0,0,11.34,1.52q8.92,0,14.15-3.8A12,12,0,0,0,115.7,56.5a11.71,11.71,0,0,0-3.22-8.59Q109.24,44.63,102.32,43.11Z"/>
      <path class="cls-2" d="M142.88,31.53a18.43,18.43,0,0,1,6.51,1.23,22.85,22.85,0,0,1,6.22,3.61L159,28a20.31,20.31,0,0,0-7.55-4.22,30.18,30.18,0,0,0-9.64-1.57,26,26,0,0,0-12.72,3,20.93,20.93,0,0,0-8.5,8.59,26.51,26.51,0,0,0-3,12.78,26.67,26.67,0,0,0,2.85,12.62,19.88,19.88,0,0,0,8.21,8.36,26,26,0,0,0,12.68,2.94A31.46,31.46,0,0,0,151.24,69,21.68,21.68,0,0,0,159,64.67l-3.42-8.27A22.34,22.34,0,0,1,149.39,60a18.22,18.22,0,0,1-6.51,1.24q-6.16,0-9.59-3.85t-3.41-11q0-7.21,3.41-11.07T142.88,31.53Z"/>
      <path class="cls-2" d="M195.72,25.17a27.89,27.89,0,0,0-25,0,20.38,20.38,0,0,0-8.31,8.4,26.55,26.55,0,0,0-2.94,12.77,26.8,26.8,0,0,0,2.94,12.82,20.33,20.33,0,0,0,8.31,8.45,28,28,0,0,0,25,0A20,20,0,0,0,204,59.16a27.15,27.15,0,0,0,2.9-12.82A26.88,26.88,0,0,0,204,33.57,20.09,20.09,0,0,0,195.72,25.17ZM192,57.54q-3,3.81-8.83,3.8t-8.73-3.8q-3-3.8-3-11.2t3.08-11.16q3.09-3.84,8.79-3.84T192,35.18q3,3.85,3,11.16T192,57.54Z"/>
      <path class="cls-2" d="M322.69,31.53V23.36h-11.3V69.79h11.87V44.73c0-7.16,3.07-11,11.25-12.14L342,32.1l.2-8.43a32.08,32.08,0,0,0-10.2,0C327.27,24.62,324.46,27.43,322.69,31.53Z"/>
      <path class="cls-2" d="M366.06,52.32v-20h12.25V23.36H366.06V9.5H354.19V23.36h-8.92v8.93h8.92V52.51q0,8.93,4.66,13.44t14.43,4.51c1.58,0,3.32-.1,5.22-.29l.57-8.83a35.22,35.22,0,0,1-4.37.29Q366.06,61.63,366.06,52.32Z"/>
      <polygon class="cls-2" points="419.75 23.46 406.27 56.22 393.17 23.46 380.63 23.46 400 67.99 391.55 86.88 403.52 86.88 431.43 23.46 419.75 23.46"/>
      <path class="cls-2" d="M255,34.84a20.21,20.21,0,0,0-8.26-8.4,28,28,0,0,0-24.78-.1v-2H210.48V87.43H222V69a27.92,27.92,0,0,0,24.78-.1A20,20,0,0,0,255,60.43a27.13,27.13,0,0,0,2.89-12.81A26.92,26.92,0,0,0,255,34.84Zm-12,24q-3,3.8-8.83,3.8t-8.74-3.8q-3-3.8-3-11.2t3.09-11.16q3.08-3.85,8.78-3.85T243,36.46q3,3.84,3,11.16T243,58.82Z"/>
      <path class="cls-2" d="M302.38,51a22.36,22.36,0,0,1-12.3,8.41q-6,1.59-10-.57t-6.24-8.26l30.54-8.18-.86-3.21q-2.81-10.46-9.76-15t-16.23-2a22.72,22.72,0,0,0-10.54,6,20.74,20.74,0,0,0-5.54,10.33A27.11,27.11,0,0,0,262,51.41q2.89,10.83,10.94,15.35T292,68.34a31.29,31.29,0,0,0,9.07-4.1A24.89,24.89,0,0,0,307.8,58Zm-29-15.92a10.07,10.07,0,0,1,6.6-4.92,9.43,9.43,0,0,1,7.93,1A12.17,12.17,0,0,1,292.27,37L272,42.45A13.45,13.45,0,0,1,273.39,35.09Z"/>
      <path class="cls-2" d="M15.86,90.21a26.12,26.12,0,0,1-13.1-3.53,5.51,5.51,0,0,1,5.5-9.55c6.88,4,13.76,1.67,17.91-1.8S33.8,65.48,31.1,58a15.91,15.91,0,0,0-7-8.34,5.51,5.51,0,1,1,5.51-9.54A27,27,0,0,1,41.46,54.26a26.5,26.5,0,0,1-8.22,29.52A27.06,27.06,0,0,1,15.86,90.21Z"/>
      <path class="cls-2" d="M16.83,70a5.52,5.52,0,0,1-2.75-.74A26.48,26.48,0,0,1,1.35,41.41,26.48,26.48,0,0,1,22.8,19.53,26.91,26.91,0,0,1,41,22.72a5.51,5.51,0,0,1-5.51,9.54,15.84,15.84,0,0,0-10.71-1.88C16.92,31.78,13.14,38,12.2,43.31s.52,12.44,7.39,16.41A5.51,5.51,0,0,1,16.83,70Z"/>
      <path class="cls-2" d="M49.9,50.88A5.51,5.51,0,0,1,47.14,40.6c6.87-4,8.32-11.08,7.39-16.41S49.81,12.66,42,11.26a15.86,15.86,0,0,0-10.7,1.88A5.51,5.51,0,1,1,25.78,3.6,26.81,26.81,0,0,1,43.93.42,26.47,26.47,0,0,1,65.38,22.29,26.46,26.46,0,0,1,52.65,50.14,5.39,5.39,0,0,1,49.9,50.88Z"/>
      </g>
    </g>
  </svg>