<?xml version="1.0" encoding="UTF-8"?>
<svg width="40px" height="40px" viewBox="0 0 40 40" version="1.1" xmlns="http://www.w3.org/2000/svg" xmlns:xlink="http://www.w3.org/1999/xlink">
    <!-- Generator: Sketch 49.3 (51167) - http://www.bohemiancoding.com/sketch -->
    <title>E_15_Icon_Handshake</title>
    <desc>Created with Sketch.</desc>
    <defs></defs>
    <g id="E_15_Icon_Handshake" stroke="none" stroke-width="1" fill="none" fill-rule="evenodd">
        <g id="Handshake" transform="translate(4.000000, 4.000000)">
            <circle id="Oval" stroke="#137982" cx="16" cy="16" r="15.5"></circle>
            <path d="M24,14.5703608 L19.4290769,10.0000695 L17.5527207,11.8498891 C17.1695517,12.184929 16.8234075,12.2213378 16.384717,12.2669871 C16.1508635,12.2916676 15.9096177,12.3169658 15.6455315,12.3916236 C15.4493189,12.4471545 15.2784108,12.5039207 15.1253833,12.5631477 L12.5702913,10 L8,14.5702913 L10.3657031,16.9438921 C10.3274478,16.9722752 10.2891925,17.0000407 10.2540236,17.0345935 L9.99734555,17.2912716 C9.81902932,17.4695878 9.72030699,17.7077535 9.72030699,17.9619674 C9.72030699,18.2155654 9.81841172,18.453731 9.99672953,18.6320472 L10.0602814,18.6962168 C10.2385977,18.874533 10.4767633,18.9732553 10.7309773,18.9732553 C10.7476369,18.9732553 10.7636789,18.9695532 10.7797209,18.9683192 C10.7661466,19.2274614 10.8549962,19.4909316 11.0524472,19.6883762 L11.1159991,19.7513121 C11.3011075,19.9364204 11.5435853,20.0289667 11.786695,20.0289667 C11.8033546,20.0289667 11.8193966,20.0252645 11.8360562,20.0240306 C11.8354392,20.0406902 11.83112,20.0561146 11.83112,20.0727742 C11.83112,20.3263721 11.9292248,20.5645378 12.1075426,20.742854 L12.1710945,20.8070235 C12.3494107,20.9853397 12.5875764,21.0840621 12.8417903,21.0840621 C12.8584499,21.0840621 12.8744919,21.0803601 12.8905339,21.079126 C12.8769597,21.3382681 12.9658093,21.6011223 13.1626443,21.7985669 L13.2261962,21.8627365 C13.4113045,22.0478448 13.6537823,22.139775 13.896892,22.139775 C14.1400017,22.139775 14.3824795,22.0472224 14.5675879,21.8627365 L14.7866251,21.6436992 C14.834135,21.5961893 14.8748576,21.5437433 14.9106456,21.4888284 L15.9984394,22.5797023 C16.1921879,22.7734508 16.4463861,22.8703093 16.7006,22.8703093 C16.954814,22.8703093 17.209028,22.7734382 17.4027607,22.5803183 C17.6143898,22.3686892 17.7057198,22.0854746 17.6865913,21.80782 C17.7100383,21.8096711 17.73225,21.8146072 17.7563146,21.8146072 C18.0222489,21.8146072 18.2715188,21.7115663 18.4584752,21.5246163 C18.6454316,21.3376662 18.7484662,21.0883899 18.7484662,20.8224556 C18.7484662,20.7983926 18.74353,20.7755617 18.741679,20.7521164 C18.7651259,20.7539674 18.7879552,20.7589036 18.8114022,20.7589036 C19.0773365,20.7589036 19.3266064,20.6558627 19.5135628,20.4689126 C19.7005192,20.2819625 19.8035538,20.0326863 19.8035538,19.766752 C19.8035538,19.743305 19.7986177,19.7204757 19.7967666,19.6976463 C19.8202135,19.6994973 19.8430429,19.7044334 19.8664898,19.7044334 C20.1207038,19.7044334 20.3749177,19.6075623 20.5686504,19.4138264 C20.7556069,19.22687 20.8586414,18.9776001 20.8586414,18.7116658 C20.8586414,18.4457315 20.7556005,18.1964616 20.5686504,18.0095051 L20.5618632,18.0027179 L24,14.5703608 Z M19.4290769,10.6979179 L23.3015197,14.5703608 L22.1526445,15.719236 L18.2802016,11.8467932 L19.4290769,10.6979179 Z M12.5703229,10.6979179 L13.7191981,11.8467932 L9.84675529,15.719236 L8.69788004,14.5703608 L12.5703229,10.6979179 Z M10.4101202,18.3477143 L10.3465683,18.2835448 C10.2614207,18.1983971 10.2145268,18.084252 10.2145268,17.9620732 C10.2145268,17.839904 10.2614207,17.7257557 10.3465683,17.6406017 L10.6032464,17.3839237 C10.6920965,17.2956912 10.8080992,17.2512661 10.9247179,17.2512661 C11.0413335,17.2512661 11.1579553,17.2956912 11.2461894,17.3845413 L11.3097413,17.4474772 C11.3948889,17.5326248 11.4417828,17.6467699 11.4417828,17.7689487 C11.4417828,17.8911274 11.3948889,18.0046502 11.3097413,18.0904202 L11.0530633,18.3470983 C10.8815391,18.5180064 10.5798121,18.5173903 10.410136,18.3477152 L10.4101202,18.3477143 Z M11.4646011,19.4021952 L11.4010492,19.3392593 C11.223965,19.1621751 11.223965,18.8734162 11.4010492,18.6963321 L12.1445469,17.9528344 C12.233397,17.8639843 12.3493997,17.8201769 12.4660184,17.8201769 C12.5820179,17.8201769 12.6986398,17.8639843 12.7874899,17.9528344 L12.8510418,18.0170039 C12.9361894,18.1021516 12.9830833,18.2162967 12.9830833,18.3384755 C12.9830833,18.4606447 12.9361894,18.574793 12.8510418,18.659947 L12.1069281,19.4040606 C11.93046,19.5792967 11.6423171,19.5799128 11.4646169,19.4022097 L11.4646011,19.4021952 Z M12.5203141,20.4579082 L12.4567622,20.3937386 C12.3716146,20.308591 12.3247207,20.1944459 12.3247207,20.0722671 C12.3247207,19.9500978 12.3716146,19.8365656 12.4567622,19.7507956 L12.9565499,19.2510079 C13.0416976,19.1658602 13.1558427,19.1189663 13.2780214,19.1189663 C13.4001907,19.1189663 13.514339,19.1658602 13.599493,19.2516239 L13.6630449,19.3145598 C13.7481925,19.3997074 13.7950864,19.5138525 13.7950864,19.6360313 C13.7950864,19.7582006 13.7481925,19.8717328 13.6630449,19.9575028 L13.1632571,20.4572905 C12.992349,20.6281987 12.690622,20.6281987 12.5203299,20.4579077 L12.5203141,20.4579082 Z M14.4380547,21.2939679 L14.2190175,21.5130051 C14.0413173,21.6900893 13.7531744,21.6900893 13.5760902,21.5130051 L13.5125383,21.4488356 C13.3354542,21.2717514 13.3354542,20.9829925 13.5125383,20.8059083 L13.7315755,20.5868711 C13.8204257,20.498021 13.9364283,20.453596 14.0530471,20.453596 C14.1696658,20.453596 14.2856685,20.498021 14.3745186,20.5862535 L14.4380705,20.650423 C14.5232181,20.7355706 14.570112,20.8497158 14.570112,20.9718945 C14.570112,21.0946799 14.5232181,21.2088281 14.4380705,21.2939821 L14.4380547,21.2939679 Z M20.2200244,19.0641067 C20.0256599,19.2584713 19.7085164,19.2590873 19.5135358,19.0641067 L18.5491371,18.099708 C18.452882,18.0034529 18.2967712,18.0034529 18.1999127,18.099708 C18.1036577,18.195963 18.1036577,18.3520739 18.1999127,18.4489323 L19.1643115,19.4133311 C19.359292,19.6083116 19.359292,19.9248391 19.1643115,20.1198197 C18.9693309,20.3141842 18.6528034,20.3148003 18.4578229,20.1198197 L17.4934241,19.1554209 C17.397169,19.0591659 17.2410582,19.0591659 17.1441998,19.1554209 C17.0479447,19.251676 17.0479447,19.4077868 17.1441998,19.5046453 L18.1085985,20.469044 C18.2023847,20.5628303 18.2542148,20.6880813 18.2542148,20.8219803 C18.2542148,20.9558794 18.2023847,21.0817385 18.1085985,21.1755327 C17.913618,21.3705132 17.5970905,21.3705132 17.4021099,21.1755327 L16.4377111,20.2111339 C16.3414561,20.1148788 16.1853453,20.1148788 16.0884868,20.2111339 C15.9922317,20.3073874 15.9922317,20.4634998 16.0884868,20.5603582 L17.0528856,21.524757 C17.2478661,21.7197376 17.2472501,22.0362651 17.0528856,22.2312456 C16.857905,22.4262262 16.5413775,22.4256102 16.3463969,22.2312456 L15.0778228,20.9589595 C15.0722697,20.9534065 15.0654827,20.9515555 15.059312,20.9466194 C15.0525248,20.7028937 14.9568872,20.4752163 14.7853536,20.3030761 L14.7218016,20.2389066 C14.584208,20.101313 14.4065062,20.0180213 14.2201658,19.9865407 C14.2633572,19.8767125 14.2874202,19.7594794 14.2874202,19.6373164 C14.2874202,19.3837185 14.1893155,19.1455528 14.0103816,18.9666206 L13.9468297,18.9036847 C13.8036823,18.7599197 13.616102,18.6772393 13.4205212,18.6488547 C13.4544564,18.5501323 13.4760521,18.44585 13.4760521,18.3378714 C13.4760521,18.0842735 13.3779474,17.8461078 13.1996296,17.6677916 L13.1360777,17.6036221 C12.7979576,17.265502 12.2685532,17.2401975 11.8971045,17.5203257 C11.8545307,17.36237 11.7755528,17.2167506 11.6570907,17.0982838 L11.5935388,17.0353479 C11.3967102,16.8385192 11.1344879,16.7496691 10.8759459,16.7626215 L10.877797,16.7607706 L10.1929167,16.0703303 L14.0664652,12.1972556 L14.6520072,12.7877415 C14.2682221,13.0080108 14.0090799,13.2708649 13.6703438,13.6157771 C13.5956845,13.6916701 12.8608207,14.4283804 12.8608207,14.4283804 C12.4739555,14.8152456 12.4739555,15.4452204 12.8608207,15.8327017 C13.0545692,16.0264502 13.3087674,16.1233086 13.5629813,16.1233086 C13.8171953,16.1233086 14.0714093,16.0264375 14.265142,15.8327017 L15.240645,14.8571986 C15.4707865,14.6270571 16.041528,14.8855817 16.7029676,15.1842144 C16.9096685,15.2780006 17.1280897,15.376099 17.3557671,15.4698931 C17.3650222,15.4847015 17.3718091,15.5013611 17.3853838,15.5143182 L20.2198995,18.3581533 C20.3136857,18.4519395 20.3655157,18.5771905 20.3655157,18.7110896 C20.3655157,18.8443647 20.3136873,18.9702317 20.2198995,19.0640259 L20.2200244,19.0641067 Z M20.2138544,17.6517613 L18.3676677,15.7994144 C18.8409189,15.9055417 19.3363787,15.937008 19.8398626,15.8197765 C19.9725201,15.7889261 20.0552036,15.6562607 20.0249709,15.5236094 C19.9941206,15.3909519 19.8614551,15.3088844 19.7288039,15.3391171 C18.7471406,15.5661785 17.769205,15.1243921 16.9072406,14.7344468 C16.079821,14.3599179 15.364708,14.0359823 14.8926731,14.5080014 L13.9171701,15.4835045 C13.7228055,15.677869 13.405662,15.678485 13.2106814,15.4835045 C13.0163169,15.2885239 13.0163169,14.9719964 13.2106814,14.7770159 C13.2106814,14.7770159 13.9486348,14.0378304 14.0239008,13.9613166 C14.5650255,13.4097036 14.836504,13.1332811 15.7805265,12.8673468 C16.0038917,12.8044109 16.224777,12.780964 16.437654,12.7587522 C16.8998009,12.7100087 17.3773642,12.6600299 17.878384,12.2219555 L17.9203402,12.1849354 L21.80384,16.0684351 L20.2138544,17.6517613 Z" id="Shape" fill="#137982" fill-rule="nonzero"></path>
        </g>
    </g>
</svg>