<?xml version="1.0" encoding="UTF-8"?>
<svg width="40px" height="40px" viewBox="0 0 40 40" version="1.1" xmlns="http://www.w3.org/2000/svg" xmlns:xlink="http://www.w3.org/1999/xlink">
    <!-- Generator: Sketch 49.3 (51167) - http://www.bohemiancoding.com/sketch -->
    <title>E_15_Icon_Price</title>
    <desc>Created with Sketch.</desc>
    <defs></defs>
    <g id="E_15_Icon_Price" stroke="none" stroke-width="1" fill="none" fill-rule="evenodd">
        <g id="Price" transform="translate(4.000000, 4.000000)" stroke="#137982">
            <path d="M16.5666386,8.05690514 L8.05523298,16.5680886 C7.98158901,16.6425128 7.98158901,16.7757039 8.05523298,16.85011 L15.1500766,23.9447685 C15.2245027,24.0184105 15.3576973,24.0184105 15.4321054,23.9447685 L23.9435109,15.433585 C23.9803319,15.3951966 24.0014851,15.3427092 23.9999187,15.2894356 L23.8557655,8.33897673 C23.8526318,8.2379147 23.7625368,8.14782307 23.6614721,8.14468838 L16.7108318,8.00053896 C16.6426732,7.99505517 16.5956657,8.03265996 16.5666787,8.05694525 L16.5666386,8.05690514 Z M20.3108653,10.4823859 C19.9009225,10.4823859 19.4865214,10.6420519 19.1748231,10.9533552 C18.5514266,11.575971 18.5514266,12.592831 19.1748231,13.215424 C19.7982196,13.8380398 20.8163547,13.8380398 21.4397283,13.215424 C22.0631248,12.5928082 22.0631248,11.5759482 21.4397283,10.9533552 C21.1280301,10.6420473 20.7207852,10.4823859 20.3108424,10.4823859 L20.3108653,10.4823859 Z" id="Shape" fill-rule="nonzero"></path>
            <circle id="Oval" cx="16" cy="16" r="15.5"></circle>
        </g>
    </g>
</svg>