<?xml version="1.0" encoding="UTF-8"?>
<svg width="323px" height="402px" viewBox="0 0 323 402" version="1.1" xmlns="http://www.w3.org/2000/svg" xmlns:xlink="http://www.w3.org/1999/xlink">
    <!-- Generator: Sketch 52.5 (67469) - http://www.bohemiancoding.com/sketch -->
    <title>Scribble_help</title>
    <desc>Created with Sketch.</desc>
    <g id="D_2.1_Subpages_desktop" stroke="none" stroke-width="1" fill="none" fill-rule="evenodd" stroke-linecap="round" stroke-linejoin="round">
        <g id="D_1.0.0.0_Subpage_help" transform="translate(-487.000000, -514.000000)" stroke="#003C47" stroke-width="1.86046512">
            <g id="Scribble_help" transform="translate(488.000000, 515.000000)">
                <path d="M25.583426,200 C22.0290074,201.291163 20.5257516,205.4 19.4559842,209.027907 C16.6122633,218.668837 13.7694726,228.308837 10.9257516,237.949767 C10.3731935,239.823256 9.83179814,241.898605 10.6559842,243.669767 C11.5183098,245.524651 13.6197051,246.468837 14.8178447,248.127442 C17.5015656,251.842791 14.6978447,256.925581 11.9499377,260.593488 C8.75737954,264.854884 5.5648214,269.116279 2.37226326,273.377674 C1.2048214,274.936744 -0.0165739524,276.651163 0.000170233692,278.59907 C0.0215655825,281.00093 1.96947256,283.00093 4.13412372,284.04186 C6.29877488,285.08186 8.7248214,285.426047 11.0057516,286.179535 C11.7983098,286.44093 12.6159842,286.783256 13.1136586,287.453953 C13.7797051,288.349767 13.7024958,289.570233 13.703426,290.686512 C13.7080772,297.029767 17.4829609,303.228837 23.1173795,306.145116 C20.8197051,307.043721 20.1731935,310.210233 21.1573795,312.472558 C22.1406353,314.734884 24.2317981,316.285581 26.2327284,317.728372 C24.9862167,321.257674 23.7229609,324.875349 23.7527284,328.617674 C23.7824958,332.36093 25.3657516,336.317209 28.6141237,338.175814 C30.9397051,339.506047 33.7517981,339.59907 36.4299377,339.545116 C46.9331935,339.335814 58.6457516,337.739535 66.867147,344.27907 C70.6504028,347.287442 73.0829609,351.633488 75.4197051,355.865116 C76.5545888,357.91814 77.6885423,359.972093 78.823426,362.025116" id="Stroke-1"></path>
                <path d="M99.587907,246.358774 C104.786977,248.110402 109.916279,243.10482 115.40186,243.001564 C119.837209,242.916913 123.867907,246.278774 125.43907,250.427611 C127.009302,254.575518 126.44093,259.290867 124.816744,263.419239 C123.192558,267.546681 120.587907,271.203425 118.008372,274.812727 C115.780465,277.930867 113.551628,281.049936 111.322791,284.169006 C109.316279,286.976448 106.658605,290.10296 103.221395,289.795053 C100.773953,289.576448 98.7953488,287.538309 97.9051163,285.247146 C97.0139535,282.956913 97.0009302,280.433192 97,277.975518" id="Stroke-3"></path>
                <path d="M26.4101816,198.960998 C23.1059955,199.214021 19.8018095,199.467975 16.4976234,199.720998 C14.9813444,196.784254 17.2027397,193.338672 19.5013444,190.962858 C24.7832048,185.505184 31.0669258,181.134951 37.3059955,176.801928 C48.6566932,168.920068 60.5134374,160.826114 74.1562281,158.622393 C93.3125072,155.52844 112.132042,164.525649 129.424135,173.3303 C133.553437,175.432626 137.711577,177.558207 141.334833,180.446579 C153.200879,189.906114 157.555298,206.138672 157.696693,221.312626 C157.801809,232.636347 155.954368,243.975882 152.257623,254.678207 C148.941344,264.282858 144.147856,273.394486 141.779484,283.275416 C138.793437,295.734951 139.813903,308.807509 141.823205,321.461463" id="Stroke-5"></path>
                <path d="M26,198.621242 C30.904186,200.228684 35.9627907,197.21287 40.6213953,194.990544 C49.1972093,190.898451 58.9265116,189.257521 68.3693023,190.310544 C69.252093,197.050079 63.7376744,202.696591 60.7665116,208.809149 C56.8986047,216.764498 57.4576744,226.706823 62.1925581,234.179382 C65.5534884,239.482637 70.6744186,243.370079 75.2251163,247.69473 C78.6539535,250.953335 82.0418605,255.444498 80.7153488,259.984963 C84.8855814,260.759847 88.6855814,257.509614 91.3237209,254.188684 C93.9627907,250.867754 96.4874419,246.996126 100.527442,245.705893" id="Stroke-7"></path>
                <path d="M123,268 C126.018605,271.184186 126.362791,276.011163 126.213953,280.395349 C126.064186,284.780465 125.637209,289.409302 127.596279,293.333953 C129.132093,296.412093 131.936744,298.626977 134.653953,300.736744 C136.256744,301.982326 137.860465,303.226977 139.463256,304.472558" id="Stroke-9"></path>
                <path d="M140.898197,302 C143.62936,304.568372 146.952151,306.500465 150.533546,307.603721 C152.927035,308.340465 155.688895,308.887442 157.044244,310.994419 C157.773546,312.127442 157.943779,313.52 158.095407,314.858605 C158.832151,321.364651 159.569825,327.871628 160.3075,334.377674 C160.436802,335.51814 160.564244,336.693023 160.258197,337.8 C159.992151,338.765581 159.415407,339.612093 158.847965,340.437209 C149.604244,353.886512 140.361453,367.335814 131.117732,380.784186 C131.537267,373.056744 129.643314,365.410233 127.764244,357.902326 C126.365174,352.312558 124.82657,346.458605 120.874942,342.263256 C115.265639,344.892093 108.971686,348.363721 107.8275,354.452093 C107.538197,355.990698 107.607965,357.626977 106.943779,359.044651 C106.362383,360.283721 105.283314,361.210233 104.195872,362.04186 C99.3456393,365.747907 93.7512207,368.326512 88.3977323,371.257674 C83.0433137,374.189767 77.7735463,377.608372 74.1372672,382.512558 C70.5028486,387.415814 68.7530812,394.086512 71.0014532,399.76186 C71.3186626,399.12 71.6358719,398.47907 71.9530812,397.837209" id="Stroke-11"></path>
                <path d="M119,342.152558 C125.173953,340.834419 130.181395,336.372093 134.353488,331.634419 C138.526512,326.897674 142.251163,321.653953 147.315349,317.884651 C150.543256,315.482791 154.686512,313.022326 154.777674,309" id="Stroke-13"></path>
                <path d="M83.2170115,381.647442 C81.3639882,380.747907 79.0728254,380.814884 77.2756161,381.822326 C75.4793371,382.829767 74.2244533,384.746977 74.0244533,386.797209 C73.9611975,387.43814 74.0049185,388.11907 74.3444533,388.666047 C74.8570115,389.489302 75.8877091,389.79907 76.8346859,390.008372 C78.7742208,390.44 80.8346859,390.72 82.7193371,390.089302 C84.603058,389.458605 86.230965,387.674419 86.0737557,385.693953 C85.9574766,384.225116 84.8960812,382.95907 83.6160812,382.229767 C82.3360812,381.499535 80.8542208,381.219535 79.3974766,381" id="Stroke-15"></path>
                <path d="M77.9531973,378.43814 C75.4434298,373.714419 69.8778484,371.610233 64.7076159,370.23907 C54.9085461,367.63907 44.24436,365.997209 36.7178484,359.204651 C34.4908717,357.194419 32.5085461,354.347907 33.1085461,351.408372 C33.6211042,348.903256 35.8173833,347.171163 37.5587787,345.298605 C39.2638949,343.465116 40.6313368,341.32 41.5727321,339" id="Stroke-17"></path>
                <path d="M31.6516635,352 C31.6842216,354.877209 31.71771,357.755349 31.7502681,360.632558 C31.7874774,363.84 31.8191053,367.089302 31.0367797,370.19907 C30.0293379,374.206512 27.6786402,378.016744 28.0367797,382.133953 C29.4014309,382.310698 30.7111983,381.56093 31.7921286,380.708837 C37.049803,376.562791 39.3865472,369.752558 40.7428263,363.195349" id="Stroke-19"></path>
                <path d="M67.6604651,370.595349 C65.1739535,368.983256 63.2902326,366.463256 62.4455814,363.622326 C62.0809302,362.397209 61.9051163,361.123721 61.7311628,359.857674 C60.8204651,353.23907 59.9106977,346.619535 59,340" id="Stroke-21"></path>
                <path d="M147.289057,132.583161 C142.918825,130.331068 137.396034,130.492929 133.164406,132.997115 C128.933708,135.501301 126.133708,140.264091 126.004406,145.17944 C125.967197,146.620371 126.157894,148.108743 126.874173,149.358975 C127.790453,150.958975 129.447197,151.980371 131.10208,152.794324 C135.631383,155.021301 140.676964,156.189673 145.723476,156.183161 C147.466732,156.180371 149.287197,156.015719 150.771848,155.102231 C153.897429,153.181301 154.34115,148.89758 154.446266,145.229673 C154.503941,143.267812 154.559755,141.305022 154.617429,139.344091 C154.645336,138.349673 154.666732,137.313394 154.246266,136.412929 C152.970918,133.686417 150.190453,134.511533 147.289057,132.583161 Z" id="Stroke-23"></path>
                <path d="M167.634012,105.406513 C165.690756,112.588839 168.362384,120.598141 173.6275,125.855815 C176.396802,128.620466 179.936337,130.743257 183.815407,131.253955 C187.693546,131.762792 191.902849,130.479071 194.407035,127.472559 C196.220058,125.297676 197.015407,122.467908 197.633081,119.705118 C199.045174,113.389769 199.74936,106.638141 197.524244,100.561862 C191.439593,83.9516293 171.476802,91.2074432 167.634012,105.406513 Z" id="Stroke-25"></path>
                <path d="M246.530088,0.662469981 C233.943111,2.69316766 222.375669,9.5629351 213.724506,18.9294467 C203.224972,30.2968886 196.805437,45.8392142 198.185902,61.2531677 C199.903111,80.4299118 213.480786,97.1768886 230.361716,106.435493 C247.243576,115.693168 267.01939,118.34154 286.272413,118.129447 C291.790553,118.068051 297.603576,117.696889 302.235204,114.693168 C307.544041,111.250377 310.264041,105.050377 312.592413,99.1675863 C316.325437,89.7331677 319.835204,79.9871211 320.142181,69.846656 C321.275204,32.4531677 284.758925,-5.50404165 246.530088,0.662469981 Z" id="Stroke-27"></path>
                <path d="M240.587485,39.1517995 C245.476787,38.4922646 250.118647,36.617846 254.949345,35.6197065 C259.780973,34.6206367 265.155857,34.6085437 269.24981,37.3620321 C273.343764,40.1155205 275.278647,46.3573809 272.164229,50.1843577 C270.943764,51.685753 269.166089,52.6197065 267.383764,53.3741251 C262.53074,55.4308693 257.246089,56.4634274 251.975392,56.3862181 C251.274927,56.3759856 250.513996,56.3638926 249.952136,56.7824972 C249.406089,57.1899391 249.193996,57.8969158 249.028415,58.5573809 C247.451671,64.857846 247.160508,71.4773809 248.180973,77.8913344 C252.751206,78.2624972 257.363299,78.1043577 261.897252,77.4197065 C261.785624,74.3201716 261.772601,71.2169158 261.859113,68.1173809 C261.872136,67.6485437 261.897252,67.1480786 262.177252,66.7722646 C262.668415,66.11366 263.64888,66.1592414 264.466554,66.2364507 C274.442368,67.1769158 285.642368,61.4876135 287.795857,51.7024972 C289.433066,44.2634274 285.484229,36.4624972 279.681438,31.5266832 C273.109345,25.9341251 263.16795,21.5099391 254.427485,21.1955205 C251.366089,21.085753 244.233066,20.5313344 241.68702,21.9797065 C237.146554,24.5611019 239.494461,34.737846 240.587485,39.1517995 Z" id="Stroke-29"></path>
                <path d="M259.936195,89.2308406 C256.407823,86.9424685 251.820846,86.3703755 247.838521,87.7201429 C247.0748,87.9796778 246.307358,88.3238638 245.778986,88.9331661 C244.679451,90.2020034 244.963172,92.1182824 245.311079,93.7610731 C245.91387,96.5992127 246.893404,99.8903755 249.629218,100.857817 C250.848753,101.288515 252.188288,101.144329 253.47387,100.994561 C255.843172,100.717352 258.295265,100.413166 260.333404,99.1731661 C262.370614,97.9340964 263.87573,95.4801429 263.247823,93.1787475 C262.701777,91.1833987 260.806893,89.9089801 259.050614,88.8150266" id="Stroke-31"></path>
            </g>
        </g>
    </g>
</svg>