<svg xmlns="http://www.w3.org/2000/svg" width="1024" height="310" viewBox="-0.445 -0.445 51.921 15.721"><path d="M31.189 14.83h3.731v-4.772h.285c.425 0 1.496-.023 2.079.919l2.292 3.854h4.015l-2.088-3.509c-.69-1.176-1.258-1.806-1.704-2.13v-.039c1.259-.446 2.636-1.522 2.636-3.715 0-2.716-1.946-4.116-5.394-4.116H31.19v4.689h-.038c-.708-2.829-3.095-4.689-7.453-4.689h-8.253l-1.257 5.516c-.264 1.136-.488 2.578-.488 2.578h-.04s-.284-1.603-.547-2.74l-1.077-5.354h-4.53L6.43 6.676c-.264 1.137-.547 2.74-.547 2.74H5.84s-.222-1.442-.486-2.578L4.097 1.322H0L3.61 14.83h4.121L9.78 6.169h.041l2.048 8.662h4.056L18.93 3.614h.04v11.217h4.606c4.42 0 6.86-2.028 7.577-4.927h.036v4.927zm-7.309-3.062h-1.135V4.384h1.034c2.475 0 3.59 1.095 3.59 3.612 0 2.473-1.115 3.772-3.489 3.772m13.08-4.565h-2.04V4.182h1.918c1.278 0 1.806.506 1.806 1.52 0 .934-.548 1.501-1.684 1.501M48.963 4.886V1.404L45.48 2.66v.865l1.153-.418v2.616l2.33-.838zM47.573 0a3.469 3.469 0 013.459 3.478 3.468 3.468 0 01-3.46 3.477 3.468 3.468 0 01-3.458-3.478A3.469 3.469 0 0147.573 0m0 .51a2.96 2.96 0 00-2.951 2.967 2.96 2.96 0 002.95 2.968 2.96 2.96 0 002.953-2.967A2.96 2.96 0 0047.573.51" fill="#00375a"/></svg>