<?xml version="1.0" encoding="UTF-8"?>
<svg width="260px" height="321px" viewBox="0 0 260 321" version="1.1" xmlns="http://www.w3.org/2000/svg" xmlns:xlink="http://www.w3.org/1999/xlink">
    <!-- Generator: Sketch 52.5 (67469) - http://www.bohemiancoding.com/sketch -->
    <title>Scribble_professional</title>
    <desc>Created with Sketch.</desc>
    <g id="D_2.1_Subpages_desktop" stroke="none" stroke-width="1" fill="none" fill-rule="evenodd" stroke-linecap="round">
        <g id="D_5.0.0.0_Subpage_professional" transform="translate(-1063.000000, -176.000000)" stroke="#FFFFFF" stroke-width="1.7679558">
            <g id="Scribble_professional" transform="translate(1064.000000, 176.000000)">
                <path d="M124.653407,13.1493481 C122.356147,13.1422762 120.05977,13.0079116 117.77753,12.7471381 C116.768503,12.631337 115.703811,12.4987403 114.77077,12.9018343 C113.693708,13.3676906 113.023968,14.4496796 112.530941,15.5148729 C111.115475,18.5743204 110.592407,22.0412818 111.04214,25.3818343 C110.386537,24.7497901 110.308784,23.7411713 109.912948,22.9199558 C109.517996,22.0996243 108.334023,21.4675801 107.747338,22.1641547 C107.515845,22.4381878 107.478736,22.8218343 107.461948,23.1807293 C107.329414,26.0757569 107.936421,29.0008398 109.209633,31.6032707 C109.508277,32.2140994 109.890859,32.8514475 110.524373,33.0980773 C111.157886,33.3455912 112.054701,32.9336575 112.018475,32.2547624 C114.46064,36.6914475 113.117626,43.1347624 117.095421,46.2675801 C118.889934,47.6810608 121.302941,48.0293481 123.586064,48.0903425 C130.978825,48.2892376 133.467818,42.5230497 133.60477,41.2289061 C134.168482,35.9215028 134.731311,30.6017238 134.84529,25.2624972 C134.930112,21.310232 135.798653,12.7436022 132.866112,9.88481768 C130.727893,12.5376354 127.955277,13.1590718 124.653407,13.1493481 Z" id="Stroke-1"></path>
                <path d="M131.994125,10.0489724 C130.883488,11.2034475 129.248899,11.6701878 127.67616,11.9689724 C124.947721,12.4878674 122.151249,12.6443315 119.382166,12.4330608 C117.059283,12.2553812 114.301687,11.985768 112.822605,13.785547 C112.068927,14.703116 111.871892,15.942453 111.702249,17.1181436 C111.324084,19.7462099 110.945036,22.4184751 111.334687,25.0456575 C109.974886,24.3119558 109.004735,22.8958232 108.812118,21.3612376 C108.684886,20.3481989 108.877502,19.3254365 109.070118,18.3221215 C109.48981,16.1263204 109.909502,13.9314033 110.329194,11.7364862 C110.517392,10.7570387 110.709125,9.76344751 111.147372,8.8679779 C111.56618,8.01228729 112.195276,7.27858564 112.832324,6.57051934 C114.337913,4.89714917 115.96455,3.28123757 117.944612,2.20985635 C121.335721,0.373834254 125.629831,0.49759116 129.028892,2.24963536 C131.795324,3.67549171 134.966427,6.96035359 131.994125,10.0489724 Z" id="Stroke-3"></path>
                <path d="M134.736701,25.6182983 C135.45592,24.9181878 136.20518,24.1995138 137.148824,23.8591823 C138.093351,23.5188508 139.290577,23.6664751 139.889632,24.470895 C140.263379,24.9738785 140.343783,25.633326 140.351735,26.2600663 C140.371173,27.6099006 140.109639,28.9641547 139.590988,30.2105635 C139.069687,31.4640442 138.188776,32.6839337 136.890824,33.0746519 C135.591105,33.4644862 134.795016,32.6167514 134.755255,31.2607293" id="Stroke-5"></path>
                <path d="M133.299588,8.01423204 C134.927992,9.35876243 136.453019,10.8279337 137.856999,12.4049503 C138.327937,12.934453 138.787389,13.4798674 139.130211,14.1004199 C139.927184,15.5457238 140.019074,17.296 139.714245,18.9189834 C139.4103,20.5410829 138.738793,22.0677127 138.072588,23.5784309" id="Stroke-7"></path>
                <path d="M113.579552,39.0341657 C114.008079,41.2105193 114.061093,43.4602431 113.735942,45.6551602 C113.695299,45.9283094 113.651121,46.2191381 113.765984,46.4701878 C113.884381,46.7283094 114.144148,46.8865414 114.389778,47.0297459 C117.388586,48.7764862 120.387395,50.5223425 123.386203,52.2690829 C123.844771,52.5351602 124.313059,52.8065414 124.832593,52.9117348 C126.286936,53.2060994 127.639668,52.1638895 128.758258,51.1888619 C129.596758,50.4578122 130.437908,49.7241105 131.16773,48.8852155 C132.797018,47.0129503 134.140032,45.1300773 133.925326,42.0290829" id="Stroke-9"></path>
                <path d="M113.618782,46.4504751 C112.516097,46.0685967 111.233166,46.7236243 110.665919,47.7437348 C110.099556,48.7647293 110.149919,50.0394254 110.536036,51.1408619 C110.923036,52.2431823 111.612214,53.2093702 112.299625,54.1525746 C114.353905,56.9715801 116.575179,60.0336796 116.495659,63.5209724 C118.650666,61.9280442 120.18983,59.5209724 120.731453,56.895558 C120.93909,55.8904751 121.011542,54.8350055 121.472762,53.9183204 C121.933097,53.0007514 122.941241,52.2431823 123.937015,52.4889282" id="Stroke-11"></path>
                <path d="M125.375542,52.7945193 C125.844713,53.6007072 126.313884,54.406895 126.782172,55.2130829 C127.442192,56.3472265 128.108398,57.4963978 128.455638,58.7613702 C128.799343,60.0157348 128.817014,61.3381657 129.094453,62.608442 C129.371891,63.8796022 129.990384,65.1772818 131.140782,65.7828066 C134.093645,61.0729724 134.744829,55.3244641 135.287336,49.7925304 C135.366857,48.9819227 135.443727,48.1536354 135.253761,47.3615912 C135.058494,46.5492155 134.595508,45.8305414 134.13959,45.129547 C133.822391,44.6398232 133.504309,44.1509834 133.186227,43.6621436" id="Stroke-13"></path>
                <path d="M135.655605,51.1992044 C137.648036,54.5556685 140.534632,55.4714696 144.089201,57.0838453 C147.940646,58.8305856 151.793858,60.577326 155.645303,62.3240663 C156.234639,62.5910276 156.846947,62.8756685 157.249851,63.3821878 C157.642153,63.8745635 157.78529,64.5145635 157.91429,65.1306961 C161.904454,84.1874917 162.718214,103.906387 160.310509,123.227492 C160.010982,125.631912 159.65579,128.054895 158.782831,130.315227 C157.595324,133.38705 155.510118,136.012464 153.454954,138.585724 C149.539892,143.489149 145.623947,148.392575 141.709769,153.296 C142.752372,152.326276 141.564865,150.66263 140.444509,149.783956 C137.51992,147.491801 134.184475,145.073238 130.488536,145.45158 C130.024666,141.636331 133.072071,138.423956 135.605242,135.536 C140.380009,130.092464 144.076831,123.707492 146.421803,116.855779 C146.919249,115.402519 147.359262,113.913901 147.475009,112.381967 C147.608427,110.610475 147.307132,108.839867 147.042947,107.083403 C145.541776,97.1218564 145.225461,86.9826298 146.101954,76.9468287 C146.511043,76.8487072 146.920132,76.7497017 147.329221,76.6506961" id="Stroke-15"></path>
                <path d="M109.999537,49.8055249 C104.420729,56.3929282 95.4711329,58.7354696 87.7134616,62.518895 C87.0711123,62.8327072 86.4110918,63.1765746 85.9834479,63.7502762 C85.6300233,64.2232044 85.4683315,64.8092818 85.3207767,65.3803315 C82.6047082,75.8943646 82.0339274,86.840663 81.9252493,97.6994475 C81.877537,102.469392 81.9199479,107.276464 82.8653589,111.952707 C83.4158178,114.678895 84.2693384,117.334365 84.9381945,120.034033 C85.6715507,122.994475 86.1866671,126.01768 87.1859753,128.899448 C88.2215096,131.884641 89.7589068,134.666519 91.2883521,137.430718 C94.0503658,142.423425 96.813263,147.417017 99.5752767,152.410608 C101.880489,148.425635 105.084284,144.964862 108.878297,142.360663 C109.556873,141.895691 110.292879,141.410387 110.598592,140.647514 C111.031537,139.566409 110.44927,138.367735 109.882023,137.350276 C106.190503,130.723978 102.498982,124.09768 98.8074616,117.471381 C97.9733795,115.975691 97.1322288,114.461436 96.6754274,112.810166 C95.9924342,110.338564 96.2124411,107.719337 96.4386329,105.164641 C97.4397082,93.8744751 98.4770096,82.5860773 99.5514205,71.3029834" id="Stroke-17"></path>
                <path d="M110.567755,52.2105635 C112.916262,56.6030497 114.105536,61.6090166 113.983605,66.5884641 C113.92529,68.9725525 113.574516,71.3778564 113.97742,73.7283536 C114.673666,77.7858122 117.496646,81.1157569 119.09766,84.9080221 C122.295269,92.4810608 120.431838,101.304044 122.745886,109.191779 C126.561105,104.527912 125.73144,97.7884641 126.532831,91.8154254 C127.07092,87.8092376 128.418351,83.9648177 129.605858,80.1018343 C132.05244,72.1460331 133.846954,63.9895691 134.96466,55.7411713" id="Stroke-19"></path>
                <path d="M120.948721,57.1095691 C121.175797,57.9979669 122.151249,58.553989 122.346516,59.4503425 C122.441057,59.8870276 122.334146,60.3396243 122.228118,60.7736575 C121.860557,62.2675801 121.492995,63.7623867 121.125434,65.2563094 C119.654303,71.2417238 118.170803,77.3367514 118.524228,83.4901215" id="Stroke-21"></path>
                <path d="M127.137099,57.1742762 C126.513304,57.8832265 125.88951,58.5912928 125.265715,59.2993591 C125.032455,59.5645525 124.796544,59.8332818 124.641037,60.1497459 C124.397174,60.6438895 124.3689,61.2131713 124.345044,61.7638895 C124.302633,62.7291934 124.260222,63.6944972 124.217811,64.6598011 C124.194838,65.1786961 124.174516,65.7161547 124.368016,66.1979227 C124.570352,66.702674 124.982975,67.0880884 125.354955,67.4858785 C127.224571,69.4792486 128.293681,72.1241105 128.76727,74.8167072 C129.239975,77.5084199 129.153386,80.2681989 128.956352,82.9943867" id="Stroke-23"></path>
                <path d="M122.69084,108.861083 C121.619079,123.569591 121.876196,138.374453 123.460422,153.036994" id="Stroke-25"></path>
                <path d="M139.196743,56.1478895 C138.336154,63.2718674 137.456127,70.4798232 134.88938,77.1803757 C133.374955,81.1352928 131.272079,84.9169503 130.54314,89.089326 C130.301928,90.4727514 130.214455,91.8835801 129.866332,93.2440221 C129.098517,96.2442431 128.013503,99.6546298 126.093524,102.083801" id="Stroke-27"></path>
                <path d="M103.952706,55.5055912 C103.316542,64.0775249 106.777453,71.5206188 110.748179,79.1422762 C114.719788,86.7648177 119.327562,94.2167514 121.303206,102.581834" id="Stroke-29"></path>
                <path d="M109.556873,142.460022 C110.1789,144.104221 111.375242,144.640796 112.888784,145.532729 C114.211475,146.311514 115.935304,146.892287 116.337325,148.373834 C114.672695,148.21295 113.030153,148.963448 111.7269,150.011845 C110.422763,151.060243 109.388996,152.397702 108.282777,153.653834 C107.589181,154.441459 106.86466,155.200796 106.109215,155.930077 C105.464215,156.553282 104.620414,157.200354 103.758058,156.953724 C103.035304,156.746873 102.6324,155.99726 102.309016,155.318365 C101.587147,153.802343 100.865277,152.285436 100.143407,150.769414" id="Stroke-31"></path>
                <path d="M103.162272,156.974851 C103.50421,156.988994 103.846149,157.002254 104.188087,157.016398 C103.800203,159.248442 105.091087,161.448663 106.683265,163.060155 C108.275443,164.671646 110.211327,165.935735 111.65595,167.680707 C112.674697,168.912088 113.448697,170.380376 114.723676,171.343912 C117.481272,173.430099 121.386614,172.437392 124.669929,171.356287 C125.217738,172.143028 125.804423,172.961591 126.668546,173.373525 C127.533553,173.786343 128.757286,173.613083 129.18758,172.756508 C129.797238,171.540155 128.499286,170.293746 127.455799,169.422144 C123.952477,166.496177 121.793053,162.019713 121.684375,157.455735 C123.191731,159.442033 125.049861,161.160486 127.147436,162.507669 C127.697012,162.860376 128.296066,163.198055 128.949018,163.208663 C129.601087,163.218387 130.305286,162.785238 130.37332,162.135514 C130.426334,161.633414 130.105601,161.175514 129.791053,160.780376 C125.686909,155.619713 120.055087,151.939713 114.524875,148.350762" id="Stroke-33"></path>
                <path d="M124.313412,171.440972 C122.683241,169.424619 121.05307,167.408265 119.422899,165.391912" id="Stroke-35"></path>
                <path d="M119.57549,172.059934 C118.289908,170.401591 117.004325,168.744133 115.718743,167.08579" id="Stroke-37"></path>
                <path d="M129.15533,170.949746 C130.941892,169.237481 132.652467,167.445657 134.279104,165.580464 C135.819152,163.816044 137.315022,161.928751 138.022755,159.696707 C138.527268,158.102011 138.605022,156.404773 139.010577,154.782674 C139.415248,153.160575 140.251981,151.514608 141.748734,150.771182" id="Stroke-39"></path>
                <path d="M131.477684,145.499138 C131.444992,146.706652 131.170204,147.907978 130.673642,149.00853 C129.414567,151.799249 126.825732,153.786431 124.069019,155.11505" id="Stroke-41"></path>
                <path d="M80.6659973,199.861215 C80.8833534,203.146961 81.795189,206.342541 82.3103055,209.594696 C82.9747438,213.786519 82.9782781,218.051713 82.9800452,222.296575 C82.9818123,225.212818 82.9835795,228.129061 82.984463,231.043536 C99.331237,229.277348 115.753114,227.961989 132.194429,228.115801 C142.176025,228.208619 152.153203,228.844199 162.066764,230.019006 C164.273901,224.341215 163.813566,218.026077 163.355881,211.952265 C162.429025,199.672044 161.647956,187.382099 161.011792,175.084199 C142.591299,175.546519 124.114258,176.007956 105.777703,174.186077 C102.193093,173.830718 98.5943466,173.386961 95.0000178,173.625635 C93.3777986,173.732597 91.7714836,173.988066 90.1527986,174.130387 C89.0024014,174.23116 86.3146068,173.775912 85.3479904,174.24884 C83.2716205,175.267182 83.8123603,179.196464 83.4483329,181.287956 C82.3783397,187.44663 80.247189,193.531934 80.6659973,199.861215 Z" id="Stroke-43"></path>
                <path d="M108.969304,173.793326 C110.034879,171.989127 111.365523,170.342276 112.903804,168.919956" id="Stroke-45"></path>
                <path d="M113.08679,174.534895 C113.326235,173.533348 113.990673,172.641414 114.882187,172.127823" id="Stroke-47"></path>
                <path d="M136.538283,175.519823 C137.167379,172.186343 135.457687,168.539934 132.493338,166.893083" id="Stroke-49"></path>
                <path d="M131.060908,174.859492 C131.421401,172.958939 130.867408,171.789436 129.598613,170.329105" id="Stroke-51"></path>
                <path d="M83.4534575,180.532773 C105.127225,177.064928 127.346149,181.253215 149.203697,179.245702 C153.337882,178.865591 156.706019,178.27421 160.693533,179.428685" id="Stroke-53"></path>
                <path d="M88.7724986,185.040707 C88.7035808,187.453083 88.634663,189.863691 88.5648616,192.276066 C88.541889,193.079602 88.5277521,193.922917 88.8970808,194.636287 C89.6198342,196.035624 91.4417384,196.361812 93.0100603,196.497945 C101.494903,197.236066 110.042478,197.25463 118.530855,196.552751" id="Stroke-55"></path>
                <path d="M126.587877,196.71116 C135.769849,197.466961 145.044596,197.086851 154.133795,195.58232 C154.751404,195.478895 155.422027,195.342762 155.827582,194.865414 C156.172171,194.460552 156.249041,193.895691 156.294986,193.366188 C156.556521,190.358011 156.306473,187.306519 155.558979,184.381436 C133.311781,185.500552 111.035425,186.039779 88.7599521,185.994696" id="Stroke-57"></path>
                <path d="M118.878271,202.223028 C118.901244,202.488221 118.941888,202.77905 119.142456,202.953193 C119.332422,203.117613 119.608093,203.125569 119.859025,203.124685 C122.086484,203.116729 124.313942,203.108773 126.540518,203.100818 C126.707511,200.095293 126.559956,197.072088 126.103155,194.096619 C124.178758,193.747448 120.511093,192.693746 119.261737,194.391867 C118.129011,195.930873 118.725415,200.477171 118.878271,202.223028 Z" id="Stroke-59"></path>
                <path d="M152.05928,139.657459 C152.28989,149.956685 152.554958,160.454807 155.951369,170.179448 C156.121897,170.666519 156.298609,171.209282 156.091855,171.683094 C155.94165,172.028729 155.613849,172.260331 155.298417,172.467182 C153.503903,173.644641 151.575088,174.617901 149.562335,175.363094" id="Stroke-61"></path>
                <path d="M89.5469404,134.98979 C90.6372555,141.733657 88.0086596,148.436862 86.2574404,155.040177 C84.8684815,160.275978 84.0158445,165.654983 83.7180842,171.064928 C88.0634404,171.604155 92.3531322,171.704928 96.4988034,173.113989" id="Stroke-63"></path>
                <path d="M86.9790452,231.122387 C87.2670863,239.662497 87.5471753,247.420287 85.7623808,255.77653 C85.292326,257.977635 84.6782507,260.171669 84.6490932,262.422276 C84.6102164,265.512663 85.6766753,268.502276 86.0919493,271.56526 C86.6521274,275.70758 86.0133123,279.914431 85.1951342,284.01432 C84.9088603,285.448133 84.6004973,286.933215 84.9344836,288.35642 C85.2684699,289.779624 86.4524425,291.120619 87.9138534,291.113547 C88.4422233,291.110895 88.9529219,290.936751 89.4715726,290.837746 C94.185374,289.932552 98.7719425,295.107359 103.304614,293.529459 C105.369497,292.809901 106.764641,290.789127 107.319518,288.672884 C107.875278,286.556641 107.727723,284.328133 107.576634,282.145591 C107.396388,279.561724 107.217025,276.976972 107.037662,274.392221 C106.931634,272.871779 106.828258,271.322166 107.186984,269.839735 C107.527155,268.430674 108.271997,267.14537 108.615703,265.737193 C109.516052,262.045702 107.561614,258.325039 106.977579,254.570785 C105.647819,246.035094 111.454586,237.462276 109.665374,229.010564" id="Stroke-65"></path>
                <path d="M125.522743,228.312486 C126.557394,237.731271 127.592045,247.160663 127.89864,256.630718 C128.007318,259.98895 128.02499,263.359558 128.495045,266.686851 C129.352983,272.759779 131.710325,278.638232 131.682051,284.771271 C131.677634,285.578343 131.635223,286.409282 131.90736,287.169503 C132.176846,287.922652 132.729072,288.535249 133.268045,289.12663 C135.302887,291.35779 137.337729,293.589834 139.371688,295.820994 C139.891223,296.390276 140.439031,296.97989 141.160901,297.248619 C141.870401,297.513812 142.656771,297.434254 143.410449,297.35116 C146.25375,297.037348 149.097935,296.72442 151.94212,296.409724 C152.778853,296.318674 153.656229,296.210829 154.341873,295.721989 C155.184791,295.12 155.562072,294.071602 155.89164,293.087735 C156.780503,290.433149 157.342449,286.822099 154.910887,285.436022 C154.099777,284.973702 153.034202,284.845525 152.504949,284.076464 C152.209839,283.647735 152.149757,283.10232 152.112647,282.583425 C151.673517,276.430939 153.086332,270.292597 153.116373,264.125083 C153.139346,259.28 152.311449,254.473812 152.072887,249.634917 C151.737134,242.846851 152.565031,236.06232 153.390277,229.316685" id="Stroke-67"></path>
                <path d="M88.7638397,291.640398 C88.8795863,293.908685 86.846511,294.721061 85.2587507,296.344928 C81.5133329,300.176088 79.4696548,305.925481 80.9814288,311.066696 C81.1351685,311.588243 81.3463397,312.134541 81.7916548,312.448354 C82.2166479,312.748022 82.7697575,312.777193 83.2901753,312.796641 C85.0219562,312.858519 86.7546205,312.921282 88.4872849,312.984044 C89.1428877,313.007912 89.8108603,313.030011 90.444374,312.858519 C91.226326,312.646365 91.8978329,312.155757 92.5490178,311.675757 C94.9655589,309.893657 97.5420247,307.883492 98.2842164,304.97432 C98.5704904,303.853436 98.5563534,302.67863 98.7631068,301.541834 C99.345374,298.346254 101.58697,295.744707 103.74286,293.315536" id="Stroke-69"></path>
                <path d="M98.3553432,302.93958 C100.072987,302.39947 101.69874,301.566762 103.141597,300.490077 C103.381925,300.31063 103.626672,300.113503 103.748603,299.83947 C103.840494,299.636155 103.854631,299.407204 103.868768,299.183558 C103.996001,297.080575 104.09761,295.736044 103.096535,293.881459" id="Stroke-71"></path>
                <path d="M139.245958,296.184575 C140.280608,297.17905 139.295437,299.067227 140.017307,300.306564 C140.612827,301.328442 142.145807,301.515845 142.690081,302.566895 C142.879163,302.93021 142.919807,303.350099 142.956033,303.759381 C143.051458,304.819271 143.145999,305.878276 143.241423,306.937282 C143.286485,307.442033 143.336848,307.962696 143.568341,308.414409 C143.788348,308.842254 144.155026,309.173746 144.513752,309.495514 C147.593848,312.257061 151.192595,315.201591 155.312642,314.819713 C156.609711,314.699492 157.988951,314.136398 158.557081,312.961591 C158.860142,312.335735 158.893718,311.620597 158.997095,310.933746 C159.197663,309.594519 159.67567,308.290652 159.678321,306.937282 C159.681855,304.84579 158.559732,302.93905 157.472951,301.151646 C156.12817,298.939934 154.783389,298.497061 153.438608,296.286232" id="Stroke-73"></path>
                <path d="M52.4032459,20.3527956 C51.2572664,17.814011 49.4857253,15.494453 47.093924,14.0694807 C44.701239,12.6436243 41.64765,12.2069392 39.0791363,13.2818564 C37.5311363,13.9289282 36.2402527,15.0683757 35.0898555,16.2900331 C31.4734377,20.1300331 28.9296637,25.1386519 28.7220267,30.4106961 C28.5514993,29.2730166 27.550424,28.3147845 26.4079788,28.1945635 C25.26465,28.0734586 24.0859788,28.8036243 23.6830747,29.8803094 C23.1043418,31.4263867 24.0603555,33.0891492 24.9995815,34.4469392 C25.8283623,35.6447293 26.8320884,36.9300331 28.2714103,37.1501436 C29.7363555,43.977989 35.8841774,49.5302541 42.8219034,50.2922431 C43.9404925,50.415116 45.144787,50.4053923 46.0946158,49.8016354 C46.7343144,49.3950055 47.1893486,48.7603094 47.6284788,48.1424088 C49.6058897,45.3561105 51.6071568,42.5247293 52.7619719,39.3088177 C53.3027116,37.8042873 53.6428829,36.2087072 53.6852938,34.6069392 C53.731239,32.8451713 52.8353075,31.2778785 52.7911295,29.6354475 C52.7531363,28.2255028 53.6172596,26.8182099 53.5969377,25.3066077 C53.5748486,23.6022983 53.1012596,21.8988729 52.4032459,20.3527956 Z" id="Stroke-75"></path>
                <path d="M52.3368021,19.8064088 C52.8925623,16.6046409 50.2418774,13.8307182 47.8200349,11.6658564 C46.6086719,10.5829834 45.3699185,9.48243094 43.8820007,8.83093923 C42.4303089,8.19535912 40.8239938,8.02298343 39.2468363,7.85856354 C37.5601171,7.68353591 35.8371719,7.50939227 34.1857952,7.8921547 C31.1710829,8.59226519 28.8853089,11.0125967 26.9865349,13.4567956 C25.9660212,14.7703867 24.994987,16.1352486 24.2810692,17.6371271 C22.5351514,21.3082873 22.46535,25.7370166 24.0955212,29.4612155" id="Stroke-77"></path>
                <path d="M30.6610911,43.0604199 C30.4428514,45.7167735 30.2246116,47.4900331 30.0063719,50.1463867 C29.9392212,50.9667182 29.8720705,51.7967735 30.0072555,52.6082652 C30.3810021,54.855337 32.1887692,56.534895 33.491139,58.4027403 C36.200139,62.2878232 37.2180021,67.7472707 41.4272897,69.9165525 C42.462824,67.1452818 43.7713788,64.4756685 45.3282144,61.9580994 C45.7903171,61.2102541 46.2780432,60.4703646 46.598776,59.6518011 C46.9610363,58.7289282 47.100639,57.735337 47.2375911,56.7532376 C47.6493308,53.7954475 48.0619541,50.8040663 47.7765637,47.8312486" id="Stroke-79"></path>
                <path d="M30.0108781,47.8933923 C28.4558096,48.6863204 27.3045288,50.0785856 26.2257,51.4505193 C22.8045493,55.7979227 19.632563,60.342453 16.730063,65.0522873 C20.2263164,64.3177017 23.7225699,63.583116 27.2188233,62.8476464 C28.009611,62.6814586 28.8516452,62.5179227 29.6097411,62.7981436 C30.1584329,63.0014586 30.5984466,63.4133923 31.0366932,63.8005746 C33.5159671,65.9919558 36.4458575,67.6723978 39.5895699,68.705768" id="Stroke-81"></path>
                <path d="M47.164874,49.1253039 C52.7427986,52.4835359 57.6129904,57.0130387 61.3681274,62.3337017 C59.1344836,62.5272928 56.8354562,61.8183425 55.0992575,60.398674 C54.7590863,60.120221 54.4100795,59.8028729 53.9744836,59.7471823 C53.5035452,59.6870718 53.0573466,59.9478453 52.6562096,60.201547 C48.9293466,62.558232 45.3562233,65.158895 41.9668808,67.9805525" id="Stroke-83"></path>
                <path d="M33.6064438,65.9601326 L36.5389849,74.9493039 C36.9091973,76.0825635 37.2820603,77.223779 37.8528411,78.2712928 C38.4695671,79.4036685 39.3045329,80.4007956 40.0696973,81.4394696 C41.412711,83.2613481 42.5507384,85.223779 43.6861151,87.1817901 C46.0664301,78.8556022 48.0579781,70.4189171 49.6554575,61.9070939" id="Stroke-85"></path>
                <path d="M21.5493616,57.5558895 C16.2789164,59.7145635 10.9130466,61.6416354 5.4738411,63.3291492 C5.71416986,65.5055028 5.4853274,67.7322431 4.80763562,69.814011 C4.37557397,71.1408619 3.76591644,72.4058343 3.37626575,73.7459448 C2.88853973,75.4201989 2.75688904,77.174011 2.62788904,78.9136796 C1.83091644,89.6663867 1.03306027,100.419094 0.23520411,111.171801 C0.0319849315,113.911249 -0.170350685,116.677215 0.230786301,119.395448 C0.771526027,123.055116 2.37872466,126.458431 3.96736849,129.798983 C7.00240274,136.182188 10.037437,142.565392 13.0715877,148.948597 C14.7415192,152.459757 16.4105671,155.971801 18.0804986,159.482961 C18.2492589,159.839204 18.4321562,160.211359 18.7573068,160.434122 C19.3917041,160.870807 20.3097247,160.533127 20.7974507,159.93821 C21.2860603,159.343293 21.4724918,158.566276 21.7225397,157.837878 C22.3242452,156.086718 23.3721493,154.492022 24.7399027,153.244729 C26.0139986,152.082298 27.6759781,151.025945 27.9189575,149.318983 C28.1442658,147.741967 27.0406973,146.323182 26.0731973,145.059094 C22.0759644,139.835669 19.3775671,133.754785 16.759574,127.720751 C16.0703959,126.134011 15.3812178,124.534011 15.0127726,122.842961 C14.4199027,120.127381 14.681437,117.306608 14.9456219,114.537989 L17.325937,89.616 C17.5291562,92.0469392 17.7323753,94.4778785 17.9355945,96.9088177 C18.0045123,97.7273812 18.0725466,98.5565525 17.9435466,99.3680442 C17.8110123,100.205171 17.4726082,100.998099 17.3197521,101.831691 C16.6093685,105.699978 18.2245192,109.484287 17.8101288,113.395006 C17.5574301,115.76937 17.6687589,117.699978 17.2243274,120.046055 C16.7878479,122.357657 17.4540534,124.094674 16.1463822,126.050033" id="Stroke-87"></path>
                <path d="M58.3232856,57.7954475 C61.6392925,59.3980994 65.2044637,60.4836243 68.8509226,60.9998674 C69.902361,61.1483757 71.0465733,61.2898122 71.8037856,62.0350055 C72.3922377,62.614895 72.6299158,63.4520221 72.841087,64.2502541 C77.0857171,80.3200884 79.6082856,96.8442873 80.3531281,113.448928 C80.4688747,116.036331 80.538676,118.659978 79.9493404,121.181083 C79.4174363,123.457326 78.3651144,125.573569 77.6255733,127.79147 C76.5529295,131.002961 76.1438404,134.39832 75.2320048,137.659315 C73.4666486,143.966497 69.8679021,149.609812 67.7482377,155.806497 C67.5794774,156.298873 67.3656555,156.853127 66.8805801,157.036994 C66.1092308,157.327823 65.4227034,156.492464 64.9526486,155.815337 C62.8930664,152.848707 59.4277377,150.907492 55.8236897,150.701525 C55.5480185,147.06926 58.1147651,143.932906 59.6256555,140.619757 C60.9315596,137.753017 61.4784842,134.588376 62.7561144,131.70926 C63.8322925,129.284508 65.4182856,127.080751 66.1878678,124.542851 C67.2861349,120.924729 66.6172788,117.03611 65.9404705,113.316331 C65.1311281,108.864619 64.3209021,104.412906 63.510676,99.9603094 C62.8427034,96.2900331 62.2736897,92.1494807 64.4684568,89.1333481 C63.5804774,98.2312486 63.0415048,107.359204 62.5025322,116.484508 C62.349676,119.070144 62.1968199,121.654895 62.0439637,124.24053 C61.9096623,126.521193 61.8372103,129.019315 63.2191007,130.837657" id="Stroke-89"></path>
                <path d="M43.8079582,86.6201105 C43.7699651,88.0424309 44.0456363,89.4532597 44.1295747,90.8729282 C44.4123144,95.6446409 42.5347459,100.426961 43.3122801,105.143867" id="Stroke-91"></path>
                <path d="M19.217024,133.015956 C19.8399349,124.859492 19.4670719,117.511867 18.1099212,109.445569 C23.57475,108.092199 29.2304281,107.73242 34.8489966,107.378829 C43.4593048,106.836066 52.0704966,106.293304 60.6816884,105.750541 C60.827476,114.818387 60.9829829,122.198718 63.026661,131.034077" id="Stroke-93"></path>
                <path d="M20.648924,160.175028 C23.1803281,162.587403 26.3540815,164.190939 29.4783555,165.76 C32.1493623,167.100994 34.8203692,168.443757 37.491376,169.784751 C38.7115747,170.397348 39.9529788,171.017017 41.296876,171.258343 C45.4275267,171.998232 49.2498144,169.072265 52.2989856,166.188729 C51.2431295,165.394917 49.6968966,166.056133 48.4360541,165.662762 C47.789287,165.462099 47.2635678,164.996243 46.7599377,164.541878 C45.1377185,163.082431 43.5154993,161.622099 41.8932801,160.162652 C41.311013,159.638453 40.6713144,158.901215 40.9540541,158.170166 C41.1546226,157.651271 41.7368897,157.409061 42.2608418,157.221657 C43.8512527,156.651492 45.4416637,156.081326 47.0320747,155.512044 C48.4740473,154.994917 50.2279171,153.947403 49.8771432,152.457017 C49.6774582,151.605746 48.7885952,151.062983 47.9191705,150.973702 C47.0497459,150.885304 46.1882733,151.149613 45.3497733,151.392707 C40.8338897,152.705414 36.1704514,153.506298 31.4752048,153.776796 C29.3467048,153.898785 27.0211705,153.852818 25.3503555,152.526851" id="Stroke-95"></path>
                <path d="M47.3257705,169.94926 C44.9622432,169.803403 43.5441267,167.269039 41.4492021,166.165834" id="Stroke-97"></path>
                <path d="M51.6478007,166.360221 C56.9677253,164.281105 62.5827596,161.978343 65.9296911,157.348066" id="Stroke-99"></path>
                <path d="M57.7990685,150.935072 C57.1390479,150.94126 56.6230479,151.470762 56.086726,151.855293 C54.2939795,153.138829 51.872137,152.92137 49.6844384,152.647337" id="Stroke-101"></path>
                <path d="M69.7332473,151.41074 C70.0089185,155.856265 70.8854116,158.496707 72.3291514,162.71063 C65.8199527,162.84411 59.574939,166.71505 53.1470281,165.67726" id="Stroke-103"></path>
                <path d="M10.8792945,144.495204 C10.9985753,147.481282 10.4224932,149.609017 9.21113014,152.340508 C8.4724726,154.003271 7.50232192,155.564376 6.89266438,157.279293 C6.28389041,158.99421 6.06653425,160.954873 6.8484863,162.598188 C13.1518151,163.878188 19.6353904,164.266254 26.0456301,163.747359" id="Stroke-105"></path>
                <path d="M9.80028904,163.13379 C11.634563,174.988818 13.2779877,186.873901 14.7314466,198.781967 C15.611474,205.999646 16.4234671,213.244729 16.4376041,220.516331 C16.4535082,228.354564 15.5425562,236.182188 15.7802342,244.016884 C15.8818438,247.349481 16.1902068,250.670586 16.4994534,253.989923 C17.8106589,268.099978 19.1227479,282.210033 20.434837,296.320972 C20.4878507,296.896442 20.5435151,297.479867 20.7396658,298.023514 C21.0029671,298.752796 21.5074808,299.372464 22.0685425,299.907271 C25.9862548,303.633238 32.431837,303.275227 37.2392959,300.800088 C38.2306521,300.290033 39.2052205,299.684508 39.8899808,298.803182 C41.2338781,297.073238 41.2020699,294.678541 41.1092959,292.488928 L40.2778644,272.972464 C40.0057274,266.576 39.7327068,260.178652 39.4526178,253.782188 C39.0585493,244.809812 38.6476932,235.837436 38.2377205,226.865061 C37.9134534,219.78263 37.7031658,215.187713 37.3788986,208.104398 C37.1553575,203.22042 38.1255082,197.066166 38.2306521,191.053348 C38.2615767,189.250917 39.3430562,181.212906 40.3105562,179.178873 C44.013563,184.15832 42.9842137,191.026829 42.9205973,197.232354 C42.8366589,205.508155 44.7822616,213.659315 45.5306384,221.900641 C46.0510562,227.637657 45.9900904,233.409149 45.9291247,239.169149 L45.2929603,298.790807 C45.2735219,300.610917 45.2903096,302.560088 46.3099397,304.069039 C47.7793027,306.245392 50.7312822,306.712133 53.3430904,306.983514 C57.5744671,307.425503 62.8714192,307.324729 64.7887479,303.524508 C65.5008986,302.112796 65.5450767,300.469481 65.5751178,298.888044 C66.4418918,253.654011 67.8449877,208.430586 69.7844055,163.230144" id="Stroke-107"></path>
                <path d="M24.6275137,302.331845 C24.5135342,304.091845 24.3986712,304.968751 24.2846918,306.729635 C24.201637,308.010519 24.1185822,309.300243 24.2546507,310.576707 C24.5736164,313.565436 26.1472397,316.398586 28.5143014,318.248751 C29.0948014,318.702232 29.7415685,319.107978 30.4669726,319.232619 C31.8842055,319.477481 33.2369384,318.629746 34.4262123,317.820022 C36.0652192,316.705326 37.7908151,315.485436 38.5391918,313.649414 C38.9977603,312.520575 39.036637,311.271514 39.0693288,310.054276 C39.1665205,306.390188 39.2637123,303.609193 39.3609041,299.945105" id="Stroke-109"></path>
                <path d="M24.1723911,306.075757 C25.2777267,306.880177 26.5898158,307.341613 27.8842336,307.781834 C29.0399322,308.17432 30.2406925,308.564155 31.4547062,308.444818 C32.6271925,308.329017 33.7007199,307.747359 34.6894253,307.107359 C36.3213637,306.052773 37.8296034,304.807249 39.1735007,303.40526" id="Stroke-111"></path>
                <path d="M48.0738822,305.829746 C48.0288205,306.603227 47.9846425,307.377591 47.9395808,308.151072 C47.8954027,308.928088 47.963437,309.898696 48.6791219,310.201901 C49.2348822,310.437923 49.898437,310.079028 50.2094507,309.561901 C50.5213479,309.044773 50.5690603,308.416265 50.607937,307.813392 C50.6353274,307.392619 50.6636014,306.971845 50.6909918,306.551072" id="Stroke-113"></path>
                <path d="M51.1766856,307.286983 C50.7755486,309.900022 50.637713,311.668862 50.766713,314.30842 C50.7764322,314.515271 50.7914527,314.732729 50.9045486,314.905105 C51.0255966,315.09074 51.2376514,315.191514 51.4391034,315.284331 C55.1253226,316.974497 58.936124,318.695602 62.9890212,318.827315 C63.3742541,318.838807 63.787761,318.828199 64.0996582,318.602785 C64.476939,318.329635 64.5944527,317.82842 64.6775075,317.369635 C65.0671582,315.217149 65.3048363,313.039028 65.5425144,310.864442 C65.8270212,308.260243 65.9816445,306.147536 64.1243979,304.30179" id="Stroke-115"></path>
                <path d="M55.7796,307.570122 C56.7877438,308.957967 58.0070589,309.490122 59.6822918,309.857856 C61.7957712,310.322829 63.8429836,308.983602 65.5942027,307.710674" id="Stroke-117"></path>
                <path d="M219.328186,17.768663 C216.375323,13.6846851 211.034192,11.1918674 206.138377,12.3799337 C203.523035,13.0146298 201.237261,14.5898785 199.176795,16.3215912 C197.282439,17.9145193 195.470254,19.7408177 194.584042,22.0533039 C194.097199,23.3226961 194.30572,27.6356243 194.182021,28.9898785 C193.560877,35.8053481 194.058323,39.8053481 196.379439,46.2424751 C197.668555,49.8172818 199.724603,53.5414807 203.303028,54.8152928 C206.441439,55.9317569 209.921788,54.8524199 212.940035,53.4415912 C215.338905,52.3198232 218.06646,51.166232 219.316699,48.8298785 C220.648227,46.3405967 220.171103,44.4232486 220.559871,41.366453 C223.074487,41.7783867 225.097843,39.1017017 225.476008,36.5797127 C225.65272,35.3987182 224.852213,32.9757348 224.201912,31.9741878 C223.45972,30.8320884 222.612384,33.2727514 222.123775,32.0944088 C221.673158,31.008 222.58146,27.4720884 222.44009,26.2141878 C222.101686,23.2007072 221.113864,20.2384972 219.328186,17.768663 Z" id="Stroke-119"></path>
                <path d="M200.209944,53.1916022 C200.513005,53.9102762 200.629636,54.7067403 200.546581,55.481989 C201.424841,55.9478453 202.253622,56.5056354 203.017019,57.1438674 C204.261074,58.1851934 205.630595,59.5385635 207.221005,59.2141436 C207.710499,59.1133702 208.152279,58.8561326 208.584341,58.6024309 C212.357149,56.3836464 216.285464,54.0154696 218.542964,50.2638674" id="Stroke-121"></path>
                <path d="M219.140959,49.2383646 C220.254247,50.382232 221.223514,51.665768 222.022253,53.0483094 C222.226356,53.4019006 222.42339,53.7767072 222.449897,54.184221 C222.489658,54.8003536 222.135349,55.3660994 221.795178,55.8823425 C219.013726,60.1068729 216.196932,64.6434475 216.019336,69.6989171 C215.187904,68.8087514 214.357356,67.9177017 213.525925,67.0266519 C212.718349,66.1621215 211.892219,65.264884 211.484014,64.1554917 C211.272842,63.5809061 211.180952,62.9674254 210.95476,62.3990276 C210.35924,60.902453 208.935822,59.9291934 207.590158,59.0469834 C207.916192,58.9241105 208.242226,58.8003536 208.569144,58.6774807" id="Stroke-123"></path>
                <path d="M200.381708,54.5901436 C200.045071,54.4495912 199.643934,54.5857238 199.377099,54.8332376 C199.11203,55.0825193 198.954756,55.4237348 198.819571,55.7622983 C198.180756,57.3622983 197.877695,59.1276022 198.176338,60.8248398 C198.474982,62.5220773 199.417742,64.1397569 200.875619,65.057326 C200.876503,64.7965525 200.876503,64.535779 200.894174,64.2758895 C201.072653,61.7477127 203.129585,59.4732376 205.627414,59.0445083" id="Stroke-125"></path>
                <path d="M201.884735,62.3555359 C202.282338,62.9044862 202.366276,63.6134365 202.437845,64.2879116 C202.628694,66.0797348 202.81866,67.871558 203.007742,69.6642652 C203.020995,69.7862541 203.042201,69.9223867 203.140276,69.9957569 C203.216262,70.0532155 203.318755,70.0558674 203.41418,70.0558674 C204.278303,70.0602873 205.142427,70.0647072 206.005666,70.0682431 C206.238927,70.0691271 206.474838,70.070011 206.699262,70.0045967 C206.963447,69.9276906 207.194057,69.7641547 207.409646,69.593547 C208.34092,68.8563094 209.119338,67.9263646 209.679516,66.8788508 C209.906591,66.4554254 210.098324,66.0125525 210.322749,65.5873591 C210.576331,65.1029392 210.872324,64.6397348 211.205427,64.2065856" id="Stroke-127"></path>
                <path d="M215.804365,68.8356243 C215.843242,72.0161768 214.641598,75.0641326 213.45144,78.0139669 C210.312146,85.7929724 207.081845,93.7346298 206.627694,102.111204 C206.423591,105.893746 206.792036,109.687779 206.610023,113.471204 C206.496043,115.846453 206.164708,118.207558 206.076351,120.582807 C205.991529,122.882033 206.132899,125.183028 206.300776,127.47695 C206.941358,136.186785 206.100208,141.01242 206.545523,143.912751" id="Stroke-129"></path>
                <path d="M198.477368,62.3892155 C196.378909,67.4950718 196.24019,70.2849061 194.67982,74.2309834 C193.745012,76.5973923 193.440183,79.1618122 193.240498,81.6997127 C192.204964,94.8745193 193.772402,108.094409 194.362621,121.296619 C194.828258,131.724022 194.648012,142.398055 191.223327,152.257945 C189.769868,156.44358 187.75358,160.409105 185.745245,164.359602" id="Stroke-131"></path>
                <path d="M202.772626,69.864221 C201.320051,74.1285304 199.867475,78.3919558 198.414016,82.6562652 C197.051564,86.6553812 195.682927,90.6836685 195.096242,94.8684199 C193.738208,104.545326 196.626571,114.592619 194.303688,124.084773" id="Stroke-133"></path>
                <path d="M207.176651,69.8275359 C206.433575,73.1371492 207.609596,76.5378122 207.915308,79.9154917 C208.289938,84.0533923 207.359548,87.4584751 208.577096,91.4310718" id="Stroke-135"></path>
                <path d="M194.610902,136.244155 C194.784964,136.686144 195.28506,136.876199 195.645553,137.184707 C198.538334,139.657193 199.349443,142.319735 201.72269,144.419182 C203.435916,142.437304 204.918532,140.268906 206.395847,138.104928" id="Stroke-137"></path>
                <path d="M197.701689,60.0424309 C192.177662,63.880663 185.407812,65.3507182 179.132758,67.7737017 C178.685675,67.9460773 178.223573,68.1343646 177.896655,68.4861878 C177.621867,68.7814365 177.468127,69.1650829 177.318805,69.5398895 C175.916593,73.0687293 174.49936,76.6514917 174.089388,80.4260773 C173.937415,81.8298343 173.926812,83.2486188 173.699737,84.641768 C173.124538,88.1829834 171.180703,91.7860773 172.396484,95.161989" id="Stroke-139"></path>
                <path d="M176.379668,105.390762 C173.514277,99.8438011 170.648003,94.2968398 167.782613,88.7489945 C165.739818,90.3100994 163.697024,91.8712044 161.655113,93.4323094 C161.464264,93.5781657 161.258394,93.7487735 161.225702,93.9874475 C161.193894,94.2163978 161.335264,94.4312044 161.470449,94.6194917 C163.331229,97.2236906 165.284784,99.8287735 166.373332,102.840486 C167.259545,105.294409 167.817955,108.305238 170.181483,109.408442" id="Stroke-141"></path>
                <path d="M167.433606,104.658298 C167.015682,103.93874 166.419277,103.324376 165.713312,102.885923 C165.223818,102.581834 164.653921,102.357304 164.084024,102.428022 C162.774586,102.588906 162.122517,104.203934 162.33899,105.506033 C162.555462,106.807249 163.33388,107.939624 163.768592,109.186033 C164.084024,110.09211 164.213908,111.049459 164.343791,111.999735 L165.360771,119.494983 C165.51451,120.627359 165.684154,121.802166 166.310599,122.757746 C167.483086,124.544265 169.967661,125.042829 172.051099,124.569017 C174.132771,124.095204 175.944955,122.858519 177.788065,121.780066 C179.179675,120.965039 180.630483,120.218961 181.846264,119.159072 C183.781264,117.472442 185.022668,115.00968 185.228538,112.44968 C184.688682,111.96084 183.781264,112.188022 183.267914,112.705149 C182.754565,113.221392 182.513353,113.939182 182.201455,114.597746 C181.311709,116.474431 179.71688,118.006365 177.807503,118.819624" id="Stroke-143"></path>
                <path d="M184.119491,112.202343 C184.327128,110.933834 183.157292,109.630851 181.875245,109.701569 C182.364738,109.046541 182.726114,108.224442 182.564423,107.423558 C182.403614,106.622674 181.545676,105.942011 180.773443,106.208972 C181.068553,105.796155 181.377799,105.339138 181.347758,104.833503 C181.294745,103.933613 180.15495,103.446541 179.28906,103.693171 C178.423169,103.939801 177.784354,104.651403 177.157909,105.298475 C175.508299,107.002785 173.614827,108.471072 171.553477,109.644994 C171.265436,109.80853 170.95884,109.972066 170.627505,109.980906 C170.296169,109.991514 169.934792,109.798807 169.863224,109.474387" id="Stroke-145"></path>
                <path d="M180.849253,106.117215 C179.457643,107.369812 178.324034,108.879646 177.035801,110.23832 C175.746684,111.597878 174.240212,112.839867 172.436862,113.341083" id="Stroke-147"></path>
                <path d="M182.109035,109.545635 C180.926829,110.832707 180.030898,112.352265 179.01922,113.777238 C178.005775,115.20221 176.829754,116.574144 175.282638,117.387403" id="Stroke-149"></path>
                <path d="M177.544555,122.063823 C177.859103,123.272221 178.934398,124.096972 179.718117,125.068464 C180.669713,126.250343 181.21222,127.698298 181.831597,129.083492 C183.027939,131.764597 184.560035,134.294541 186.380172,136.597304 C188.130508,135.358851 189.853453,134.080619 191.54724,132.766144 C191.674473,132.667138 191.808775,132.558409 191.856487,132.404597 C191.93159,132.165923 191.775199,131.922829 191.627645,131.720398 C188.55285,127.517083 185.760795,123.106033 183.27622,118.527912 C183.148103,118.291006 183.172843,117.844597 183.42996,117.923271" id="Stroke-151"></path>
                <path d="M164.619021,117.054762 C164.330096,121.665591 164.528014,126.307359 165.20924,130.876641 C165.254301,131.176309 165.304664,131.486586 165.481377,131.732331 C165.646603,131.963934 165.903719,132.110674 166.152884,132.249459 C166.834993,132.630453 167.515336,133.011448 168.197445,133.391558 C168.455445,133.53653 168.723164,133.683271 169.016507,133.715094 C169.754281,133.794652 170.343616,133.158188 170.90026,132.665812 C172.723048,131.055204 175.330438,130.610564 177.236281,129.099845 C178.406116,128.172552 179.262288,126.857193 179.637801,125.41189" id="Stroke-153"></path>
                <path d="M181.933029,129.758055 C182.585982,133.979934 180.713714,138.156729 180.348803,142.413083 C180.198598,144.173967 180.306392,145.947227 180.190646,147.710762 C179.943249,151.495956 178.67092,155.147669 178.280386,158.92137 C178.077166,160.889989 178.112509,162.898387 177.615064,164.813967 C176.993036,167.213083 175.540461,169.549436 176.006982,171.983028 C177.65129,172.418829 179.324755,172.745017 181.012358,172.960707 C181.307468,172.997834 181.616714,173.030541 181.89592,172.928 C182.395132,172.745901 182.650482,172.204906 182.852817,171.713414 C183.924577,169.127779 184.995454,166.542144 186.066331,163.956508" id="Stroke-155"></path>
                <path d="M217.727614,85.0131271 C222.960949,84.7417459 228.115648,83.335337 233.355168,83.4361105" id="Stroke-157"></path>
                <path d="M222.203207,54.8340331 C224.990844,57.0908287 228.526858,58.161326 231.964796,59.1814365 C236.643255,60.5692818 241.321714,61.958011 246.000173,63.3458564 C246.786542,63.5801105 247.591467,63.8214365 248.250604,64.3111602 C249.824227,65.478011 250.14496,67.6614365 250.349063,69.6088398 C250.898638,74.8313812 251.525967,80.0521547 252.579173,85.1960221 C253.505145,89.7149171 254.758919,94.1675138 255.503762,98.72 C256.167316,102.769503 256.425316,106.872044 256.682433,110.96663 C257.000515,116.037127 257.318597,121.107624 257.637563,126.178122 C257.719734,127.493481 257.800138,128.830055 257.51033,130.116243 C257.201967,131.479337 256.494234,132.711602 255.890762,133.972155 C254.787193,136.275801 254.018495,138.721768 253.252447,141.158895 L246.281145,163.34232 C245.981618,164.297017 245.338385,165.470055 244.358515,165.270276 C244.009508,165.198674 243.725001,164.952928 243.458166,164.716022 C241.055762,162.583867 238.653358,160.452597 236.25007,158.320442 C235.792385,157.913812 235.321447,157.490387 235.066097,156.933481 C234.798378,156.351823 234.795727,155.68884 234.797495,155.04884 C234.799262,154.170166 234.801912,153.289724 234.803679,152.41105 C234.80633,151.435138 234.808981,150.458343 234.850508,149.484199 C235.046659,145.009503 236.09633,140.574586 237.92707,136.487956 C239.975166,131.914254 243.072933,127.045304 241.487823,122.291271 C241.077851,121.061657 240.370118,119.946961 239.984885,118.709392 C239.17731,116.115801 239.866488,113.329503 240.234049,110.63779 C240.929412,105.554033 240.436385,100.31116 238.804447,95.4466298 C237.983618,100.628508 238.033981,105.90674 238.188604,111.150497 C238.398892,118.293923 238.798262,125.430276 239.386714,132.551602" id="Stroke-159"></path>
                <path d="M242.382783,163.691492 C241.520427,165.18453 240.338221,166.491934 238.93866,167.498785 C237.097317,166.740331 236.793372,163.91779 234.924639,163.230055" id="Stroke-161"></path>
                <path d="M235.204728,156.972287 C235.179105,159.500464 234.20542,161.98179 234.433379,164.499359 C234.588002,166.207204 235.284249,167.812508 235.972543,169.383337 C236.636982,170.900243 237.433071,172.552398 238.958982,173.198586" id="Stroke-163"></path>
                <path d="M238.808864,167.151381 C237.685858,170.863204 239.705679,174.822541 239.367275,178.686409 C239.2692,179.813481 238.969673,180.913149 238.772638,182.028729 C238.35383,184.400442 238.400659,186.826961 238.449255,189.234033 C238.493433,191.463425 238.536727,193.691934 238.581789,195.921326" id="Stroke-165"></path>
                <path d="M206.768534,143.416928 C207.297787,147.587536 207.854431,151.855381 209.769109,155.598144 C210.998143,158.00168 212.740527,160.094055 214.317684,162.283669 C215.611218,164.079028 216.803143,165.955713 218.271623,167.611403 C223.11354,173.074387 230.970171,175.67505 238.113766,174.181127" id="Stroke-167"></path>
                <path d="M238.226421,194.936309 C241.246434,202.691448 239.718756,211.357083 238.866119,219.63642 C238.495907,223.228022 238.264414,226.889459 239.014558,230.422718 C239.406859,232.273768 240.063345,234.060287 240.498941,235.901613 C241.23053,238.992884 241.330373,242.192884 241.425797,245.368133 C241.96477,263.208575 242.463982,281.390232 237.538126,298.546475 C232.045023,298.791337 226.551921,299.037967 221.058818,299.282829 C219.253701,297.435315 218.302989,294.784265 218.523879,292.211006 C218.685571,290.321061 219.433064,288.541613 220.068345,286.755094 C223.507167,277.090564 223.759866,266.321061 220.780496,256.504486 C219.973804,253.844597 218.933852,251.24305 218.430222,248.508906 C217.561681,243.802608 218.321544,238.932773 217.691564,234.188464 C217.162311,230.201724 215.660256,226.363492 215.447318,222.34758 C215.28651,219.319072 215.86701,216.288796 215.729174,213.260287 C215.595756,210.324597 214.793482,207.46758 213.994742,204.640619 L210.229003,191.300508 C211.320201,200.217193 212.412284,209.17189 212.216133,218.153105 C212.132195,221.979845 211.814112,225.801282 211.845921,229.628906 C211.877729,233.518409 212.268263,237.392884 212.659681,241.262939 C214.401181,258.483713 216.141797,275.704486 217.883297,292.92526 C210.644277,292.247249 203.457386,291.020287 196.403914,289.258519 C197.488044,286.443934 195.17753,283.581613 194.301037,280.696309 C193.723188,278.792221 193.777968,276.762608 193.79564,274.773657 C193.861907,267.22979 193.305263,259.679735 192.132777,252.227801 C190.311756,240.648575 187.006352,229.279735 186.278297,217.581171 C185.932825,212.043934 186.170503,206.475757 185.65627,200.951779 C185.211838,196.167691 184.207229,191.455204 183.20527,186.755978 C182.222749,182.150453 181.241112,177.545812 180.259475,172.940287" id="Stroke-169"></path>
                <path d="M196.505788,288.681989 C190.238686,290.296133 186.213179,296.906519 179.943425,298.508287 C178.849576,298.788508 177.40672,299.265856 177.48359,300.392928 C177.507446,300.748287 177.700946,301.070055 177.92272,301.348508 C179.474254,303.295028 182.279562,303.575249 184.767672,303.644199 C190.61685,303.806851 196.812384,303.566409 201.754145,300.431823 C202.867432,299.726409 203.913569,298.875138 205.157624,298.439337 C206.400795,298.002652 207.947912,298.084862 208.835891,299.058122 C209.113329,299.36221 209.316549,299.741436 209.658487,299.970387 C210.098501,300.264751 210.669282,300.249724 211.197651,300.204641 C214.201761,299.952707 217.156391,299.11116 219.843302,297.742762" id="Stroke-171"></path>
                <path d="M221.611309,299.092066 C216.169453,302.670409 213.690179,309.25958 211.543124,315.411182 C211.313398,316.069746 211.081905,316.791956 211.314282,317.451403 C211.555494,318.139138 212.237603,318.563448 212.900275,318.866652 C215.710884,320.151956 218.970343,320.189083 221.987706,319.516376 C225.005069,318.845436 227.828049,317.507094 230.584761,316.109525 C231.432097,315.680796 232.316542,315.207867 232.821939,314.403448 C233.867192,312.735381 233.118816,309.965878 234.870035,309.065989 C235.305631,308.841459 235.832234,308.795492 236.209514,308.483448 C236.70696,308.074166 236.785597,307.354608 236.810336,306.710188 C236.912829,304.093613 236.75909,301.467315 236.349117,298.880796" id="Stroke-173"></path>
            </g>
        </g>
    </g>
</svg>