<?xml version="1.0" encoding="UTF-8"?>
<svg width="158px" height="115px" viewBox="0 0 158 115" version="1.1" xmlns="http://www.w3.org/2000/svg" xmlns:xlink="http://www.w3.org/1999/xlink">
    <!-- Generator: Sketch 57.1 (83088) - https://sketch.com -->
    <title>Group 17@2x</title>
    <desc>Created with Sketch.</desc>
    <g id="G_3.2_LPs" stroke="none" stroke-width="1" fill="none" fill-rule="evenodd">
        <g id="G_2.0.0.0_LandingPage_seller_Bewertung" transform="translate(-454.000000, -2169.000000)">
            <g id="Foto_slider" transform="translate(0.000000, 2073.000000)">
                <g id="Group-17" transform="translate(457.000000, 99.000000)">
                    <path d="M63.3343366,109 L146.876396,109 C149.706455,109 152,106.710945 152,103.887352 L152,24.0684841 C152,21.2448911 149.706455,18.9558363 146.876396,18.9558363 L128.355723,18.9558363 C125.673901,18.9558363 123.5,16.7876532 123.5,14.1119591 L123.5,4.80033336 C123.5,2.14866345 121.346416,0 118.688673,0 L66.5624554,0 C63.9047129,0 61.7503762,2.14866345 61.7503762,4.80033336 L61.7503762,14.1119591 C61.7503762,16.7876532 59.5764752,18.9558363 56.8954059,18.9558363 L5.12435644,18.9558363 C2.29429703,18.9558363 0,21.2448911 0,24.0684841 L0,103.887352 C0,106.710945 2.29429703,109 5.12435644,109 L12.6679208,109" id="Stroke-1" stroke="currentColor" stroke-width="4.208" stroke-linecap="round"></path>
                    <path d="M28,19 L28,14.2743762 C28,11.9140594 25.979604,10 23.4881584,10 L13.5118416,10 C11.020396,10 9,11.9140594 9,14.2743762 L9,19" id="Stroke-3" stroke="currentColor" stroke-width="4.208"></path>
                    <path d="M44,19 L44,14.2743762 C44,11.9140594 42.0859406,10 39.7256238,10 L39.2743762,10 C36.9140594,10 35,11.9140594 35,14.2743762 L35,19" id="Stroke-5" stroke="currentColor" stroke-width="4.208"></path>
                    <path d="M130.905849,43.2047989 C135.360595,49.137462 138,56.5105504 138,64.5 C138,84.1058318 122.105832,100 102.5,100 C82.8941682,100 67,84.1058318 67,64.5 C67,44.8941682 82.8941682,29 102.5,29 C106.654814,29 110.642415,29.7138391 114.34808,31.0252936" id="Stroke-7" stroke="currentColor" stroke-width="4.208" stroke-linecap="round"></path>
                    <path d="M123,71.6671712 C120.103051,80.0177072 112.287231,86 103.100188,86 C91.4470251,86 82,76.3741397 82,64.5003784 C82,52.6258603 91.4470251,43 103.100188,43 C111.692242,43 119.085405,48.2329924 122.376042,55.7418901" id="Stroke-9" stroke="currentColor" stroke-width="4.208" stroke-linecap="round"></path>
                    <path d="M0,33 L18.8451936,33 C21.6921615,33 24,35.2908222 24,38.1167985 L24,87" id="Stroke-11" stroke="currentColor" stroke-width="4.208" stroke-linecap="round"></path>
                    <path d="M61.5,91 C63.9852662,91 66,93.0145743 66,95.4996436 C66,97.9854257 63.9852662,100 61.5,100 C59.0147338,100 57,97.9854257 57,95.4996436 C57,93.0145743 59.0147338,91 61.5,91" id="Fill-13" fill="currentColor"></path>
                    <path d="M113.282891,17 L95.7171089,17 C95.3213069,17 95,16.695604 95,16.3206337 L95,8.67936634 C95,8.30439604 95.3213069,8 95.7171089,8 L113.282891,8 C113.678693,8 114,8.30439604 114,8.67936634 L114,16.3206337 C114,16.695604 113.678693,17 113.282891,17 Z" id="Stroke-15" stroke="currentColor" stroke-width="4.208"></path>
                </g>
            </g>
        </g>
    </g>
</svg>
