<?xml version="1.0" encoding="UTF-8"?>
<svg width="24px" height="24px" viewBox="0 0 24 24" version="1.1" xmlns="http://www.w3.org/2000/svg" xmlns:xlink="http://www.w3.org/1999/xlink">
    <!-- Generator: Sketch 55.2 (78181) - https://sketchapp.com -->
    <title>Icon/sucess</title>
    <desc>Created with Sketch.</desc>
    <defs>
        <path d="M11.4545186,7.32 C11.3381484,7.32 11.2941566,7.29639586 10.985471,7.11128245 C10.8374446,7.02258823 10.6093115,6.88124969 10.3631953,6.7123015 C9.70391302,6.25981789 9.30025865,5.8794341 9.12875015,5.54940574 C8.91919466,5.14613311 8.8569225,4.68749815 8.95337745,4.25804642 C9.05012967,3.8270211 9.29327346,3.46523451 9.63792534,3.23920729 C9.97915892,3.0153259 10.3795436,2.94680245 10.7958308,3.04121889 C11.0898029,3.10788259 11.275579,3.24936421 11.4546672,3.42231794 C11.6336068,3.24936421 11.8193829,3.10788259 12.113355,3.04121889 C12.5296422,2.94680245 12.9300269,3.0153259 13.2714091,3.23920729 C13.6159124,3.46523451 13.8589075,3.8270211 13.9558083,4.25804642 C14.0521147,4.6876412 13.9898425,5.14613311 13.7804357,5.54940574 C13.6089272,5.8794341 13.2051242,6.25981789 12.5459905,6.7123015 C12.2998743,6.88139273 12.0717412,7.02258823 11.9237148,7.11128245 C11.6148806,7.29639586 11.5710374,7.32 11.4545186,7.32 Z M10.4392892,3.7328908 C10.3043415,3.7328908 10.1794999,3.77008515 10.0663994,3.84433081 C9.88359567,3.96421105 9.75251206,4.16606195 9.69707647,4.41268912 C9.63718224,4.67977319 9.67701264,4.96702804 9.80928522,5.22166626 C10.0200297,5.62751389 11.0098449,6.26983173 11.4545186,6.53090747 C11.8991923,6.26983173 12.8890075,5.62751389 13.0997519,5.22166626 C13.2320246,4.96702804 13.271855,4.67977319 13.2119607,4.41268912 C13.1565252,4.16606195 13.0254415,3.96421105 12.8427864,3.84433081 C12.6801952,3.73775466 12.4936759,3.70742695 12.287836,3.75406297 C12.1462003,3.78610733 12.0741191,3.85463078 11.8673874,4.0662094 C11.8242874,4.1102704 11.7782149,4.15733556 11.7275352,4.20754794 C11.6558999,4.27864637 11.5573643,4.31870182 11.4545186,4.31870182 C11.3516729,4.31870182 11.2531373,4.27864637 11.181502,4.20754794 C11.1308223,4.15733556 11.0847498,4.1102704 11.0416497,4.0662094 C10.8349181,3.85463078 10.7628369,3.78610733 10.6212012,3.75406297 C10.5587804,3.73990049 10.4981431,3.7328908 10.4392892,3.7328908 Z M8.5450284,15.24 C8.52144884,15.24 8.49772727,15.2374695 8.47414771,15.2328302 C8.45085225,15.2280503 8.42798295,15.2213023 8.40610793,15.212305 C8.38437498,15.2033076 8.36321022,15.1920609 8.34318182,15.1791272 C8.32357953,15.1661935 8.30468749,15.1510104 8.28792611,15.1345621 C8.2713068,15.1179732 8.25596589,15.0992756 8.24289771,15.079875 C8.22982953,15.0600527 8.21846589,15.0391057 8.20937498,15.0175964 C8.20028407,14.9959465 8.19346589,14.9733125 8.18863636,14.9502567 C8.18394884,14.9269198 8.18181818,14.9034423 8.18181818,14.8796837 C8.18181818,14.7850708 8.22031247,14.6921449 8.28792611,14.625227 C8.30468749,14.6086381 8.32357953,14.5940174 8.34318182,14.5806619 C8.36321022,14.5677282 8.38437498,14.5564815 8.40610793,14.5474841 C8.42798295,14.5384868 8.45085225,14.5317387 8.47414771,14.5269589 C8.52102269,14.5176804 8.56946022,14.5176804 8.6163352,14.5269589 C8.63963065,14.5317387 8.6625,14.5384868 8.68437498,14.5474841 C8.70610793,14.5564815 8.72727273,14.5677282 8.74730113,14.5806619 C8.76690338,14.5940174 8.78579542,14.6086381 8.8025568,14.625227 C8.87017044,14.6925666 8.90909091,14.7850708 8.90909091,14.8796837 C8.90909091,14.9034423 8.90653407,14.9269198 8.90184658,14.9502567 C8.89701702,14.9733125 8.89019884,14.9959465 8.88110793,15.0175964 C8.87201702,15.0391057 8.86065338,15.0600527 8.8475852,15.079875 C8.83409091,15.0992756 8.81917611,15.1175515 8.8025568,15.1345621 C8.78579542,15.1510104 8.76690338,15.1661935 8.74730113,15.1791272 C8.72727273,15.1920609 8.70610793,15.2033076 8.68437498,15.212305 C8.6625,15.2213023 8.63963065,15.2280503 8.6163352,15.2328302 C8.59275567,15.2374695 8.56903407,15.24 8.5450284,15.24 Z M21.9993575,19.3336416 C22.0117171,19.7754439 21.8453966,20.1930421 21.5310661,20.5093409 C21.2165829,20.8257891 20.7951358,21 20.3442393,21 L10.1832754,20.9974601 C8.0557459,20.9974601 6.6676561,19.7661806 6.27489548,17.5304244 C6.13649847,16.7431885 6.02602502,16.3899857 5.96712621,16.2410249 L5.39843204,16.2410249 L5.39843204,17.1645218 C5.39843204,17.3756368 5.22356662,17.5470089 5.00780767,17.5470089 L2.39062437,17.5470089 C2.17486542,17.5470089 2,17.3756368 2,17.1645218 L2,11.063854 C2,10.8525897 2.17486542,10.681367 2.39062437,10.681367 L5.00780767,10.681367 C5.22356662,10.681367 5.39843204,10.8525897 5.39843204,11.063854 L5.39843204,11.4260214 C6.52697027,11.3360772 8.39952585,11.296932 9.67851548,11.8410796 L9.67851548,11.1076309 C9.67851548,10.9858626 9.73771953,10.8714153 9.83781702,10.7994001 L10.4634263,10.3492308 L10.4634263,8.1309556 C10.4634263,7.91969127 10.6384444,7.74846859 10.8540507,7.74846859 L12.332625,7.74846859 C12.5482313,7.74846859 12.7232494,7.91969127 12.7232494,8.1309556 L12.7232494,8.72395987 L15.0723362,7.03429363 C15.2098176,6.93523546 15.3971953,6.93523546 15.5348294,7.03429363 L20.7691959,10.7994001 C20.869446,10.8714153 20.9284974,10.9858626 20.9284974,11.1076309 L20.9284974,13.0167789 C20.9284974,13.1609586 20.8457949,13.2928867 20.714417,13.3580291 C20.6585699,13.3856697 20.5981452,13.3992659 20.5380257,13.3992659 C20.4562387,13.3992659 20.375062,13.3741652 20.3067028,13.3250097 L20.204469,13.2515005 L20.204469,17.7576755 L20.3178417,17.7576755 C21.2207028,17.7576755 21.9749435,18.4646789 21.9993575,19.3336416 Z M19.4233729,17.7576755 L19.4232203,12.6894238 L15.3032013,9.72604596 L11.0177773,12.7995382 L13.4373596,14.8649681 L13.4373596,13.9177151 C13.4373596,13.7064508 13.612225,13.5352281 13.8279839,13.5352281 L16.7791816,13.5352281 C16.9947879,13.5352281 17.1698059,13.7064508 17.1698059,13.9177151 L17.1698059,17.7576755 L19.4233729,17.7576755 Z M16.3418654,17.7576755 L16.3885572,17.7576755 L16.3885572,14.3003516 L14.2186083,14.3003516 L14.2186083,15.5317804 L15.769204,16.8555441 C16.069649,17.0934032 16.262825,17.4140349 16.3418654,17.7576755 Z M11.2448277,8.51344261 L11.2448277,9.78730363 L11.9420006,9.28588706 L11.9420006,8.51344261 L11.2448277,8.51344261 Z M10.4597642,11.3012649 L10.4597642,12.2515061 L15.0726413,8.94314286 C15.1414584,8.89383788 15.2224824,8.86918541 15.3035064,8.86918541 C15.3848357,8.86918541 15.4660123,8.89383788 15.5348294,8.94344166 L20.1472487,12.2612177 L20.1472487,11.3012649 L15.3035064,7.81719673 L10.4597642,11.3012649 Z M4.6171833,16.7820348 L4.6171833,11.446341 L2.78124875,11.446341 L2.78124875,16.7820348 L4.6171833,16.7820348 Z M20.9710694,19.9759508 C21.1370847,19.8087621 21.2248226,19.5882345 21.2182614,19.3545588 C21.205444,18.8957238 20.8015445,18.5225001 20.3178417,18.5225001 L16.3305739,18.5225001 C16.2739639,18.7376491 16.1711198,18.9445806 16.0205158,19.1288018 C15.7441796,19.4669144 15.3498931,19.6795233 14.9102881,19.7271848 C14.8481849,19.7339083 14.7862343,19.7373446 14.7245889,19.7373446 C14.3502915,19.7373446 13.9897268,19.6139328 13.693249,19.3816018 L9.22777159,15.8355289 C9.06023038,15.7024055 9.03459565,15.4615582 9.17055122,15.2975071 C9.30650682,15.1334561 9.5524781,15.1083554 9.72001932,15.2413293 L14.1833605,18.7859082 C14.3638717,18.9272491 14.5918377,18.9920926 14.8242287,18.9669919 C15.0564671,18.9417418 15.2645966,18.8293862 15.410623,18.6508425 C15.711831,18.2822505 15.650796,17.7424358 15.2742096,17.4473531 C15.2699372,17.4440661 15.2658173,17.4406297 15.2616974,17.4370438 L9.92692821,12.8832073 C9.92463938,12.881265 9.92235056,12.8791733 9.92021431,12.8772309 C8.95708109,12.0152905 6.5289539,12.1004536 5.39843204,12.1938342 L5.39843204,15.4760509 L6.15282536,15.4760509 C6.54955324,15.4760509 6.691002,15.9263695 6.76699062,16.1682627 C6.85915356,16.4615526 6.9525372,16.8763119 7.04470014,17.4007375 C7.27175056,18.6925276 8.00050915,20.232486 10.1832754,20.232486 L20.3443919,20.235026 C20.5824287,20.235026 20.805054,20.14299 20.9710694,19.9759508 Z" id="path-1"></path>
    </defs>
    <g id="Icon/sucess" stroke="none" stroke-width="1" fill="none" fill-rule="evenodd">
        <polygon id="Path" points="0 0 24 0 24 24 0 24"></polygon>
        <mask id="mask-2" fill="white">
            <use xlink:href="#path-1"></use>
        </mask>
        <use id="Mask" fill="currentColor" fill-rule="nonzero" xlink:href="#path-1"></use>
    </g>
</svg>
