<?xml version="1.0" encoding="UTF-8"?>
<svg width="24px" height="24px" viewBox="0 0 24 24" version="1.1" xmlns="http://www.w3.org/2000/svg" xmlns:xlink="http://www.w3.org/1999/xlink">
    <!-- Generator: Sketch 56.3 (81716) - https://sketch.com -->
    <title>Icon/bulb</title>
    <desc>Created with Sketch.</desc>
    <defs>
        <path d="M13.5944079,21.9342077 L10.8192982,21.9342077 C10.6952851,21.9342077 10.5867325,21.8512568 10.5546053,21.7318033 L10.2645833,20.6560656 L9.85285088,20.6560656 C9.70142544,20.6560656 9.57872807,20.5337705 9.57872807,20.3828415 L9.57872807,17.3346448 C9.54407895,17.1347541 9.25065789,15.5314754 8.57828947,14.2945355 C8.24232456,13.6761749 7.82620614,12.9756284 7.45899123,12.3574863 C7.17532895,11.88 6.93048246,11.4677596 6.78969298,11.2053552 C6.75361842,11.1416393 6.71655702,11.0720219 6.68037281,11.0017486 L6.67039474,10.9832787 C6.66622807,10.9755191 6.66239035,10.9676503 6.65899123,10.9597814 C6.22171053,10.0925683 6,9.15967213 6,8.18655738 C6,4.77530055 8.78432018,2 12.2067982,2 C15.6292763,2 18.4135965,4.77530055 18.4135965,8.18644809 C18.4135965,9.15956284 18.191886,10.0925683 17.7546053,10.9596721 C17.7515351,10.9668852 17.7480263,10.9739891 17.7442982,10.9809836 L17.7307018,11.0062295 C17.6970395,11.0719126 17.6599781,11.1414208 17.6213816,11.2100546 C17.483114,11.4676503 17.2382675,11.88 16.9546053,12.3574863 C16.5873904,12.9756284 16.1711623,13.6761749 15.8351974,14.2945355 C15.1615132,15.5338798 14.8692982,17.1349727 14.8347588,17.3346448 L14.8347588,20.3828415 C14.8347588,20.5337705 14.7120614,20.6560656 14.560636,20.6560656 L14.1489035,20.6560656 L13.8588816,21.7318033 C13.8269737,21.8512568 13.7183114,21.9342077 13.5944079,21.9342077 Z M11.0294956,21.3877596 L13.3842105,21.3877596 L13.5814693,20.6561749 L10.8322368,20.6561749 L11.0294956,21.3877596 Z M13.9388158,20.1097268 L14.2866228,20.1097268 L14.2866228,17.5850273 L10.1269737,17.5850273 L10.1269737,20.1097268 L13.9388158,20.1097268 Z M13.3278509,17.0386885 L14.3321272,17.0386885 C14.4369518,16.5055738 14.7449561,15.1535519 15.3532895,14.0344262 C15.6942982,13.4069945 16.1133772,12.7016393 16.483114,12.079235 C16.7634868,11.6073224 17.0055921,11.1997814 17.1407895,10.9477596 C17.1786184,10.8803279 17.2123904,10.8169399 17.2452851,10.7528962 L17.2527412,10.7390164 C17.254386,10.7355191 17.2559211,10.7320219 17.2577851,10.7285246 C17.6610746,9.93420765 17.8654605,9.07901639 17.8654605,8.18666667 C17.8654605,5.07650273 15.3269737,2.54644809 12.2067982,2.54644809 C9.08662281,2.54644809 6.54824561,5.07650273 6.54824561,8.18644809 C6.54824561,9.07879781 6.75263158,9.93409836 7.15592105,10.728306 C7.15767544,10.731694 7.15921053,10.735082 7.16085526,10.7384699 L7.16677632,10.7492896 C7.20120614,10.816612 7.23508772,10.8798907 7.27028509,10.9425137 C7.40833333,11.1995628 7.6504386,11.6072131 7.93070175,12.0791257 C8.3004386,12.7014208 8.71940789,13.406776 9.06041667,14.0343169 C9.66875,15.1534426 9.97664474,16.5054645 10.0815789,17.0386885 L11.0858553,17.0386885 L11.0858553,12.5795628 L9.04967105,6.72021858 C9.02291667,6.64306011 9.03212719,6.55803279 9.0747807,6.48830601 C9.11743421,6.41857923 9.18925439,6.37169399 9.27028509,6.36021858 L11.1029605,6.10240437 C11.1144737,6.10065574 11.1262061,6.09956284 11.1380482,6.09923497 C11.1410088,6.09923497 11.1440789,6.09923497 11.1469298,6.09912568 L13.2666667,6.09912568 C13.2694079,6.09923497 13.2726974,6.09912568 13.2755482,6.09923497 C13.2873904,6.09956284 13.2991228,6.10065574 13.310636,6.10240437 L15.1433114,6.36021858 C15.2243421,6.3715847 15.2961623,6.41857923 15.3388158,6.48830601 C15.3814693,6.55803279 15.3907895,6.64306011 15.3639254,6.72021858 L13.3277412,12.5795628 L13.3277412,17.0386885 L13.3278509,17.0386885 Z M11.6341009,17.0386885 L12.7796053,17.0386885 L12.7796053,12.5398907 C12.7794956,12.5356284 12.7794956,12.5313661 12.7796053,12.5271038 L12.7796053,12.2948634 C12.7796053,12.0879781 12.6107456,11.9197814 12.4031798,11.9197814 L12.0104167,11.9197814 C11.8028509,11.9197814 11.6339912,12.0880874 11.6339912,12.2948634 L11.6339912,12.5271038 C11.6341009,12.5313661 11.6341009,12.5356284 11.6339912,12.5398907 L11.6339912,17.0386885 L11.6341009,17.0386885 Z M12.864693,11.496612 C12.9400219,11.54 13.0086623,11.5936612 13.0686404,11.6557377 L14.7369518,6.85497268 L13.5033991,6.68142077 L12.8739035,11.4534426 C12.8720395,11.468306 12.8688596,11.482623 12.864693,11.496612 Z M9.67664474,6.85486339 L11.3449561,11.6557377 C11.4050439,11.5936612 11.4736842,11.54 11.5489035,11.496612 C11.5447368,11.4827322 11.5416667,11.468306 11.539693,11.4534426 L10.9101974,6.68142077 L9.67664474,6.85486339 Z M12.0821272,11.3733333 L12.3315789,11.3733333 L12.9552632,6.64546448 L11.4585526,6.64546448 L12.0821272,11.3733333 Z" id="path-1"></path>
    </defs>
    <g id="Icon/bulb" stroke="none" stroke-width="1" fill="none" fill-rule="evenodd">
        <polygon id="Path" points="0 0 24 0 24 24 0 24"></polygon>
        <mask id="mask-2" fill="white">
            <use xlink:href="#path-1"></use>
        </mask>
        <use id="Mask" fill="#FFFFFF" fill-rule="nonzero" xlink:href="#path-1"></use>
        <g id="color/clicked" mask="url(#mask-2)" fill="currentColor">
            <rect id="Rectangle-25" x="0" y="0" width="24.0833333" height="24"></rect>
        </g>
    </g>
</svg>