<?xml version="1.0" encoding="UTF-8"?>
<svg width="24px" height="24px" viewBox="0 0 24 24" version="1.1" xmlns="http://www.w3.org/2000/svg" xmlns:xlink="http://www.w3.org/1999/xlink">
    <!-- Generator: Sketch 55.2 (78181) - https://sketchapp.com -->
    <title>Icon/magnifying_glass_with_house</title>
    <desc>Created with Sketch.</desc>
    <defs>
        <path d="M3.2811552,22 C3.279765,22 3.27848173,22 3.27709153,22 C3.20619127,21.9988564 3.1386061,21.9705776 3.08920048,21.9209859 L2.07542293,20.9046152 C1.97265497,20.8015849 1.9752215,20.6371109 2.08119761,20.5370957 L7.59740937,15.3360969 C5.27759118,12.2656716 5.58589505,7.91220305 8.47612352,5.18694459 C10.0049172,3.74566515 12.0204952,2.97059928 14.1490003,3.00085336 C16.2784678,3.03266693 18.2677389,3.86865683 19.7503351,5.35495351 C21.2329313,6.84125019 22.0316554,8.799864 21.9990392,10.8700332 C21.9664229,12.9403065 21.1065299,14.8742804 19.5777363,16.3157677 C18.0489426,17.7571511 16.0307981,18.5312813 13.9048595,18.501859 C12.078242,18.4746199 10.3548201,17.8557108 8.96579518,16.7421319 L3.46722829,21.926704 C3.41739492,21.9736966 3.35055832,22 3.2811552,22 Z M2.64529852,20.7293286 L3.28692988,21.3726697 L8.55493723,16.4055943 L7.91330587,15.7623572 L2.64529852,20.7293286 Z M14.025807,3.5231781 C12.1590875,3.5231781 10.2910848,4.19989222 8.84837664,5.56018222 C5.90403726,8.33628 5.83185374,12.9235679 8.68732717,15.7859574 C10.0705774,17.1725508 11.9264962,17.9525031 13.9130938,17.9820294 C15.8979804,18.0128033 17.7792436,17.2872252 19.2054831,15.9424261 C20.6317227,14.5976271 21.4339758,12.7934026 21.4644533,10.8620279 C21.4949308,8.93065312 20.7497829,7.10334825 19.3666396,5.71675488 C17.9102433,4.25686554 15.9687737,3.5231781 14.025807,3.5231781 Z M16.9078012,14.5259945 L11.1460585,14.5259945 C10.9983764,14.5259945 10.8787121,14.4096567 10.8787121,14.2660798 L10.8787121,10.8539185 L10.4258273,10.8539185 C10.3166431,10.8539185 10.2184735,10.7894597 10.1777299,10.6910039 C10.1370932,10.5925482 10.1620099,10.4799531 10.2407167,10.4064492 L13.8417658,7.04918201 C13.9452823,6.95270164 14.1083636,6.95270164 14.2118801,7.04918201 L17.8130361,10.4064492 C17.8917429,10.4799531 17.9167666,10.5925482 17.876023,10.6910039 C17.8352794,10.7894597 17.7371098,10.8539185 17.6279255,10.8539185 L17.1750407,10.8539185 L17.1750407,14.2660798 C17.1751476,14.4095527 17.0554834,14.5259945 16.9078012,14.5259945 Z M11.4134049,14.006165 L16.6404548,14.006165 L16.6404548,10.5940037 C16.6404548,10.4504268 16.7601191,10.334089 16.9078012,10.334089 L16.9629815,10.334089 L14.0269834,7.59677047 L11.0909852,10.333985 L11.1461655,10.333985 C11.2938476,10.333985 11.4135119,10.4503229 11.4135119,10.5938998 L11.4135119,14.006165 L11.4134049,14.006165 Z M8.05339539,9.39319746 C8.02698156,9.39319746 8.00003304,9.38935073 7.97351228,9.38124138 C7.83256726,9.33851139 7.75407436,9.19275119 7.7980261,9.05572411 C8.96055519,5.43843813 11.9891622,4.93108448 12.1174884,4.91133096 C12.2636734,4.88845846 12.4003409,4.98545865 12.4234397,5.12716419 C12.4465384,5.26876576 12.3475133,5.40184213 12.2019699,5.4245067 L12.2019699,5.4245067 C12.0867971,5.44290867 9.36863274,5.91169097 8.30844385,9.21063332 C8.27272637,9.32198081 8.16717801,9.39319746 8.05339539,9.39319746 Z" id="path-1"></path>
    </defs>
    <g id="Icon/magnifying_glass_with_house" stroke="none" stroke-width="1" fill="none" fill-rule="evenodd">
        <polygon id="Path" points="0 0 24 0 24 24 0 24"></polygon>
        <mask id="mask-2" fill="white">
            <use xlink:href="#path-1"></use>
        </mask>
        <use id="Mask" fill="currentColor" fill-rule="nonzero" xlink:href="#path-1"></use>
    </g>
</svg>
