<?xml version="1.0" encoding="UTF-8"?>
<svg width="219px" height="192px" viewBox="0 0 219 192" version="1.1" xmlns="http://www.w3.org/2000/svg" xmlns:xlink="http://www.w3.org/1999/xlink">
    <!-- Generator: Sketch 57.1 (83088) - https://sketch.com -->
    <title>Group 15@2x</title>
    <desc>Created with Sketch.</desc>
    <g id="G_3.2_LPs" stroke="none" stroke-width="1" fill="none" fill-rule="evenodd">
        <g id="G_2.0.0.0_LandingPage_seller_Bewertung" transform="translate(-1059.000000, -1748.000000)" stroke="currentColor" stroke-width="5">
            <g id="Group-6-Copy" transform="translate(0.000000, 1664.000000)">
                <g id="Group-15" transform="translate(1060.000000, 87.000000)">
                    <polyline id="Stroke-1" stroke-linecap="round" stroke-linejoin="round" points="2 80.0487805 2 44.7317073 73 5 73 146.268293 2 186 2 172.756098"></polyline>
                    <path d="M2,133 L2,93" id="Stroke-3" stroke-linecap="round" stroke-linejoin="round"></path>
                    <polyline id="Stroke-5" stroke-linecap="round" stroke-linejoin="round" points="215 45 215 146.34375 144 186 144 133.125"></polyline>
                    <polyline id="Stroke-7" stroke-linecap="round" stroke-linejoin="round" points="188 19.85 215 5 215 27"></polyline>
                    <polyline id="Stroke-9" stroke-linecap="round" stroke-linejoin="round" points="144 124.195122 144 186 73 146.268293 73 5 99.616125 19.8949756"></polyline>
                    <path d="M179,35.3333333 C179,61.8333333 143.5,106 143.5,106 C143.5,106 108,61.8333333 108,35.3333333 C108,15.8205 123.895125,0 143.5,0 C163.104875,0 179,15.8205 179,35.3333333 Z" id="Stroke-11"></path>
                    <path d="M166,36 C166,48.1484 156.1484,58 144,58 C131.8516,58 122,48.1484 122,36 C122,23.8516 131.8516,14 144,14 C156.1484,14 166,23.8516 166,36 Z" id="Stroke-13"></path>
                </g>
            </g>
        </g>
    </g>
</svg>
