<svg xmlns="http://www.w3.org/2000/svg" viewBox="0 0 66 68"><defs><style>.megaphone_svg__cls-1{fill:currentColor}.megaphone_svg__cls-7{clip-path:url(#megaphone_svg__clip-path-4)}</style><clipPath id="megaphone_svg__clip-path"><path class="megaphone_svg__cls-1" d="M42.07 34v-4.33a2.22 2.22 0 0 1 0 4.35zm-1.16 5.07a28.68 28.68 0 0 0-11.5-3.58v-7.32a28.7 28.7 0 0 0 11.5-3.59zm-10.06 4.48h-2.74l-2.49-6.94h2.74zm-6.06-8.14a.66.66 0 0 1-.38-.6v-5.92a.66.66 0 0 1 .65-.66h3.16v7.24H25a.52.52 0 0 1-.21-.06zm-1.54-1.55h-.75a.35.35 0 0 1-.34-.35v-3.32a.35.35 0 0 1 .34-.35h.75zm18.82-5.37v-3.88a1.19 1.19 0 0 0-1.77-1.05 27.5 27.5 0 0 1-11.52 3.49h-3.72a1.82 1.82 0 0 0-1.8 1.6h-.76a1.51 1.51 0 0 0-1.5 1.54v3.32A1.51 1.51 0 0 0 22.5 35h.76a1.83 1.83 0 0 0 1.07 1.45L27 44a1.19 1.19 0 0 0 1.11.78h2.7a1.17 1.17 0 0 0 1.11-1.58l-2.32-6.43a27.47 27.47 0 0 1 10.68 3.4 1.1 1.1 0 0 0 .58.16 1.22 1.22 0 0 0 .61-.17 1.2 1.2 0 0 0 .58-1V35.2a3.39 3.39 0 0 0 0-6.71z"/></clipPath><clipPath id="megaphone_svg__clip-path-2"><path class="megaphone_svg__cls-1" d="M0 0h66v68H0z"/></clipPath><clipPath id="megaphone_svg__clip-path-3"><path class="megaphone_svg__cls-1" d="M15 18h35v33H15z"/></clipPath><clipPath id="megaphone_svg__clip-path-4"><path class="megaphone_svg__cls-1" d="M21 23h24v22H21z"/></clipPath><clipPath id="megaphone_svg__clip-path-5"><path class="megaphone_svg__cls-1" d="M17 18h32.16v32.05H17z"/></clipPath></defs><g id="megaphone_svg__Ebene_2" data-name="Ebene 2"><g id="megaphone_svg__Icons"><g id="megaphone_svg__icon_megaphone"><path d="M33 4.08a30 30 0 1 1-30 30 30 30 0 0 1 30-30m0-2a32 32 0 1 0 32 32 32 32 0 0 0-32-32z" fill="currentColor"/><path class="megaphone_svg__cls-1" d="M42.07 34v-4.33a2.22 2.22 0 0 1 0 4.35zm-1.16 5.07a28.68 28.68 0 0 0-11.5-3.58v-7.32a28.7 28.7 0 0 0 11.5-3.59zm-10.06 4.48h-2.74l-2.49-6.94h2.74zm-6.06-8.14a.66.66 0 0 1-.38-.6v-5.92a.66.66 0 0 1 .65-.66h3.16v7.24H25a.52.52 0 0 1-.21-.06zm-1.54-1.55h-.75a.35.35 0 0 1-.34-.35v-3.32a.35.35 0 0 1 .34-.35h.75zm18.82-5.37v-3.88a1.19 1.19 0 0 0-1.77-1.05 27.5 27.5 0 0 1-11.52 3.49h-3.72a1.82 1.82 0 0 0-1.8 1.6h-.76a1.51 1.51 0 0 0-1.5 1.54v3.32A1.51 1.51 0 0 0 22.5 35h.76a1.83 1.83 0 0 0 1.07 1.45L27 44a1.19 1.19 0 0 0 1.11.78h2.7a1.17 1.17 0 0 0 1.11-1.58l-2.32-6.43a27.47 27.47 0 0 1 10.68 3.4 1.1 1.1 0 0 0 .58.16 1.22 1.22 0 0 0 .61-.17 1.2 1.2 0 0 0 .58-1V35.2a3.39 3.39 0 0 0 0-6.71z"/><g clip-path="url(#megaphone_svg__clip-path)"><path class="megaphone_svg__cls-1" d="M0 0h66v68H0z"/><g style="isolation:isolate" clip-path="url(#megaphone_svg__clip-path-2)"><path class="megaphone_svg__cls-1" d="M15 18h35v33H15z"/><g clip-path="url(#megaphone_svg__clip-path-3)"><path class="megaphone_svg__cls-1" d="M21 23h24v22H21z"/><g class="megaphone_svg__cls-7"><path class="megaphone_svg__cls-1" d="M16 18.41h34v31.33H16z"/></g><path class="megaphone_svg__cls-1" d="M17 18h32.16v32.05H17z"/><g clip-path="url(#megaphone_svg__clip-path-5)"><path class="megaphone_svg__cls-1" d="M21 23h24v22H21z"/><g class="megaphone_svg__cls-7"><path class="megaphone_svg__cls-1" d="M12 13h42.16v42.05H12z"/></g></g></g></g></g></g></g></g></svg>