<?xml version="1.0" encoding="UTF-8"?>
<svg width="187px" height="48px" viewBox="0 0 187 48" version="1.1" xmlns="http://www.w3.org/2000/svg" xmlns:xlink="http://www.w3.org/1999/xlink">
    <!-- Generator: Sketch 57.1 (83088) - https://sketch.com -->
    <title>Group 21</title>
    <desc>Created with Sketch.</desc>
    <defs>
        <polygon id="path-1" points="0 60 187.421378 60 187.421378 0 0 0"></polygon>
    </defs>
    <g id="G_3.2_LPs" stroke="none" stroke-width="1" fill="none" fill-rule="evenodd">
        <g id="G_2.0.0.0_LandingPage_seller_Bewertung" transform="translate(-144.000000, -104.000000)">
            <g id="Group-21" transform="translate(144.000000, 104.000000)">
                <polygon id="Fill-1" fill="#000000" points="30 27 187 27 187 0 30 0"></polygon>
                <path d="M39,5 L36.2941755,5 L35.9646105,6.96202233 L38.670435,6.96202233 L39,5 Z M36.1297616,11.0224756 L34.8586876,18.5560477 L33.2351929,18.5560477 L33,20 L38.34087,20 L38.5996559,18.5560477 L36.7409683,18.5560477 L38.2472352,9.5785233 L34.4354878,9.5785233 L34.2002949,11.0224756 L36.1297616,11.0224756 Z" id="Fill-2" fill="#FFFFFF"></path>
                <g id="Group-20">
                    <path d="M45.20648,9.18209302 L41.6734726,9.18209302 L41.4283763,10.6074419 L43.3397096,10.6074419 L42.0508652,18.0439535 L40.4069096,18.0439535 L40.1625096,19.4693023 L45.3178874,19.4693023 L45.5622874,18.0439535 L43.8285096,18.0439535 L44.8729541,12.0544186 C45.8066874,11.3197674 47.16168,10.4288372 48.3843763,10.4288372 C49.6732207,10.4288372 49.8284948,11.3197674 49.8284948,11.7425581 C49.8284948,12.544186 49.7393689,13.1232558 49.5840948,14.0581395 L48.8954578,18.0439535 L47.2285244,18.0439535 L46.9841244,19.4693023 L52.0956356,19.4693023 L52.3393393,18.0439535 L50.6731022,18.0439535 L51.3840207,13.9695349 C51.5615763,12.9006977 51.6952652,12.032093 51.6952652,11.52 C51.6952652,9.96139535 50.5171319,8.95953488 48.8954578,8.95953488 C46.91728,8.95953488 45.739843,9.93906977 44.9843615,10.5181395 L45.20648,9.18209302 Z" id="Fill-3" fill="#FFFFFF"></path>
                    <path d="M63.8400652,13.3458837 C63.9514726,12.1654186 64.995917,10.428907 67.5736059,10.428907 C69.43968,10.428907 70.7285244,11.6979767 70.7508059,13.3458837 L63.8400652,13.3458837 Z M72.6175763,14.815186 L72.6175763,13.613093 C72.6175763,10.7854186 70.5732504,8.95960465 67.5958874,8.95960465 C64.1958726,8.95960465 61.7511763,11.3198372 61.7511763,14.9044884 C61.7511763,17.7321628 63.6847911,19.6919302 66.951117,19.6919302 C69.5956504,19.6919302 70.9283615,18.3998372 71.7506874,17.4203023 L70.5064059,16.5963488 C69.8177689,17.5096047 68.7956059,18.2219302 67.0395467,18.2219302 C64.6846726,18.2219302 63.4842578,16.641 63.6179467,14.815186 L72.6175763,14.815186 Z" id="Fill-5" fill="#FFFFFF"></path>
                    <path d="M78.4806,9.18209302 L75.1697111,9.18209302 L74.9253111,10.6074419 L76.7475185,10.6074419 L75.5255185,18.0439535 L73.8808667,18.0439535 L73.6364667,19.4693023 L78.9916815,19.4693023 L79.2360815,18.0439535 L77.303163,18.0439535 L77.947237,14.1251163 C78.436037,11.1418605 80.480363,10.6513953 81.6807778,10.6074419 L81.9474593,8.95953488 C80.6586148,8.95953488 79.0362444,9.71651163 78.2139185,11.0748837 L78.1693556,11.0302326 L78.4806,9.18209302 Z" id="Fill-7" fill="#FFFFFF"></path>
                    <path d="M84.4023911,5.397 L86.00248,5.397 L83.8467467,17.4646744 L82.7354578,17.4646744 L82.3803467,19.469093 L87.2467615,19.469093 L87.6025689,17.4646744 L86.3575911,17.4646744 L87.2021985,12.5663023 C87.9353985,11.9656047 89.1135319,11.0746744 90.0688504,11.0746744 C90.8911763,11.0746744 91.4468207,11.5197907 91.4468207,12.4553721 C91.4468207,12.6332791 91.3576948,12.922814 91.3131319,13.257 L90.6244948,17.4646744 L89.3802133,17.4646744 L89.0244059,19.469093 L94.1352207,19.469093 L94.4910281,17.4646744 L93.0907763,17.4646744 L93.9353837,12.4776977 C94.0022281,12.0765349 94.0906578,11.6314186 94.0906578,11.1416512 C94.0906578,10.2283953 93.4688652,8.95932558 91.4245393,8.95932558 C89.8690133,8.95932558 88.6692948,9.4714186 87.6241541,10.407 L87.5802874,10.3623488 L88.8691319,3.39327907 L84.7581985,3.39327907 L84.4023911,5.397 Z" id="Fill-9" fill="#FFFFFF"></path>
                    <polygon id="Fill-11" fill="#FFFFFF" points="101.509556 24.1001163 101.843081 22.0963953 100.176148 22.0963953 106.754059 11.1861628 107.886933 11.1861628 108.220459 9.18174419 103.154207 9.18174419 102.820681 11.1861628 104.17637 11.1861628 101.354281 15.8619767 100.176148 11.1861628 101.531837 11.1861628 101.865363 9.18174419 96.7761333 9.18174419 96.4433037 11.1861628 97.7544296 11.1861628 99.6427852 18.6896512 97.5984593 22.0963953 96.2211852 22.0963953 95.8876593 24.1001163"></polygon>
                    <path d="M118.37239,13.6574651 C118.37239,15.9730465 117.261101,17.5763023 115.172212,17.5763023 C113.728093,17.5763023 112.550656,16.462814 112.550656,14.9935116 C112.550656,12.811186 113.550538,11.0746744 115.750138,11.0746744 C117.439353,11.0746744 118.37239,12.299093 118.37239,13.6574651 L118.37239,13.6574651 Z M108.994671,22.0958372 L107.927945,22.0958372 L107.572834,24.1002558 L112.70593,24.1002558 L113.061738,22.0958372 L111.505516,22.0958372 L112.172567,18.2439767 C112.928049,19.2681628 114.261456,19.6916512 115.528019,19.6916512 C119.038745,19.6916512 120.905516,17.1974651 120.905516,13.6574651 C120.905516,11.0523488 119.260864,8.95932558 116.439471,8.95932558 C115.14993,8.95932558 114.17233,9.22653488 113.261575,10.0951395 L113.217012,10.0504884 L113.372286,9.18188372 L109.750153,9.18188372 L109.395041,11.1863023 L110.906004,11.1863023 L108.994671,22.0958372 Z" id="Fill-13" fill="#FFFFFF"></path>
                    <path d="M59.4914163,5.61976744 L57.7137719,5.61976744 L57.0474163,9.18209302 L55.2474904,9.18209302 L54.9808089,10.6074419 L56.7807348,10.6074419 L55.6694459,16.53 C55.58032,17.042093 55.4696089,17.7544186 55.4696089,18.1548837 C55.4696089,19.0234884 56.0029719,19.4693023 56.9360089,19.4693023 L59.1140237,19.4693023 L59.3807052,17.9993023 L58.0695793,17.9993023 C57.5362163,17.9993023 57.3363793,17.7990698 57.3363793,17.3539535 C57.3363793,17.0867442 57.4248089,16.5962791 57.5139348,16.1734884 L58.5583793,10.6074419 L60.3805867,10.6074419 L60.6472681,9.18209302 L58.8250607,9.18209302 L59.4914163,5.61976744 Z" id="Fill-15" fill="#FFFFFF"></path>
                    <mask id="mask-2" fill="white">
                        <use xlink:href="#path-1"></use>
                    </mask>
                    <g id="Clip-18"></g>
                    <polygon id="Fill-17" fill="#000000" mask="url(#mask-2)" points="0 27.2093023 27.1555556 27.2093023 27.1555556 0 0 0"></polygon>
                    <path d="M13.717803,6.30404651 C9.62288444,6.30404651 6.29110667,9.64172093 6.29110667,13.7454419 C6.29110667,17.8477674 9.62288444,21.1861395 13.717803,21.1861395 C17.8127215,21.1861395 21.1444993,17.8477674 21.1444993,13.7454419 C21.1444993,9.64172093 17.8127215,6.30404651 13.717803,6.30404651 M13.717803,24.1024186 C8.01792148,24.1024186 3.38058815,19.4566047 3.38058815,13.7454419 C3.38058815,8.0335814 8.01792148,3.38706977 13.717803,3.38706977 C19.4176844,3.38706977 24.0550178,8.0335814 24.0550178,13.7454419 C24.0550178,19.4566047 19.4176844,24.1024186 13.717803,24.1024186" id="Fill-19" fill="#EE7900" mask="url(#mask-2)"></path>
                </g>
                <path d="M35.6771472,48 C34.7251997,48 33.897115,47.7762389 33.1928681,47.3287101 C32.4886212,46.8811813 31.9470878,46.2454965 31.5682515,45.4216366 C31.1894153,44.5977767 31,43.6264503 31,42.5076283 C31,41.3786351 31.1869869,40.3996805 31.5609663,39.5707351 C31.9349456,38.7417897 32.4740507,38.1061048 33.1782975,37.6636616 C33.8825444,37.2212183 34.715486,37 35.6771472,37 C36.6388085,37 37.4717501,37.2212183 38.1759969,37.6636616 C38.8802438,38.1061048 39.4193488,38.7417897 39.7933282,39.5707351 C40.1673076,40.3996805 40.3542945,41.3735497 40.3542945,42.4923717 C40.3542945,43.6111938 40.1648792,44.5850629 39.7860429,45.4140083 C39.4072067,46.2429538 38.8656733,46.8811813 38.1614264,47.3287101 C37.4571795,47.7762389 36.6290947,48 35.6771472,48 Z M35.6771472,46.9320388 C36.7650872,46.9320388 37.6125992,46.5480852 38.2197086,45.7801664 C38.826818,45.0122477 39.1303681,43.916327 39.1303681,42.4923717 C39.1303681,41.0684164 38.8292464,39.9750385 38.2269939,39.2122053 C37.6247414,38.4493721 36.774801,38.0679612 35.6771472,38.0679612 C34.5892072,38.0679612 33.7416953,38.4519148 33.1345859,39.2198336 C32.5274765,39.9877523 32.2239264,41.0785875 32.2239264,42.4923717 C32.2239264,43.9061559 32.5274765,44.9995338 33.1345859,45.7725381 C33.7416953,46.5455425 34.5892072,46.9320388 35.6771472,46.9320388 Z M43.9095092,40.4479889 L45.9202454,40.4479889 L45.9202454,41.4244105 L43.9095092,41.4244105 L43.9095092,47.8779473 L42.7292945,47.8779473 L42.7292945,41.4244105 L41.345092,41.4244105 L41.345092,40.4479889 L42.7292945,40.4479889 L42.7292945,40.2038835 C42.7292945,39.2172859 42.9648494,38.4697205 43.4359663,37.961165 C43.9070831,37.4526096 44.6331751,37.1678228 45.6142638,37.1067961 L46.1970859,37.0762829 L46.2845092,38.037448 L45.6142638,38.0832178 C45.0217251,38.1239022 44.5894697,38.2993512 44.3174847,38.60957 C44.0454997,38.9197889 43.9095092,39.3952811 43.9095092,40.036061 L43.9095092,40.4479889 Z M48.6886503,40.4479889 L53.059816,40.4479889 L53.059816,47.8779473 L51.8796012,47.8779473 L51.8796012,41.4244105 L48.6886503,41.4244105 L48.6886503,47.8779473 L47.5084356,47.8779473 L47.5084356,41.4244105 L46.1242331,41.4244105 L46.1242331,40.4479889 L47.5084356,40.4479889 L47.5084356,40.2038835 C47.5084356,39.2071148 47.7464189,38.4544639 48.2223926,37.9459085 C48.6983664,37.437353 49.4268867,37.1576517 50.4079755,37.1067961 L50.9470859,37.0762829 L51.0199387,38.037448 L50.3496933,38.0832178 C49.7668683,38.1239022 49.3443265,38.3018939 49.0820552,38.6171983 C48.819784,38.9325027 48.6886503,39.4054522 48.6886503,40.036061 L48.6886503,40.4479889 Z M51.7484663,37.2135922 L53.2055215,37.2135922 L53.2055215,38.6324549 L51.7484663,38.6324549 L51.7484663,37.2135922 Z M56.3236196,46.9015257 L60.8842025,46.9015257 L60.8842025,47.8779473 L54.8665644,47.8779473 L54.8665644,47.0235784 L59.2960123,41.4244105 L55.0122699,41.4244105 L55.0122699,40.4479889 L60.7239264,40.4479889 L60.7239264,41.3481276 L56.3236196,46.9015257 Z M62.5889571,47.8779473 L62.5889571,40.4479889 L63.7691718,40.4479889 L63.7691718,47.8779473 L62.5889571,47.8779473 Z M62.4723926,37.2288488 L63.9003067,37.2288488 L63.9003067,38.6171983 L62.4723926,38.6171983 L62.4723926,37.2288488 Z M71.9141104,44.3536755 L66.7269939,44.3536755 C66.7658489,45.2182198 66.9892618,45.8717038 67.3972393,46.314147 C67.8052168,46.7565903 68.3831762,46.9778086 69.131135,46.9778086 C69.9568037,46.9778086 70.7144649,46.6828508 71.4041411,46.0929265 L71.797546,46.9930652 C71.486706,47.2981985 71.0884482,47.5397587 70.6027607,47.7177531 C70.1170732,47.8957475 69.6216794,47.9847434 69.1165644,47.9847434 C68.0091969,47.9847434 67.1374009,47.6440164 66.5011503,46.962552 C65.8648997,46.2810877 65.5467791,45.3402741 65.5467791,44.1400832 C65.5467791,43.37725 65.6876264,42.7034241 65.9693252,42.1185853 C66.2510239,41.5337465 66.6468533,41.0785962 67.1568252,40.7531207 C67.666797,40.4276452 68.2471849,40.2649098 68.8980061,40.2649098 C69.8402399,40.2649098 70.5784738,40.5878377 71.1127301,41.2337032 C71.6469863,41.8795686 71.9141104,42.7669846 71.9141104,43.8959778 L71.9141104,44.3536755 Z M68.9125767,41.2260749 C68.2908967,41.2260749 67.7930745,41.429494 67.4190951,41.8363384 C67.0451157,42.2431828 66.8241312,42.8178419 66.756135,43.5603329 L70.8796012,43.5603329 C70.8601737,42.8076708 70.680472,42.230469 70.3404908,41.8287101 C70.0005095,41.4269513 69.5245429,41.2260749 68.9125767,41.2260749 Z M73.6480061,47.8779473 L73.6480061,37.1220527 L74.8282209,37.1220527 L74.8282209,47.8779473 L73.6480061,47.8779473 Z M77.0283742,47.8779473 L77.0283742,37.1220527 L78.208589,37.1220527 L78.208589,47.8779473 L77.0283742,47.8779473 Z M86.3535276,44.3536755 L81.166411,44.3536755 C81.205266,45.2182198 81.4286789,45.8717038 81.8366564,46.314147 C82.2446339,46.7565903 82.8225934,46.9778086 83.5705521,46.9778086 C84.3962209,46.9778086 85.153882,46.6828508 85.8435583,46.0929265 L86.2369632,46.9930652 C85.9261232,47.2981985 85.5278654,47.5397587 85.0421779,47.7177531 C84.5564904,47.8957475 84.0610966,47.9847434 83.5559816,47.9847434 C82.4486141,47.9847434 81.5768181,47.6440164 80.9405675,46.962552 C80.3043169,46.2810877 79.9861963,45.3402741 79.9861963,44.1400832 C79.9861963,43.37725 80.1270436,42.7034241 80.4087423,42.1185853 C80.6904411,41.5337465 81.0862705,41.0785962 81.5962423,40.7531207 C82.1062142,40.4276452 82.6866021,40.2649098 83.3374233,40.2649098 C84.2796571,40.2649098 85.017891,40.5878377 85.5521472,41.2337032 C86.0864035,41.8795686 86.3535276,42.7669846 86.3535276,43.8959778 L86.3535276,44.3536755 Z M83.3519939,41.2260749 C82.7303139,41.2260749 82.2324916,41.429494 81.8585123,41.8363384 C81.4845329,42.2431828 81.2635484,42.8178419 81.1955521,43.5603329 L85.3190184,43.5603329 C85.2995909,42.8076708 85.1198892,42.230469 84.779908,41.8287101 C84.4399267,41.4269513 83.9639601,41.2260749 83.3519939,41.2260749 Z M92.1088957,41.332871 L91.3366564,41.409154 C90.6081252,41.4803517 90.0811622,41.7193692 89.7557515,42.1262136 C89.4303409,42.533058 89.267638,43.0365203 89.267638,43.6366158 L89.267638,47.8779473 L88.0874233,47.8779473 L88.0874233,40.4479889 L89.2384969,40.4479889 L89.2384969,41.7447989 C89.6367607,40.8802546 90.4187058,40.3971341 91.5843558,40.295423 L92.0069018,40.2649098 L92.1088957,41.332871 Z M97.1648773,37.1220527 L101.230061,37.1220527 C102.308288,37.1220527 103.146086,37.3966685 103.743482,37.9459085 C104.340877,38.4951484 104.639571,39.2732266 104.639571,40.2801664 C104.639571,41.2871063 104.338449,42.07027 103.736196,42.629681 C103.133944,43.189092 102.298574,43.4687933 101.230061,43.4687933 L98.3596626,43.4687933 L98.3596626,47.8779473 L97.1648773,47.8779473 L97.1648773,37.1220527 Z M101.113497,42.4313454 C102.677411,42.4313454 103.459356,41.7142929 103.459356,40.2801664 C103.459356,38.8663822 102.677411,38.1595007 101.113497,38.1595007 L98.3596626,38.1595007 L98.3596626,42.4313454 L101.113497,42.4313454 Z M108.952454,40.2649098 C109.855833,40.2649098 110.5285,40.5064701 110.970475,40.9895978 C111.412451,41.4727255 111.633436,42.2075771 111.633436,43.1941748 L111.633436,47.8779473 L110.482362,47.8779473 L110.482362,46.6116505 C110.297801,47.0490082 110.016106,47.3871925 109.63727,47.6262136 C109.258434,47.8652347 108.821321,47.9847434 108.32592,47.9847434 C107.869374,47.9847434 107.449261,47.8881193 107.065567,47.6948682 C106.681874,47.5016172 106.378324,47.2320868 106.154908,46.8862691 C105.931492,46.5404513 105.819785,46.1590405 105.819785,45.742025 C105.819785,45.1826139 105.955776,44.7478055 106.227761,44.4375867 C106.499746,44.1273678 106.946572,43.9036068 107.568252,43.7662968 C108.189932,43.6289868 109.054442,43.5603329 110.16181,43.5603329 L110.482362,43.5603329 L110.482362,43.0568655 C110.482362,42.4364278 110.360942,41.9863629 110.118098,41.7066574 C109.875254,41.4269519 109.481853,41.2871012 108.937883,41.2871012 C108.121928,41.2871012 107.310842,41.5515461 106.504601,42.0804438 L106.111196,41.1803051 C106.480319,40.9056852 106.924716,40.6844669 107.444402,40.5166436 C107.964087,40.3488202 108.466766,40.2649098 108.952454,40.2649098 Z M108.486196,47.0083218 C109.069021,47.0083218 109.547416,46.8023599 109.921396,46.39043 C110.295375,45.9785 110.482362,45.4470675 110.482362,44.7961165 L110.482362,44.3536755 L110.220092,44.3536755 C109.365282,44.3536755 108.714471,44.3918165 108.267638,44.4680999 C107.820806,44.5443832 107.502685,44.6715201 107.313267,44.8495146 C107.123849,45.027509 107.029141,45.2894111 107.029141,45.6352288 C107.029141,46.0319021 107.16756,46.3599155 107.444402,46.6192788 C107.721244,46.8786421 108.068505,47.0083218 108.486196,47.0083218 Z M117.81135,41.332871 L117.03911,41.409154 C116.310579,41.4803517 115.783616,41.7193692 115.458206,42.1262136 C115.132795,42.533058 114.970092,43.0365203 114.970092,43.6366158 L114.970092,47.8779473 L113.789877,47.8779473 L113.789877,40.4479889 L114.940951,40.4479889 L114.940951,41.7447989 C115.339215,40.8802546 116.12116,40.3971341 117.28681,40.295423 L117.709356,40.2649098 L117.81135,41.332871 Z M123.187883,46.9930652 C123.401586,46.9930652 123.615285,46.9778088 123.828988,46.9472954 L123.770706,47.9237171 C123.547289,47.9644015 123.304449,47.9847434 123.042178,47.9847434 C122.187368,47.9847434 121.543842,47.7508114 121.11158,47.2829404 C120.679318,46.8150693 120.46319,46.1641281 120.46319,45.3300971 L120.46319,41.4244105 L119.078988,41.4244105 L119.078988,40.4479889 L120.46319,40.4479889 L120.46319,38.1900139 L121.643405,38.1900139 L121.643405,40.4479889 L123.654141,40.4479889 L123.654141,41.4244105 L121.643405,41.4244105 L121.643405,45.2385576 C121.643405,46.4082352 122.158226,46.9930652 123.187883,46.9930652 Z M128.593558,40.2649098 C130.293465,40.2649098 131.143405,41.2464072 131.143405,43.2094313 L131.143405,47.8779473 L129.96319,47.8779473 L129.96319,43.2857143 C129.96319,42.5940788 129.834485,42.0906165 129.577071,41.7753121 C129.319656,41.4600077 128.909256,41.3023578 128.345859,41.3023578 C127.695038,41.3023578 127.17536,41.5108625 126.78681,41.9278779 C126.39826,42.3448934 126.203988,42.9093816 126.203988,43.6213592 L126.203988,47.8779473 L125.023773,47.8779473 L125.023773,40.4479889 L126.189417,40.4479889 L126.189417,41.668516 C126.422547,41.210816 126.747953,40.8624607 127.165644,40.6234397 C127.583335,40.3844186 128.059302,40.2649098 128.593558,40.2649098 Z M139.244632,44.3536755 L134.057515,44.3536755 C134.09637,45.2182198 134.319783,45.8717038 134.727761,46.314147 C135.135738,46.7565903 135.713698,46.9778086 136.461656,46.9778086 C137.287325,46.9778086 138.044986,46.6828508 138.734663,46.0929265 L139.128067,46.9930652 C138.817227,47.2981985 138.41897,47.5397587 137.933282,47.7177531 C137.447595,47.8957475 136.952201,47.9847434 136.447086,47.9847434 C135.339718,47.9847434 134.467922,47.6440164 133.831672,46.962552 C133.195421,46.2810877 132.877301,45.3402741 132.877301,44.1400832 C132.877301,43.37725 133.018148,42.7034241 133.299847,42.1185853 C133.581545,41.5337465 133.977375,41.0785962 134.487347,40.7531207 C134.997319,40.4276452 135.577706,40.2649098 136.228528,40.2649098 C137.170761,40.2649098 137.908995,40.5878377 138.443252,41.2337032 C138.977508,41.8795686 139.244632,42.7669846 139.244632,43.8959778 L139.244632,44.3536755 Z M136.243098,41.2260749 C135.621418,41.2260749 135.123596,41.429494 134.749617,41.8363384 C134.375637,42.2431828 134.154653,42.8178419 134.086656,43.5603329 L138.210123,43.5603329 C138.190695,42.8076708 138.010994,42.230469 137.671012,41.8287101 C137.331031,41.4269513 136.855064,41.2260749 136.243098,41.2260749 Z M145,41.332871 L144.227761,41.409154 C143.499229,41.4803517 142.972266,41.7193692 142.646856,42.1262136 C142.321445,42.533058 142.158742,43.0365203 142.158742,43.6366158 L142.158742,47.8779473 L140.978528,47.8779473 L140.978528,40.4479889 L142.129601,40.4479889 L142.129601,41.7447989 C142.527865,40.8802546 143.30981,40.3971341 144.47546,40.295423 L144.898006,40.2649098 L145,41.332871 Z" id="Ofï¬ziellerPartner" fill="currentColor" fill-rule="nonzero"></path>
            </g>
        </g>
    </g>
</svg>
