<svg xmlns="http://www.w3.org/2000/svg" viewBox="0 0 66 68"><defs><style>.realtor_svg__cls-1{fill:currentColor}.realtor_svg__cls-7{clip-path:url(#realtor_svg__clip-path-4)}</style><clipPath id="realtor_svg__clip-path"><path class="realtor_svg__cls-1" d="M34.86 33.34a.5.5 0 0 1 0 .71A2.67 2.67 0 0 1 31 34a.5.5 0 0 1 0-.71.52.52 0 0 1 .72 0 1.64 1.64 0 0 0 2.34.06.51.51 0 0 1 .8-.01zm2.84-1.41v-4.52H30a1.88 1.88 0 0 0-1.89 1.87v2.65a4.81 4.81 0 0 0 9.62 0zM40 21.47c0-.27.88-.27.88 0l.12 3.07a2.89 2.89 0 0 1-2.26 2.8v4.59a5.84 5.84 0 0 1-11.36 1.81c-1.5-.23-2.38-1.51-2.38-3.34v-4.74A2.69 2.69 0 0 1 27.65 23h.18a2.05 2.05 0 0 1 2-1.52h8.41c.28 0 2.31 0 2.31.31s-2 .7-2.31.7h-8.42a1 1 0 0 0-1 1 .5.5 0 0 1-.51.5h-.63A1.68 1.68 0 0 0 26 25.66v4.74c0 .45.09 1.79 1.13 2.23a5.48 5.48 0 0 1 0-.7v-2.65A2.9 2.9 0 0 1 30 26.4h8.1a1.88 1.88 0 0 0 1.9-1.86zm3 24.8a1 1 0 0 0 1-1v-1.15a3.85 3.85 0 0 0-3-3.72c-.85-.21-1.61-.39-2.46-.53l-2.16 4.22a.49.49 0 0 1-.32.26h-.13a.6.6 0 0 1-.29-.08l-.8-.52.57 2.5zm-11.18 0h2.6L33.65 43l-.65-.46-.63.4zm-1 0l.44-2.6-1 .62a.54.54 0 0 1-.43.06.55.55 0 0 1-.32-.28l-1.91-4.23c-.94.15-1.75.34-2.66.57A3.82 3.82 0 0 0 22 44.12v1.18a1 1 0 0 0 1 1zm-1.66-7.7l-.61.79 1.67 3.76 2-1.28zm7.76-.19l-3.1 3.46 2 1.29 1.85-3.64zm4.42 1A4.86 4.86 0 0 1 45 44.12v1.18a2 2 0 0 1-2 2H23a2 2 0 0 1-2-2v-1.18a4.86 4.86 0 0 1 3.68-4.69c1-.25 1.9-.45 3-.62l1-1.32a.51.51 0 0 1 .38-.2.5.5 0 0 1 .4.16L33 41.19l3.56-4a.53.53 0 0 1 .81.06l1 1.55c1.06.2 1.93.38 2.92.63zm-6.4-8.8a.53.53 0 0 1-.54-.52.54.54 0 0 1 1.07 0 .52.52 0 0 1-.58.57zm-4 0a.52.52 0 0 1-.53-.52.53.53 0 0 1 .53-.53.53.53 0 0 1 .53.53.52.52 0 0 1-.6.57z"/></clipPath><clipPath id="realtor_svg__clip-path-2"><path class="realtor_svg__cls-1" d="M0 0h66v68H0z"/></clipPath><clipPath id="realtor_svg__clip-path-3"><path class="realtor_svg__cls-1" d="M16 16h34v37H16z"/></clipPath><clipPath id="realtor_svg__clip-path-4"><path class="realtor_svg__cls-1" d="M21 21h24v27H21z"/></clipPath><clipPath id="realtor_svg__clip-path-5"><path class="realtor_svg__cls-1" d="M17 18h32.16v32.05H17z"/></clipPath></defs><g id="realtor_svg__Ebene_2" data-name="Ebene 2"><g id="realtor_svg__Icons"><g id="realtor_svg__icon_realtor"><path d="M33 4.27a30 30 0 1 1-30 30 30 30 0 0 1 30-30m0-2a32 32 0 1 0 32 32 32 32 0 0 0-32-32z" fill="currentColor"/><path class="realtor_svg__cls-1" d="M34.86 33.34a.5.5 0 0 1 0 .71A2.67 2.67 0 0 1 31 34a.5.5 0 0 1 0-.71.52.52 0 0 1 .72 0 1.64 1.64 0 0 0 2.34.06.51.51 0 0 1 .8-.01zm2.84-1.41v-4.52H30a1.88 1.88 0 0 0-1.89 1.87v2.65a4.81 4.81 0 0 0 9.62 0zM40 21.47c0-.27.88-.27.88 0l.12 3.07a2.89 2.89 0 0 1-2.26 2.8v4.59a5.84 5.84 0 0 1-11.36 1.81c-1.5-.23-2.38-1.51-2.38-3.34v-4.74A2.69 2.69 0 0 1 27.65 23h.18a2.05 2.05 0 0 1 2-1.52h8.41c.28 0 2.31 0 2.31.31s-2 .7-2.31.7h-8.42a1 1 0 0 0-1 1 .5.5 0 0 1-.51.5h-.63A1.68 1.68 0 0 0 26 25.66v4.74c0 .45.09 1.79 1.13 2.23a5.48 5.48 0 0 1 0-.7v-2.65A2.9 2.9 0 0 1 30 26.4h8.1a1.88 1.88 0 0 0 1.9-1.86zm3 24.8a1 1 0 0 0 1-1v-1.15a3.85 3.85 0 0 0-3-3.72c-.85-.21-1.61-.39-2.46-.53l-2.16 4.22a.49.49 0 0 1-.32.26h-.13a.6.6 0 0 1-.29-.08l-.8-.52.57 2.5zm-11.18 0h2.6L33.65 43l-.65-.46-.63.4zm-1 0l.44-2.6-1 .62a.54.54 0 0 1-.43.06.55.55 0 0 1-.32-.28l-1.91-4.23c-.94.15-1.75.34-2.66.57A3.82 3.82 0 0 0 22 44.12v1.18a1 1 0 0 0 1 1zm-1.66-7.7l-.61.79 1.67 3.76 2-1.28zm7.76-.19l-3.1 3.46 2 1.29 1.85-3.64zm4.42 1A4.86 4.86 0 0 1 45 44.12v1.18a2 2 0 0 1-2 2H23a2 2 0 0 1-2-2v-1.18a4.86 4.86 0 0 1 3.68-4.69c1-.25 1.9-.45 3-.62l1-1.32a.51.51 0 0 1 .38-.2.5.5 0 0 1 .4.16L33 41.19l3.56-4a.53.53 0 0 1 .81.06l1 1.55c1.06.2 1.93.38 2.92.63zm-6.4-8.8a.53.53 0 0 1-.54-.52.54.54 0 0 1 1.07 0 .52.52 0 0 1-.58.57zm-4 0a.52.52 0 0 1-.53-.52.53.53 0 0 1 .53-.53.53.53 0 0 1 .53.53.52.52 0 0 1-.6.57z"/><g clip-path="url(#realtor_svg__clip-path)"><path class="realtor_svg__cls-1" d="M0 0h66v68H0z"/><g style="isolation:isolate" clip-path="url(#realtor_svg__clip-path-2)"><path class="realtor_svg__cls-1" d="M16 16h34v37H16z"/><g clip-path="url(#realtor_svg__clip-path-3)"><path class="realtor_svg__cls-1" d="M21 21h24v27H21z"/><g class="realtor_svg__cls-7"><path class="realtor_svg__cls-1" d="M16 16.27h33.99v36.02H16z"/></g><path class="realtor_svg__cls-1" d="M17 18h32.16v32.05H17z"/><g clip-path="url(#realtor_svg__clip-path-5)"><path class="realtor_svg__cls-1" d="M21 21h24v27H21z"/><g class="realtor_svg__cls-7"><path class="realtor_svg__cls-1" d="M12 13h42.16v42.05H12z"/></g></g></g></g></g></g></g></g></svg>