<svg width="82" height="82" viewBox="0 0 82 82" xmlns="http://www.w3.org/2000/svg" xmlns:xlink="http://www.w3.org/1999/xlink"><defs><path d="M28.136 15.576L7.382 36.412h-4v-4.034L24.21 11.46l3.926 4.116zM32.374 0a2.21 2.21 0 0 0-1.546.64l-4.04 4.042 8.28 8.28 4.042-4.04a2.2 2.2 0 0 0 0-3.114L33.942.64A2.169 2.169 0 0 0 32.374 0zm-7.95 7.045L.411 31.16v8.247h8.185l24.11-24.082-8.282-8.281z" id="register_svg__a"/></defs><g transform="translate(1 1)" fill="none" fill-rule="evenodd"><circle stroke="currentColor" stroke-width="2" cx="40" cy="40" r="40"/><path d="M14 11h53v53H14z"/><path d="M14 11h53v53H14z"/><use fill="currentColor" fill-rule="nonzero" xlink:href="#register_svg__a" transform="translate(20.625 17.625)"/></g></svg>
