<?xml version="1.0"?>
<svg width="512px" height="512px" viewBox="0 0 20 20" version="1.1" xmlns="http://www.w3.org/2000/svg" xmlns:xlink="http://www.w3.org/1999/xlink">
    <defs>
        <path d="M15.8888889,14.2222222 L15.0111111,14.2222222 L14.7,13.9222222 C15.7888889,12.6555556 16.4444444,11.0111111 16.4444444,9.22222222 C16.4444444,5.23333333 13.2111111,2 9.22222222,2 C5.23333333,2 2,5.23333333 2,9.22222222 C2,13.2111111 5.23333333,16.4444444 9.22222222,16.4444444 C11.0111111,16.4444444 12.6555556,15.7888889 13.9222222,14.7 L14.2222222,15.0111111 L14.2222222,15.8888889 L19.7777778,21.4333333 L21.4333333,19.7777778 L15.8888889,14.2222222 Z M9.22222222,14.2222222 C6.45555556,14.2222222 4.22222222,11.9888889 4.22222222,9.22222222 C4.22222222,6.45555556 6.45555556,4.22222222 9.22222222,4.22222222 C11.9888889,4.22222222 14.2222222,6.45555556 14.2222222,9.22222222 C14.2222222,11.9888889 11.9888889,14.2222222 9.22222222,14.2222222 Z" id="path-1"></path>
    </defs>
    <g stroke="none" stroke-width="1" fill="none" fill-rule="evenodd">
        <g transform="translate(-120.000000, -198.000000)">
            <g transform="translate(118.000000, 196.000000)">
                <mask id="mask-2" fill="white">
                    <use xlink:href="#path-1"></use>
                </mask>
                <g mask="url(#mask-2)" fill="currentColor">
                    <rect x="0" y="0" width="100%" height="100%"></rect>
                </g>
            </g>
        </g>
    </g>
</svg>