<svg xmlns="http://www.w3.org/2000/svg" viewBox="0 0 66 68"><defs><style>.statistics_svg__cls-1{fill:currentColor}.statistics_svg__cls-7{clip-path:url(#statistics_svg__clip-path-4)}</style><clipPath id="statistics_svg__clip-path"><path class="statistics_svg__cls-1" d="M46.33 21.22v3a.62.62 0 0 1-1.23 0v-1.75l-6.54 5.58a.71.71 0 0 1-.87 0l-2.31-2-10.66 9.1a.69.69 0 0 1-.44.15.68.68 0 0 1-.43-.15.48.48 0 0 1 0-.75L35 25a.7.7 0 0 1 .43-.15.73.73 0 0 1 .44.15l2.3 2 6.11-5.21h-2.36a.58.58 0 0 1-.62-.53.58.58 0 0 1 .62-.52h3.76a.67.67 0 0 1 .47.15.48.48 0 0 1 .18.33zm-1.81 25.09V30a.38.38 0 0 0-.41-.35h-3a.38.38 0 0 0-.41.35v16.31zm-9.58 0v-8.9a.39.39 0 0 0-.42-.35h-3a.38.38 0 0 0-.41.35v8.9zm-9.59 0V41.7a.39.39 0 0 0-.42-.35H22a.38.38 0 0 0-.41.35v4.61zm21.71 0a.52.52 0 1 1 0 1H18.94a.52.52 0 1 1 0-1h1.4V41.7A1.52 1.52 0 0 1 22 40.33h3a1.52 1.52 0 0 1 1.63 1.37v4.61H30v-8.9A1.52 1.52 0 0 1 31.55 36h3a1.51 1.51 0 0 1 1.63 1.37v8.9h3.37V30a1.51 1.51 0 0 1 1.62-1.37h3A1.51 1.51 0 0 1 45.73 30v16.31z"/></clipPath><clipPath id="statistics_svg__clip-path-2"><path class="statistics_svg__cls-1" d="M0 0h66v68H0z"/></clipPath><clipPath id="statistics_svg__clip-path-3"><path class="statistics_svg__cls-1" d="M13 15h40v38H13z"/></clipPath><clipPath id="statistics_svg__clip-path-4"><path class="statistics_svg__cls-1" d="M18 20h30v28H18z"/></clipPath><clipPath id="statistics_svg__clip-path-5"><path class="statistics_svg__cls-1" d="M17 18h32.11v32H17z"/></clipPath></defs><g id="statistics_svg__Ebene_2" data-name="Ebene 2"><g id="statistics_svg__Icons"><g id="statistics_svg__icon_statistics"><path d="M33 4A30 30 0 1 1 3 34 30 30 0 0 1 33 4m0-2a32 32 0 1 0 32 32A32 32 0 0 0 33 2z" fill="currentColor"/><path class="statistics_svg__cls-1" d="M46.33 21.22v3a.62.62 0 0 1-1.23 0v-1.75l-6.54 5.58a.71.71 0 0 1-.87 0l-2.31-2-10.66 9.1a.69.69 0 0 1-.44.15.68.68 0 0 1-.43-.15.48.48 0 0 1 0-.75L35 25a.7.7 0 0 1 .43-.15.73.73 0 0 1 .44.15l2.3 2 6.11-5.21h-2.36a.58.58 0 0 1-.62-.53.58.58 0 0 1 .62-.52h3.76a.67.67 0 0 1 .47.15.48.48 0 0 1 .18.33zm-1.81 25.09V30a.38.38 0 0 0-.41-.35h-3a.38.38 0 0 0-.41.35v16.31zm-9.58 0v-8.9a.39.39 0 0 0-.42-.35h-3a.38.38 0 0 0-.41.35v8.9zm-9.59 0V41.7a.39.39 0 0 0-.42-.35H22a.38.38 0 0 0-.41.35v4.61zm21.71 0a.52.52 0 1 1 0 1H18.94a.52.52 0 1 1 0-1h1.4V41.7A1.52 1.52 0 0 1 22 40.33h3a1.52 1.52 0 0 1 1.63 1.37v4.61H30v-8.9A1.52 1.52 0 0 1 31.55 36h3a1.51 1.51 0 0 1 1.63 1.37v8.9h3.37V30a1.51 1.51 0 0 1 1.62-1.37h3A1.51 1.51 0 0 1 45.73 30v16.31z"/><g clip-path="url(#statistics_svg__clip-path)"><path class="statistics_svg__cls-1" d="M0 0h66v68H0z"/><g style="isolation:isolate" clip-path="url(#statistics_svg__clip-path-2)"><path class="statistics_svg__cls-1" d="M13 15h40v38H13z"/><g clip-path="url(#statistics_svg__clip-path-3)"><path class="statistics_svg__cls-1" d="M18 20h30v28H18z"/><g class="statistics_svg__cls-7"><path class="statistics_svg__cls-1" d="M13.33 15.67h39.33v36.67H13.33z"/></g><path class="statistics_svg__cls-1" d="M17 18h32.11v32H17z"/><g clip-path="url(#statistics_svg__clip-path-5)"><path class="statistics_svg__cls-1" d="M18 20h30v28H18z"/><g class="statistics_svg__cls-7"><path class="statistics_svg__cls-1" d="M12 13h42.11v42H12z"/></g></g></g></g></g></g></g></g></svg>