<?xml version="1.0" encoding="UTF-8"?>
<svg width="20px" height="18px" viewBox="0 0 20 18" version="1.1" xmlns="http://www.w3.org/2000/svg" xmlns:xlink="http://www.w3.org/1999/xlink">
    <!-- Generator: Sketch 52.3 (67297) - http://www.bohemiancoding.com/sketch -->
    <title>icon_sucess</title>
    <desc>Created with Sketch.</desc>
    <g id="Page-1" stroke="none" stroke-width="1" fill="none" fill-rule="evenodd">
        <g id="icon_sucess" transform="translate(-2.000000, -3.000000)">
            <polygon id="Path" points="0 0 24 0 24 24 0 24"></polygon>
            <g id="Mask" transform="translate(2.000000, 3.000000)" fill="currentColor" fill-rule="nonzero">
                <path d="M9.4545186,4.32 C9.3381484,4.32 9.2941566,4.29639586 8.985471,4.11128245 C8.8374446,4.02258823 8.6093115,3.88124969 8.3631953,3.7123015 C7.70391302,3.25981789 7.30025865,2.8794341 7.12875015,2.54940574 C6.91919466,2.14613311 6.8569225,1.68749815 6.95337745,1.25804642 C7.05012967,0.8270211 7.29327346,0.46523451 7.63792534,0.23920729 C7.97915892,0.0153259 8.3795436,-0.05319755 8.7958308,0.04121889 C9.0898029,0.10788259 9.275579,0.24936421 9.4546672,0.42231794 C9.6336068,0.24936421 9.8193829,0.10788259 10.113355,0.04121889 C10.5296422,-0.05319755 10.9300269,0.0153259 11.2714091,0.23920729 C11.6159124,0.46523451 11.8589075,0.8270211 11.9558083,1.25804642 C12.0521147,1.6876412 11.9898425,2.14613311 11.7804357,2.54940574 C11.6089272,2.8794341 11.2051242,3.25981789 10.5459905,3.7123015 C10.2998743,3.88139273 10.0717412,4.02258823 9.9237148,4.11128245 C9.6148806,4.29639586 9.5710374,4.32 9.4545186,4.32 Z M8.4392892,0.7328908 C8.3043415,0.7328908 8.1794999,0.77008515 8.0663994,0.84433081 C7.88359567,0.96421105 7.75251206,1.16606195 7.69707647,1.41268912 C7.63718224,1.67977319 7.67701264,1.96702804 7.80928522,2.22166626 C8.0200297,2.62751389 9.0098449,3.26983173 9.4545186,3.53090747 C9.8991923,3.26983173 10.8890075,2.62751389 11.0997519,2.22166626 C11.2320246,1.96702804 11.271855,1.67977319 11.2119607,1.41268912 C11.1565252,1.16606195 11.0254415,0.96421105 10.8427864,0.84433081 C10.6801952,0.73775466 10.4936759,0.70742695 10.287836,0.75406297 C10.1462003,0.78610733 10.0741191,0.85463078 9.8673874,1.0662094 C9.8242874,1.1102704 9.7782149,1.15733556 9.7275352,1.20754794 C9.6558999,1.27864637 9.5573643,1.31870182 9.4545186,1.31870182 C9.3516729,1.31870182 9.2531373,1.27864637 9.181502,1.20754794 C9.1308223,1.15733556 9.0847498,1.1102704 9.0416497,1.0662094 C8.8349181,0.85463078 8.7628369,0.78610733 8.6212012,0.75406297 C8.5587804,0.73990049 8.4981431,0.7328908 8.4392892,0.7328908 Z M6.5450284,12.24 C6.52144884,12.24 6.49772727,12.2374695 6.47414771,12.2328302 C6.45085225,12.2280503 6.42798295,12.2213023 6.40610793,12.212305 C6.38437498,12.2033076 6.36321022,12.1920609 6.34318182,12.1791272 C6.32357953,12.1661935 6.30468749,12.1510104 6.28792611,12.1345621 C6.2713068,12.1179732 6.25596589,12.0992756 6.24289771,12.079875 C6.22982953,12.0600527 6.21846589,12.0391057 6.20937498,12.0175964 C6.20028407,11.9959465 6.19346589,11.9733125 6.18863636,11.9502567 C6.18394884,11.9269198 6.18181818,11.9034423 6.18181818,11.8796837 C6.18181818,11.7850708 6.22031247,11.6921449 6.28792611,11.625227 C6.30468749,11.6086381 6.32357953,11.5940174 6.34318182,11.5806619 C6.36321022,11.5677282 6.38437498,11.5564815 6.40610793,11.5474841 C6.42798295,11.5384868 6.45085225,11.5317387 6.47414771,11.5269589 C6.52102269,11.5176804 6.56946022,11.5176804 6.6163352,11.5269589 C6.63963065,11.5317387 6.6625,11.5384868 6.68437498,11.5474841 C6.70610793,11.5564815 6.72727273,11.5677282 6.74730113,11.5806619 C6.76690338,11.5940174 6.78579542,11.6086381 6.8025568,11.625227 C6.87017044,11.6925666 6.90909091,11.7850708 6.90909091,11.8796837 C6.90909091,11.9034423 6.90653407,11.9269198 6.90184658,11.9502567 C6.89701702,11.9733125 6.89019884,11.9959465 6.88110793,12.0175964 C6.87201702,12.0391057 6.86065338,12.0600527 6.8475852,12.079875 C6.83409091,12.0992756 6.81917611,12.1175515 6.8025568,12.1345621 C6.78579542,12.1510104 6.76690338,12.1661935 6.74730113,12.1791272 C6.72727273,12.1920609 6.70610793,12.2033076 6.68437498,12.212305 C6.6625,12.2213023 6.63963065,12.2280503 6.6163352,12.2328302 C6.59275567,12.2374695 6.56903407,12.24 6.5450284,12.24 Z M19.9993575,16.3336416 C20.0117171,16.7754439 19.8453966,17.1930421 19.5310661,17.5093409 C19.2165829,17.8257891 18.7951358,18 18.3442393,18 L8.1832754,17.9974601 C6.0557459,17.9974601 4.6676561,16.7661806 4.27489548,14.5304244 C4.13649847,13.7431885 4.02602502,13.3899857 3.96712621,13.2410249 L3.39843204,13.2410249 L3.39843204,14.1645218 C3.39843204,14.3756368 3.22356662,14.5470089 3.00780767,14.5470089 L0.39062437,14.5470089 C0.17486542,14.5470089 0,14.3756368 0,14.1645218 L0,8.063854 C0,7.8525897 0.17486542,7.681367 0.39062437,7.681367 L3.00780767,7.681367 C3.22356662,7.681367 3.39843204,7.8525897 3.39843204,8.063854 L3.39843204,8.4260214 C4.52697027,8.3360772 6.39952585,8.296932 7.67851548,8.8410796 L7.67851548,8.1076309 C7.67851548,7.9858626 7.73771953,7.8714153 7.83781702,7.7994001 L8.4634263,7.3492308 L8.4634263,5.1309556 C8.4634263,4.91969127 8.6384444,4.74846859 8.8540507,4.74846859 L10.332625,4.74846859 C10.5482313,4.74846859 10.7232494,4.91969127 10.7232494,5.1309556 L10.7232494,5.72395987 L13.0723362,4.03429363 C13.2098176,3.93523546 13.3971953,3.93523546 13.5348294,4.03429363 L18.7691959,7.7994001 C18.869446,7.8714153 18.9284974,7.9858626 18.9284974,8.1076309 L18.9284974,10.0167789 C18.9284974,10.1609586 18.8457949,10.2928867 18.714417,10.3580291 C18.6585699,10.3856697 18.5981452,10.3992659 18.5380257,10.3992659 C18.4562387,10.3992659 18.375062,10.3741652 18.3067028,10.3250097 L18.204469,10.2515005 L18.204469,14.7576755 L18.3178417,14.7576755 C19.2207028,14.7576755 19.9749435,15.4646789 19.9993575,16.3336416 Z M17.4233729,14.7576755 L17.4232203,9.6894238 L13.3032013,6.72604596 L9.0177773,9.7995382 L11.4373596,11.8649681 L11.4373596,10.9177151 C11.4373596,10.7064508 11.612225,10.5352281 11.8279839,10.5352281 L14.7791816,10.5352281 C14.9947879,10.5352281 15.1698059,10.7064508 15.1698059,10.9177151 L15.1698059,14.7576755 L17.4233729,14.7576755 Z M14.3418654,14.7576755 L14.3885572,14.7576755 L14.3885572,11.3003516 L12.2186083,11.3003516 L12.2186083,12.5317804 L13.769204,13.8555441 C14.069649,14.0934032 14.262825,14.4140349 14.3418654,14.7576755 Z M9.2448277,5.51344261 L9.2448277,6.78730363 L9.9420006,6.28588706 L9.9420006,5.51344261 L9.2448277,5.51344261 Z M8.4597642,8.3012649 L8.4597642,9.2515061 L13.0726413,5.94314286 C13.1414584,5.89383788 13.2224824,5.86918541 13.3035064,5.86918541 C13.3848357,5.86918541 13.4660123,5.89383788 13.5348294,5.94344166 L18.1472487,9.2612177 L18.1472487,8.3012649 L13.3035064,4.81719673 L8.4597642,8.3012649 Z M2.6171833,13.7820348 L2.6171833,8.446341 L0.78124875,8.446341 L0.78124875,13.7820348 L2.6171833,13.7820348 Z M18.9710694,16.9759508 C19.1370847,16.8087621 19.2248226,16.5882345 19.2182614,16.3545588 C19.205444,15.8957238 18.8015445,15.5225001 18.3178417,15.5225001 L14.3305739,15.5225001 C14.2739639,15.7376491 14.1711198,15.9445806 14.0205158,16.1288018 C13.7441796,16.4669144 13.3498931,16.6795233 12.9102881,16.7271848 C12.8481849,16.7339083 12.7862343,16.7373446 12.7245889,16.7373446 C12.3502915,16.7373446 11.9897268,16.6139328 11.693249,16.3816018 L7.22777159,12.8355289 C7.06023038,12.7024055 7.03459565,12.4615582 7.17055122,12.2975071 C7.30650682,12.1334561 7.5524781,12.1083554 7.72001932,12.2413293 L12.1833605,15.7859082 C12.3638717,15.9272491 12.5918377,15.9920926 12.8242287,15.9669919 C13.0564671,15.9417418 13.2645966,15.8293862 13.410623,15.6508425 C13.711831,15.2822505 13.650796,14.7424358 13.2742096,14.4473531 C13.2699372,14.4440661 13.2658173,14.4406297 13.2616974,14.4370438 L7.92692821,9.8832073 C7.92463938,9.881265 7.92235056,9.8791733 7.92021431,9.8772309 C6.95708109,9.0152905 4.5289539,9.1004536 3.39843204,9.1938342 L3.39843204,12.4760509 L4.15282536,12.4760509 C4.54955324,12.4760509 4.691002,12.9263695 4.76699062,13.1682627 C4.85915356,13.4615526 4.9525372,13.8763119 5.04470014,14.4007375 C5.27175056,15.6925276 6.00050915,17.232486 8.1832754,17.232486 L18.3443919,17.235026 C18.5824287,17.235026 18.805054,17.14299 18.9710694,16.9759508 Z" id="path-1"></path>
            </g>
        </g>
    </g>
</svg>