<?xml version="1.0" encoding="utf-8"?>
<!-- Generator: Adobe Illustrator 22.1.0, SVG Export Plug-In . SVG Version: 6.00 Build 0)  -->
<svg version="1.1" id="Ebene_1" xmlns="http://www.w3.org/2000/svg" xmlns:xlink="http://www.w3.org/1999/xlink" x="0px" y="0px"
	 viewBox="0 0 379 450" style="enable-background:new 0 0 379 450;" xml:space="preserve">
<style type="text/css">
	.st0{fill:currentColor;}
</style>
<title>Iconpart 1 Copy</title>
<desc>Created with Sketch.</desc>
<g id="A_1.4_Startpage">
	<path id="Iconpart-1-Copy" class="st0" d="M140.9,450c-8.3,0-16.6-2.1-24.3-6.6C30.7,393.8-13.4,297.1,4.2,197.1
		C21.8,97.1,96.3,21.2,193.9,3.8C249-6,306,4,354.4,32.1c23.3,13.5,31.2,43.3,17.8,66.6c-13.5,23.3-43.3,31.2-66.5,17.8
		C277.1,99.9,243.5,94,211,99.7C141.9,112,108.4,166.8,100.1,214c-8.3,47.1,4.5,110,65.2,145.2c23.3,13.5,31.2,43.3,17.8,66.5
		C174.1,441.3,157.7,450,140.9,450"/>
</g>
</svg>
