<?xml version="1.0" encoding="utf-8"?>
<!-- Generator: Adobe Illustrator 22.1.0, SVG Export Plug-In . SVG Version: 6.00 Build 0)  -->
<svg version="1.1" xmlns="http://www.w3.org/2000/svg" xmlns:xlink="http://www.w3.org/1999/xlink" x="0px" y="0px"
	 viewBox="0 0 816.1 819.1" style="enable-background:new 0 0 816.1 819.1;" xml:space="preserve">
<style type="text/css">
	.st0{fill:#013C47;}
	.st1{fill:none;stroke:#FFFFFF;stroke-width:3;stroke-linecap:round;stroke-linejoin:round;}
	.st2{fill:#FFFFFF;}
	.st3{fill:#013C47;stroke:#FFFFFF;stroke-width:3;stroke-linecap:round;stroke-linejoin:round;}
</style>
<g id="Ebene_1" xmlns:vectornator="http://vectornator.io">
	
		<rect x="-3.1" y="-2.1" transform="matrix(1 4.730453e-03 -4.730453e-03 1 1.9533 -1.9287)" class="st0" width="823.5" height="828.1"/>
	<path class="st1" d="M219,81.4c-3.6,10.8-12.6,19.1-16.6,29.9c-3.2,8.5-5.6,17.5-10.2,25.5c-4.5,7.8-10.6,14.9-14.3,23
		c-5.8,12.8-10.5,26.1-16.3,38.8c-3.9,8.4-11.6,29.5-17.9,35.7c-0.6,0.6-1.5,1.5-1,2.6c2.8,5.6,17.4,6.2,22.5,7.7
		c23.8,7,49,5.7,73,12.8c18.3,5.4,37.5,8.7,55.6,14.3c3.7,1.1,23.8,11.1,26.5,9.7c3.7-1.9,15.6-32.8,18.4-37.8
		c14.1-25.4,33.7-54.4,43.4-81.7c1.4-3.8,20.2-47.8,21.4-49c2.4-2.4,12,14.2,15.8,19.9c8.3,12.5,13.3,26.1,20.9,38.8
		c6.7,11.2,13,21.9,18.9,33.7c1.1,2.2,11.4,29.4,16.3,24.5c5.8-5.8-21.6-48.7-25-57.2c-5.1-12.7-13.2-25.6-20.9-37.3
		c-4.3-6.5-10.5-11.5-14.3-18.4c-2-3.7-12.2-29.1-13.3-30.1c-1.5-1.5-25.2-3.4-28.1-3.6c-16.4-0.9-32.5-4.4-49-5.1
		c-8.8-0.4-17.3,0-26-1c-5.6-0.6-11.2-1.2-16.8-1.5c-6.7-0.4-56.1-4.1-62.3-1C217.2,75.8,219.5,79.8,219,81.4z"/>
	<path class="st1" d="M217.2,73c-2.2,12.9-14.7,31.9,9.7,27.1c8.1-1.6,13.6-10.4,16.3-17.4c1.2-3,1.9-6.2,3.1-9.2
		c0.1-0.2,0.5-0.7,0.5-0.5c0.6,3.9-1.4,27.9,1.5,28.6c11,2.5,20.1-2.1,25.5-11.7c1.9-3.4,2.7-6.7,4.1-10.2c2.2-5.4,0.3,1.2,1-4.1
		c0.1-0.9,1-3.5,1-2.6c0,12-5.2,29,10.7,30.1c2.2,0.2,8.7,1,10.7,0c4.6-2.3,8-11.8,9.7-16.3c0.9-2.3,2-6.7,2-6.6
		c5.5,5.5-5,32.7,16.8,34.7c10.2,0.9,13.3-11.3,16.8-18.9c1.4-3,2.1-6.2,3.6-9.2c0.1-0.3,1.4-4.1,1.5-3.6c1.8,8.9-5,31.4,8.2,34.7
		c13.5,3.4,19.4-11.6,22.5-22.5c1.1-3.7,3.1-11.2,3.1-11.2s0,2,0,3.1c0,4.4,0.2,8.9-0.5,13.3c-1,6.2-7.5,24.5,3.1,23.5
		c11.8-1.2,14-23.9,14.8-33.2c0.2-2.7-0.3-2.6,1-2.6"/>
	<path class="st1" d="M199.9,117.4c7.3,6.3,14.9,4.9,20.4-4.6c1.5-2.5,3.6-7.2,4.1-10.2c0.1-0.8,0-2.6,0-2.6s0,2.7,0,4.1
		c0,7.2-4.3,25.8,6.1,26.5c12.8,0.9,16.9-4.4,19.9-16.3c0-0.1,1.9-11.7,1.5-11.7c-1,0-0.4,2-0.5,3.1c-0.4,3.5-3.7,24.5,0,25.5
		c8.3,2.3,20.6,2.1,25.5-5.6c4.3-6.7,4.9-13.9,6.1-21.4c0.2-1.4,1-4.1,1-4.1s0,2,0,3.1c0,5.6,0.3,10.8,1.5,16.3
		c2.4,10.7,9.8,15.4,20.4,16.3c8.9,0.7,12.6-3.4,17.4-10.2c1.8-2.6,2.8-5.2,4.1-8.2c0.3-0.7,0.8-2.8,1-2
		c3.4,10.1-4.7,26.5,12.2,26.5c2.9,0,4.8,0.6,7.1-1.5c17.1-15.7-1.4-17.9,8.7-17.9c1.7,0-0.1,3.4,0,5.1c0.4,5.3,1.5,11.6,4.1,16.3
		c1.9,3.4,5.1,4.3,8.7,4.6c14.5,1.2,15.3-15.8,23.5-24"/>
	<path class="st1" d="M201.9,115.8c0,7.9-3.3,14.4-4.1,22.5c-1.1,11.2,8,20.3,19.9,16.3c6.3-2.1,11.6-11.4,13.3-17.4
		c0.6-2,0.7-4.1,1-6.1c0.1-0.7-0.5-2.5,0-2c5.7,5.7-0.2,25,18.4,21.9c7.9-1.3,9.9-13.6,11.7-19.9c0.2-0.7,0.3-2,1-2
		c0.2,0-0.5,2.6-0.5,10.2c0,8.9-2.6,21.4,8.2,25c18.4,6.1,22.4-18.3,29.6-29.1c0.4-0.6,2.2,9.3,2.6,10.7c2.3,9.9,5.9,14.7,16.3,15.3
		c5.6,0.4,13.1,1.6,16.8-3.6c1.8-2.4,3-6.4,4.1-9.2c0.8-2,1-5.2,1-5.1c-1.7,6.6-3.8,27.1,4.6,29.6c18.7,5.6,20.6-25,31.1-25"/>
	<path class="st1" d="M373.4,145.4c0,10.1-7,23.4,3.1,30.1"/>
	<path class="st1" d="M178.4,155.1c6.9,7.7,14.9,11.2,26,8.7c4.6-1,7.8-5.6,9.2-9.7c0.2-0.7,1.1-1.7,0.5-2c-2.8-1.4-2.6,6-2.6,9.2
		c0,11.1-0.7,17.3,11.7,16.3c8.5-0.7,14.7-10.3,18.9-16.8c2.1-3.2,5.4-6.5,6.6-10.2c0.1-0.2,0-0.7,0-0.5c0,10.5-9.6,33.2,7.1,33.2
		c3.1,0,8.9,1,11.7-0.5c4.2-2.2,6.4-7.7,8.2-11.7c0.3-0.6,0.3-4.1,1-4.1c2.8,0-2.7,23.8,7.7,26.5c13.3,3.5,17.8-4.6,21.4-15.8
		c1.8-5.7,3.8-10.2,6.6-15.3c0-0.1,1.7-4.9,2.6-4.1c3.2,3.2-3,28.9,4.1,37.8c7.9,9.9,21.4-1.7,28.1-7.1c2.2-1.8,3.1-3.2,4.1-5.6
		c0.2-0.4,1-3.7,1-3.6c2.2,13.3-7.1,27.6,11.2,27.6"/>
	<path class="st1" d="M173.8,181.7c7.4,5.3,12.4,3.6,19.4-3.1c0.8-0.8,3.7-13.3,3.1-13.3c-1.5,0-1.3,2.6-1.5,4.1
		c-0.6,3.6-2.2,25.5,0,26.5c7.3,3.6,15.7-4.8,19.9-9.7c2.3-2.6,5.5-6.8,6.6-10.2c0.1-0.2,0-0.7,0-0.5c0,12.9-5.2,29.1,11.2,30.1
		c2.4,0.1,4.9,0.9,7.1,0c8.7-3.6,5.7-16.4,11.2-21.9c0.4-0.4,0.5,8,0.5,14.8c0,11.2,4.6,20.1,16.8,20.9c9.1,0.6,11.9-3.9,14.8-12.2
		c0.3-0.7,4.5-12.4,5.6-11.2c0.4,0.4-3.9,22.2-0.5,26c10.8,12.2,24.8-7,29.1-14.8c2-3.6,6.1-10.7,6.1-10.7s0,2,0,3.1
		c0,5.4-0.8,11.5,0,16.8c1.4,9.7,12,12.8,20.4,12.8"/>
	<path class="st1" d="M344.8,230.2c-6.1,7.1-14.1,19.6-24,21.4c-16.8,3.1-14.1-14.9-18.9-24.5c-1.6-3.2-8.6,6.6-9.2,7.1
		c-5,4.5-22.9,14.8-29.6,8.2c-5.9-5.9-1.2-22.7-3.6-25c-1-1-7.8,7.8-8.7,8.7c-5.1,5.1-14.1,8.2-21.4,6.1c-9.2-2.6-2.6-28.6-2.6-28.6
		s-0.9,2.4-1.5,3.6c-3.8,6.9-11.1,17.1-20.9,12.2c-6.7-3.3-7.1-15.1-7.1-21.4c0-0.5,0-1.5,0-1.5s-0.2,1.8-0.5,2.5
		c-3.3,7.2-10.9,22.4-21.9,16.8c-6.8-3.4-7.1-30.5-4.6-36.7"/>
	<path class="st1" d="M159.5,231.7c5-1.9,6.4-4.1,8.7-9.2c3.6-8,4.1-7,4.1-11.7c0-0.2,0-0.7,0-0.5c0,10.6-7,32.7,11.2,29.1
		c7.2-1.4,12.3-10.8,15.3-16.8c1.2-2.3,2.2-5.6,2.6-8.2c0.1-0.7,0-2.7,0-2c0,4.9-2.9,37.8,1,39.3c6.1,2.3,20.3,1.3,23.5-4.6
		c1.8-3.3,3.7-7.2,5.1-10.7c5.8-15.2-2,2.9,2-5.1c0.2-0.5,0.5-2.1,0.5-1.5c0,3.8-5,26.6-2,28.6c6.7,4.5,19.7-2.4,25-6.1
		c3.6-2.5,8-8.3,8.2-8.2c4.2,4.2-2.4,22.2,24.5,18.9c4.8-0.6,8.9-9.7,11.7-13.3c1.3-1.7,2.8-3.4,4.1-5.1c0.4-0.5,0.7-2.1,1-1.5
		c6.8,13.7-13.5,35.2,14.3,35.2"/>
	<path class="st1" d="M154.9,237.3c0,20.1,0.5,40.2,0.5,60.2c0,1.6-1.9,17,0,18.9c10.4,10.4,27.4,18.5,40.8,24.5
		c9,4,18.1,8.7,27.6,11.2c14,3.7,26.1,10.8,40.3,13.8c15.6,3.3,31.3,13.6,44.9,21.4c1.1,0.6,12.5,6.6,13.8,4.1
		c4.4-8.8-4.8-34.7-6.6-43.9c-2.9-14.6-3.6-30.1-5.1-44.9c-0.4-4.5,0.7-9.3,0-13.8c-1.2-7.3-3.6-13.1-3.6-20.9"/>
	<path class="st1" d="M323.4,380.2c12.3-9.8,29.7-12.6,43.9-19.4c19.8-9.5,41.3-19.8,59.7-31.6c5.9-3.8,10.9-9.2,16.8-12.8
		c5.9-3.5,16.7-6,21.4-10.7c0.6-0.6,0-21.6,0-23.5c0-11.9-0.4-23.9,0.5-35.7c0.7-9.1,3.1-17.4,3.1-26.5"/>
	<path class="st1" d="M394.9,203.8c0,6.2-0.1,12.5,0.4,18.7c0.1,1.1,0,22.9,0.2,23.1c1.8,1.8,10.5-0.7,12.3-1.3
		c10.2-3.6,12.1-2,10.8-11.9c-0.9-6.9-0.4-14.2-0.4-21.1c0-4.4,0.4-8.8,0.4-13.2c0-0.1,0.1-1.1,0-1.1c-5.3-2.7-15.6,4.1-20.4,5.9
		c-1.7,0.7-6.8,1.9-6.8,4"/>
	<path class="st1" d="M405.7,199.4c0,15.2,1.8,30.6,1.8,45.7"/>
	<path class="st1" d="M397.1,224.9c6.8,0,13.2-5.3,19.8-5.3"/>
	<path class="st1" d="M421,197.6c3.6-0.3,6.1-2,9.5-3.5c1-0.4,2.7-2.4,3.1-1.3c1.5,4.6,2,24.2,2,30.3c0,0.6,0.5,9.2,0.2,9.2
		c-2.1,0.5-18.5,7-18.5,8.8"/>
	<path class="st1" d="M392.7,204.2c-3.6,0.4-6.9,2-10.1,3.3c-7,2.8-7.6,1.9-8.4,9.9c-0.6,5.8-1.1,11.5-1.1,17.4
		c0,2.2-2.8,14.1,0.2,15.6c6.6,3.3,16-3.3,22-5.3"/>
	<path class="st1" d="M355,303.2c3.8,4.5,2.1,25.5,2.1,33.1c0,3.2-1.9,10.3,3.3,9c4-1,7.7-4.3,11.2-6.4
		c19.9-11.6,16.5-11.2,16.5-34.3c0-5.1,0.4-10.2,0.4-15.4c0-0.1,0.1-1.7,0-1.8c-3.9-1.3-19.1,8.1-23.5,10.1
		C362.8,298.7,354,302,355,303.2z"/>
	<path class="st1" d="M369.6,295.4c0,10.6,1,21.3,1.8,31.9c0.1,0.9,0.1,9.2,0.4,9.2"/>
	<path class="st1" d="M359.1,323.1c6.2-4.4,13.9-7.7,20.9-10.5c0.5-0.2,7.5-2.2,7.5-2.6"/>
	<path class="st1" d="M390.5,287.8c2.6-0.4,4.6-2.3,7-3.1c0.8-0.3,2.3-2,2.4-1.1c1.5,9.1,0.4,19.4,0.4,28.6c0,1.2,1,8.3,0,9.2
		c-2.4,2.4-12.9,4.8-14.5,7.9"/>
	<path class="st1" d="M356.9,299.6c-2.8,3.5-17.5,9.2-19.1,12.5c-1.6,3.2,0.3,14.8,0.4,18.5c0.5,15.6-5.5,23.1,13.2,18.7
		c2.9-0.7,5.3-1.3,7.3-3.3"/>
	<path class="st1" d="M434.5,271.7c0,9.9-2,37.1,0,47.3c0.3,1.4,1.1,2.7,1.1,4.2"/>
	<path class="st1" d="M435.8,270.8c4-2,12.8-10.4,13.8-9.9c0.5,0.2,1,13.1,1.1,14.7c0.8,11.8,1.1,24,1.1,35.8"/>
	<path class="st1" d="M431.2,271.9c-19,4.2-13.8,9.8-13.8,27.7c0,11.1,0,22.1,0,33.2"/>
	<path class="st1" d="M450.5,263.4c5.7,0,9.9-5.3,14.7-5.3"/>
	<path class="st1" d="M252,310.9c-1.8,6.7,1.3,14.1,2,21c1.4,13.8-5.3,15.9,10.9,20.3c2.6,0.7,5.1,2,7.5,3.2c0.1,0.1,3.2,2.2,3.2,2
		c0.5-10.8-1.9-22-2.4-32.8c-0.1-1.5,0.7-8.8-0.6-9.9c-2.5-2-9.8-1.9-12.9-2.5C257.5,311.8,252.6,308.6,252,310.9z"/>
	<path class="st1" d="M274.5,315.1c13.5,12.3,22.8,2.7,21.5,22.7c-0.2,3.2,0,6.4,0.2,9.6c0,0.6,1.1,14-0.3,14.7
		c-2.8,1.3-21.8-2.4-22.1-5.3"/>
	<path class="st1" d="M251.7,308.8c-14.7-5-15-7.8-14,4.2c0,0.1,0.6,9.2,0.6,9.4c0.1,2.4,0,4.9,0,7.3c0,5.4,0,0.8-0.2,5.4
		c-0.3,10.9,1,5.6,9.9,11.5c2.4,1.6,4.8,4.2,7.9,3.9"/>
	<path class="st1" d="M176.9,272.8c-1.8-0.1-0.2,3.4-0.1,5.2c0.1,3.7,0.1,7.5,0.2,11.2c0.1,5.4,0.6,10.9,0.9,16.3c0,0.2,0,5.9,0.4,6
		c1.3,0.3,2.1,0.3,3.5,0.9c4.8,2.1,8.8,5.3,13.7,7.2c0,0,4.3,2,4.4,1.3c1-4.4-0.5-9.9-0.9-14.4c-0.3-2.8-0.6-5.7-0.8-8.5
		c-0.2-1.6-1.6-16.2-1.6-16.3c-3.4-2.8-8.7-2.3-12.6-4.3C181.4,276.3,179.8,273,176.9,272.8z"/>
	<path class="st1" d="M196.9,281.7c3.6,0.1,6,2.7,8.8,4.7c2.3,1.6,6.1,1.8,8.2,3.5c0.4,0.3,0.8,17.1,0.7,18.3
		c-0.1,5.4-0.7,11.2-0.1,16.6c0,0.4,0.3,1.4,0,1.6c-2.2,1.4-6.7-2.7-8.6-3.6c-2.7-1.3-5.6-1.7-7.7-4.1"/>
	<path class="st1" d="M177,273.5c-2.1-0.9-3.9-1.6-6.1-2.1c-12.3-2.5-9.8-6.6-8.3,8.3c0.2,1.9,0.4,3.9,0.6,5.8
		c1.5,15.5-5.8,14.3,7.3,23.7c2.3,1.6,4.4,3.3,7.3,3.4"/>
	<path class="st1" d="M326.9,389.1c14.6,0,35-16.1,44.8-20.9c20.4-10,43.6-15.7,62.1-29.3c5-3.7,37.5-26.3,38.2-26.3"/>
	<path class="st1" d="M471.4,308.5c3.8-15.1,13.1-20.8,26.3-31c1.2-0.9,2.8-1.1,4.2-1.8c0.8-0.4,3.2-1.5,2.4-1.2
		c-13.2,4.4-19.6,18.3-22.7,31c-2.1,8.9-3,12.5-3,12.5c4.4,0,14.6-11.5,19.1-13.7c0.3-0.2,11.3-2.7,11.3-1.8
		c0,0.2-11.8,3.7-12.5,4.2c-5.6,3.4-10,9.3-13.1,14.9c-2.5,4.4,1,9.2,1.8,13.1c1.3,6.4,0.6,7.2,0,6.6c-3.4-3.4-5.8-5.6-10.1-7.8
		c-1.4-0.7-3.7-3.9-4.2-2.4c-2.2,6.7,3.6,18.5-1.8,24.5c-1.9,2.2-10.3,1.6-12.5,1.2c-15.2-3-10.2-17.2-39.4-3.6
		c-2.5,1.2-4.4,1.8-6,4.2c-0.3,0.5,0.4,4.6,0,4.8c-7,2.3-24.2-8.9-29.2,0c-5.9,10.3,0.2,24.5-6.6,34.6c-0.8,1.2-1.8-2.3-2.4-3.6
		c-2.7-5.8-7.7-14.1-14.3-16.1c-16-4.8-9.2,13.9-11.3,14.9c-5,2.5-22.8-12.7-32.8-7.2c-3,1.7-5.1,21.6-3,22.7
		c8.4,4.2,10.7-17,9.6-20.9c-2.6-9-36-15.9-40.6-11.3c-2.7,2.7,4.7,6.1,7.8,8.4c7.7,5.6,13,11.5,16.7,20.3c2.5,6,4.2,12.6,4.2,19.1
		c0,0.6,0,1.8,0,1.8s5.3-7.9,9.6-9.6c6.9-2.7,12.6,0.6,17.9,0.6c0.6,0,1.4,0.4,1.8,0c17.7-17.7-22.7,17,4.8-6"/>
	<path class="st1" d="M147.9,302c-3.9-13.7-21.2-19.7-34-19.7c-0.6,0-1.6-0.6-1.8,0c-3.6,9.7,20.7,19.8,26.3,25.1
		c4.3,4.1,6.5,8,7.8,13.7c0.5,2.3,1.8,9.2,0.6,7.2c-4-6.6-7.7-13.5-14.3-17.9c-1.1-0.8-16-3.8-15.5-1.8
		c2.7,10.7,18.7,15.7,26.9,22.1c4.8,3.8,9.3,8.4,13.1,13.1c1.2,1.5,1.8,7.3,1.8,5.4c0-3.2,8.8-17.5,11.9-14.3
		c7.7,7.7,2.4,18.6,14.9,29.8"/>
	<g>
		<g>
			<g>
				<path class="st2" d="M438.8,364.8c10,8.8,12,25.3,13.3,37.9c1.3,13.4,0.6,26.9-1.8,40.1c-4.8,26.5-16.1,51.6-31.2,73.8
					c-31.4,46-78,78.9-122.5,111.1c-29.1,21-58.1,41.9-87.2,62.9c-1.8,1.3-0.1,4.3,1.8,3c27.2-19.6,54.3-39.2,81.5-58.8
					c23.6-17,47.4-33.9,69.7-52.6c42.6-35.8,80.2-80.8,91-136.8c2.8-14.5,3.7-29.5,2-44.2c-1.5-13-3.7-29.6-14.1-38.7
					C439.6,360.8,437.1,363.3,438.8,364.8L438.8,364.8z"/>
			</g>
		</g>
		<g>
			<g>
				<path class="st2" d="M601.8,712.4c-0.2,7.5-0.4,15-0.8,22.5c-0.2,3.6-0.4,7.2-0.7,10.7c-0.1,2-0.3,3.9-0.4,5.9
					c-0.1,0.7-0.1,1.3-0.2,2c-0.8,1.6-0.5,2.7,0.8,3.6c0.6-2.2-2.8-3.1-3.4-0.9c-0.6,2,0.8,4,3,3.7c3.2-0.5,3-5,3.1-7.3
					c1.1-13.3,1.7-26.7,2-40.1C605.4,710.1,601.9,710.1,601.8,712.4L601.8,712.4z"/>
			</g>
		</g>
		<g>
			<g>
				<path class="st2" d="M470.6,334.5c43,17.9,65.9,64,84.5,103.9c1,2,4,0.3,3-1.8c-19.1-40.9-42.6-87.2-86.6-105.5
					C469.4,330.3,468.5,333.6,470.6,334.5L470.6,334.5z"/>
			</g>
		</g>
		<g>
			<g>
				<path class="st2" d="M458.7,357.4c4.6,8.6,9.3,17.2,13.8,25.9c4.7,9,5.1,17.6,4.5,27.6c-0.1,1.2,1.2,1.9,2.2,1.7
					c3.6-0.8,8.7-1,12-2.7c2.8-1.5,3.2-4.4,3.8-7.3c1.7-7.7,2.2-16-0.7-23.5c-5.3-13.6-19.9-20.6-25.5-34c-0.5-1.1-2-1-2.7-0.4
					c-3.3,3.2-6.6,6.3-9.9,9.4c-1.6,1.6,0.8,4,2.5,2.5c3.3-3.1,6.6-6.3,9.9-9.4c-0.9-0.1-1.8-0.2-2.7-0.4
					c4.6,11,14.9,17.4,21.6,26.8c4.4,6.1,6,13,5.4,20.5c-0.2,3.3-0.5,9.6-3.1,11.9c-2.5,2.2-8.1,2.5-11.3,3.2
					c0.7,0.6,1.5,1.1,2.2,1.7c0.5-9.2,0.5-17.9-3.5-26.3c-4.6-9.8-10.2-19.3-15.3-28.9C460.6,353.7,457.6,355.4,458.7,357.4
					L458.7,357.4z"/>
			</g>
		</g>
		<g>
			<g>
				<path class="st2" d="M493.3,438c5.8,28.8-5.5,57.1-19.6,81.8c-0.7,1.2,0.2,2.6,1.5,2.6c11.1,0.3,22.3,0.7,33.4,1
					c0.6,0,1.2-0.3,1.5-0.9c8.4-13.9,10.7-30.1,9.7-46.1c-0.5-8.3-1.8-16.5-3.2-24.7c-1.6-9-3-18.1-5.9-26.8c-0.4-1.2-2-1.8-2.9-0.8
					c-4.2,4.4-9.2,7.5-14.9,9.5c-2.1,0.7-1.2,4.1,0.9,3.4c6.3-2.2,11.8-5.6,16.5-10.4c-1-0.3-1.9-0.5-2.9-0.8
					c3.3,9.8,4.9,20.3,6.6,30.5c1.8,10.8,3.1,21.8,2.5,32.7c-0.3,5-1,10-2.2,14.8c-1.1,4.5-2.7,11.1-5.8,14.6
					c-2.5,2.8-11.7,1-15.5,0.9c-5.9-0.2-11.8-0.4-17.7-0.5c0.5,0.9,1,1.8,1.5,2.6c14.6-25.5,25.9-54.7,20-84.5
					C496.2,434.9,492.9,435.8,493.3,438L493.3,438z"/>
			</g>
		</g>
		<g>
			<g>
				<path class="st2" d="M471.2,552.6c-5.3,9.6-11.3,18.7-17.5,27.8c-6.3,9.3-12.6,18.8-20.3,27.1c-13.3,14.6-30,25.6-42.5,41
					c-1,1.2-0.4,2.9,1.2,3c19.7,1.1,39.3,3.5,58.7,7.4c4.4,0.9,8.8,1.8,13.2,2.9c3.8,0.9,8.3,2.9,12.2,3c2,0,2.8-0.6,4-2.2
					c2.6-3.7,4.5-8.1,6.6-12c8.8-15.9,18.5-31.6,25.8-48.2c3.2-7.2,5.7-14.8,6.7-22.7c1.1-9.2-1.6-18.3-0.4-27.4
					c0.1-0.7-0.6-1.6-1.3-1.7c-11.3-1.6-22.6-3.3-33.9-4.9c-5.2-0.8-15.3-1.9-14.4,6.4c0.2,2.2,3.7,2.2,3.5,0
					c-0.6-5.8,10.5-2.9,12.9-2.6c3.6,0.5,7.1,1,10.7,1.5c6.8,1,13.6,2,20.3,2.9c-0.4-0.6-0.9-1.1-1.3-1.7
					c-1.1,8.6,1.4,17.1,0.6,25.7c-0.8,8.4-3.6,16.6-7.1,24.2c-7,15.4-16,30-24.2,44.8c-2.1,3.9-4,8.5-6.6,12c-1.6,2.1-0.9,2-3.8,1.6
					c-1.9-0.3-3.8-1-5.6-1.4c-8.7-2.1-17.5-4-26.4-5.6c-16.6-2.9-33.4-4.8-50.2-5.7c0.4,1,0.8,2,1.2,3
					c12.8-15.9,30.2-27.2,43.7-42.4c6.9-7.8,12.7-16.3,18.5-24.9c6.5-9.6,12.9-19.2,18.5-29.3C475.3,552.4,472.3,550.7,471.2,552.6
					L471.2,552.6z"/>
			</g>
		</g>
		<g>
			<g>
				<path class="st2" d="M345,719.6c12.7-8.2,24.5-17.5,35.3-28c-0.7,0.1-1.4,0.2-2.1,0.3c25.8,14,55.5,15.5,84.2,16.5
					c-0.5-0.9-1-1.8-1.5-2.6c-5.1,9.2-10.2,18.5-15.3,27.7c-1.1,2,1.9,3.7,3,1.8c5.1-9.2,10.2-18.5,15.3-27.7
					c0.7-1.2-0.2-2.6-1.5-2.6c-28.1-1.1-57.2-2.4-82.5-16.1c-0.7-0.4-1.5-0.3-2.1,0.3c-10.7,10.3-22.2,19.4-34.6,27.4
					C341.4,717.8,343.1,720.8,345,719.6L345,719.6z"/>
			</g>
		</g>
	</g>
	<g>
		<path class="st3" d="M621,508.9c-0.9,8,0.4,23.4,0.4,31.7c0,25.8-1.6,51.6-1.6,77.3c0,9.5,1,18.7,1,28.2c0,2.1-0.9,8.5,0.5,9.9
			c0.1,0.1,1.8,0,1.8,0c3,0,5.9,1.5,8.6,2.6c11.9,4.7,25.3,7.5,38.2,8.9c13.6,1.5,27.7,2.3,41.3,0c3.2-0.5,10.2-1.5,12.3-4.2
			c0.6-0.8,3.6-2.7,3.9-3.7c3.4-10.3,1.6-24.4,1.6-35.3c0-27,1-54.1,1-81.3c0-3.8,1.4-31.8,0-34.5c-0.7-1.3-3.6-3.6-5.2-4.7
			c-22.4-14.9-47.8-18.3-75-13.3c-8.8,1.6-16.6,5.9-23.8,10.7C619.6,505.8,621.5,505.3,621,508.9z"/>
		<path class="st1" d="M620.1,520.3c4.7,3.1,10.2,7,15.8,8.1c16.7,3.3,43.7,5.8,60.5,4.4c8-0.7,15.7-3.1,23.5-4.4
			c3.8-0.6,6.2-4.4,9.9-5.9"/>
		<path class="st1" d="M622.7,534.3c6.2,6.2,15,11.5,23.5,13.9c24,6.9,49.1-2.9,71.2-10.3c2.3-0.8,4.9,0.2,7-1.1
			c2.8-1.7,5.2-5.4,7.3-8.1"/>
		<path class="st1" d="M620.5,544.9c19.1,15.3,40.6,15,63.5,15c7.9,0,16.3,0.8,23.9-1.1c7.5-1.9,13.8-9.1,21.3-10.6"/>
		<path class="st1" d="M621.6,557c3.2,13,23,12.5,33.4,12.5c20.6,0,43.5,6.1,63.1-3.7c4-2,7.7-4.6,11.7-6.2"/>
		<path class="st1" d="M622,575.7c6.9,2.5,13.7,6.7,20.9,8.1c26.4,4.9,62.4,3.2,84.8-11.7"/>
		<path class="st1" d="M623.4,588.2c26.1,4.3,53,19.4,80.4,13.6c8.4-1.8,18-7.7,25.3-11.4"/>
		<path class="st1" d="M620.1,598.5c26.9,15.4,45.2,9.9,73,12.5c6.3,0.6,15.3,3.6,21.6,1.5c5.9-2,9.8-7.1,15-9.2"/>
		<path class="st1" d="M620.9,612.4c6.2,3.1,13.1,6.5,19.4,8.8c6,2.2,13.8,1.9,20.2,2.6c9.5,1,54.2,2.2,62.7-1.5
			c3.5-1.5,4.8-3.3,7-6.2"/>
		<path class="st1" d="M621.6,624.5c7.7,1.3,15.5,5.2,22.7,7.3c3.9,1.2,8.8,1.1,12.8,1.8c18.8,3.3,35.3,4.6,54.3,1.5
			c8.6-1.4,14.4,0.2,20.9-6.2"/>
		<path class="st1" d="M621.2,633.7c5.1,6.4,17.5,8.3,25,9.9c11.2,2.4,23.1,0.8,34.5,1.5c14,0.8,28.8,2.7,42.6-0.7
			c1.2-0.3,3.4-3.4,4.4-4"/>
		<path class="st1" d="M622.7,642.5c3.4,0,21,8.5,26.8,10.3c12.1,3.8,46.1,6.7,58.7,4.8c3.2-0.5,17.9-5.8,20.5-8.4"/>
		<path class="st1" d="M620.9,504.6c3.5,2.2,7.5,2.2,11,3.9c4,2,8.9,4.1,12.5,6.5c5.2,3.5,36,4.7,43.6,4.7c7.1,0,16.4,1.5,23.3-0.5
			c7.7-2.3,12.6-6.6,19.3-9.9"/>
		<path class="st1" d="M671.9,496.7c0-4.1,7-8.6,10.2-5.5c3.9,3.9-4.4,18.1-2.6,19.9c2.1,2.1,11.2-9.9,19.3-9.9"/>
	</g>
	<g>
		<path class="st3" d="M526.7,460.4c-0.2,3.5,0.7,20.8,0.9,25.5c1.1,22.9,4.3,29.4,4.3,50c0,36.9-1.8,73.9,1.3,110.7
			c1.2,14.3-3.3,39.3,3,51.8c0.5,0.9,7.3,2.3,9.4,3.3c13.1,6.5,26.7,8.5,41.3,8.5c9.6,0,22.5,0.4,31.5-3.7
			c6.4-2.9,14.6-5.8,18.9-11.8c1.8-2.5,0.4-9.5,0.4-12.4c0-11.2,0-23.4,0.7-35c1.1-17.9-1.2-36.1,0.2-54c2-25.4,1.1-51.3,1.1-76.8
			c0-14.7-0.9-29.3-0.9-43.9c0-4.7,1.7-15.8-2.2-19.8c-9.3-9.3-21.4-15.6-35.2-16.8c-14.2-1.3-26.7,0.7-40.3,2.8
			c-8.7,1.3-34.2,12.1-34.2,22.6"/>
		<path class="st1" d="M533.5,679.6c22.5,22.5,86.6,26.6,103.5,1.7"/>
		<path class="st1" d="M528.3,468.7c1.1,6.8,21.4,8.5,28.8,9.1c20.2,1.6,44.9,6.3,65.4-1.9c5.7-2.3,9-7.7,14.9-10.1"/>
		<path class="st1" d="M526.8,477.9c7.5,1.9,14.1,7.1,21.6,8.7c26.1,5.2,54.6,3.6,79.8-4.8c3.1-1,5.4-4.6,8.6-6.2"/>
		<path class="st1" d="M531.9,486.6c13.8,13.8,69.2,19.8,88.9,13.9c5.6-1.7,10.9-4.1,14.4-7.7c2.5-2.5-3.1-7.2,1.9-7.2"/>
		<path class="st1" d="M533.3,499.1c22.7,19.5,64.4,21.8,92.3,12.5c5-1.7,8-5,11.5-6.7"/>
		<path class="st1" d="M535.7,514.9c5.4,8.7,17.7,6.2,26.9,7.7c4.3,0.7,63.2,3.6,67.3,0.5c3.9-2.9,2.3-1.1,7.1-4.3"/>
		<path class="st1" d="M532.4,525c22.8,16.3,54.9,13.5,81.2,10.6c6.5-0.7,15-1,20.7-3.8c2.1-1,0.8-0.2,3.3-1.8"/>
		<path class="st1" d="M532.4,539.4c20.8,18.2,84.8,21.4,105.3,1"/>
		<path class="st1" d="M532.4,552.4c12.8,9.1,69.1,14.1,87.5,11.1c8.8-1.5,9.1-5.4,17.1-7.4"/>
		<path class="st1" d="M534.3,563.9c6,8.9,18.6,8.4,28.4,10.6c13.4,3,57.3,6.5,69.7,2.4c4.3-1.4,1.3,0.3,5.2-2.3"/>
		<path class="st1" d="M532.8,575c24.8,18.6,81.6,26.5,104.3,3.8"/>
		<path class="st1" d="M533.8,586.1c20.3,10.1,68.1,23.8,91.8,14.9c5-1.9,8.7-5.8,12-9.1"/>
		<path class="st1" d="M533.3,598.1c14.3,10.2,74.1,26.7,93.7,21.1c4.7-1.4,7.7-5.8,11.1-9.1"/>
		<path class="st1" d="M534.3,611.5c13,4.3,25.4,11,38.4,14.9c15.7,4.6,47.2,4,62-3.4c3-1.5-1.1,0.4,2-1.1"/>
		<path class="st1" d="M535.2,622.1c8.7,6.2,23.1,10.1,32.2,13.5c7,2.5,53.4,7.7,60.1,4.8c4.2-1.8,6.4-4.9,9.1-7.7"/>
		<path class="st1" d="M531.9,634.6c6.9,5.6,11.6,7.7,20.7,11.1c8.7,3.3,53.4,8.8,64.4,7.7c7.9-0.8,13.9-5.8,20.7-9.1"/>
		<path class="st1" d="M534.8,647.9c4.9,7.8,13.7,9.3,21.8,11.7c14.6,4.3,58.8,5.2,73.3,1.1c2.3-0.7,4.5-2.4,6.7-3.5"/>
		<path class="st1" d="M533.7,659.9c4.9,3.3,9,7.4,14.4,10.1c17,8.5,43,7.5,61.5,5.3c8.3-1,18.3-0.8,23.7-8"/>
		<path class="st1" d="M578.7,451.8c1.9-0.5,3.5-1.3,5.3-1.9c16.2-4.5-4.2,1.4,4.8-1.3c14.6-4.4-2.7,10.4-2.7,15.7"/>
	</g>
</g>
<g id="Ebene_2">
</g>
</svg>
