<?xml version="1.0" encoding="UTF-8"?>
<svg width="408px" height="393px" viewBox="0 0 408 393" version="1.1" xmlns="http://www.w3.org/2000/svg" xmlns:xlink="http://www.w3.org/1999/xlink">
    <!-- Generator: Sketch 52.4 (67378) - http://www.bohemiancoding.com/sketch -->
    <title>Iconpart 1</title>
    <desc>Created with Sketch.</desc>
    <g id="A_1.2_Startpage" stroke="none" stroke-width="1" fill="none" fill-rule="evenodd" opacity="0.503929501">
        <g id="A_1.0.0.0_Startpage" transform="translate(0.000000, -2062.000000)" fill="#006E77">
            <path d="M138.501103,2489.00516 C130.234392,2488.99994 121.863303,2486.88592 114.196764,2482.44386 C28.3513559,2432.78258 -15.7638631,2336.08038 1.82377301,2236.09491 C19.416628,2136.08857 93.8953089,2060.22384 191.561487,2042.82622 C246.59461,2033.01297 303.595251,2043.05589 352.052581,2071.08627 C375.334018,2084.5586 383.287596,2114.35328 369.828097,2137.63885 C356.358159,2160.9192 326.558337,2168.86898 303.287337,2155.4123 C274.713952,2138.88117 241.114783,2132.96712 208.637673,2138.73501 C139.524004,2151.04332 106.03965,2205.81479 97.7468446,2252.97056 C89.4592582,2300.10545 102.235084,2362.9885 162.962008,2398.13348 C186.238227,2411.59537 194.197023,2441.39527 180.727086,2464.67562 C171.703637,2480.2933 155.321563,2489.0156 138.501103,2489.00516" id="Iconpart-1" transform="translate(187.190021, 2264.082642) rotate(-85.000000) translate(-187.190021, -2264.082642) "></path>
        </g>
    </g>
</svg>