<?xml version="1.0" encoding="UTF-8"?>
<svg width="279px" height="405px" viewBox="0 0 279 405" version="1.1" xmlns="http://www.w3.org/2000/svg" xmlns:xlink="http://www.w3.org/1999/xlink">
    <!-- Generator: Sketch 52.4 (67378) - http://www.bohemiancoding.com/sketch -->
    <title>Iconpart 2</title>
    <desc>Created with Sketch.</desc>
    <g id="A_1.2_Startpage" stroke="none" stroke-width="1" fill="none" fill-rule="evenodd" opacity="0.896693638">
        <g id="A_1.0.0.0_Startpage" transform="translate(0.000000, -1939.000000)" fill="#003C47">
            <path d="M118.388944,2372.87188 C102.042427,2372.86176 86.162229,2364.38683 77.4086056,2349.24724 C64.3618039,2326.66934 72.1219645,2297.81614 94.758723,2284.8054 C153.773452,2250.84499 166.272835,2189.94279 158.289653,2144.27625 C150.301401,2098.57938 117.856732,2045.47452 50.7473092,2033.44983 C19.2352788,2027.81167 -13.4324123,2033.49028 -41.1986826,2049.47938 C-63.8354411,2062.47495 -92.7624408,2054.74335 -105.799105,2032.16544 C-118.845907,2009.59259 -111.075609,1980.73939 -88.4489877,1967.71854 C-41.3507432,1940.6301 14.009462,1930.98709 67.4638407,1940.57448 C162.298984,1957.55469 234.527782,2031.14906 251.477473,2128.0596 C268.417026,2224.94487 225.449762,2318.55848 142.00396,2366.55107 C134.54792,2370.84416 126.417745,2372.87693 118.388944,2372.87188" id="Iconpart-2" transform="translate(71.499007, 2154.916676) rotate(76.000000) translate(-71.499007, -2154.916676) "></path>
        </g>
    </g>
</svg>