<?xml version="1.0" encoding="UTF-8"?>
<svg width="429px" height="458px" viewBox="0 0 429 458" version="1.1" xmlns="http://www.w3.org/2000/svg" xmlns:xlink="http://www.w3.org/1999/xlink">
    <!-- Generator: Sketch 52.4 (67378) - http://www.bohemiancoding.com/sketch -->
    <title>Iconpart 3</title>
    <desc>Created with Sketch.</desc>
    <g id="A_1.2_Startpage" stroke="none" stroke-width="1" fill="none" fill-rule="evenodd" opacity="0.858956473">
        <g id="A_1.0.0.0_Startpage" transform="translate(-1491.000000, -3660.000000)" fill="#006E77">
            <path d="M1743.30542,4114.16576 C1727.17702,4086.19655 1736.7701,4050.4536 1764.75358,4034.33606 C1837.70737,3992.26636 1853.15906,3916.82153 1843.29028,3860.25044 C1833.41523,3803.64176 1793.30725,3737.85618 1710.34683,3722.96015 C1671.39177,3715.97567 1631.00809,3723.01026 1596.68353,3742.81734 C1568.70005,3758.91608 1532.9406,3749.33827 1516.82472,3721.36906 C1500.69631,3693.40612 1510.30193,3657.66316 1538.27287,3641.5331 C1596.49555,3607.97631 1664.93163,3596.03067 1731.01174,3607.90741 C1848.2466,3628.94226 1937.53558,3720.10998 1958.48872,3840.16147 C1979.42934,3960.18164 1926.31336,4076.14894 1823.15796,4135.60152 C1813.94084,4140.91974 1803.89034,4143.43791 1793.96517,4143.43164 C1773.75766,4143.41911 1754.12662,4132.92048 1743.30542,4114.16576 Z" id="Iconpart-3" transform="translate(1736.000000, 3873.431654) rotate(150.000000) translate(-1736.000000, -3873.431654) "></path>
        </g>
    </g>
</svg>