<?xml version="1.0" encoding="UTF-8"?>
<svg width="34px" height="34px" viewBox="0 0 34 34" version="1.1" xmlns="http://www.w3.org/2000/svg" xmlns:xlink="http://www.w3.org/1999/xlink">
    <!-- Generator: Sketch 52.5 (67469) - http://www.bohemiancoding.com/sketch -->
    <title>Icon/email</title>
    <desc>Created with Sketch.</desc>
    <defs>
        <path d="M16.6666667,1.58333333 C7.46666667,1.58333333 0,9.05 0,18.25 C0,27.45 7.46666667,34.9166667 16.6666667,34.9166667 L25,34.9166667 L25,31.5833333 L16.6666667,31.5833333 C9.43333333,31.5833333 3.33333333,25.4833333 3.33333333,18.25 C3.33333333,11.0166667 9.43333333,4.91666667 16.6666667,4.91666667 C23.9,4.91666667 30,11.0166667 30,18.25 L30,20.6333333 C30,21.95 28.8166667,23.25 27.5,23.25 C26.1833333,23.25 25,21.95 25,20.6333333 L25,18.25 C25,13.65 21.2666667,9.91666667 16.6666667,9.91666667 C12.0666667,9.91666667 8.33333333,13.65 8.33333333,18.25 C8.33333333,22.85 12.0666667,26.5833333 16.6666667,26.5833333 C18.9666667,26.5833333 21.0666667,25.65 22.5666667,24.1333333 C23.65,25.6166667 25.5166667,26.5833333 27.5,26.5833333 C30.7833333,26.5833333 33.3333333,23.9166667 33.3333333,20.6333333 L33.3333333,18.25 C33.3333333,9.05 25.8666667,1.58333333 16.6666667,1.58333333 Z M16.6666667,23.25 C13.9,23.25 11.6666667,21.0166667 11.6666667,18.25 C11.6666667,15.4833333 13.9,13.25 16.6666667,13.25 C19.4333333,13.25 21.6666667,15.4833333 21.6666667,18.25 C21.6666667,21.0166667 19.4333333,23.25 16.6666667,23.25 Z" id="path-1"></path>
    </defs>
    <g id="D_2.1_Subpages_desktop" stroke="none" stroke-width="1" fill="none" fill-rule="evenodd">
        <g id="D_5.0.0.0_Subpage_professional" transform="translate(-205.000000, -2362.000000)">
            <g id="Group-2" transform="translate(202.000000, 2359.000000)">
                <g id="Icon/email">
                    <g id="Bounding_Boxes">
                        <polygon id="Shape" points="0 0 40 0 40 40 0 40"></polygon>
                    </g>
                    <g id="color/active" transform="translate(3.333333, 1.666667)">
                        <mask id="mask-2" fill="white">
                            <use xlink:href="#path-1"></use>
                        </mask>
                        <use id="Mask" fill-opacity="0.9" fill="#000000" fill-rule="nonzero" xlink:href="#path-1"></use>
                        <g id="color/white" mask="url(#mask-2)" fill="#FFFFFF" fill-rule="nonzero">
                            <g transform="translate(-3.333333, -1.666667)" id="Rectangle-27">
                                <rect x="0" y="0" width="40" height="40"></rect>
                            </g>
                        </g>
                    </g>
                </g>
            </g>
        </g>
    </g>
</svg>