<?xml version="1.0" encoding="UTF-8"?>
<svg width="30px" height="30px" viewBox="0 0 30 30" version="1.1" xmlns="http://www.w3.org/2000/svg" xmlns:xlink="http://www.w3.org/1999/xlink">
    <!-- Generator: Sketch 52.5 (67469) - http://www.bohemiancoding.com/sketch -->
    <title>Icon/phone</title>
    <desc>Created with Sketch.</desc>
    <defs>
        <path d="M5.9,3.33333333 C6,4.81666667 6.25,6.26666667 6.65,7.65 L4.65,9.65 C3.96666667,7.65 3.53333333,5.53333333 3.38333333,3.33333333 L5.9,3.33333333 Z M22.3333333,23.3666667 C23.75,23.7666667 25.2,24.0166667 26.6666667,24.1166667 L26.6666667,26.6 C24.4666667,26.45 22.35,26.0166667 20.3333333,25.35 L22.3333333,23.3666667 Z M7.5,0 L1.66666667,0 C0.75,0 0,0.75 0,1.66666667 C0,17.3166667 12.6833333,30 28.3333333,30 C29.25,30 30,29.25 30,28.3333333 L30,22.5166667 C30,21.6 29.25,20.85 28.3333333,20.85 C26.2666667,20.85 24.25,20.5166667 22.3833333,19.9 C22.2166667,19.8333333 22.0333333,19.8166667 21.8666667,19.8166667 C21.4333333,19.8166667 21.0166667,19.9833333 20.6833333,20.3 L17.0166667,23.9666667 C12.3,21.55 8.43333333,17.7 6.03333333,12.9833333 L9.7,9.31666667 C10.1666667,8.85 10.3,8.2 10.1166667,7.61666667 C9.5,5.75 9.16666667,3.75 9.16666667,1.66666667 C9.16666667,0.75 8.41666667,0 7.5,0 Z" id="path-1"></path>
    </defs>
    <g id="D_2.1_Subpages_desktop" stroke="none" stroke-width="1" fill="none" fill-rule="evenodd">
        <g id="D_5.0.0.0_Subpage_professional" transform="translate(-1164.000000, -2372.000000)">
            <g id="Group-3" transform="translate(1159.000000, 2367.000000)">
                <g id="Icon/phone">
                    <g id="Bounding_Boxes">
                        <polygon id="Shape" points="0 0 40 0 40 40 0 40"></polygon>
                    </g>
                    <g id="color/active" transform="translate(5.000000, 5.000000)">
                        <mask id="mask-2" fill="white">
                            <use xlink:href="#path-1"></use>
                        </mask>
                        <use id="Mask" fill="#000000" fill-rule="nonzero" xlink:href="#path-1"></use>
                        <g id="color/white" mask="url(#mask-2)" fill="#FFFFFF" fill-rule="nonzero">
                            <g transform="translate(-5.000000, -5.000000)" id="Rectangle-27">
                                <rect x="0" y="0" width="40" height="40"></rect>
                            </g>
                        </g>
                    </g>
                </g>
            </g>
        </g>
    </g>
</svg>