<?xml version="1.0" encoding="UTF-8"?>
<svg width="54px" height="54px" viewBox="0 0 54 54" version="1.1" xmlns="http://www.w3.org/2000/svg" xmlns:xlink="http://www.w3.org/1999/xlink">
    <!-- Generator: Sketch 52.4 (67378) - http://www.bohemiancoding.com/sketch -->
    <title>Icon/email</title>
    <desc>Created with Sketch.</desc>
    <defs>
        <path d="M26.6666667,2.53333333 C11.9466667,2.53333333 0,14.48 0,29.2 C0,43.92 11.9466667,55.8666667 26.6666667,55.8666667 L40,55.8666667 L40,50.5333333 L26.6666667,50.5333333 C15.0933333,50.5333333 5.33333333,40.7733333 5.33333333,29.2 C5.33333333,17.6266667 15.0933333,7.86666667 26.6666667,7.86666667 C38.24,7.86666667 48,17.6266667 48,29.2 L48,33.0133333 C48,35.12 46.1066667,37.2 44,37.2 C41.8933333,37.2 40,35.12 40,33.0133333 L40,29.2 C40,21.84 34.0266667,15.8666667 26.6666667,15.8666667 C19.3066667,15.8666667 13.3333333,21.84 13.3333333,29.2 C13.3333333,36.56 19.3066667,42.5333333 26.6666667,42.5333333 C30.3466667,42.5333333 33.7066667,41.04 36.1066667,38.6133333 C37.84,40.9866667 40.8266667,42.5333333 44,42.5333333 C49.2533333,42.5333333 53.3333333,38.2666667 53.3333333,33.0133333 L53.3333333,29.2 C53.3333333,14.48 41.3866667,2.53333333 26.6666667,2.53333333 Z M26.6666667,37.2 C22.24,37.2 18.6666667,33.6266667 18.6666667,29.2 C18.6666667,24.7733333 22.24,21.2 26.6666667,21.2 C31.0933333,21.2 34.6666667,24.7733333 34.6666667,29.2 C34.6666667,33.6266667 31.0933333,37.2 26.6666667,37.2 Z" id="path-1"></path>
    </defs>
    <g id="D_2.1_Subpages_desktop" stroke="none" stroke-width="1" fill="none" fill-rule="evenodd">
        <g id="D_3.0.0.0_Subpage_mortgage" transform="translate(-1288.000000, -4708.000000)">
            <g id="Mail" transform="translate(1256.000000, 4676.000000)">
                <g id="Icon/email" transform="translate(27.000000, 27.000000)">
                    <g id="Bounding_Boxes">
                        <polygon id="Shape" points="0 0 64 0 64 64 0 64"></polygon>
                    </g>
                    <g id="color/active" transform="translate(5.333333, 2.666667)">
                        <mask id="mask-2" fill="white">
                            <use xlink:href="#path-1"></use>
                        </mask>
                        <use id="Mask" fill-opacity="0.9" fill="#000000" fill-rule="nonzero" xlink:href="#path-1"></use>
                        <g id="color/brand/dark" mask="url(#mask-2)" fill="#003C47">
                            <g transform="translate(-5.333333, -2.666667)" id="Rectangle-19">
                                <rect x="-0.222222222" y="0" width="64.2222222" height="64"></rect>
                            </g>
                        </g>
                    </g>
                </g>
            </g>
        </g>
    </g>
</svg>