<?xml version="1.0" encoding="UTF-8"?>
<svg width="273px" height="450px" viewBox="0 0 273 450" version="1.1" xmlns="http://www.w3.org/2000/svg" xmlns:xlink="http://www.w3.org/1999/xlink">
    <!-- Generator: Sketch 52.4 (67378) - http://www.bohemiancoding.com/sketch -->
    <title>Iconpart 4</title>
    <desc>Created with Sketch.</desc>
    <g id="A_1.2_Startpage" stroke="none" stroke-width="1" fill="none" fill-rule="evenodd" opacity="0.388974144">
        <g id="A_1.0.0.0_Startpage" transform="translate(-1626.000000, -3776.000000)" fill="#09DDC7">
            <path d="M1759.61513,4223.99999 C1751.81536,4223.99506 1743.9171,4221.99779 1736.6836,4217.80107 C1655.6871,4170.8826 1614.06369,4079.52128 1630.65791,3985.05804 C1647.25704,3890.57507 1717.52886,3818.90037 1809.67844,3802.46362 C1861.60306,3793.19237 1915.38407,3802.68061 1961.10433,3829.16286 C1983.07073,3841.89111 1990.57506,3870.04022 1977.87581,3892.03973 C1965.16671,3914.0343 1937.05011,3921.54501 1915.09355,3908.83155 C1888.13411,3893.21343 1856.43276,3887.62602 1825.79009,3893.07535 C1760.58025,3904.70387 1728.98724,3956.4503 1721.16284,4001.00164 C1713.34337,4045.53325 1725.39757,4104.94326 1782.69438,4138.14718 C1804.65586,4150.86557 1812.16511,4179.01961 1799.45601,4201.01418 C1790.94225,4215.76929 1775.4855,4224.00985 1759.61513,4223.99999" id="Iconpart-4" transform="translate(1805.553895, 4011.500000) rotate(-29.000000) translate(-1805.553895, -4011.500000) "></path>
        </g>
    </g>
</svg>