<?xml version="1.0" encoding="UTF-8"?>
<svg width="20px" height="20px" viewBox="0 0 20 20" version="1.1" xmlns="http://www.w3.org/2000/svg" xmlns:xlink="http://www.w3.org/1999/xlink">
    <!-- Generator: Sketch 53 (72520) - https://sketchapp.com -->
    <title>Icon/mobilenav/search</title>
    <desc>Created with Sketch.</desc>
    <defs>
        <path d="M15.8888889,14.2222222 L15.0111111,14.2222222 L14.7,13.9222222 C15.7888889,12.6555556 16.4444444,11.0111111 16.4444444,9.22222222 C16.4444444,5.23333333 13.2111111,2 9.22222222,2 C5.23333333,2 2,5.23333333 2,9.22222222 C2,13.2111111 5.23333333,16.4444444 9.22222222,16.4444444 C11.0111111,16.4444444 12.6555556,15.7888889 13.9222222,14.7 L14.2222222,15.0111111 L14.2222222,15.8888889 L19.7777778,21.4333333 L21.4333333,19.7777778 L15.8888889,14.2222222 Z M9.22222222,14.2222222 C6.45555556,14.2222222 4.22222222,11.9888889 4.22222222,9.22222222 C4.22222222,6.45555556 6.45555556,4.22222222 9.22222222,4.22222222 C11.9888889,4.22222222 14.2222222,6.45555556 14.2222222,9.22222222 C14.2222222,11.9888889 11.9888889,14.2222222 9.22222222,14.2222222 Z" id="path-1"></path>
    </defs>
    <g id="Symbols" stroke="none" stroke-width="1" fill="none" fill-rule="evenodd">
        <g id="Nav/mobile/navbar/search" transform="translate(-233.000000, -14.000000)">
            <g id="Icon/mobilenav/search" transform="translate(231.000000, 12.000000)">
                <g id="Bounding_Boxes" stroke-width="1" fill-rule="evenodd">
                    <polygon id="Shape" points="0 0 24 0 24 24 0 24"></polygon>
                </g>
                <mask id="mask-2" fill="white">
                    <use xlink:href="#path-1"></use>
                </mask>
                <use id="Mask" fill="#23C1CF" fill-rule="nonzero" xlink:href="#path-1"></use>
                <g id="color/clicked" mask="url(#mask-2)" fill="#07B09F" fill-rule="evenodd">
                    <rect id="Rectangle-25" x="0" y="0" width="24.0833333" height="24"></rect>
                </g>
            </g>
        </g>
    </g>
</svg>